G04 EAGLE Gerber RS-274X export*
G75*
%MOMM*%
%FSLAX34Y34*%
%LPD*%
%INMechanical*%
%IPPOS*%
%AMOC8*
5,1,8,0,0,1.08239X$1,22.5*%
G01*
%ADD10C,0.000000*%
%ADD11C,0.254000*%


D10*
X0Y0D02*
X176330Y0D01*
X176330Y144020D01*
X0Y144020D01*
X0Y0D01*
X123700Y26670D02*
X123705Y27063D01*
X123719Y27455D01*
X123743Y27847D01*
X123777Y28238D01*
X123820Y28629D01*
X123873Y29018D01*
X123936Y29405D01*
X124007Y29791D01*
X124089Y30176D01*
X124179Y30558D01*
X124280Y30937D01*
X124389Y31315D01*
X124508Y31689D01*
X124635Y32060D01*
X124772Y32428D01*
X124918Y32793D01*
X125073Y33154D01*
X125236Y33511D01*
X125408Y33864D01*
X125589Y34212D01*
X125779Y34556D01*
X125976Y34896D01*
X126182Y35230D01*
X126396Y35559D01*
X126619Y35883D01*
X126849Y36201D01*
X127086Y36514D01*
X127332Y36820D01*
X127585Y37121D01*
X127845Y37415D01*
X128112Y37703D01*
X128386Y37984D01*
X128667Y38258D01*
X128955Y38525D01*
X129249Y38785D01*
X129550Y39038D01*
X129856Y39284D01*
X130169Y39521D01*
X130487Y39751D01*
X130811Y39974D01*
X131140Y40188D01*
X131474Y40394D01*
X131814Y40591D01*
X132158Y40781D01*
X132506Y40962D01*
X132859Y41134D01*
X133216Y41297D01*
X133577Y41452D01*
X133942Y41598D01*
X134310Y41735D01*
X134681Y41862D01*
X135055Y41981D01*
X135433Y42090D01*
X135812Y42191D01*
X136194Y42281D01*
X136579Y42363D01*
X136965Y42434D01*
X137352Y42497D01*
X137741Y42550D01*
X138132Y42593D01*
X138523Y42627D01*
X138915Y42651D01*
X139307Y42665D01*
X139700Y42670D01*
X140093Y42665D01*
X140485Y42651D01*
X140877Y42627D01*
X141268Y42593D01*
X141659Y42550D01*
X142048Y42497D01*
X142435Y42434D01*
X142821Y42363D01*
X143206Y42281D01*
X143588Y42191D01*
X143967Y42090D01*
X144345Y41981D01*
X144719Y41862D01*
X145090Y41735D01*
X145458Y41598D01*
X145823Y41452D01*
X146184Y41297D01*
X146541Y41134D01*
X146894Y40962D01*
X147242Y40781D01*
X147586Y40591D01*
X147926Y40394D01*
X148260Y40188D01*
X148589Y39974D01*
X148913Y39751D01*
X149231Y39521D01*
X149544Y39284D01*
X149850Y39038D01*
X150151Y38785D01*
X150445Y38525D01*
X150733Y38258D01*
X151014Y37984D01*
X151288Y37703D01*
X151555Y37415D01*
X151815Y37121D01*
X152068Y36820D01*
X152314Y36514D01*
X152551Y36201D01*
X152781Y35883D01*
X153004Y35559D01*
X153218Y35230D01*
X153424Y34896D01*
X153621Y34556D01*
X153811Y34212D01*
X153992Y33864D01*
X154164Y33511D01*
X154327Y33154D01*
X154482Y32793D01*
X154628Y32428D01*
X154765Y32060D01*
X154892Y31689D01*
X155011Y31315D01*
X155120Y30937D01*
X155221Y30558D01*
X155311Y30176D01*
X155393Y29791D01*
X155464Y29405D01*
X155527Y29018D01*
X155580Y28629D01*
X155623Y28238D01*
X155657Y27847D01*
X155681Y27455D01*
X155695Y27063D01*
X155700Y26670D01*
X155695Y26277D01*
X155681Y25885D01*
X155657Y25493D01*
X155623Y25102D01*
X155580Y24711D01*
X155527Y24322D01*
X155464Y23935D01*
X155393Y23549D01*
X155311Y23164D01*
X155221Y22782D01*
X155120Y22403D01*
X155011Y22025D01*
X154892Y21651D01*
X154765Y21280D01*
X154628Y20912D01*
X154482Y20547D01*
X154327Y20186D01*
X154164Y19829D01*
X153992Y19476D01*
X153811Y19128D01*
X153621Y18784D01*
X153424Y18444D01*
X153218Y18110D01*
X153004Y17781D01*
X152781Y17457D01*
X152551Y17139D01*
X152314Y16826D01*
X152068Y16520D01*
X151815Y16219D01*
X151555Y15925D01*
X151288Y15637D01*
X151014Y15356D01*
X150733Y15082D01*
X150445Y14815D01*
X150151Y14555D01*
X149850Y14302D01*
X149544Y14056D01*
X149231Y13819D01*
X148913Y13589D01*
X148589Y13366D01*
X148260Y13152D01*
X147926Y12946D01*
X147586Y12749D01*
X147242Y12559D01*
X146894Y12378D01*
X146541Y12206D01*
X146184Y12043D01*
X145823Y11888D01*
X145458Y11742D01*
X145090Y11605D01*
X144719Y11478D01*
X144345Y11359D01*
X143967Y11250D01*
X143588Y11149D01*
X143206Y11059D01*
X142821Y10977D01*
X142435Y10906D01*
X142048Y10843D01*
X141659Y10790D01*
X141268Y10747D01*
X140877Y10713D01*
X140485Y10689D01*
X140093Y10675D01*
X139700Y10670D01*
X139307Y10675D01*
X138915Y10689D01*
X138523Y10713D01*
X138132Y10747D01*
X137741Y10790D01*
X137352Y10843D01*
X136965Y10906D01*
X136579Y10977D01*
X136194Y11059D01*
X135812Y11149D01*
X135433Y11250D01*
X135055Y11359D01*
X134681Y11478D01*
X134310Y11605D01*
X133942Y11742D01*
X133577Y11888D01*
X133216Y12043D01*
X132859Y12206D01*
X132506Y12378D01*
X132158Y12559D01*
X131814Y12749D01*
X131474Y12946D01*
X131140Y13152D01*
X130811Y13366D01*
X130487Y13589D01*
X130169Y13819D01*
X129856Y14056D01*
X129550Y14302D01*
X129249Y14555D01*
X128955Y14815D01*
X128667Y15082D01*
X128386Y15356D01*
X128112Y15637D01*
X127845Y15925D01*
X127585Y16219D01*
X127332Y16520D01*
X127086Y16826D01*
X126849Y17139D01*
X126619Y17457D01*
X126396Y17781D01*
X126182Y18110D01*
X125976Y18444D01*
X125779Y18784D01*
X125589Y19128D01*
X125408Y19476D01*
X125236Y19829D01*
X125073Y20186D01*
X124918Y20547D01*
X124772Y20912D01*
X124635Y21280D01*
X124508Y21651D01*
X124389Y22025D01*
X124280Y22403D01*
X124179Y22782D01*
X124089Y23164D01*
X124007Y23549D01*
X123936Y23935D01*
X123873Y24322D01*
X123820Y24711D01*
X123777Y25102D01*
X123743Y25493D01*
X123719Y25885D01*
X123705Y26277D01*
X123700Y26670D01*
D11*
X0Y0D02*
X176330Y0D01*
X176330Y144020D01*
X0Y144020D01*
X0Y0D01*
X155700Y26146D02*
X155632Y25101D01*
X155495Y24062D01*
X155290Y23035D01*
X155019Y22023D01*
X154683Y21031D01*
X154282Y20063D01*
X153818Y19124D01*
X153295Y18216D01*
X152713Y17345D01*
X152075Y16514D01*
X151384Y15727D01*
X150643Y14986D01*
X149856Y14295D01*
X149025Y13658D01*
X148154Y13076D01*
X147246Y12552D01*
X146307Y12088D01*
X145339Y11687D01*
X144347Y11351D01*
X143335Y11080D01*
X142308Y10875D01*
X141269Y10739D01*
X140224Y10670D01*
X139176Y10670D01*
X138131Y10739D01*
X137092Y10875D01*
X136065Y11080D01*
X135053Y11351D01*
X134061Y11687D01*
X133093Y12088D01*
X132154Y12552D01*
X131246Y13076D01*
X130375Y13658D01*
X129544Y14295D01*
X128757Y14986D01*
X128016Y15727D01*
X127325Y16514D01*
X126688Y17345D01*
X126106Y18216D01*
X125582Y19124D01*
X125118Y20063D01*
X124717Y21031D01*
X124381Y22023D01*
X124110Y23035D01*
X123905Y24062D01*
X123769Y25101D01*
X123700Y26146D01*
X123700Y27194D01*
X123769Y28239D01*
X123905Y29278D01*
X124110Y30305D01*
X124381Y31317D01*
X124717Y32309D01*
X125118Y33277D01*
X125582Y34216D01*
X126106Y35124D01*
X126688Y35995D01*
X127325Y36826D01*
X128016Y37613D01*
X128757Y38354D01*
X129544Y39045D01*
X130375Y39683D01*
X131246Y40265D01*
X132154Y40788D01*
X133093Y41252D01*
X134061Y41653D01*
X135053Y41989D01*
X136065Y42260D01*
X137092Y42465D01*
X138131Y42602D01*
X139176Y42670D01*
X140224Y42670D01*
X141269Y42602D01*
X142308Y42465D01*
X143335Y42260D01*
X144347Y41989D01*
X145339Y41653D01*
X146307Y41252D01*
X147246Y40788D01*
X148154Y40265D01*
X149025Y39683D01*
X149856Y39045D01*
X150643Y38354D01*
X151384Y37613D01*
X152075Y36826D01*
X152713Y35995D01*
X153295Y35124D01*
X153818Y34216D01*
X154282Y33277D01*
X154683Y32309D01*
X155019Y31317D01*
X155290Y30305D01*
X155495Y29278D01*
X155632Y28239D01*
X155700Y27194D01*
X155700Y26146D01*
M02*
