G04 EAGLE Gerber RS-274X export*
G75*
%MOMM*%
%FSLAX34Y34*%
%LPD*%
%INTop Silkscreen*%
%IPPOS*%
%AMOC8*
5,1,8,0,0,1.08239X$1,22.5*%
G01*
%ADD10C,0.127000*%
%ADD11C,0.152400*%
%ADD12C,0.101600*%


D10*
X144780Y96520D02*
X144780Y55880D01*
X124460Y55880D01*
X124460Y96520D01*
X144780Y96520D01*
D11*
X156718Y84600D02*
X156718Y82681D01*
X156716Y82595D01*
X156710Y82509D01*
X156701Y82423D01*
X156687Y82338D01*
X156670Y82254D01*
X156649Y82170D01*
X156624Y82088D01*
X156596Y82007D01*
X156564Y81927D01*
X156528Y81848D01*
X156489Y81772D01*
X156446Y81697D01*
X156401Y81624D01*
X156352Y81553D01*
X156299Y81485D01*
X156244Y81418D01*
X156186Y81355D01*
X156125Y81294D01*
X156062Y81236D01*
X155995Y81181D01*
X155927Y81129D01*
X155856Y81079D01*
X155783Y81034D01*
X155708Y80991D01*
X155632Y80952D01*
X155553Y80916D01*
X155473Y80884D01*
X155392Y80856D01*
X155310Y80831D01*
X155226Y80810D01*
X155142Y80793D01*
X155057Y80779D01*
X154971Y80770D01*
X154885Y80764D01*
X154799Y80762D01*
X150001Y80762D01*
X149915Y80764D01*
X149829Y80770D01*
X149743Y80779D01*
X149658Y80793D01*
X149574Y80810D01*
X149490Y80831D01*
X149408Y80856D01*
X149327Y80884D01*
X149247Y80916D01*
X149168Y80952D01*
X149092Y80991D01*
X149017Y81034D01*
X148944Y81079D01*
X148873Y81128D01*
X148805Y81181D01*
X148738Y81236D01*
X148675Y81294D01*
X148614Y81355D01*
X148556Y81418D01*
X148501Y81485D01*
X148449Y81553D01*
X148399Y81624D01*
X148354Y81697D01*
X148311Y81772D01*
X148272Y81848D01*
X148236Y81927D01*
X148204Y82007D01*
X148176Y82088D01*
X148151Y82170D01*
X148130Y82254D01*
X148113Y82338D01*
X148099Y82423D01*
X148090Y82509D01*
X148084Y82595D01*
X148082Y82681D01*
X148082Y84600D01*
X150001Y88420D02*
X148082Y90819D01*
X156718Y90819D01*
X156718Y88420D02*
X156718Y93218D01*
X30310Y83533D02*
X22182Y83533D01*
X22182Y89121D01*
X22182Y111981D02*
X30310Y111981D01*
X22182Y111981D02*
X22182Y106393D01*
D12*
X9177Y79185D02*
X-2527Y79185D01*
X-2527Y82436D01*
X-2525Y82547D01*
X-2519Y82658D01*
X-2510Y82768D01*
X-2497Y82879D01*
X-2480Y82988D01*
X-2459Y83097D01*
X-2435Y83206D01*
X-2406Y83313D01*
X-2375Y83419D01*
X-2339Y83525D01*
X-2300Y83629D01*
X-2258Y83731D01*
X-2212Y83832D01*
X-2163Y83932D01*
X-2110Y84029D01*
X-2054Y84125D01*
X-1994Y84219D01*
X-1932Y84311D01*
X-1866Y84400D01*
X-1798Y84488D01*
X-1726Y84573D01*
X-1652Y84655D01*
X-1575Y84735D01*
X-1495Y84812D01*
X-1413Y84886D01*
X-1328Y84958D01*
X-1240Y85026D01*
X-1151Y85092D01*
X-1059Y85154D01*
X-965Y85214D01*
X-869Y85270D01*
X-772Y85323D01*
X-672Y85372D01*
X-571Y85418D01*
X-469Y85460D01*
X-365Y85499D01*
X-259Y85535D01*
X-153Y85566D01*
X-46Y85595D01*
X63Y85619D01*
X172Y85640D01*
X281Y85657D01*
X392Y85670D01*
X502Y85679D01*
X613Y85685D01*
X724Y85687D01*
X5926Y85687D01*
X6037Y85685D01*
X6148Y85679D01*
X6258Y85670D01*
X6369Y85657D01*
X6478Y85640D01*
X6587Y85619D01*
X6696Y85595D01*
X6803Y85566D01*
X6909Y85535D01*
X7015Y85499D01*
X7119Y85460D01*
X7221Y85418D01*
X7322Y85372D01*
X7422Y85323D01*
X7519Y85270D01*
X7615Y85214D01*
X7709Y85154D01*
X7801Y85092D01*
X7890Y85026D01*
X7978Y84958D01*
X8063Y84886D01*
X8145Y84812D01*
X8225Y84735D01*
X8302Y84655D01*
X8376Y84573D01*
X8448Y84488D01*
X8516Y84400D01*
X8582Y84311D01*
X8644Y84219D01*
X8704Y84125D01*
X8760Y84029D01*
X8813Y83932D01*
X8862Y83832D01*
X8908Y83731D01*
X8950Y83629D01*
X8989Y83525D01*
X9025Y83419D01*
X9056Y83313D01*
X9085Y83206D01*
X9109Y83097D01*
X9130Y82988D01*
X9147Y82879D01*
X9160Y82768D01*
X9169Y82658D01*
X9175Y82547D01*
X9177Y82436D01*
X9177Y79185D01*
X74Y91014D02*
X-2527Y94265D01*
X9177Y94265D01*
X9177Y91014D02*
X9177Y97517D01*
D10*
X30480Y62230D02*
X30480Y21590D01*
X30480Y62230D02*
X50800Y62230D01*
X50800Y21590D01*
X30480Y21590D01*
D11*
X27178Y24892D02*
X18542Y24892D01*
X18542Y27291D01*
X18544Y27388D01*
X18550Y27484D01*
X18559Y27580D01*
X18573Y27676D01*
X18590Y27771D01*
X18612Y27865D01*
X18637Y27958D01*
X18665Y28051D01*
X18698Y28142D01*
X18734Y28231D01*
X18774Y28319D01*
X18817Y28406D01*
X18863Y28491D01*
X18913Y28573D01*
X18967Y28654D01*
X19023Y28732D01*
X19083Y28808D01*
X19145Y28882D01*
X19211Y28953D01*
X19279Y29021D01*
X19350Y29087D01*
X19424Y29149D01*
X19500Y29209D01*
X19578Y29265D01*
X19659Y29319D01*
X19742Y29369D01*
X19826Y29415D01*
X19913Y29458D01*
X20001Y29498D01*
X20090Y29534D01*
X20181Y29567D01*
X20274Y29595D01*
X20367Y29620D01*
X20461Y29642D01*
X20556Y29659D01*
X20652Y29673D01*
X20748Y29682D01*
X20844Y29688D01*
X20941Y29690D01*
X21038Y29688D01*
X21134Y29682D01*
X21230Y29673D01*
X21326Y29659D01*
X21421Y29642D01*
X21515Y29620D01*
X21608Y29595D01*
X21701Y29567D01*
X21792Y29534D01*
X21881Y29498D01*
X21969Y29458D01*
X22056Y29415D01*
X22141Y29369D01*
X22223Y29319D01*
X22304Y29265D01*
X22382Y29209D01*
X22458Y29149D01*
X22532Y29087D01*
X22603Y29021D01*
X22671Y28953D01*
X22737Y28882D01*
X22799Y28808D01*
X22859Y28732D01*
X22915Y28654D01*
X22969Y28573D01*
X23019Y28491D01*
X23065Y28406D01*
X23108Y28319D01*
X23148Y28231D01*
X23184Y28142D01*
X23217Y28051D01*
X23245Y27958D01*
X23270Y27865D01*
X23292Y27771D01*
X23309Y27676D01*
X23323Y27580D01*
X23332Y27484D01*
X23338Y27388D01*
X23340Y27291D01*
X23340Y24892D01*
X23340Y27771D02*
X27178Y29690D01*
X20461Y33951D02*
X18542Y36350D01*
X27178Y36350D01*
X27178Y33951D02*
X27178Y38749D01*
D10*
X58420Y35560D02*
X99060Y35560D01*
X99060Y15240D01*
X58420Y15240D01*
X58420Y35560D01*
D11*
X61722Y41261D02*
X61722Y47498D01*
X61722Y41261D02*
X61724Y41164D01*
X61730Y41068D01*
X61739Y40972D01*
X61753Y40876D01*
X61770Y40781D01*
X61792Y40687D01*
X61817Y40594D01*
X61845Y40501D01*
X61878Y40410D01*
X61914Y40321D01*
X61954Y40233D01*
X61997Y40146D01*
X62043Y40062D01*
X62093Y39979D01*
X62147Y39898D01*
X62203Y39820D01*
X62263Y39744D01*
X62325Y39670D01*
X62391Y39599D01*
X62459Y39531D01*
X62530Y39465D01*
X62604Y39403D01*
X62680Y39343D01*
X62758Y39287D01*
X62839Y39233D01*
X62921Y39183D01*
X63006Y39137D01*
X63093Y39094D01*
X63181Y39054D01*
X63270Y39018D01*
X63361Y38985D01*
X63454Y38957D01*
X63547Y38932D01*
X63641Y38910D01*
X63736Y38893D01*
X63832Y38879D01*
X63928Y38870D01*
X64024Y38864D01*
X64121Y38862D01*
X64218Y38864D01*
X64314Y38870D01*
X64410Y38879D01*
X64506Y38893D01*
X64601Y38910D01*
X64695Y38932D01*
X64788Y38957D01*
X64881Y38985D01*
X64972Y39018D01*
X65061Y39054D01*
X65149Y39094D01*
X65236Y39137D01*
X65320Y39183D01*
X65403Y39233D01*
X65484Y39287D01*
X65562Y39343D01*
X65638Y39403D01*
X65712Y39465D01*
X65783Y39531D01*
X65851Y39599D01*
X65917Y39670D01*
X65979Y39744D01*
X66039Y39820D01*
X66095Y39898D01*
X66149Y39979D01*
X66199Y40061D01*
X66245Y40146D01*
X66288Y40233D01*
X66328Y40321D01*
X66364Y40410D01*
X66397Y40501D01*
X66425Y40594D01*
X66450Y40687D01*
X66472Y40781D01*
X66489Y40876D01*
X66503Y40972D01*
X66512Y41068D01*
X66518Y41164D01*
X66520Y41261D01*
X66520Y47498D01*
X72960Y47498D02*
X72960Y38862D01*
X72960Y43180D02*
X71761Y43900D01*
X71697Y43941D01*
X71636Y43984D01*
X71577Y44031D01*
X71520Y44081D01*
X71467Y44134D01*
X71416Y44190D01*
X71368Y44248D01*
X71323Y44309D01*
X71281Y44372D01*
X71243Y44437D01*
X71209Y44504D01*
X71178Y44572D01*
X71150Y44643D01*
X71126Y44714D01*
X71106Y44787D01*
X71090Y44861D01*
X71078Y44935D01*
X71070Y45010D01*
X71066Y45085D01*
X71065Y45161D01*
X71069Y45236D01*
X71077Y45311D01*
X71088Y45385D01*
X71104Y45459D01*
X71123Y45532D01*
X71146Y45604D01*
X71173Y45674D01*
X71203Y45743D01*
X71237Y45810D01*
X71275Y45876D01*
X71316Y45939D01*
X71360Y46000D01*
X71408Y46059D01*
X71458Y46115D01*
X71511Y46168D01*
X71567Y46219D01*
X71626Y46266D01*
X71687Y46310D01*
X71750Y46351D01*
X71815Y46389D01*
X71883Y46423D01*
X71952Y46454D01*
X72022Y46481D01*
X72094Y46504D01*
X72167Y46523D01*
X72240Y46539D01*
X72241Y46538D02*
X72358Y46558D01*
X72477Y46574D01*
X72595Y46586D01*
X72714Y46594D01*
X72833Y46599D01*
X72952Y46600D01*
X73071Y46597D01*
X73190Y46591D01*
X73309Y46580D01*
X73427Y46567D01*
X73545Y46549D01*
X73662Y46528D01*
X73779Y46503D01*
X73895Y46474D01*
X74009Y46442D01*
X74123Y46406D01*
X74236Y46367D01*
X74347Y46324D01*
X74457Y46277D01*
X74565Y46228D01*
X74671Y46174D01*
X74776Y46118D01*
X74880Y46058D01*
X72960Y43180D02*
X74159Y42460D01*
X74223Y42419D01*
X74284Y42376D01*
X74343Y42329D01*
X74400Y42279D01*
X74453Y42226D01*
X74504Y42170D01*
X74552Y42112D01*
X74597Y42051D01*
X74639Y41988D01*
X74677Y41923D01*
X74711Y41856D01*
X74742Y41788D01*
X74770Y41717D01*
X74794Y41646D01*
X74814Y41573D01*
X74830Y41499D01*
X74842Y41425D01*
X74850Y41350D01*
X74854Y41275D01*
X74855Y41199D01*
X74851Y41124D01*
X74843Y41049D01*
X74832Y40975D01*
X74816Y40901D01*
X74797Y40828D01*
X74774Y40756D01*
X74747Y40686D01*
X74717Y40617D01*
X74683Y40550D01*
X74645Y40484D01*
X74604Y40421D01*
X74560Y40360D01*
X74512Y40301D01*
X74462Y40245D01*
X74409Y40192D01*
X74353Y40141D01*
X74294Y40094D01*
X74233Y40050D01*
X74170Y40009D01*
X74105Y39971D01*
X74037Y39937D01*
X73968Y39906D01*
X73898Y39879D01*
X73826Y39856D01*
X73753Y39837D01*
X73680Y39821D01*
X73563Y39801D01*
X73445Y39785D01*
X73326Y39773D01*
X73207Y39765D01*
X73088Y39760D01*
X72969Y39759D01*
X72850Y39762D01*
X72731Y39768D01*
X72612Y39779D01*
X72494Y39792D01*
X72376Y39810D01*
X72258Y39831D01*
X72142Y39856D01*
X72026Y39885D01*
X71912Y39917D01*
X71798Y39953D01*
X71685Y39992D01*
X71574Y40035D01*
X71464Y40082D01*
X71356Y40131D01*
X71249Y40185D01*
X71144Y40241D01*
X71041Y40301D01*
X79096Y45579D02*
X81494Y47498D01*
X81494Y38862D01*
X79096Y38862D02*
X83893Y38862D01*
M02*
