G04 EAGLE Gerber RS-274X export*
G75*
%MOMM*%
%FSLAX34Y34*%
%LPD*%
%INTop Copper*%
%IPPOS*%
%AMOC8*
5,1,8,0,0,1.08239X$1,22.5*%
G01*
%ADD10R,1.905000X1.270000*%
%ADD11R,1.400000X1.000000*%
%ADD12R,1.879600X1.879600*%
%ADD13C,1.879600*%
%ADD14R,1.270000X1.905000*%
%ADD15C,0.812800*%


D10*
X134620Y92710D03*
X134620Y59690D03*
D11*
X17786Y97790D03*
X39810Y107290D03*
X39810Y88290D03*
D12*
X93980Y59690D03*
D13*
X93980Y85090D03*
X93980Y110490D03*
D10*
X40640Y25400D03*
X40640Y58420D03*
D14*
X62230Y25400D03*
X95250Y25400D03*
D15*
X95250Y58420D01*
X17786Y97790D02*
X17786Y113036D01*
X34290Y129540D01*
X135890Y129540D01*
X161290Y104140D01*
X161290Y66040D01*
X154940Y59690D01*
X134620Y59690D01*
X93980Y59690D01*
X101600Y92710D02*
X134620Y92710D01*
X40640Y87460D02*
X40640Y58420D01*
X40640Y87460D02*
X39810Y88290D01*
X90780Y88290D02*
X93980Y85090D01*
X90780Y88290D02*
X39810Y88290D01*
X93980Y85090D02*
X101600Y92710D01*
X90780Y107290D02*
X39810Y107290D01*
X90780Y107290D02*
X93980Y110490D01*
X62230Y25400D02*
X40640Y25400D01*
M02*
