<?xml version="1.0" encoding="UTF-8" standalone="no"?>
<svg
   xmlns:dc="http://purl.org/dc/elements/1.1/"
   xmlns:cc="http://creativecommons.org/ns#"
   xmlns:rdf="http://www.w3.org/1999/02/22-rdf-syntax-ns#"
   xmlns:svg="http://www.w3.org/2000/svg"
   xmlns="http://www.w3.org/2000/svg"
   xmlns:sodipodi="http://sodipodi.sourceforge.net/DTD/sodipodi-0.dtd"
   xmlns:inkscape="http://www.inkscape.org/namespaces/inkscape"
   inkscape:version="1.0 (4035a4fb49, 2020-05-01)"
   sodipodi:docname="IHM_BUTTONS.svg"
   viewBox="0 0 162.24001 189.79268"
   height="189.79268"
   width="162.24001"
   xml:space="preserve"
   id="svg833"
   version="1.1"><metadata
     id="metadata839"><rdf:RDF><cc:Work
         rdf:about=""><dc:format>image/svg+xml</dc:format><dc:type
           rdf:resource="http://purl.org/dc/dcmitype/StillImage" /><dc:title></dc:title></cc:Work></rdf:RDF></metadata><defs
     id="defs837"><clipPath
       id="clipPath859"
       clipPathUnits="userSpaceOnUse"><path
         id="path857"
         clip-rule="evenodd"
         d="M 600,600 H 4350 V 6400 H 600 Z" /></clipPath><clipPath
       id="clipPath869"
       clipPathUnits="userSpaceOnUse"><path
         id="path867"
         clip-rule="evenodd"
         d="M 600,600 H 4350 V 6400 H 600 Z" /></clipPath><clipPath
       id="clipPath875"
       clipPathUnits="userSpaceOnUse"><path
         id="path873"
         clip-rule="evenodd"
         d="M 1793,2188 H 3156 V 4811 H 1793 Z" /></clipPath></defs><sodipodi:namedview
     fit-margin-bottom="0"
     fit-margin-right="0"
     fit-margin-left="0"
     fit-margin-top="0"
     inkscape:current-layer="g841"
     inkscape:window-maximized="1"
     inkscape:window-y="161"
     inkscape:window-x="1072"
     inkscape:cy="94.99011"
     inkscape:cx="93.049686"
     inkscape:zoom="4.1769808"
     showgrid="false"
     id="namedview835"
     inkscape:window-height="1017"
     inkscape:window-width="1920"
     inkscape:pageshadow="2"
     inkscape:pageopacity="0"
     guidetolerance="10"
     gridtolerance="10"
     objecttolerance="10"
     borderopacity="1"
     bordercolor="#666666"
     pagecolor="#ffffff" /><g
     transform="matrix(1.3333333,0,0,-1.3333333,-28.686869,514.05025)"
     inkscape:label="IHM_BUTTONS"
     inkscape:groupmode="layer"
     id="g841"><path
       id="path2497"
       d="m 21.515293,243.34079 1.4e-4,0.1476 0.0341,-0.072 c 0.04125,-0.0871 0.109034,-0.15394 0.196023,-0.19327 l 0.0648,-0.0293 -0.1476,-3.1e-4 -0.1476,-3.2e-4 z m 61.358261,-0.11767 c 0.105031,0.0475 0.184408,0.13661 0.216946,0.24358 0.0067,0.0221 0.01146,-0.0239 0.01222,-0.11871 l 0.0012,-0.1548 -0.1476,3.2e-4 -0.1476,3.1e-4 0.0648,0.0293 z m -60.609602,71.14207 v 70.42321 h 30.045601 30.045601 v -70.42321 -70.4232 H 52.309553 22.263952 Z m 7.364655,-68.19823 c 2.019285,0.23621 3.656291,1.77079 4.016761,3.76543 0.05764,0.31895 0.07254,0.49302 0.07209,0.8424 -4.27e-4,0.33263 -0.01226,0.47812 -0.06382,0.7848 -0.186705,1.11051 -0.784935,2.11665 -1.691281,2.84451 -0.248028,0.19918 -0.67534,0.45917 -0.966409,0.58799 -0.631294,0.27939 -1.221783,0.40362 -1.913591,0.40258 -0.357849,-5.3e-4 -0.555142,-0.0182 -0.867787,-0.0776 -1.866855,-0.35496 -3.34157,-1.84301 -3.680955,-3.71425 -0.05589,-0.30814 -0.07219,-0.50233 -0.07132,-0.8496 9.04e-4,-0.36138 0.02335,-0.58843 0.09107,-0.92109 0.254086,-1.24822 1.026931,-2.34651 2.12372,-3.01802 0.654701,-0.40083 1.360067,-0.61891 2.182072,-0.67464 0.140286,-0.01 0.590566,0.007 0.769455,0.0275 z m -0.883799,0.3823 c -1.015835,0.0906 -1.929461,0.51558 -2.643735,1.22985 -0.335776,0.33578 -0.597366,0.69912 -0.798636,1.10928 -0.226031,0.46062 -0.341234,0.8405 -0.412684,1.3608 -0.03411,0.24837 -0.03411,0.78844 0,1.0368 0.111126,0.80922 0.408738,1.51387 0.897086,2.124 1.130395,1.41229 3.035589,1.95105 4.735972,1.33926 1.859497,-0.66905 3.01016,-2.54741 2.764253,-4.51243 -0.177388,-1.41749 -1.075631,-2.66473 -2.361512,-3.27904 -0.439213,-0.20983 -0.824592,-0.32392 -1.3104,-0.38794 -0.211831,-0.0279 -0.667236,-0.0387 -0.870344,-0.0206 z m 47.382346,-0.40342 c 0.643684,0.0435 1.228739,0.20312 1.790915,0.48856 0.480354,0.2439 0.8629,0.52695 1.24117,0.91837 0.720388,0.74542 1.153027,1.66351 1.274046,2.70362 0.03102,0.26658 0.03097,0.75426 -1.44e-4,1.0224 -0.10789,0.93116 -0.467404,1.76573 -1.070049,2.484 -0.145947,0.17395 -0.457848,0.47747 -0.643715,0.62642 -0.457587,0.3667 -1.053001,0.67286 -1.62672,0.83645 -1.149619,0.3278 -2.423966,0.18636 -3.471149,-0.38527 -1.207474,-0.65913 -2.066314,-1.8178 -2.33116,-3.14499 -0.07154,-0.35849 -0.08649,-0.51894 -0.08645,-0.92781 0,-0.40712 0.01644,-0.58355 0.08634,-0.9288 0.192194,-0.94926 0.694314,-1.83503 1.409668,-2.48672 0.937723,-0.85428 2.177716,-1.29071 3.4272,-1.20623 z m -0.5616,0.39688 c -0.871243,0.0689 -1.611192,0.345 -2.2896,0.85429 -0.235262,0.17661 -0.577064,0.5089 -0.75644,0.73538 -1.231246,1.5546 -1.227533,3.72929 0.009,5.2848 0.136741,0.17201 0.517487,0.54655 0.698335,0.68695 0.608468,0.47236 1.337639,0.77132 2.122683,0.87029 0.21669,0.0273 0.781362,0.0234 1.0008,-0.007 0.401249,-0.0555 0.742981,-0.14512 1.08,-0.28333 1.351899,-0.55442 2.326426,-1.77141 2.568989,-3.20817 0.197084,-1.16738 -0.100649,-2.35935 -0.822589,-3.29322 -0.689272,-0.89161 -1.691588,-1.46497 -2.8192,-1.6127 -0.168876,-0.0221 -0.648712,-0.0387 -0.792,-0.0274 z m -30.569905,-0.12385 c 0.295447,0.0749 0.5395,0.27221 0.667914,0.53992 0.10945,0.22818 0.10119,-0.0449 0.10119,3.34532 v 3.04108 h 0.863846 0.863846 l 0.0038,-3.258 0.0038,-3.258 0.0432,-0.0781 c 0.04584,-0.0829 0.119521,-0.14599 0.206337,-0.17677 0.04096,-0.0145 0.231228,-0.0187 0.844863,-0.0187 h 0.792 l 0.0864,0.0432 c 0.09647,0.0482 0.169918,0.13227 0.1941,0.22208 0.01013,0.0376 0.0137,1.49818 0.01119,4.57499 l -0.0037,4.51973 -0.03114,0.0576 c -0.03671,0.0679 -0.107307,0.13736 -0.177661,0.17479 -0.0471,0.0251 -0.102087,0.0271 -0.840689,0.0309 -0.881123,0.005 -0.88837,0.004 -0.998031,-0.09 -0.03275,-0.028 -0.0747,-0.0817 -0.09321,-0.11933 -0.03071,-0.0624 -0.03411,-0.0908 -0.03866,-0.32396 l -0.005,-0.2556 h -0.863019 -0.86302 l 0.004,0.6588 0.004,0.6588 0.132677,0.31608 0.132676,0.31609 0.191324,0.1926 c 0.216554,0.21799 0.23441,0.22913 0.62948,0.39243 l 0.242889,0.1004 h 0.340484 c 0.405969,0 0.499771,0.0148 0.69927,0.1106 0.117825,0.0566 0.15485,0.0839 0.266938,0.19714 0.104281,0.10534 0.142103,0.15578 0.190338,0.25386 0.11451,0.23283 0.106279,-0.005 0.10576,3.05194 -4.61e-4,2.72936 -4.61e-4,2.72967 -0.03073,2.83743 -0.07962,0.28344 -0.283592,0.52919 -0.539503,0.64999 -0.151822,0.0717 -0.291645,0.099 -0.505807,0.099 h -0.191602 l -0.09257,0.0509 c -0.05091,0.028 -0.149957,0.0696 -0.220095,0.0925 -0.244848,0.0798 -0.264096,0.093 -0.540697,0.37102 l -0.254772,0.25602 -0.114685,0.2808 c -0.06308,0.15444 -0.122048,0.30672 -0.131047,0.3384 -0.01207,0.0425 -0.01525,0.99269 -0.01214,3.6216 l 0.0042,3.564 0.125029,0.27904 0.12503,0.27903 0.387136,0.39057 c 0.368754,0.37202 0.38996,0.39637 0.446534,0.51296 0.116021,0.23909 0.106005,-0.16611 0.105679,4.27496 -3.31e-4,4.4013 0.0081,4.02824 -0.0955,4.24782 -0.07049,0.14945 -0.09824,0.18213 -0.497036,0.58522 l -0.35616,0.36 -0.123955,0.28703 -0.123955,0.28702 v 3.55957 c 0,3.16474 0.0025,3.56655 0.02213,3.62257 0.01217,0.0347 0.07135,0.18289 0.131521,0.32941 0.108478,0.26417 0.110343,0.26741 0.22297,0.38647 0.261855,0.27683 0.352927,0.66953 0.235979,1.01753 -0.04943,0.14708 -0.09695,0.2293 -0.221275,0.38281 -0.120139,0.14834 -0.132284,0.17075 -0.182781,0.33719 -0.04165,0.1373 -0.07308,0.2064 -0.15678,0.34476 l -0.05176,0.0855 v 3.57638 3.57638 l 0.122776,0.29757 c 0.06753,0.16366 0.132632,0.31261 0.144679,0.331 0.01205,0.0184 0.06157,0.0626 0.11006,0.0983 0.04848,0.0357 0.215303,0.19259 0.370705,0.34867 0.260749,0.26188 0.287189,0.29322 0.342702,0.40617 0.115161,0.23433 0.10568,-0.15245 0.105665,4.31087 l -1.3e-5,3.99073 -0.02985,0.10554 c -0.05918,0.20923 -0.167886,0.37523 -0.355217,0.54246 -0.06211,0.0554 -0.203678,0.18437 -0.31461,0.2865 -0.110933,0.10214 -0.209684,0.19298 -0.219449,0.20187 -0.0098,0.009 -0.07612,0.15861 -0.147462,0.3327 l -0.129709,0.31653 -1.44e-4,3.57454 -1.44e-4,3.57453 0.13195,0.32067 0.131951,0.32067 0.110392,0.11716 c 0.133854,0.14206 0.217599,0.29464 0.260829,0.47521 0.05657,0.23631 0.01789,0.52095 -0.09834,0.72364 -0.05167,0.0901 -0.169464,0.23857 -0.221757,0.2795 -0.03367,0.0263 -0.07184,0.10355 -0.178916,0.3619 l -0.13611,0.32841 v 3.57651 3.57651 l 0.128966,0.31338 c 0.115098,0.27968 0.13572,0.31957 0.191775,0.37098 0.659751,0.60504 0.703028,0.65047 0.781976,0.8208 0.102563,0.22127 0.0943,-0.15532 0.09395,4.28232 -3.17e-4,3.99555 -3.31e-4,3.99773 -0.03006,4.10321 -0.05668,0.20114 -0.16914,0.37716 -0.333648,0.52223 -0.05025,0.0443 -0.198281,0.17909 -0.328961,0.29951 -0.266691,0.24575 -0.225876,0.18253 -0.418329,0.64788 l -0.08567,0.20715 v 3.57031 3.57031 l 0.129243,0.29542 c 0.126835,0.28991 0.131344,0.29764 0.241921,0.41445 0.187649,0.19824 0.272703,0.39921 0.287048,0.67825 0.005,0.0978 0.0015,0.19759 -0.0092,0.2592 -0.03491,0.2008 -0.14256,0.40496 -0.291999,0.55376 -0.09567,0.0953 -0.082,0.0696 -0.233818,0.43861 l -0.123159,0.29934 v 3.5687 3.56871 l 0.124998,0.29232 0.124999,0.29232 0.365341,0.36568 c 0.440224,0.44063 0.483805,0.499 0.55124,0.73824 0.02978,0.10567 0.02979,0.10599 0.03009,4.07457 3.46e-4,4.44137 0.01037,4.03582 -0.105741,4.27511 -0.05656,0.11655 -0.07782,0.14099 -0.445003,0.51143 l -0.385607,0.38902 -0.130159,0.29752 -0.13016,0.29751 v 3.56997 3.56998 l 0.09172,0.22188 c 0.176873,0.42787 0.183663,0.43863 0.437142,0.69284 l 0.225504,0.22615 0.297677,0.13025 0.297678,0.13025 h 2.501257 2.501257 l 0.311842,-0.12932 0.311842,-0.12932 0.235516,-0.23428 c 0.266645,-0.26525 0.274698,-0.27774 0.440463,-0.68361 l 0.0953,-0.23334 v -3.56381 -3.56381 l -0.102434,-0.23486 c -0.07555,-0.1732 -0.120223,-0.25564 -0.1702,-0.31405 -0.03727,-0.0436 -0.09418,-0.11808 -0.12646,-0.1656 -0.03228,-0.0475 -0.180873,-0.20684 -0.330201,-0.35404 -0.278459,-0.27448 -0.334332,-0.34629 -0.404356,-0.51965 -0.08012,-0.19836 -0.07668,0.003 -0.07255,-4.24586 l 0.0038,-3.92365 0.03404,-0.1008 c 0.08361,-0.24758 0.129266,-0.3089 0.541499,-0.7272 0.347631,-0.35275 0.347685,-0.35282 0.379073,-0.4536 0.01727,-0.0554 0.05732,-0.14292 0.089,-0.1944 0.03168,-0.0515 0.07875,-0.13572 0.104597,-0.1872 l 0.04699,-0.0936 0.0072,-1.7208 0.0072,-1.7208 0.03342,-0.0926 c 0.04011,-0.1111 0.07811,-0.18769 0.136268,-0.27463 0.02384,-0.0356 0.390694,-0.41474 0.815229,-0.84243 0.424536,-0.4277 0.804627,-0.82288 0.844646,-0.87817 0.04765,-0.0658 0.115138,-0.13292 0.195552,-0.19437 0.07962,-0.0608 0.723042,-0.6988 1.830183,-1.81463 0.939067,-0.94644 1.73395,-1.7532 1.766408,-1.7928 0.03246,-0.0396 0.09389,-0.10116 0.13653,-0.1368 0.04263,-0.0356 0.646913,-0.63855 1.342841,-1.3398 l 1.265323,-1.275 0.1872,-0.4602 0.1872,-0.4602 0.0072,-45.03601 0.0072,-45.036 0.03407,-0.1008 c 0.01874,-0.0554 0.05904,-0.15049 0.08957,-0.21122 l 0.0555,-0.11042 -1.87e-4,-4.69198 c -2.16e-4,-5.19659 -0.0085,-4.75169 0.09303,-4.96558 0.133469,-0.28104 0.373674,-0.47771 0.677124,-0.55441 0.111683,-0.0282 0.161356,-0.0288 2.5488,-0.0285 2.73147,2.7e-4 2.535633,-0.007 2.773259,0.10983 0.113277,0.0559 0.15811,0.0889 0.261069,0.19182 0.10427,0.10427 0.134903,0.14624 0.190055,0.2604 0.154293,0.31938 0.144959,0.66399 -0.02629,0.9704 -0.03583,0.0641 -0.119774,0.32884 -0.315996,0.99656 l -0.267193,0.90925 v 0.93968 0.93968 l 0.101633,0.34707 c 0.0559,0.19088 0.133254,0.45074 0.1719,0.57746 0.03865,0.12672 0.109982,0.36972 0.158523,0.54 l 0.08826,0.3096 0.188779,0.3456 c 0.103826,0.19008 0.22249,0.38988 0.263695,0.44401 0.08049,0.10572 0.137428,0.21214 0.18054,0.33745 0.01485,0.0432 0.07987,0.17538 0.144487,0.2938 l 0.117478,0.2153 0.678354,0.65355 0.678354,0.65355 0.792,0.47589 0.792,0.47589 0.5328,0.13773 c 0.29304,0.0757 0.59112,0.14992 0.6624,0.16483 0.07128,0.0149 0.15876,0.0376 0.1944,0.0504 0.03564,0.0128 0.15518,0.0456 0.265644,0.0729 l 0.200844,0.0495 h 0.901343 0.901342 l 0.244214,-0.0662 c 0.134316,-0.0364 0.331693,-0.0885 0.438613,-0.11572 0.344269,-0.0877 1.01055,-0.26486 1.1736,-0.31214 0.142577,-0.0413 0.17638,-0.0458 0.3384,-0.0445 0.153132,10e-4 0.197195,0.007 0.2952,0.0392 0.313679,0.10305 0.548263,0.33571 0.667722,0.66225 l 0.03788,0.10353 0.0042,55.5336 c 0.0031,41.08566 0,55.55609 -0.01202,55.62001 -0.06663,0.35539 -0.339637,0.66567 -0.685448,0.77901 -0.114233,0.0374 -0.147002,0.0418 -0.31471,0.0418 -0.17598,0 -0.200147,-0.004 -0.4032,-0.0605 -0.1188,-0.0333 -0.559656,-0.15151 -0.979681,-0.2628 l -0.763781,-0.2023 H 75.79908 74.852767 l -0.89156,0.22939 c -0.490359,0.12616 -0.91007,0.23895 -0.932693,0.25065 -0.02262,0.0117 -0.377962,0.22333 -0.789645,0.47029 -0.683005,0.40971 -0.759269,0.4593 -0.871391,0.56654 -0.06758,0.0646 -0.38016,0.36328 -0.69462,0.66364 l -0.571744,0.54612 -0.07808,0.15948 c -0.04295,0.0877 -0.09796,0.2021 -0.12225,0.25419 -0.02429,0.0521 -0.06854,0.1266 -0.09833,0.1656 -0.02979,0.039 -0.1722,0.28607 -0.31647,0.54906 -0.276087,0.50327 -0.278214,0.5083 -0.391656,0.92584 -0.0312,0.11484 -0.134842,0.47772 -0.230314,0.8064 l -0.173584,0.5976 -4.32e-4,0.91818 -4.32e-4,0.91817 0.261941,0.91653 0.261942,0.91653 0.193345,0.34689 c 0.106341,0.1908 0.293486,0.52471 0.415879,0.74204 0.252432,0.44822 0.29192,0.54593 0.303173,0.75017 0.01029,0.1867 -0.0215,0.34063 -0.106793,0.51719 -0.05515,0.11416 -0.08579,0.15613 -0.190056,0.2604 -0.102958,0.10296 -0.147791,0.1359 -0.261069,0.19182 -0.07522,0.0371 -0.182122,0.077 -0.237562,0.0885 -0.08814,0.0184 -2.841973,0.021 -21.916801,0.0211 -19.29496,3e-5 -21.826538,-0.002 -21.907185,-0.0215 -0.382319,-0.0901 -0.682364,-0.39018 -0.772494,-0.7725 -0.01904,-0.0808 -0.0215,-7.12826 -0.0215,-61.78078 0,-54.65253 0.0025,-61.70001 0.0215,-61.78079 0.09026,-0.38286 0.389635,-0.68224 0.772494,-0.7725 0.119374,-0.0281 0.318654,-0.0277 0.448342,10e-4 0.057,0.0126 0.17045,0.0545 0.252103,0.0931 0.123748,0.0585 0.245999,0.0957 0.7344,0.22328 0.322267,0.0842 0.676659,0.17808 0.787539,0.20862 0.457995,0.12615 0.318647,0.11443 1.360563,0.11443 h 0.930338 l 0.13615,-0.0355 c 0.07488,-0.0196 0.187989,-0.0545 0.251349,-0.0776 0.06336,-0.0232 0.1638,-0.0495 0.2232,-0.0585 0.107954,-0.0164 1.112777,-0.27582 1.1808,-0.30484 0.0198,-0.008 0.392592,-0.22237 0.828426,-0.47539 l 0.792426,-0.46003 0.666031,-0.66615 0.66603,-0.66615 0.185332,-0.32348 c 0.101933,-0.17792 0.206342,-0.35913 0.23202,-0.40269 0.256342,-0.43485 0.494662,-0.84669 0.511256,-0.88351 0.01122,-0.0249 0.122574,-0.42761 0.247443,-0.89489 l 0.227037,-0.8496 v -0.9864 -0.9864 l -0.04581,-0.144 c -0.0252,-0.0792 -0.05005,-0.16668 -0.05523,-0.1944 -0.0052,-0.0277 -0.0902,-0.35669 -0.188933,-0.73105 -0.146794,-0.55659 -0.191179,-0.70489 -0.243496,-0.8136 -0.145677,-0.30271 -0.161903,-0.60647 -0.04697,-0.87933 0.123541,-0.2933 0.384486,-0.51925 0.693068,-0.60014 0.100042,-0.0262 0.240117,-0.0271 4.352665,-0.0279 4.2073,-8e-4 4.250423,-5.1e-4 4.3632,0.0281 z m -10.347697,19.84449 c -0.05838,0.0114 -0.08568,0.0337 -0.275586,0.22522 -0.198749,0.20047 -0.211702,0.21697 -0.2268,0.28892 -0.01095,0.0522 -0.01601,0.4266 -0.01601,1.1844 v 1.10809 h 0.1728 0.1728 v -1.07743 c 0,-1.19643 -0.0033,-1.15265 0.09593,-1.26859 0.02814,-0.0329 0.07801,-0.0741 0.110819,-0.0917 0.05825,-0.0312 0.07297,-0.032 0.624852,-0.0361 l 0.5652,-0.004 V 266.42 266.24782 l -0.5796,0.002 c -0.31878,8.6e-4 -0.60876,0.007 -0.6444,0.0142 z m 3.441601,0.15643 v 0.1722 l 0.594,0.004 c 0.577406,0.004 0.595608,0.005 0.6516,0.0353 0.0679,0.0367 0.13736,0.10731 0.174787,0.17766 0.02537,0.0477 0.02702,0.10964 0.03076,1.1556 l 0.0039,1.1052 h 0.144145 0.144146 l -0.0041,-1.1484 -0.0041,-1.1484 -0.0408,-0.0964 c -0.03311,-0.0782 -0.0633,-0.11797 -0.160227,-0.21103 -0.152426,-0.14633 -0.210824,-0.18376 -0.316422,-0.2028 -0.05121,-0.009 -0.312314,-0.0154 -0.6516,-0.0154 h -0.566154 z m -3.960001,5.97724 c 0,0.97916 0.0028,1.12078 0.0236,1.206 0.02812,0.11506 0.09072,0.20376 0.246398,0.34914 0.162776,0.15202 0.140383,0.14801 0.863998,0.1544 l 0.6084,0.005 v -0.14498 -0.14498 h -0.530186 c -0.620646,0 -0.640627,-0.003 -0.752099,-0.11451 -0.119209,-0.11921 -0.114515,-0.0651 -0.114515,-1.3209 v -1.09899 h -0.1728 -0.1728 z m 5.414401,-0.003 c 0,1.25739 0.0056,1.19351 -0.11584,1.31497 -0.110636,0.11064 -0.128216,0.11319 -0.779574,0.11319 h -0.558986 v 0.144 0.144 l 0.5508,-1.4e-4 c 0.30701,0 0.592228,-0.007 0.6444,-0.0149 0.109192,-0.0173 0.274838,-0.0912 0.34767,-0.15518 0.06789,-0.0596 0.135735,-0.19035 0.170622,-0.3288 0.02712,-0.10761 0.02848,-0.1654 0.02869,-1.21817 l 2.16e-4,-1.1052 h -0.144 -0.144 v 1.10623 z m -4.917601,12.59401 c -0.107831,0.0266 -0.14798,0.0532 -0.266819,0.17671 -0.16704,0.17355 -0.172626,0.1817 -0.201965,0.29467 -0.02593,0.0999 -0.02754,0.17021 -0.02777,1.21837 l -2.47e-4,1.1124 h 0.172463 0.172462 l 0.0039,-1.134 c 0.0039,-1.13136 0.004,-1.13413 0.03508,-1.1916 0.04138,-0.0765 0.112738,-0.143 0.192061,-0.17887 0.0615,-0.0278 0.09288,-0.0293 0.6156,-0.0296 l 0.5508,-3.2e-4 v -0.144 -0.144 l -0.5868,10e-4 c -0.413582,8.6e-4 -0.608053,0.006 -0.6588,0.019 z m 3.463201,0.12375 v 0.144 l 0.5796,3.2e-4 c 0.551684,3e-4 0.58272,0.002 0.6444,0.0296 0.07932,0.0359 0.15068,0.10232 0.192061,0.17887 0.03107,0.0575 0.03115,0.0602 0.03508,1.1916 l 0.0039,1.134 h 0.143662 0.143663 l -1.44e-4,-1.1052 c -1.44e-4,-1.05894 -0.0013,-1.11027 -0.02918,-1.22651 -0.04879,-0.20351 -0.141637,-0.33027 -0.301123,-0.41109 -0.144782,-0.0734 -0.205517,-0.0792 -0.832394,-0.0794 l -0.579556,-2.2e-4 z m -3.959649,6.0084 c 2.16e-4,0.68148 0.0059,1.13634 0.01461,1.1742 0.02483,0.10765 0.07028,0.18417 0.178768,0.30094 0.21563,0.23211 0.227317,0.23486 0.99554,0.23486 h 0.553133 v -0.17202 -0.17202 l -0.558,-0.004 -0.558,-0.004 -0.07712,-0.0427 c -0.04242,-0.0235 -0.09606,-0.0656 -0.119214,-0.0936 -0.08524,-0.10304 -0.08447,-0.0915 -0.08447,-1.2631 v -1.07019 h -0.1728 -0.1728 l 3.53e-4,1.1124 z m 5.414049,-0.0422 c 0,1.17679 0.0012,1.15954 -0.08744,1.26671 -0.02479,0.03 -0.07843,0.0721 -0.119214,0.0936 l -0.07414,0.0391 -0.5868,0.004 -0.5868,0.004 v 0.17205 0.17205 l 0.5508,-1.4e-4 c 0.30701,0 0.592228,-0.007 0.6444,-0.0149 0.1046,-0.0166 0.270669,-0.0892 0.342282,-0.14978 0.05929,-0.0501 0.107906,-0.1327 0.158191,-0.2687 l 0.03937,-0.10647 0.0041,-1.1412 0.0041,-1.1412 h -0.144414 -0.144416 v 1.07019 z m -4.905451,3.98481 c -0.03292,0.007 -0.08513,0.0247 -0.116022,0.0405 -0.06104,0.0311 -0.307868,0.28068 -0.340994,0.34474 -0.04746,0.0918 -0.05193,0.20509 -0.05193,1.31601 v 1.10615 h 0.172463 0.172462 l 0.0039,-1.134 c 0.0039,-1.13136 0.004,-1.13413 0.03508,-1.1916 0.04138,-0.0765 0.112738,-0.143 0.192061,-0.17887 0.0615,-0.0278 0.09288,-0.0293 0.6156,-0.0296 l 0.5508,-3.2e-4 v -0.144 -0.144 l -0.5868,0.002 c -0.32274,8.7e-4 -0.613732,0.007 -0.64665,0.0134 z m 3.451051,0.129 v 0.144 h 0.570729 c 0.395793,0 0.588054,0.005 0.627253,0.0169 0.07156,0.0214 0.176132,0.11283 0.21742,0.19002 l 0.0318,0.0594 0.0039,1.134 0.0039,1.134 h 0.144153 0.144154 l -0.0043,-1.1484 c -0.0049,-1.29083 -6.48e-4,-1.23953 -0.112775,-1.37373 -0.03076,-0.0368 -0.06921,-0.0894 -0.08545,-0.11698 -0.01886,-0.032 -0.05981,-0.0662 -0.113319,-0.0947 -0.15495,-0.0826 -0.208167,-0.0881 -0.847912,-0.0884 l -0.5796,-2.2e-4 z m -3.960001,6.00284 c 0,0.69087 0.0055,1.13598 0.01467,1.1844 0.01406,0.0744 0.02311,0.086 0.2196,0.28304 0.137807,0.13816 0.221443,0.21093 0.255334,0.22215 0.03375,0.0112 0.248984,0.0186 0.6516,0.0223 l 0.6012,0.006 v -0.17315 -0.17314 l -0.5508,-0.004 -0.5508,-0.004 -0.08251,-0.0405 c -0.04538,-0.0223 -0.102264,-0.0644 -0.126413,-0.0936 -0.08731,-0.10556 -0.08628,-0.0905 -0.08628,-1.2653 v -1.07019 h -0.1728 -0.1728 z m 5.414401,-0.0367 c 0,1.17679 0.0012,1.15954 -0.08744,1.26671 -0.02479,0.03 -0.07843,0.0721 -0.119214,0.0936 l -0.07414,0.0391 -0.5868,0.004 -0.5868,0.004 v 0.17205 0.17205 l 0.5436,-2.8e-4 c 0.587931,-3.1e-4 0.71193,-0.0102 0.802147,-0.0639 0.08135,-0.0485 0.240341,-0.19595 0.302475,-0.28059 0.09331,-0.12711 0.09365,-0.13209 0.09393,-1.37239 l 2.45e-4,-1.1052 h -0.144 -0.144 v 1.07019 z m -4.905451,12.62481 c -0.03292,0.007 -0.08476,0.0248 -0.1152,0.0405 -0.05761,0.0299 -0.243584,0.21333 -0.313778,0.30953 -0.08129,0.1114 -0.07997,0.0897 -0.07997,1.32202 v 1.1352 h 0.172463 0.172462 l 0.0039,-1.134 0.0039,-1.13401 0.0318,-0.0594 c 0.04129,-0.0772 0.145859,-0.16858 0.217421,-0.19002 0.03898,-0.0117 0.224733,-0.0169 0.598452,-0.0169 h 0.541929 v -0.144 -0.144 l -0.5868,0.002 c -0.32274,8.7e-4 -0.613732,0.007 -0.64665,0.0134 z m 3.451051,0.12855 v 0.14354 l 0.594,0.004 c 0.549599,0.004 0.598112,0.006 0.649013,0.0314 0.07002,0.0348 0.131815,0.0966 0.172342,0.17234 l 0.03184,0.0595 0.0039,1.13401 0.0039,1.134 h 0.143662 0.143663 l -1.73e-4,-1.1268 c -1.87e-4,-1.23614 0.0023,-1.19717 -0.08815,-1.37538 -0.07838,-0.15441 -0.24024,-0.26982 -0.428511,-0.30553 -0.04459,-0.008 -0.321306,-0.0147 -0.651538,-0.0147 h -0.574035 v 0.14355 z m -3.956818,6.03046 c 0.0037,1.048 0.006,1.13887 0.02965,1.19823 0.01792,0.0449 0.07057,0.10832 0.175095,0.21083 0.144562,0.14179 0.15458,0.14865 0.305567,0.20936 l 0.156105,0.0628 0.5364,0.004 0.5364,0.004 v -0.17267 -0.17267 l -0.5508,-0.004 c -0.5236,-0.004 -0.554,-0.006 -0.6156,-0.0345 -0.09201,-0.0428 -0.146411,-0.0931 -0.1875,-0.17358 l -0.0357,-0.0699 -0.0039,-1.098 -0.0039,-1.098 h -0.17287 -0.172871 z m 5.411218,-0.0638 c 0,1.17481 10e-4,1.15974 -0.08628,1.2653 -0.02415,0.0292 -0.08103,0.0713 -0.126413,0.0936 l -0.08251,0.0405 -0.5796,0.004 -0.5796,0.004 v 0.1727 0.17271 l 0.5364,-0.004 0.5364,-0.004 0.1728,-0.069 c 0.28881,-0.11536 0.3928,-0.20476 0.455698,-0.39177 l 0.0339,-0.1008 0.004,-1.1268 0.004,-1.1268 h -0.144421 -0.14442 z m -4.888801,3.96704 c -0.141817,0.0524 -0.146541,0.0556 -0.311668,0.21605 -0.162089,0.15745 -0.168439,0.16594 -0.1908,0.25496 -0.02024,0.0806 -0.02313,0.22994 -0.02313,1.19432 v 1.10225 h 0.172455 0.172454 l 0.0039,-1.1052 c 0.0039,-1.10281 0.004,-1.10533 0.03519,-1.16357 0.03875,-0.0724 0.107772,-0.14099 0.176006,-0.17497 0.04687,-0.0233 0.107232,-0.0263 0.617149,-0.0299 l 0.5652,-0.004 V 323.96232 323.79 l -0.5364,8.2e-4 -0.5364,8.2e-4 z m 3.434401,0.11798 v 0.1728 h 0.573435 c 0.639788,0 0.662165,0.003 0.75743,0.0953 0.02848,0.0277 0.0663,0.0775 0.08406,0.11068 l 0.03228,0.0604 0.0039,1.1052 0.0039,1.1052 h 0.143654 0.143655 v -1.0993 c 0,-1.04164 -0.0015,-1.10504 -0.028,-1.20876 -0.03554,-0.13895 -0.05473,-0.17491 -0.137121,-0.25689 -0.08236,-0.082 -0.16292,-0.12656 -0.361685,-0.2003 L 39.151085,323.79 h -0.530767 -0.530765 z m -3.95673,6.0156 0.0039,1.1628 0.04007,0.0816 c 0.05169,0.10526 0.271165,0.33281 0.358085,0.37126 0.103514,0.0458 0.280421,0.0584 0.821869,0.0584 h 0.515177 v -0.14308 -0.14307 l -0.5508,-0.005 -0.5508,-0.005 -0.08377,-0.0411 c -0.09575,-0.047 -0.171631,-0.138 -0.196182,-0.23524 -0.01007,-0.0399 -0.01524,-0.4348 -0.01524,-1.1628 v -1.10242 h -0.173129 -0.17313 z m 5.421231,-1.15371 c -0.0056,0.006 -0.0101,0.50357 -0.0101,1.10669 0,1.20374 0.0012,1.18595 -0.08628,1.2917 -0.02415,0.0292 -0.08103,0.0713 -0.126413,0.0936 l -0.08251,0.0405 -0.5796,0.004 -0.5796,0.004 v 0.14435 0.14434 l 0.594,-0.006 c 0.395498,-0.004 0.615654,-0.0122 0.6588,-0.0237 0.101378,-0.0269 0.246752,-0.104 0.303922,-0.16108 0.06381,-0.0637 0.149303,-0.23079 0.170399,-0.33301 0.01066,-0.0517 0.01444,-0.43074 0.01186,-1.19178 l -0.0038,-1.116 -0.130299,-0.004 c -0.07166,-0.002 -0.134843,4.5e-4 -0.1404,0.006 z m -4.769302,13.67919 c -0.01584,0.002 -0.06494,0.008 -0.109107,0.0133 l -0.08031,0.009 -0.214892,0.21473 c -0.177895,0.17776 -0.217792,0.22536 -0.231734,0.27648 -0.01214,0.0445 -0.01716,0.37651 -0.018,1.18854 l -0.0012,1.1268 h 0.1728 0.1728 l 6.33e-4,-1.0836 c 5.08e-4,-0.8717 0.0044,-1.09425 0.02006,-1.13807 0.0311,-0.0872 0.08206,-0.1518 0.158953,-0.20156 l 0.07165,-0.0464 0.573191,-0.004 0.573191,-0.004 -0.004,-0.17593 -0.004,-0.17592 -0.5256,-0.002 c -0.28908,-9.5e-4 -0.53856,3.2e-4 -0.5544,0.003 z m 3.304801,0.17037 v 0.18135 h 0.583662 c 0.629144,0 0.628769,0 0.731609,0.0784 0.02645,0.0202 0.06695,0.0707 0.09001,0.11234 l 0.04192,0.0757 0.0072,1.1016 0.0072,1.1016 h 0.1368 0.1368 l 0.0039,-1.0872 c 0.004,-1.12038 -4.75e-4,-1.23382 -0.05318,-1.3368 -0.02561,-0.05 -0.219414,-0.25122 -0.309159,-0.32094 -0.08753,-0.068 -0.14865,-0.0743 -0.782781,-0.0811 l -0.594,-0.006 z m -3.959776,5.98095 c 2.45e-4,1.2189 8.83e-4,1.22955 0.08072,1.34593 0.07069,0.10304 0.259176,0.28406 0.327041,0.31408 0.101758,0.045 0.312196,0.0586 0.837615,0.0541 l 0.4896,-0.004 v -0.144 -0.144 l -0.5688,-0.007 -0.5688,-0.007 -0.06952,-0.0409 c -0.07399,-0.0435 -0.143634,-0.13668 -0.168182,-0.22505 -0.0087,-0.0313 -0.01417,-0.47727 -0.01422,-1.15609 l -8.1e-5,-1.1052 h -0.1728 -0.1728 l 2.25e-4,1.1196 z m 5.424277,-1.1105 c -0.0056,0.006 -0.0101,0.50187 -0.0101,1.10292 0,0.72125 -0.0052,1.11335 -0.01524,1.1532 -0.02353,0.0932 -0.100207,0.18755 -0.187939,0.23127 l -0.07607,0.0379 H 38.677133 38.08956 v 0.15254 0.15254 l 0.594,-0.007 c 0.37858,-0.004 0.616498,-0.0127 0.656038,-0.0232 0.101193,-0.0269 0.250443,-0.10576 0.307466,-0.16251 0.07246,-0.0721 0.151223,-0.24097 0.170143,-0.36476 0.01017,-0.0666 0.01406,-0.4692 0.01147,-1.18788 l -0.0039,-1.0872 -0.130299,-0.004 c -0.07166,-0.002 -0.134843,4.5e-4 -0.1404,0.006 z m -4.848502,5.0466 c -0.157154,0.0202 -0.209295,0.0484 -0.347705,0.18802 -0.14249,0.14372 -0.189625,0.21608 -0.212465,0.32619 -0.01071,0.0516 -0.01583,0.4368 -0.01583,1.1916 v 1.11529 h 0.172455 0.172454 l 0.0039,-1.1052 0.0039,-1.1052 0.04192,-0.0757 c 0.02306,-0.0416 0.06356,-0.0922 0.09001,-0.11234 0.102415,-0.0781 0.104963,-0.0784 0.702809,-0.0784 h 0.554862 v -0.18 -0.18 l -0.5364,0.002 c -0.29502,10e-4 -0.57852,0.007 -0.63,0.0139 z m 3.384001,0.16307 v 0.18123 h 0.583662 c 0.629144,0 0.628769,0 0.731609,0.0784 0.02645,0.0202 0.06695,0.0707 0.09001,0.11234 l 0.04192,0.0757 0.0072,1.1016 0.0072,1.1016 h 0.1368 0.1368 l 0.0039,-1.0872 c 0.0025,-0.69603 -0.0014,-1.12347 -0.01099,-1.188 -0.01812,-0.12253 -0.09728,-0.29159 -0.170966,-0.36516 -0.05755,-0.0575 -0.202707,-0.13449 -0.304359,-0.16152 -0.04315,-0.0115 -0.263302,-0.0194 -0.6588,-0.0237 l -0.594,-0.006 z m -3.960001,5.96525 c 0,0.74014 0.0052,1.13409 0.01589,1.19524 0.0094,0.054 0.0319,0.11507 0.05511,0.14963 0.0526,0.0783 0.266727,0.29676 0.315107,0.32145 0.08803,0.0449 0.194025,0.0521 0.774331,0.0521 h 0.583012 l -0.0041,-0.1404 -0.0041,-0.1404 -0.5688,-0.007 -0.5688,-0.007 -0.06952,-0.0409 c -0.07399,-0.0435 -0.143634,-0.13668 -0.168182,-0.22505 -0.0087,-0.0313 -0.01417,-0.47727 -0.01422,-1.15609 l -8.1e-5,-1.1052 h -0.1728 -0.1728 z m 5.414401,-0.002 c 0,0.728 -0.0052,1.12293 -0.01524,1.1628 -0.02353,0.0932 -0.100207,0.18755 -0.187939,0.23127 l -0.07607,0.0379 h -0.587572 -0.587573 v 0.144 0.144 h 0.582491 c 0.37669,0 0.609451,-0.006 0.6588,-0.0162 0.109581,-0.0233 0.254092,-0.0972 0.317778,-0.16254 0.07173,-0.0736 0.14903,-0.23652 0.168003,-0.35406 0.0096,-0.0594 0.01515,-0.49485 0.01522,-1.1916 l 1.44e-4,-1.098 h -0.144 -0.144 v 1.10242 z m -4.788001,12.58751 c -0.01584,0.004 -0.09553,0.0298 -0.177096,0.0581 -0.142675,0.0496 -0.151893,0.0554 -0.243174,0.15374 -0.05218,0.0562 -0.111034,0.12646 -0.130781,0.15614 -0.07355,0.11051 -0.07488,0.13409 -0.07512,1.33205 l -2.25e-4,1.1124 h 0.1728 0.1728 v -1.09899 c 0,-1.20637 -0.0012,-1.18833 0.08628,-1.2941 0.02415,-0.0292 0.08103,-0.0713 0.126413,-0.0936 l 0.08251,-0.0405 0.5508,-0.004 0.5508,-0.004 v -0.14322 -0.14321 l -0.5436,0.002 c -0.29898,9.2e-4 -0.55656,0.005 -0.5724,0.008 z m 3.333601,0.13255 v 0.14401 l 0.5796,0.004 0.5796,0.004 0.08251,0.0405 c 0.04538,0.0223 0.102264,0.0644 0.126413,0.0936 0.08748,0.10577 0.08628,0.0877 0.08628,1.2941 v 1.09899 h 0.144 0.144 l -2.45e-4,-1.1052 c -2.74e-4,-1.219 -5.19e-4,-1.2228 -0.08906,-1.3897 -0.06839,-0.12892 -0.136644,-0.19194 -0.237725,-0.21949 -0.04585,-0.0125 -0.125488,-0.0403 -0.176968,-0.0618 l -0.0936,-0.039 -0.5724,-0.004 -0.5724,-0.004 v 0.144 z m -3.960001,6.00435 c 0,0.6887 0.0055,1.13614 0.01463,1.1844 0.01407,0.0746 0.02269,0.0857 0.227786,0.2909 0.174773,0.17491 0.223357,0.21569 0.269775,0.22645 0.03114,0.007 0.320674,0.0133 0.643414,0.0135 l 0.5868,3.4e-4 v -0.1728 -0.1728 h -0.541929 c -0.373719,0 -0.559473,-0.005 -0.598452,-0.0169 -0.07156,-0.0214 -0.176133,-0.11283 -0.217421,-0.19001 l -0.0318,-0.0595 -0.0039,-1.1052 -0.0039,-1.1052 h -0.172454 -0.172455 z m 5.411146,-0.002 c -0.0039,1.10281 -0.004,1.10533 -0.03519,1.16356 -0.03875,0.0724 -0.107772,0.141 -0.176005,0.17497 -0.04702,0.0234 -0.108271,0.0263 -0.645949,0.0299 l -0.594,0.004 v 0.17305 0.17305 l 0.6228,-0.004 c 0.605129,-0.004 0.624731,-0.005 0.690848,-0.0358 0.08101,-0.0374 0.333415,-0.27621 0.372098,-0.35202 0.0518,-0.10151 0.05643,-0.21094 0.05654,-1.33374 l 1.44e-4,-1.098 H 39.68833 39.544675 l -0.0039,1.1052 z m 12.750561,-130.8441 c 0.04538,0.0223 0.102265,0.0644 0.126414,0.0936 0.09289,0.1123 0.08628,-0.24654 0.08628,4.68644 v 4.49133 l -0.03829,0.0957 -0.03829,0.0957 0.0059,8.74116 0.0059,8.74115 -0.03367,0.0684 c -0.01852,0.0376 -0.06035,0.0912 -0.09297,0.11913 -0.104946,0.0898 -0.134463,0.0933 -0.790378,0.0933 h -0.587786 v 5.7168 5.7168 l 0.6084,1.5e-4 0.6084,1.4e-4 0.0728,0.0339 c 0.04031,0.0188 0.09678,0.0619 0.126531,0.0967 0.103771,0.12124 0.09658,-0.15195 0.09242,3.51296 l -0.0038,3.30418 -0.0432,0.0781 c -0.02376,0.043 -0.06871,0.0966 -0.09988,0.11918 -0.122299,0.0886 0.0078,0.0843 -2.420976,0.0802 -2.058225,-0.004 -2.22048,-0.006 -2.269005,-0.0285 -0.077,-0.0364 -0.137691,-0.0923 -0.18202,-0.16765 l -0.03932,-0.0669 v -3.348 c 0,-3.28259 5.47e-4,-3.3491 0.02789,-3.40421 0.03556,-0.0717 0.103431,-0.13954 0.175103,-0.1751 0.05257,-0.0261 0.09657,-0.0281 0.679009,-0.0319 l 0.6228,-0.004 v -5.71636 -5.71636 h -0.59706 c -0.56116,0 -0.601674,-0.002 -0.673788,-0.0287 -0.08196,-0.0307 -0.162731,-0.10368 -0.207165,-0.18729 -0.02589,-0.0487 -0.02679,-0.16194 -0.02679,-3.3984 0,-3.23761 8.78e-4,-3.34966 0.02681,-3.3984 0.03743,-0.0704 0.106885,-0.14095 0.174787,-0.17766 l 0.0576,-0.0311 1.3716,-0.004 1.3716,-0.004 v -5.27997 -5.27998 l -0.0324,-0.0657 -0.0324,-0.0657 -0.0044,-4.4928 c -0.0032,-3.24762 0,-4.51346 0.01159,-4.56734 0.02951,-0.13786 0.14479,-0.24815 0.29008,-0.27753 0.03448,-0.007 0.406126,-0.0116 0.825886,-0.0103 l 0.7632,0.002 z m 2.796719,-0.0149 c 0.09078,0.041 0.14247,0.0878 0.188344,0.17062 l 0.04283,0.0773 v 4.536 4.536 l -0.03236,0.0657 -0.03236,0.0657 -0.0036,19.38153 c -0.0035,18.41874 -0.0049,19.38583 -0.02887,19.46793 -0.01388,0.0475 -0.05223,0.14148 -0.08522,0.2088 l -0.05999,0.1224 -1.314952,1.31763 -1.314952,1.31764 -0.0038,2.21756 -0.0038,2.21757 -0.04441,0.0792 c -0.05303,0.0946 -0.146006,0.16339 -0.251263,0.18596 -0.04551,0.01 -0.286566,0.0156 -0.641035,0.0156 h -0.568091 v 5.7456 5.7456 l 0.6084,1.5e-4 c 0.607056,1.4e-4 0.608558,2.1e-4 0.6804,0.0337 0.0396,0.0185 0.09604,0.0603 0.125424,0.0929 0.106004,0.11759 0.09851,-0.16193 0.09433,3.51707 l -0.0038,3.30419 -0.0432,0.0781 c -0.04584,0.0829 -0.119521,0.14599 -0.206338,0.17676 -0.04254,0.0151 -0.490128,0.0188 -2.292062,0.0188 h -2.2392 l -0.07869,-0.0432 c -0.08757,-0.0481 -0.164413,-0.13844 -0.187056,-0.21997 -0.01006,-0.0362 -0.01492,-1.12435 -0.01498,-3.35227 -1.44e-4,-3.67884 -0.0089,-3.37633 0.101142,-3.48968 0.110583,-0.11395 0.07504,-0.10878 0.780778,-0.11346 l 0.63,-0.004 v -5.74431 -5.74431 l -0.6156,-0.004 -0.6156,-0.004 -0.07869,-0.0432 c -0.08852,-0.0486 -0.165147,-0.1394 -0.187411,-0.22208 -0.01009,-0.0375 -0.0137,-1.12307 -0.01119,-3.3726 0.0036,-3.26319 0.0042,-3.31825 0.03195,-3.3743 0.01554,-0.0313 0.05304,-0.081 0.08332,-0.11042 0.109277,-0.10605 -0.06077,-0.099 2.385717,-0.099 h 2.196967 l 0.565267,-0.56513 0.565268,-0.56513 v -19.08424 -19.08425 l -0.0324,-0.0606 -0.0324,-0.0606 -0.0037,-4.51973 c -0.0025,-3.07681 0.0011,-4.53737 0.01119,-4.57499 0.01909,-0.0709 0.09428,-0.16943 0.157437,-0.20631 0.107656,-0.0629 0.141522,-0.0651 0.951061,-0.062 0.704054,0.003 0.775293,0.005 0.827225,0.0286 z m 2.830375,0.005 c 0.07947,0.037 0.176549,0.14007 0.203295,0.21584 0.01678,0.0475 0.01991,0.76564 0.01991,4.57079 v 4.5144 l -0.03963,0.0846 -0.03964,0.0846 -1.44e-4,32.35139 c -1.44e-4,28.20087 -0.0028,32.36272 -0.02101,32.43972 -0.02558,0.10829 -0.077,0.22676 -0.138037,0.31806 -0.0253,0.0378 -1.263351,1.28705 -2.75122,2.77601 l -2.705214,2.7072 -0.0038,2.2176 -0.0038,2.2176 -0.04192,0.0757 c -0.04434,0.08 -0.103255,0.13323 -0.192083,0.17347 -0.04752,0.0215 -0.126941,0.025 -0.662394,0.0289 l -0.6084,0.004 v 5.74475 5.74475 h 0.599529 c 0.432411,0 0.616051,0.005 0.6588,0.0177 0.03617,0.0108 0.08825,0.0459 0.133631,0.09 0.131999,0.12835 0.120785,-0.21113 0.116562,3.52881 l -0.0037,3.2971 -0.03007,0.065 c -0.03739,0.0808 -0.109779,0.15445 -0.185611,0.18889 -0.0553,0.0251 -0.160118,0.0263 -2.312293,0.0266 l -2.254372,3.2e-4 -0.07485,-0.0373 c -0.04117,-0.0205 -0.0941,-0.0606 -0.117626,-0.0892 -0.09331,-0.11321 -0.08678,0.14877 -0.08678,-3.48071 0,-3.62948 -0.0065,-3.36751 0.08678,-3.48071 0.02353,-0.0285 0.07646,-0.0687 0.117626,-0.0892 l 0.07485,-0.0373 h 0.616372 0.616373 v -5.74475 -5.74475 l -0.6084,-0.004 -0.6084,-0.004 -0.0864,-0.0432 c -0.09557,-0.0478 -0.169115,-0.13129 -0.193745,-0.21997 -0.01006,-0.0362 -0.01492,-1.12458 -0.01498,-3.35302 -1.44e-4,-3.60002 -0.0058,-3.35604 0.08081,-3.46956 0.02135,-0.028 0.06858,-0.0684 0.104958,-0.0898 l 0.06615,-0.0389 2.2248,-0.004 2.2248,-0.004 1.9764,-1.97625 1.9764,-1.97626 v -32.07197 -32.07198 l -0.0324,-0.0617 -0.0324,-0.0616 -0.0037,-4.53317 -0.0037,-4.53318 0.03059,-0.0711 c 0.03213,-0.0747 0.116987,-0.16255 0.182698,-0.18917 0.08546,-0.0346 0.168307,-0.0379 0.910047,-0.0357 0.74934,0.002 0.772171,0.003 0.8352,0.0325 z m 2.88,0 c 0.07947,0.037 0.176549,0.14007 0.203295,0.21584 0.01678,0.0475 0.0199,0.76564 0.0199,4.57079 v 4.5144 l -0.03962,0.0846 -0.03963,0.0846 1.44e-4,45.31179 c 0,39.42424 -0.0026,45.32203 -0.02069,45.39061 -0.03367,0.12778 -0.06237,0.19898 -0.118016,0.2928 -0.04143,0.0699 -0.924337,0.96076 -4.204739,4.24282 l -4.152298,4.1544 -0.0037,2.2104 c -0.0037,2.20726 -0.0038,2.21049 -0.03381,2.27536 -0.03739,0.0808 -0.109779,0.15445 -0.185611,0.18889 -0.05316,0.0242 -0.10847,0.0263 -0.67352,0.0266 l -0.615669,3.2e-4 v 5.7168 5.7168 h 0.568091 c 0.354469,0 0.595521,0.006 0.641035,0.0156 0.105257,0.0226 0.198229,0.0914 0.251263,0.18596 l 0.04441,0.0792 0.0038,3.30419 c 0.0042,3.679 0.01167,3.39947 -0.09433,3.51706 -0.02938,0.0326 -0.08582,0.0744 -0.125424,0.0929 l -0.072,0.0336 -2.233035,1.4e-4 c -2.48667,1.6e-4 -2.312433,0.007 -2.421784,-0.0988 -0.03029,-0.0294 -0.06779,-0.0791 -0.08332,-0.11043 -0.0278,-0.0561 -0.02832,-0.11111 -0.03195,-3.3743 -0.0025,-2.24952 0.0011,-3.33511 0.01119,-3.37259 0.02226,-0.0827 0.09889,-0.17349 0.187411,-0.22209 l 0.07869,-0.0432 0.6156,-0.004 0.6156,-0.004 V 365.86596 360.15 H 48.27318 47.656808 l -0.07485,-0.0373 c -0.04117,-0.0205 -0.0941,-0.0607 -0.117626,-0.0892 -0.09331,-0.1132 -0.08678,0.14877 -0.08678,-3.48071 0,-3.62948 -0.0065,-3.3675 0.08678,-3.48071 0.02353,-0.0285 0.07646,-0.0687 0.117626,-0.0892 l 0.07485,-0.0373 h 2.211101 2.2111 l 3.416472,-3.41636 3.416472,-3.41636 v -45.032 -45.032 l -0.0324,-0.0616 -0.0324,-0.0616 -0.0037,-4.53317 -0.0037,-4.53317 0.03059,-0.0711 c 0.03213,-0.0747 0.116987,-0.16255 0.182698,-0.18917 0.08546,-0.0346 0.168308,-0.0379 0.910047,-0.0357 0.74934,0.002 0.772171,0.003 0.8352,0.0325 z m 15.703201,125.47172 c 0.820675,0.12442 1.582913,0.45746 2.232,0.97524 0.202353,0.16141 0.541011,0.49989 0.704063,0.70368 0.553456,0.69174 0.893245,1.50765 0.995503,2.3904 0.02758,0.23808 0.03146,0.73245 0.0076,0.9648 -0.128229,1.24751 -0.72634,2.35995 -1.692747,3.14837 -1.059286,0.86419 -2.45372,1.21066 -3.815145,0.94793 -0.604842,-0.11672 -1.260534,-0.39638 -1.764855,-0.75274 -0.642439,-0.45395 -1.137168,-1.03158 -1.489156,-1.7387 -0.81921,-1.64573 -0.580313,-3.62699 0.607627,-5.03926 0.156222,-0.18572 0.46594,-0.48641 0.658329,-0.63912 0.680388,-0.54009 1.490202,-0.87621 2.3616,-0.98021 0.263985,-0.0315 0.93013,-0.0206 1.1952,0.0196 z m -0.9144,0.36192 c -1.030073,0.0564 -1.99775,0.48904 -2.736283,1.2234 -0.840421,0.83567 -1.285123,1.94898 -1.248174,3.1248 0.0366,1.16486 0.51,2.19571 1.378057,3.00081 0.282739,0.26224 0.612694,0.48659 0.9864,0.6707 0.390025,0.19215 0.808669,0.3232 1.2528,0.39216 0.168285,0.0261 0.26585,0.0315 0.5904,0.0322 0.407094,9.5e-4 0.507637,-0.008 0.847437,-0.0731 1.386068,-0.26659 2.56576,-1.24815 3.099885,-2.57924 0.402365,-1.00273 0.400903,-2.16019 -0.004,-3.14995 -0.241328,-0.58995 -0.591179,-1.09227 -1.070543,-1.53711 -0.825752,-0.76629 -1.950006,-1.16743 -3.096,-1.10469 z m -54.071686,12.9702 -3.16e-4,0.1476 0.1476,-1.4e-4 0.1476,-1.4e-4 -0.072,-0.0341 c -0.08711,-0.0412 -0.153938,-0.10903 -0.193269,-0.19602 l -0.0293,-0.0648 z m 61.56105,-0.0883 c -0.02713,0.075 -0.112604,0.16326 -0.195764,0.20207 l -0.072,0.0336 0.1476,1.4e-4 0.1476,1.4e-4 v -0.144 c 0,-0.0792 -0.0019,-0.144 -0.0043,-0.144 -0.0024,0 -0.01278,0.0234 -0.02313,0.0521 z"
       style="fill:#000000;stroke-width:0.0144" /><path
       style="fill:#000000;stroke-width:0.0144"
       d="m 81.606495,243.34079 1.4e-4,0.1476 0.0341,-0.072 c 0.04125,-0.0871 0.109034,-0.15394 0.196023,-0.19327 l 0.0648,-0.0293 -0.1476,-3e-4 -0.1476,-3.3e-4 z m 61.358265,-0.11767 c 0.10503,0.0475 0.1844,0.13661 0.21694,0.24358 0.007,0.0221 0.0115,-0.0239 0.0122,-0.11871 l 10e-4,-0.1548 -0.1476,3.2e-4 -0.1476,3.1e-4 0.0648,0.0293 z m -60.609606,71.14207 v 70.42321 h 30.045596 30.04561 v -70.42321 -70.4232 H 112.40075 82.355154 Z m 7.364656,-68.19823 c 2.019284,0.23621 3.65629,1.77079 4.01676,3.76543 0.05764,0.31895 0.07254,0.49302 0.07209,0.8424 -4.27e-4,0.33263 -0.01226,0.47812 -0.06382,0.7848 -0.186705,1.11051 -0.784935,2.11665 -1.691282,2.84451 -0.248028,0.19918 -0.675339,0.45917 -0.966408,0.58799 -0.631294,0.27939 -1.221783,0.40362 -1.913592,0.40258 -0.357848,-5.3e-4 -0.555141,-0.0182 -0.867786,-0.0776 -1.866855,-0.35496 -3.34157,-1.84301 -3.680955,-3.71425 -0.05589,-0.30814 -0.07219,-0.50233 -0.07132,-0.8496 9.07e-4,-0.36138 0.02335,-0.58843 0.09107,-0.92109 0.254086,-1.24822 1.026931,-2.34651 2.12372,-3.01802 0.654701,-0.40083 1.360067,-0.61891 2.182072,-0.67464 0.140286,-0.01 0.590566,0.007 0.769454,0.0275 z m -0.8838,0.3823 c -1.015835,0.0906 -1.929461,0.51558 -2.643735,1.22985 -0.335776,0.33578 -0.597366,0.69912 -0.798636,1.10928 -0.226031,0.46062 -0.341234,0.8405 -0.412684,1.3608 -0.03411,0.24837 -0.03411,0.78844 0,1.0368 0.111126,0.80922 0.408738,1.51387 0.897086,2.124 1.130395,1.41229 3.035589,1.95105 4.735973,1.33926 1.859496,-0.66905 3.010159,-2.54741 2.764252,-4.51243 -0.177388,-1.41749 -1.075631,-2.66473 -2.361511,-3.27904 -0.439214,-0.20983 -0.824592,-0.32392 -1.3104,-0.38794 -0.211832,-0.0279 -0.667237,-0.0387 -0.870345,-0.0206 z m 47.38235,-0.40342 c 0.64368,0.0435 1.22874,0.20312 1.79091,0.48856 0.48036,0.2439 0.8629,0.52695 1.24117,0.91837 0.72039,0.74542 1.15303,1.66351 1.27405,2.70362 0.031,0.26658 0.031,0.75426 -1.5e-4,1.0224 -0.10789,0.93116 -0.4674,1.76573 -1.07005,2.484 -0.14594,0.17395 -0.45784,0.47747 -0.64371,0.62642 -0.45759,0.3667 -1.053,0.67286 -1.62672,0.83645 -1.14962,0.3278 -2.42397,0.18636 -3.47115,-0.38527 -1.20747,-0.65913 -2.06631,-1.8178 -2.33116,-3.14499 -0.0715,-0.35849 -0.0865,-0.51894 -0.0864,-0.92781 0,-0.40712 0.0164,-0.58355 0.0863,-0.9288 0.19219,-0.94926 0.69431,-1.83503 1.40967,-2.48672 0.93772,-0.85428 2.17771,-1.29071 3.4272,-1.20623 z m -0.5616,0.39688 c -0.87125,0.0689 -1.6112,0.345 -2.2896,0.85429 -0.23527,0.17661 -0.57707,0.5089 -0.75644,0.73538 -1.23125,1.5546 -1.22754,3.72929 0.009,5.2848 0.13674,0.17201 0.51748,0.54655 0.69833,0.68695 0.60847,0.47236 1.33764,0.77132 2.12268,0.87029 0.21669,0.0273 0.78137,0.0234 1.0008,-0.007 0.40125,-0.0555 0.74299,-0.14512 1.08,-0.28333 1.3519,-0.55442 2.32643,-1.77141 2.56899,-3.20817 0.19709,-1.16738 -0.10065,-2.35935 -0.82259,-3.29322 -0.68927,-0.89162 -1.69158,-1.46498 -2.8192,-1.6127 -0.16887,-0.0221 -0.64871,-0.0387 -0.792,-0.0274 z m -30.56991,-0.12385 c 0.29545,0.0749 0.5395,0.27221 0.66791,0.53992 0.10945,0.22818 0.10119,-0.0449 0.10119,3.34532 v 3.04108 h 0.86385 0.86385 l 0.004,-3.258 0.004,-3.258 0.0432,-0.0781 c 0.0458,-0.0829 0.11952,-0.14599 0.20633,-0.17677 0.041,-0.0145 0.23123,-0.0187 0.84487,-0.0187 h 0.792 l 0.0864,0.0432 c 0.0965,0.0482 0.16991,0.13227 0.1941,0.22208 0.0101,0.0376 0.0137,1.49818 0.0112,4.57499 l -0.004,4.51973 -0.0311,0.0576 c -0.0367,0.0679 -0.10731,0.13736 -0.17766,0.17479 -0.0471,0.0251 -0.10209,0.0271 -0.84069,0.0309 -0.88113,0.005 -0.88837,0.004 -0.99803,-0.09 -0.0328,-0.028 -0.0747,-0.0817 -0.0932,-0.11933 -0.0307,-0.0624 -0.0341,-0.0908 -0.0387,-0.32396 l -0.005,-0.2556 h -0.86302 -0.86302 l 0.004,0.6588 0.004,0.6588 0.13267,0.31608 0.13268,0.31609 0.19132,0.1926 c 0.21656,0.21799 0.23441,0.22913 0.62948,0.39243 l 0.24289,0.1004 h 0.34049 c 0.40597,0 0.49977,0.0148 0.69927,0.1106 0.11782,0.0566 0.15485,0.0839 0.26694,0.19714 0.10428,0.10534 0.1421,0.15578 0.19033,0.25386 0.11451,0.23283 0.10628,-0.005 0.10576,3.05194 -4.6e-4,2.72936 -4.6e-4,2.72967 -0.0307,2.83743 -0.0796,0.28344 -0.28359,0.52919 -0.5395,0.64999 -0.15182,0.0717 -0.29165,0.099 -0.50581,0.099 h -0.1916 l -0.0926,0.0509 c -0.0509,0.028 -0.14996,0.0696 -0.2201,0.0925 -0.24484,0.0798 -0.26409,0.093 -0.54069,0.37102 l -0.25477,0.25602 -0.11469,0.2808 c -0.0631,0.15444 -0.12205,0.30672 -0.13105,0.3384 -0.0121,0.0425 -0.0153,0.99269 -0.0121,3.6216 l 0.004,3.564 0.12503,0.27905 0.12503,0.27903 0.38714,0.39057 c 0.36875,0.37201 0.38996,0.39636 0.44653,0.51295 0.11602,0.23909 0.10601,-0.16611 0.10568,4.27496 -3.3e-4,4.4013 0.008,4.02825 -0.0955,4.24782 -0.0705,0.14946 -0.0982,0.18213 -0.49703,0.58522 l -0.35616,0.36 -0.12396,0.28703 -0.12395,0.28702 v 3.55958 c 0,3.16473 0.002,3.56655 0.0221,3.62256 0.0122,0.0347 0.0714,0.18289 0.13152,0.32941 0.10848,0.26417 0.11034,0.26741 0.22297,0.38648 0.26185,0.27682 0.35292,0.66952 0.23598,1.01752 -0.0494,0.14708 -0.097,0.22931 -0.22128,0.38282 -0.12014,0.14833 -0.13228,0.17074 -0.18278,0.33718 -0.0417,0.1373 -0.0731,0.2064 -0.15678,0.34476 l -0.0518,0.0855 v 3.57638 3.57639 l 0.12278,0.29757 c 0.0675,0.16365 0.13263,0.3126 0.14468,0.33099 0.0121,0.0184 0.0616,0.0626 0.11006,0.0983 0.0485,0.0357 0.2153,0.19258 0.3707,0.34866 0.26075,0.26188 0.28719,0.29322 0.3427,0.40617 0.11516,0.23433 0.10568,-0.15245 0.10567,4.31088 l -2e-5,3.99072 -0.0298,0.10554 c -0.0592,0.20923 -0.16788,0.37523 -0.35521,0.54246 -0.0621,0.0554 -0.20368,0.18437 -0.31461,0.2865 -0.11094,0.10214 -0.20969,0.19298 -0.21945,0.20187 -0.01,0.009 -0.0761,0.15861 -0.14746,0.3327 l -0.12971,0.31653 -1.5e-4,3.57454 -1.4e-4,3.57453 0.13195,0.32067 0.13195,0.32067 0.11039,0.11716 c 0.13386,0.14206 0.2176,0.29464 0.26083,0.47521 0.0566,0.23631 0.0179,0.52095 -0.0983,0.72364 -0.0517,0.0901 -0.16946,0.23857 -0.22176,0.2795 -0.0337,0.0263 -0.0718,0.10355 -0.17891,0.3619 l -0.13611,0.32841 v 3.57651 3.57651 l 0.12896,0.31338 c 0.1151,0.27968 0.13572,0.31957 0.19178,0.37098 0.65975,0.60504 0.70303,0.65047 0.78198,0.8208 0.10256,0.22127 0.0943,-0.15532 0.0939,4.28232 -3.2e-4,3.99555 -3.4e-4,3.99773 -0.0301,4.10321 -0.0567,0.20114 -0.16914,0.37716 -0.33365,0.52223 -0.0503,0.0443 -0.19828,0.17909 -0.32896,0.29951 -0.26669,0.24575 -0.22588,0.18253 -0.41833,0.64788 l -0.0857,0.20715 v 3.57031 3.57031 l 0.12924,0.29542 c 0.12684,0.28991 0.13134,0.29764 0.24192,0.41445 0.18765,0.19824 0.2727,0.39921 0.28705,0.67825 0.005,0.0978 0.002,0.19759 -0.009,0.2592 -0.0349,0.2008 -0.14256,0.40496 -0.292,0.55376 -0.0957,0.0953 -0.082,0.0696 -0.23382,0.43861 l -0.12316,0.29934 v 3.5687 3.56871 l 0.125,0.29232 0.125,0.29232 0.36534,0.36568 c 0.44023,0.44063 0.48381,0.499 0.55124,0.73824 0.0298,0.10567 0.0298,0.10599 0.0301,4.07457 3.5e-4,4.44137 0.0104,4.03582 -0.10574,4.27511 -0.0566,0.11655 -0.0778,0.14099 -0.445,0.51143 l -0.38561,0.38897 -0.13016,0.29752 -0.13016,0.29751 v 3.56997 3.56998 l 0.0917,0.22188 c 0.17687,0.42787 0.18366,0.43863 0.43714,0.69284 l 0.22551,0.22615 0.29767,0.13025 0.29768,0.13025 h 2.50126 2.50126 l 0.31184,-0.12932 0.31184,-0.12932 0.23552,-0.23428 c 0.26664,-0.26525 0.27469,-0.27774 0.44046,-0.68361 l 0.0953,-0.23334 v -3.56381 -3.56381 l -0.10243,-0.23486 c -0.0756,-0.1732 -0.12023,-0.25564 -0.1702,-0.31405 -0.0373,-0.0436 -0.0942,-0.11808 -0.12646,-0.1656 -0.0323,-0.0475 -0.18088,-0.20684 -0.33021,-0.35404 -0.27845,-0.27448 -0.33433,-0.34629 -0.40435,-0.51965 -0.0801,-0.19836 -0.0767,0.003 -0.0725,-4.24586 l 0.004,-3.92365 0.034,-0.1008 c 0.0836,-0.24758 0.12926,-0.3089 0.5415,-0.7272 0.34763,-0.35275 0.34768,-0.35282 0.37907,-0.4536 0.0173,-0.0554 0.0573,-0.14292 0.089,-0.1944 0.0317,-0.0515 0.0787,-0.13572 0.1046,-0.1872 l 0.047,-0.0936 0.007,-1.7208 0.007,-1.7208 0.0334,-0.0926 c 0.0401,-0.1111 0.0781,-0.18769 0.13627,-0.27463 0.0238,-0.0356 0.39069,-0.41474 0.81522,-0.84243 0.42454,-0.4277 0.80463,-0.82288 0.84465,-0.87817 0.0477,-0.0658 0.11514,-0.13292 0.19555,-0.19437 0.0796,-0.0608 0.72304,-0.6988 1.83018,-1.81463 0.93907,-0.94644 1.73396,-1.7532 1.76641,-1.7928 0.0325,-0.0396 0.0939,-0.10116 0.13653,-0.1368 0.0426,-0.0356 0.64692,-0.63855 1.34284,-1.3398 l 1.26533,-1.275 0.1872,-0.4602 0.1872,-0.4602 0.007,-45.03601 0.007,-45.036 0.0341,-0.1008 c 0.0187,-0.0554 0.059,-0.15049 0.0896,-0.21122 l 0.0555,-0.11042 -1.9e-4,-4.69198 c -2.2e-4,-5.19659 -0.008,-4.75169 0.093,-4.96558 0.13347,-0.28104 0.37367,-0.47771 0.67712,-0.55441 0.11169,-0.0282 0.16136,-0.0288 2.5488,-0.0285 2.73147,2.7e-4 2.53564,-0.007 2.77326,0.10983 0.11328,0.0559 0.15811,0.0889 0.26107,0.19182 0.10427,0.10427 0.13491,0.14624 0.19006,0.2604 0.15429,0.31938 0.14496,0.66399 -0.0263,0.9704 -0.0358,0.0641 -0.11978,0.32884 -0.316,0.99656 l -0.26719,0.90925 v 0.93968 0.93968 l 0.10163,0.34707 c 0.0559,0.19088 0.13326,0.45074 0.1719,0.57746 0.0387,0.12672 0.10998,0.36972 0.15852,0.54 l 0.0883,0.3096 0.18878,0.3456 c 0.10383,0.19008 0.22249,0.38988 0.2637,0.44401 0.0805,0.10572 0.13743,0.21214 0.18054,0.33745 0.0148,0.0432 0.0799,0.17538 0.14449,0.2938 l 0.11747,0.2153 0.67836,0.65355 0.67835,0.65355 0.792,0.47589 0.792,0.47589 0.5328,0.13773 c 0.29304,0.0757 0.59112,0.14992 0.6624,0.16483 0.0713,0.0149 0.15876,0.0376 0.1944,0.0504 0.0356,0.0128 0.15518,0.0456 0.26565,0.0729 l 0.20084,0.0495 h 0.90134 0.90134 l 0.24422,-0.0662 c 0.13431,-0.0364 0.33169,-0.0885 0.43861,-0.11572 0.34427,-0.0877 1.01055,-0.26486 1.1736,-0.31214 0.14258,-0.0413 0.17638,-0.0458 0.3384,-0.0445 0.15313,7.5e-4 0.1972,0.007 0.2952,0.0392 0.31368,0.10305 0.54826,0.33571 0.66772,0.66225 l 0.0379,0.10353 0.004,55.5336 c 0.003,41.08566 0,55.55609 -0.012,55.62001 -0.0666,0.35539 -0.33963,0.66567 -0.68544,0.77901 -0.11424,0.0374 -0.14701,0.0418 -0.31471,0.0418 -0.17598,0 -0.20015,-0.004 -0.4032,-0.0605 -0.1188,-0.0333 -0.55966,-0.15151 -0.97969,-0.2628 l -0.76378,-0.2023 h -0.94628 -0.94631 l -0.89156,0.22939 c -0.49036,0.12616 -0.91007,0.23895 -0.93269,0.25065 -0.0226,0.0117 -0.37796,0.22333 -0.78965,0.47029 -0.68303,0.40969 -0.7593,0.45928 -0.87142,0.56652 -0.0676,0.0646 -0.38016,0.36328 -0.69462,0.66364 l -0.57174,0.54612 -0.0781,0.15948 c -0.043,0.0877 -0.098,0.2021 -0.12225,0.25419 -0.0243,0.0521 -0.0685,0.1266 -0.0983,0.1656 -0.0298,0.039 -0.1722,0.28607 -0.31647,0.54906 -0.27609,0.50327 -0.27822,0.5083 -0.39166,0.92584 -0.0312,0.11484 -0.13484,0.47772 -0.23031,0.8064 l -0.17359,0.5976 -4.3e-4,0.91818 -4.3e-4,0.91817 0.26194,0.91653 0.26194,0.91653 0.19335,0.34689 c 0.10634,0.1908 0.29348,0.52471 0.41588,0.74204 0.25243,0.44822 0.29192,0.54593 0.30317,0.75017 0.0103,0.1867 -0.0215,0.34063 -0.10679,0.51719 -0.0551,0.11416 -0.0858,0.15613 -0.19006,0.2604 -0.10296,0.10296 -0.14779,0.1359 -0.26107,0.19182 -0.0752,0.0371 -0.18212,0.077 -0.23756,0.0885 -0.0881,0.0184 -2.84197,0.021 -21.9168,0.0211 -19.294963,3e-5 -21.826541,-0.002 -21.907188,-0.0215 -0.382319,-0.0901 -0.682364,-0.39018 -0.772494,-0.7725 -0.01904,-0.0808 -0.0215,-7.12826 -0.0215,-61.78078 0,-54.65253 0.0025,-61.70001 0.0215,-61.78079 0.09026,-0.38286 0.389635,-0.68224 0.772494,-0.7725 0.119374,-0.0281 0.318654,-0.0277 0.448342,7.5e-4 0.057,0.0126 0.17045,0.0545 0.252103,0.0931 0.123748,0.0585 0.245999,0.0957 0.7344,0.22328 0.322267,0.0842 0.676659,0.17808 0.787539,0.20862 0.457995,0.12615 0.318647,0.11443 1.360564,0.11443 h 0.930337 l 0.136151,-0.0355 c 0.07488,-0.0196 0.187989,-0.0545 0.251349,-0.0776 0.06336,-0.0232 0.1638,-0.0495 0.2232,-0.0585 0.107953,-0.0164 1.112776,-0.27582 1.180799,-0.30484 0.0198,-0.008 0.392592,-0.22237 0.828426,-0.47539 l 0.792426,-0.46003 0.666031,-0.66615 0.66603,-0.66615 0.185332,-0.32348 c 0.101933,-0.17792 0.206342,-0.35913 0.23202,-0.40269 0.256342,-0.43485 0.494662,-0.84669 0.511256,-0.88351 0.01122,-0.0249 0.122574,-0.42761 0.247443,-0.89489 l 0.227037,-0.8496 v -0.9864 -0.9864 l -0.04581,-0.144 c -0.0252,-0.0792 -0.05005,-0.16668 -0.05523,-0.1944 -0.0052,-0.0277 -0.0902,-0.35669 -0.188933,-0.73105 -0.146794,-0.55659 -0.191179,-0.70489 -0.243496,-0.8136 -0.145677,-0.30271 -0.161903,-0.60647 -0.04697,-0.87933 0.123541,-0.2933 0.384486,-0.51925 0.693068,-0.60014 0.100042,-0.0262 0.240117,-0.0271 4.352664,-0.0279 4.2073,-7.5e-4 4.25042,-5.1e-4 4.3632,0.0281 z m -10.347696,19.84449 c -0.05838,0.0114 -0.08568,0.0337 -0.275586,0.22522 -0.198749,0.20047 -0.211702,0.21697 -0.2268,0.28892 -0.01095,0.0522 -0.01601,0.4266 -0.01601,1.1844 v 1.10809 h 0.1728 0.1728 v -1.07743 c 0,-1.19643 -0.0033,-1.15265 0.09593,-1.26859 0.02814,-0.0329 0.07801,-0.0741 0.110819,-0.0917 0.05825,-0.0312 0.07297,-0.032 0.624852,-0.0361 l 0.5652,-0.004 V 266.42 266.24782 l -0.5796,0.002 c -0.31878,7.5e-4 -0.60876,0.007 -0.6444,0.0142 z m 3.441601,0.15643 v 0.1722 l 0.594,0.004 c 0.577405,0.004 0.595605,0.005 0.651605,0.0353 0.0679,0.0367 0.13736,0.10731 0.17478,0.17766 0.0254,0.0477 0.027,0.10965 0.0308,1.1556 l 0.004,1.1052 h 0.14415 0.14414 l -0.004,-1.1484 -0.004,-1.1484 -0.0408,-0.0964 c -0.0331,-0.0782 -0.0633,-0.11797 -0.16022,-0.21103 -0.15243,-0.14633 -0.21083,-0.18377 -0.31643,-0.2028 -0.0512,-0.009 -0.31231,-0.0154 -0.651596,-0.0154 h -0.566101 z m -3.960001,5.97724 c 0,0.97916 0.0028,1.12078 0.0236,1.206 0.02812,0.11506 0.09072,0.20376 0.246398,0.34914 0.162776,0.15202 0.140383,0.14801 0.863998,0.1544 l 0.6084,0.005 v -0.14498 -0.14498 h -0.530186 c -0.620646,0 -0.640627,-0.003 -0.752099,-0.11451 -0.119209,-0.11921 -0.114515,-0.0651 -0.114515,-1.3209 v -1.09899 h -0.1728 -0.1728 z m 5.414406,-0.003 c 0,1.25739 0.006,1.19351 -0.11585,1.31497 -0.11063,0.11064 -0.12821,0.11319 -0.779569,0.11319 h -0.558986 v 0.144 0.144 l 0.5508,-1.4e-4 c 0.30701,0 0.592225,-0.007 0.644395,-0.0149 0.1092,-0.0173 0.27484,-0.0912 0.34767,-0.15518 0.0679,-0.0596 0.13574,-0.19035 0.17063,-0.3288 0.0271,-0.10761 0.0285,-0.1654 0.0287,-1.21817 l 2.1e-4,-1.1052 h -0.144 -0.144 z m -4.917606,12.59401 c -0.107831,0.0266 -0.14798,0.0532 -0.266819,0.17671 -0.16704,0.17355 -0.172626,0.1817 -0.201965,0.29467 -0.02593,0.0999 -0.02754,0.17021 -0.02777,1.21837 l -2.47e-4,1.1124 h 0.172463 0.172462 l 0.0039,-1.134 c 0.0039,-1.13136 0.004,-1.13413 0.03508,-1.1916 0.04138,-0.0765 0.112738,-0.143 0.192061,-0.17887 0.0615,-0.0278 0.09288,-0.0293 0.6156,-0.0296 l 0.5508,-3.2e-4 v -0.144 -0.144 l -0.5868,7.5e-4 c -0.413582,7.5e-4 -0.608053,0.006 -0.6588,0.019 z m 3.463201,0.12375 v 0.144 l 0.5796,3.2e-4 c 0.551685,3e-4 0.582715,0.002 0.644395,0.0296 0.0793,0.0359 0.15068,0.10232 0.19207,0.17887 0.0311,0.0575 0.0311,0.0602 0.0351,1.1916 l 0.004,1.134 h 0.14366 0.14366 l -1.4e-4,-1.1052 c -1.5e-4,-1.05894 -0.001,-1.11027 -0.0292,-1.22651 -0.0488,-0.20351 -0.14164,-0.33027 -0.30113,-0.41109 -0.14478,-0.0734 -0.20551,-0.0792 -0.83239,-0.0794 l -0.579557,-2.2e-4 z m -3.959649,6.0084 c 2.16e-4,0.68148 0.0059,1.13634 0.01461,1.1742 0.02483,0.10765 0.07028,0.18417 0.178768,0.30094 0.21563,0.23211 0.227317,0.23486 0.99554,0.23486 h 0.553133 v -0.17202 -0.17202 l -0.558,-0.004 -0.558,-0.004 -0.07712,-0.0427 c -0.04242,-0.0235 -0.09606,-0.0656 -0.119214,-0.0936 -0.08524,-0.10305 -0.08447,-0.0915 -0.08447,-1.2631 v -1.07019 h -0.1728 -0.1728 l 3.53e-4,1.1124 z m 5.414054,-0.0422 c 0,1.17679 0.001,1.15954 -0.0874,1.26671 -0.0248,0.03 -0.0784,0.0721 -0.11922,0.0936 l -0.0741,0.0391 -0.586799,0.004 -0.5868,0.004 v 0.17205 0.17205 l 0.5508,-1.4e-4 c 0.30701,0 0.592229,-0.007 0.644399,-0.0149 0.1046,-0.0166 0.27067,-0.0892 0.34228,-0.14979 0.0593,-0.0501 0.10791,-0.13269 0.15819,-0.2687 l 0.0394,-0.10647 0.004,-1.1412 0.004,-1.1412 H 99.7795 99.63508 v 1.07077 z m -4.905456,3.98483 c -0.03292,0.007 -0.08513,0.0247 -0.116022,0.0405 -0.06104,0.0311 -0.307868,0.28068 -0.340994,0.34474 -0.04746,0.0918 -0.05193,0.20509 -0.05193,1.31601 v 1.10615 h 0.172463 0.172462 l 0.0039,-1.134 c 0.0039,-1.13136 0.004,-1.13413 0.03508,-1.1916 0.04138,-0.0765 0.112738,-0.143 0.192061,-0.17887 0.0615,-0.0278 0.09288,-0.0293 0.6156,-0.0296 l 0.5508,-3.2e-4 v -0.144 -0.144 l -0.5868,0.002 c -0.32274,7.5e-4 -0.613732,0.007 -0.64665,0.0134 z m 3.451051,0.129 v 0.144 h 0.570729 c 0.395793,0 0.588056,0.005 0.627256,0.0169 0.0716,0.0214 0.17613,0.11283 0.21742,0.19002 l 0.0318,0.0594 0.004,1.134 0.004,1.134 h 0.14415 0.14415 l -0.004,-1.1484 c -0.005,-1.29083 -6.4e-4,-1.23953 -0.11277,-1.37373 -0.0308,-0.0368 -0.0692,-0.0894 -0.0855,-0.11698 -0.0189,-0.032 -0.0598,-0.0662 -0.11332,-0.0947 -0.15495,-0.0826 -0.20817,-0.0881 -0.847911,-0.0884 l -0.5796,-2.2e-4 z m -3.960001,6.00284 c 0,0.69087 0.0055,1.13598 0.01467,1.1844 0.01406,0.0744 0.02311,0.086 0.2196,0.28304 0.137807,0.13816 0.221443,0.21093 0.255334,0.22215 0.03375,0.0112 0.248984,0.0186 0.6516,0.0223 l 0.6012,0.006 v -0.17315 -0.17314 l -0.5508,-0.004 -0.5508,-0.004 -0.08251,-0.0405 c -0.04538,-0.0223 -0.102264,-0.0644 -0.126413,-0.0936 -0.08731,-0.10556 -0.08628,-0.0905 -0.08628,-1.2653 v -1.07019 h -0.1728 -0.1728 z m 5.414406,-0.0367 c 0,1.17678 0.001,1.15953 -0.0874,1.2667 -0.0248,0.03 -0.0784,0.0721 -0.11922,0.0936 l -0.0741,0.0391 -0.586799,0.004 -0.5868,0.004 v 0.17205 0.17205 l 0.5436,-2.8e-4 c 0.587929,-3.1e-4 0.711929,-0.0102 0.802149,-0.0639 0.0814,-0.0485 0.24034,-0.19595 0.30247,-0.28059 0.0933,-0.12711 0.0936,-0.13209 0.0939,-1.37239 l 2.5e-4,-1.1052 h -0.144 -0.144 v 1.07019 z m -4.905456,12.62478 c -0.03292,0.007 -0.08476,0.0248 -0.1152,0.0405 -0.05761,0.0299 -0.243584,0.21333 -0.313778,0.30953 -0.08129,0.1114 -0.07997,0.0897 -0.07997,1.32202 v 1.1352 h 0.172463 0.172462 l 0.0039,-1.134 0.0039,-1.13401 0.0318,-0.0594 c 0.04129,-0.0772 0.145859,-0.16858 0.217421,-0.19002 0.03898,-0.0117 0.224733,-0.0169 0.598452,-0.0169 h 0.541929 v -0.144 -0.144 l -0.5868,0.002 c -0.32274,9e-4 -0.613732,0.007 -0.64665,0.0134 z m 3.451051,0.12855 v 0.14354 l 0.594,0.004 c 0.549595,0.004 0.598115,0.006 0.649015,0.0314 0.07,0.0348 0.13181,0.0966 0.17234,0.17234 l 0.0318,0.0595 0.004,1.13401 0.004,1.134 h 0.14366 0.14367 l -1.8e-4,-1.1268 c -1.8e-4,-1.23614 0.002,-1.19717 -0.0881,-1.37538 -0.0784,-0.15441 -0.24024,-0.26982 -0.42851,-0.30553 -0.0446,-0.008 -0.321306,-0.0147 -0.651538,-0.0147 h -0.574035 v 0.14355 z m -3.956818,6.03046 c 0.0037,1.048 0.006,1.13887 0.02965,1.19823 0.01792,0.0449 0.07057,0.10832 0.175095,0.21083 0.144562,0.14179 0.15458,0.14865 0.305567,0.20936 l 0.156105,0.0628 0.5364,0.004 0.5364,0.004 v -0.17267 -0.17267 l -0.5508,-0.004 c -0.5236,-0.004 -0.554,-0.006 -0.6156,-0.0345 -0.09201,-0.0428 -0.146411,-0.0931 -0.1875,-0.17358 l -0.0357,-0.0699 -0.0039,-1.098 -0.0039,-1.098 h -0.17287 -0.172871 z m 5.411223,-0.0638 c 0,1.17481 9.7e-4,1.15974 -0.0863,1.2653 -0.0242,0.0292 -0.081,0.0713 -0.12642,0.0936 l -0.0825,0.0405 -0.579598,0.004 -0.5796,0.004 v 0.1727 0.17271 l 0.5364,-0.004 0.536398,-0.004 0.1728,-0.069 c 0.28881,-0.11536 0.3928,-0.20476 0.4557,-0.39177 l 0.0339,-0.1008 0.004,-1.1268 0.004,-1.1268 H 99.77952 99.6351 Z m -4.888806,3.96705 c -0.141817,0.0524 -0.146541,0.0556 -0.311668,0.21605 -0.162089,0.15745 -0.168439,0.16594 -0.1908,0.25496 -0.02024,0.0806 -0.02313,0.22994 -0.02313,1.19432 v 1.10225 h 0.172455 0.172454 l 0.0039,-1.1052 c 0.0039,-1.10281 0.004,-1.10533 0.03519,-1.16357 0.03875,-0.0724 0.107772,-0.14099 0.176006,-0.17497 0.04687,-0.0233 0.107232,-0.0263 0.617149,-0.0299 l 0.5652,-0.004 V 323.96232 323.79 l -0.5364,8.3e-4 -0.5364,8.2e-4 z m 3.434401,0.11798 v 0.1728 h 0.573435 c 0.63979,0 0.66217,0.003 0.75743,0.0953 0.0285,0.0277 0.0663,0.0775 0.0841,0.11068 l 0.0323,0.0604 0.004,1.1052 0.004,1.1052 h 0.14365 0.14366 v -1.0993 c 0,-1.04164 -0.001,-1.10504 -0.028,-1.20876 -0.0355,-0.13895 -0.0547,-0.17491 -0.13712,-0.25689 -0.0824,-0.082 -0.16292,-0.12656 -0.36169,-0.2003 l -0.153973,-0.0573 H 98.71152 98.180755 Z m -3.95673,6.0156 0.0039,1.1628 0.04007,0.0816 c 0.05169,0.10526 0.271164,0.33281 0.358084,0.37126 0.103514,0.0458 0.280421,0.0584 0.82187,0.0584 h 0.515176 v -0.14308 -0.14307 l -0.5508,-0.005 -0.5508,-0.005 -0.08377,-0.0411 c -0.09575,-0.047 -0.17163,-0.138 -0.196182,-0.23524 -0.01007,-0.0399 -0.01524,-0.4348 -0.01524,-1.1628 v -1.10242 h -0.173129 -0.17313 z m 5.421235,-1.15371 c -0.006,0.006 -0.0101,0.50357 -0.0101,1.10669 0,1.20374 0.001,1.18595 -0.0863,1.2917 -0.0242,0.0292 -0.081,0.0713 -0.12642,0.0936 l -0.0825,0.0405 -0.579598,0.004 -0.5796,0.004 v 0.14435 0.14434 l 0.594,-0.006 c 0.395498,-0.004 0.615658,-0.0122 0.658798,-0.0237 0.10138,-0.0269 0.24675,-0.104 0.30392,-0.16108 0.0638,-0.0637 0.14931,-0.23079 0.1704,-0.33301 0.0107,-0.0517 0.0144,-0.43074 0.0119,-1.19178 l -0.004,-1.116 -0.1303,-0.004 c -0.0717,-0.002 -0.13484,4.5e-4 -0.1404,0.006 z m -4.769306,13.67919 c -0.01584,0.002 -0.06494,0.008 -0.109107,0.0133 l -0.08031,0.009 -0.214892,0.21473 c -0.177895,0.17776 -0.217792,0.22536 -0.231734,0.27648 -0.01214,0.0445 -0.01716,0.37651 -0.018,1.18854 l -0.0012,1.1268 h 0.1728 0.1728 l 6.33e-4,-1.0836 c 5.08e-4,-0.8717 0.0044,-1.09425 0.02006,-1.13807 0.0311,-0.0872 0.08206,-0.1518 0.158953,-0.20156 l 0.07165,-0.0464 0.57319,-0.004 0.573191,-0.004 -0.004,-0.17593 -0.004,-0.17592 -0.5256,-0.002 c -0.28908,-9.7e-4 -0.53856,3.2e-4 -0.5544,0.003 z m 3.304801,0.17037 v 0.18135 h 0.583662 c 0.629143,0 0.628773,0 0.731613,0.0784 0.0265,0.0202 0.067,0.0707 0.09,0.11234 l 0.0419,0.0757 0.007,1.1016 0.007,1.1016 h 0.1368 0.1368 l 0.004,-1.0872 c 0.004,-1.12038 -4.8e-4,-1.23382 -0.0532,-1.3368 -0.0256,-0.05 -0.21942,-0.25122 -0.30916,-0.32094 -0.0875,-0.068 -0.14865,-0.0743 -0.782784,-0.0811 l -0.594,-0.006 z m -3.959776,5.98095 c 2.45e-4,1.2189 9e-4,1.22955 0.08072,1.34593 0.07069,0.10304 0.259176,0.28406 0.327041,0.31408 0.101758,0.045 0.312196,0.0586 0.837615,0.0541 l 0.4896,-0.004 v -0.144 -0.144 l -0.5688,-0.007 -0.5688,-0.007 -0.06952,-0.0409 c -0.07399,-0.0435 -0.143634,-0.13668 -0.168183,-0.22505 -0.0087,-0.0313 -0.01417,-0.47727 -0.01422,-1.15609 l -8.1e-5,-1.1052 h -0.1728 -0.1728 l 2.25e-4,1.1196 z m 5.424281,-1.1105 c -0.006,0.006 -0.0101,0.50187 -0.0101,1.10292 0,0.72125 -0.005,1.11335 -0.0152,1.1532 -0.0235,0.0932 -0.10021,0.18755 -0.18794,0.23127 l -0.0761,0.0379 h -0.587575 -0.587573 v 0.15254 0.15254 l 0.594,-0.007 c 0.37858,-0.004 0.616498,-0.0127 0.656038,-0.0232 0.10119,-0.0269 0.25044,-0.10576 0.30747,-0.16251 0.0725,-0.0721 0.15122,-0.24097 0.17014,-0.36476 0.0102,-0.0666 0.0141,-0.4692 0.0115,-1.18788 l -0.004,-1.0872 -0.1303,-0.004 c -0.0717,-0.002 -0.13484,4.5e-4 -0.1404,0.006 z m -4.848506,5.0466 c -0.157154,0.0202 -0.209295,0.0484 -0.347705,0.18802 -0.14249,0.14372 -0.189625,0.21608 -0.212465,0.32619 -0.01071,0.0516 -0.01583,0.4368 -0.01583,1.1916 v 1.11529 h 0.172455 0.172454 l 0.0039,-1.1052 0.0039,-1.1052 0.04192,-0.0757 c 0.02306,-0.0416 0.06356,-0.0922 0.09001,-0.11234 0.102415,-0.0781 0.104963,-0.0784 0.702809,-0.0784 h 0.554862 v -0.18 -0.18 l -0.5364,0.002 c -0.29502,9.7e-4 -0.57852,0.007 -0.63,0.0139 z m 3.384001,0.16307 v 0.18123 h 0.583662 c 0.629143,0 0.628773,0 0.731613,0.0784 0.0265,0.0202 0.067,0.0707 0.09,0.11234 l 0.0419,0.0757 0.007,1.1016 0.007,1.1016 h 0.1368 0.1368 l 0.004,-1.0872 c 0.002,-0.69603 -10e-4,-1.12347 -0.011,-1.188 -0.0181,-0.12253 -0.0973,-0.29159 -0.17097,-0.36516 -0.0575,-0.0575 -0.20271,-0.13449 -0.30436,-0.16152 -0.0431,-0.0115 -0.263301,-0.0194 -0.658799,-0.0237 l -0.594,-0.006 z m -3.960001,5.96525 c 0,0.74014 0.0052,1.13409 0.01589,1.19524 0.0094,0.054 0.0319,0.11507 0.05511,0.14963 0.0526,0.0783 0.266727,0.29676 0.315107,0.32145 0.08803,0.0449 0.194025,0.0521 0.774331,0.0521 h 0.583012 l -0.0041,-0.1404 -0.0041,-0.1404 -0.5688,-0.007 -0.5688,-0.007 -0.06952,-0.0409 c -0.07399,-0.0435 -0.143634,-0.13668 -0.168182,-0.22505 -0.0087,-0.0313 -0.01417,-0.47727 -0.01422,-1.15609 l -8.1e-5,-1.1052 h -0.1728 -0.1728 z m 5.414406,-0.002 c 0,0.728 -0.005,1.12293 -0.0152,1.1628 -0.0235,0.0932 -0.10021,0.18755 -0.18794,0.23127 l -0.0761,0.0379 h -0.587576 -0.587573 v 0.144 0.144 h 0.582491 c 0.37669,0 0.609448,-0.006 0.658798,-0.0162 0.10958,-0.0233 0.25409,-0.0972 0.31778,-0.16254 0.0717,-0.0736 0.14903,-0.23652 0.168,-0.35406 0.01,-0.0594 0.0151,-0.49485 0.0152,-1.1916 l 1.5e-4,-1.098 h -0.144 -0.144 v 1.10245 z m -4.788006,12.58751 c -0.01584,0.004 -0.09553,0.0298 -0.177096,0.0581 -0.142675,0.0496 -0.151893,0.0554 -0.243174,0.15374 -0.05218,0.0562 -0.111034,0.12646 -0.130781,0.15614 -0.07355,0.11051 -0.07488,0.13409 -0.07512,1.33205 l -2.25e-4,1.1124 h 0.1728 0.1728 v -1.09899 c 0,-1.20637 -0.0012,-1.18833 0.08628,-1.2941 0.02415,-0.0292 0.08103,-0.0713 0.126413,-0.0936 l 0.08251,-0.0405 0.5508,-0.004 0.5508,-0.004 v -0.14322 -0.14321 l -0.5436,0.002 c -0.29898,9e-4 -0.55656,0.005 -0.5724,0.008 z m 3.333601,0.13255 v 0.14401 l 0.5796,0.004 0.579605,0.004 0.0825,0.0405 c 0.0454,0.0223 0.10226,0.0644 0.12641,0.0936 0.0875,0.10577 0.0863,0.0877 0.0863,1.2941 v 1.09899 h 0.144 0.144 l -2.5e-4,-1.1052 c -2.7e-4,-1.219 -5.2e-4,-1.2228 -0.0891,-1.3897 -0.0684,-0.12892 -0.13664,-0.19194 -0.23772,-0.21949 -0.0459,-0.0125 -0.12549,-0.0403 -0.17697,-0.0618 l -0.0936,-0.039 -0.5724,-0.004 -0.5724,-0.004 v 0.144 z m -3.960001,6.00435 c 0,0.6887 0.0055,1.13614 0.01463,1.1844 0.01407,0.0746 0.02269,0.0857 0.227786,0.2909 0.174773,0.17491 0.223357,0.21569 0.269775,0.22645 0.03114,0.007 0.320674,0.0133 0.643414,0.0135 l 0.5868,3.4e-4 v -0.1728 -0.1728 H 95.42123 c -0.373719,0 -0.559473,-0.005 -0.598452,-0.0169 -0.07156,-0.0214 -0.176133,-0.11283 -0.217421,-0.19001 l -0.0318,-0.0595 -0.0039,-1.1052 -0.0039,-1.1052 h -0.172454 -0.172455 z m 5.411146,-0.002 c -0.004,1.10281 -0.004,1.10533 -0.0352,1.16356 -0.0388,0.0724 -0.10777,0.141 -0.176,0.17497 -0.047,0.0234 -0.10828,0.0263 -0.645954,0.0299 l -0.594,0.004 v 0.17308 0.17305 l 0.6228,-0.004 c 0.605134,-0.004 0.624734,-0.005 0.690844,-0.0358 0.081,-0.0374 0.33342,-0.27621 0.3721,-0.35202 0.0518,-0.10151 0.0564,-0.21094 0.0565,-1.33374 l 1.5e-4,-1.098 h -0.14366 -0.14365 l -0.004,1.1052 z m 12.75056,-130.8441 c 0.0454,0.0223 0.10227,0.0644 0.12642,0.0936 0.0929,0.1123 0.0863,-0.24654 0.0863,4.68644 v 4.49133 l -0.0383,0.0957 -0.0383,0.0957 0.006,8.74116 0.006,8.74115 -0.0337,0.0684 c -0.0185,0.0376 -0.0603,0.0912 -0.093,0.11913 -0.10495,0.0898 -0.13447,0.0933 -0.79038,0.0933 h -0.58779 v 5.7168 5.7168 l 0.6084,1.5e-4 0.6084,1.4e-4 0.0728,0.0339 c 0.0403,0.0188 0.0968,0.0619 0.12653,0.0967 0.10377,0.12124 0.0966,-0.15195 0.0924,3.51296 l -0.004,3.30418 -0.0432,0.0781 c -0.0238,0.043 -0.0687,0.0966 -0.0999,0.11918 -0.1223,0.0886 0.008,0.0843 -2.42097,0.0802 -2.05823,-0.004 -2.22048,-0.006 -2.26901,-0.0285 -0.077,-0.0364 -0.13769,-0.0923 -0.18202,-0.16765 l -0.0393,-0.0669 v -3.348 c 0,-3.28259 5.5e-4,-3.3491 0.0279,-3.40421 0.0356,-0.0717 0.10343,-0.13954 0.1751,-0.1751 0.0526,-0.0261 0.0966,-0.0281 0.67901,-0.0319 l 0.6228,-0.004 v -5.71636 -5.71636 h -0.59706 c -0.56116,0 -0.60167,-0.002 -0.67378,-0.0287 -0.082,-0.0307 -0.16274,-0.10368 -0.20717,-0.18729 -0.0259,-0.0487 -0.0268,-0.16194 -0.0268,-3.3984 0,-3.23761 9e-4,-3.34966 0.0268,-3.3984 0.0374,-0.0704 0.10689,-0.14095 0.17479,-0.17766 l 0.0576,-0.0311 1.3716,-0.004 1.3716,-0.004 v -5.27997 -5.27999 l -0.0324,-0.0657 -0.0324,-0.0657 -0.004,-4.4928 c -0.003,-3.24762 0,-4.51345 0.0116,-4.56733 0.0295,-0.13787 0.14479,-0.24815 0.29008,-0.27753 0.0345,-0.007 0.40612,-0.0116 0.82588,-0.0103 l 0.7632,0.002 z m 2.79672,-0.0149 c 0.0908,0.041 0.14247,0.0878 0.18834,0.17063 l 0.0428,0.0773 v 4.536 4.536 l -0.0324,0.0657 -0.0324,0.0657 -0.004,19.38154 c -0.004,18.41874 -0.005,19.38583 -0.0289,19.46793 -0.0139,0.0475 -0.0522,0.14148 -0.0852,0.2088 l -0.06,0.1224 -1.31495,1.31763 -1.31495,1.31764 -0.004,2.21756 -0.004,2.21757 -0.0444,0.0792 c -0.053,0.0946 -0.14601,0.16339 -0.25126,0.18596 -0.0455,0.01 -0.28657,0.0156 -0.64104,0.0156 h -0.56809 v 5.7456 5.7456 l 0.6084,1.5e-4 c 0.60706,1.4e-4 0.60856,2.1e-4 0.6804,0.0337 0.0396,0.0185 0.096,0.0603 0.12542,0.0929 0.10601,0.11759 0.0985,-0.16193 0.0943,3.51707 l -0.004,3.30419 -0.0432,0.0781 c -0.0458,0.0829 -0.11952,0.14599 -0.20633,0.17676 -0.0425,0.0151 -0.49013,0.0188 -2.29207,0.0188 h -2.2392 l -0.0787,-0.0432 c -0.0876,-0.0481 -0.16441,-0.13844 -0.18705,-0.21997 -0.0101,-0.0362 -0.0149,-1.12435 -0.015,-3.35227 -1.5e-4,-3.67884 -0.009,-3.37633 0.10114,-3.48968 0.11058,-0.11395 0.075,-0.10878 0.78078,-0.11346 l 0.63,-0.004 v -5.74431 -5.74431 l -0.6156,-0.004 -0.6156,-0.004 -0.0787,-0.0432 c -0.0885,-0.0486 -0.16515,-0.1394 -0.18741,-0.22208 -0.0101,-0.0375 -0.0137,-1.12306 -0.0112,-3.3726 0.004,-3.26319 0.004,-3.31825 0.032,-3.37429 0.0155,-0.0313 0.053,-0.081 0.0833,-0.11043 0.10928,-0.10605 -0.0608,-0.099 2.38571,-0.099 h 2.19697 l 0.56527,-0.56513 0.56527,-0.56512 v -19.08425 -19.08425 l -0.0324,-0.0606 -0.0324,-0.0606 -0.004,-4.51973 c -0.002,-3.07681 0.001,-4.53737 0.0112,-4.57499 0.0191,-0.0709 0.0943,-0.16943 0.15743,-0.20631 0.10766,-0.0629 0.14153,-0.0651 0.95107,-0.062 0.70405,0.003 0.77529,0.005 0.82722,0.0286 z m 2.83038,0.005 c 0.0795,0.037 0.17654,0.14007 0.20329,0.21585 0.0168,0.0475 0.0199,0.76563 0.0199,4.57078 v 4.5144 l -0.0396,0.0846 -0.0396,0.0846 -1.4e-4,32.3514 c -1.5e-4,28.20087 -0.003,32.36272 -0.021,32.43972 -0.0256,0.10829 -0.077,0.22676 -0.13804,0.31806 -0.0253,0.0378 -1.26335,1.28705 -2.75122,2.77601 l -2.70521,2.7072 -0.004,2.2176 -0.004,2.2176 -0.0419,0.0757 c -0.0443,0.08 -0.10326,0.13323 -0.19209,0.17347 -0.0475,0.0215 -0.12694,0.025 -0.66239,0.0289 l -0.6084,0.004 v 5.74475 5.74475 h 0.59953 c 0.43241,0 0.61605,0.005 0.6588,0.0177 0.0362,0.0108 0.0883,0.0459 0.13363,0.09 0.132,0.12835 0.12078,-0.21113 0.11656,3.52881 l -0.004,3.2971 -0.0301,0.065 c -0.0374,0.0808 -0.10978,0.15445 -0.18561,0.18889 -0.0553,0.0251 -0.16012,0.0263 -2.31229,0.0266 l -2.25437,3.2e-4 -0.0749,-0.0373 c -0.0412,-0.0205 -0.0941,-0.0606 -0.11763,-0.0892 -0.0933,-0.11321 -0.0868,0.14877 -0.0868,-3.48071 0,-3.62948 -0.007,-3.36751 0.0868,-3.48071 0.0235,-0.0285 0.0765,-0.0687 0.11763,-0.0892 l 0.0749,-0.0373 h 0.61637 0.61637 v -5.74475 -5.74475 l -0.6084,-0.004 -0.6084,-0.004 -0.0864,-0.0432 c -0.0956,-0.0478 -0.16912,-0.13129 -0.19375,-0.21997 -0.0101,-0.0362 -0.0149,-1.12458 -0.015,-3.35302 -1.4e-4,-3.60002 -0.006,-3.35604 0.0808,-3.46956 0.0213,-0.028 0.0686,-0.0684 0.10496,-0.0898 l 0.0662,-0.0389 2.2248,-0.004 2.2248,-0.004 1.9764,-1.97625 1.9764,-1.97626 v -32.07167 -32.07198 l -0.0324,-0.0617 -0.0324,-0.0616 -0.004,-4.53318 -0.004,-4.53318 0.0306,-0.0711 c 0.0321,-0.0747 0.11699,-0.16254 0.1827,-0.18916 0.0855,-0.0346 0.16831,-0.0379 0.91005,-0.0357 0.74934,0.002 0.77217,0.003 0.8352,0.0325 z m 2.88,0 c 0.0795,0.037 0.17654,0.14007 0.20329,0.21585 0.0168,0.0475 0.0199,0.76563 0.0199,4.57078 v 4.5144 l -0.0396,0.0846 -0.0396,0.0846 1.4e-4,45.31179 c 0,39.42425 -0.003,45.32204 -0.0207,45.39062 -0.0337,0.12778 -0.0624,0.19898 -0.11801,0.2928 -0.0414,0.0699 -0.92434,0.96076 -4.20474,4.24282 l -4.1523,4.1544 -0.004,2.2104 c -0.004,2.20726 -0.004,2.21049 -0.0338,2.27536 -0.0374,0.0808 -0.10978,0.15445 -0.18561,0.18889 -0.0532,0.0242 -0.10847,0.0263 -0.67352,0.0266 l -0.61567,3.2e-4 v 5.7168 5.7168 h 0.56809 c 0.35447,0 0.59552,0.006 0.64104,0.0156 0.10526,0.0226 0.19823,0.0914 0.25126,0.18596 l 0.0444,0.0792 0.004,3.30419 c 0.004,3.679 0.0117,3.39947 -0.0943,3.51706 -0.0294,0.0326 -0.0858,0.0744 -0.12542,0.0929 l -0.072,0.0336 -2.23304,1.4e-4 c -2.48667,1.6e-4 -2.31243,0.007 -2.42178,-0.0988 -0.0303,-0.0294 -0.0678,-0.0791 -0.0833,-0.11043 -0.0278,-0.0561 -0.0283,-0.11111 -0.032,-3.3743 -0.002,-2.24952 0.001,-3.33511 0.0112,-3.37259 0.0223,-0.0827 0.0989,-0.17349 0.18741,-0.22209 l 0.0787,-0.0432 0.6156,-0.004 0.6156,-0.004 v -5.71731 -5.71596 h -0.6165 -0.61637 l -0.0748,-0.0373 c -0.0412,-0.0205 -0.0941,-0.0607 -0.11763,-0.0892 -0.0933,-0.1132 -0.0868,0.14877 -0.0868,-3.48071 0,-3.62948 -0.007,-3.3675 0.0868,-3.48071 0.0235,-0.0285 0.0765,-0.0687 0.11763,-0.0892 l 0.0748,-0.0373 h 2.2111 2.2111 l 3.41647,-3.41636 3.41647,-3.41636 v -45.03199 -45.03201 l -0.0324,-0.0616 -0.0324,-0.0616 -0.004,-4.53317 -0.004,-4.53317 0.0306,-0.0711 c 0.0321,-0.0747 0.11698,-0.16255 0.18269,-0.18917 0.0855,-0.0346 0.16831,-0.0379 0.91005,-0.0357 0.74934,0.002 0.77217,0.003 0.8352,0.0325 z m 15.7032,125.4715 c 0.82067,0.12442 1.58291,0.45746 2.232,0.97524 0.20235,0.16141 0.54101,0.49989 0.70406,0.70368 0.55346,0.69174 0.89324,1.50765 0.9955,2.3904 0.0276,0.23808 0.0315,0.73245 0.008,0.9648 -0.12822,1.24751 -0.72634,2.35995 -1.69274,3.14837 -1.05929,0.86419 -2.45372,1.21066 -3.81515,0.94793 -0.60484,-0.11672 -1.26053,-0.39638 -1.76485,-0.75274 -0.64244,-0.45395 -1.13717,-1.03158 -1.48916,-1.7387 -0.81921,-1.64573 -0.58031,-3.62699 0.60763,-5.03926 0.15622,-0.18572 0.46594,-0.48641 0.65833,-0.63912 0.68039,-0.54009 1.4902,-0.87621 2.3616,-0.98021 0.26398,-0.0315 0.93013,-0.0206 1.1952,0.0196 z m -0.9144,0.36192 c -1.03008,0.0564 -1.99775,0.48904 -2.73629,1.2234 -0.84042,0.83567 -1.28512,1.94898 -1.24817,3.1248 0.0366,1.16486 0.51,2.19571 1.37806,3.00081 0.28274,0.26224 0.61269,0.48659 0.9864,0.6707 0.39002,0.19215 0.80867,0.3232 1.2528,0.39216 0.16828,0.0261 0.26585,0.0315 0.5904,0.0322 0.40709,9.5e-4 0.50763,-0.008 0.84743,-0.0731 1.38607,-0.26659 2.56576,-1.24815 3.09989,-2.57924 0.40236,-1.00273 0.4009,-2.16019 -0.004,-3.14995 -0.24133,-0.58995 -0.59118,-1.09227 -1.07054,-1.53711 -0.82576,-0.76629 -1.95001,-1.16743 -3.096,-1.10469 z m -54.07169,12.97042 -3.16e-4,0.1476 0.1476,-1.4e-4 0.1476,-1.4e-4 -0.072,-0.0341 c -0.08711,-0.0412 -0.153938,-0.10903 -0.193269,-0.19602 l -0.0293,-0.0648 z m 61.56105,-0.0883 c -0.0271,0.075 -0.1126,0.16326 -0.19576,0.20207 l -0.072,0.0336 0.1476,1.4e-4 0.1476,1.4e-4 v -0.144 c 0,-0.0792 -0.002,-0.144 -0.004,-0.144 -0.002,0 -0.0128,0.0234 -0.0231,0.0521 z"
       id="path2497-0" /></g></svg>
