G04 EAGLE Gerber X2 export*
%TF.Part,Single*%
%TF.FileFunction,Legend,Bot,1*%
%TF.FilePolarity,Positive*%
%TF.GenerationSoftware,Autodesk,EAGLE,9.5.2*%
%TF.CreationDate,2020-05-13T10:20:14Z*%
G75*
%MOMM*%
%FSLAX26Y26*%
%LPD*%
%INbottom silkscreen*%
%AMOC8*
5,1,8,0,0,1.08239X$1,22.5*%
G01*
%ADD10C,0.127000*%


D10*
X12446000Y4699000D02*
X6858000Y4699000D01*
X6858000Y12319000D02*
X12446000Y12319000D01*
X12446000Y4699000D01*
X6858000Y11049000D02*
X6858000Y12319000D01*
X6858000Y11049000D02*
X6858000Y5969000D01*
X6858000Y4699000D01*
X6858000Y5969000D02*
X8128000Y5969000D01*
X8128000Y11049000D01*
X6858000Y11049000D01*
X11727744Y7336366D02*
X12103100Y7336366D01*
X11727744Y7336366D02*
X11725153Y7336335D01*
X11722563Y7336241D01*
X11719976Y7336084D01*
X11717393Y7335865D01*
X11714817Y7335584D01*
X11712248Y7335241D01*
X11709689Y7334835D01*
X11707140Y7334368D01*
X11704602Y7333839D01*
X11702079Y7333250D01*
X11699570Y7332599D01*
X11697078Y7331888D01*
X11694604Y7331117D01*
X11692149Y7330287D01*
X11689715Y7329397D01*
X11687303Y7328449D01*
X11684915Y7327442D01*
X11682551Y7326379D01*
X11680214Y7325258D01*
X11677905Y7324082D01*
X11675625Y7322850D01*
X11673376Y7321563D01*
X11671158Y7320222D01*
X11668973Y7318828D01*
X11666822Y7317382D01*
X11664708Y7315884D01*
X11662629Y7314336D01*
X11660589Y7312737D01*
X11658589Y7311090D01*
X11656628Y7309395D01*
X11654709Y7307653D01*
X11652833Y7305866D01*
X11651000Y7304033D01*
X11649213Y7302157D01*
X11647471Y7300238D01*
X11645776Y7298277D01*
X11644129Y7296277D01*
X11642530Y7294237D01*
X11640982Y7292158D01*
X11639484Y7290044D01*
X11638038Y7287893D01*
X11636644Y7285708D01*
X11635303Y7283490D01*
X11634016Y7281241D01*
X11632784Y7278961D01*
X11631608Y7276652D01*
X11630487Y7274315D01*
X11629424Y7271951D01*
X11628417Y7269563D01*
X11627469Y7267151D01*
X11626579Y7264717D01*
X11625749Y7262262D01*
X11624978Y7259788D01*
X11624267Y7257296D01*
X11623616Y7254787D01*
X11623027Y7252264D01*
X11622498Y7249726D01*
X11622031Y7247177D01*
X11621625Y7244618D01*
X11621282Y7242049D01*
X11621001Y7239473D01*
X11620782Y7236890D01*
X11620625Y7234303D01*
X11620531Y7231713D01*
X11620500Y7229122D01*
X11620500Y7175500D01*
X11995853Y7631159D02*
X12103100Y7765213D01*
X11620500Y7765213D01*
X11620500Y7631159D02*
X11620500Y7899269D01*
M02*
