G04 EAGLE Gerber X2 export*
%TF.Part,Single*%
%TF.FileFunction,Legend,Top,1*%
%TF.FilePolarity,Positive*%
%TF.GenerationSoftware,Autodesk,EAGLE,9.5.2*%
%TF.CreationDate,2020-05-13T10:20:14Z*%
G75*
%MOMM*%
%FSLAX26Y26*%
%LPD*%
%INtop silkscreen*%
%AMOC8*
5,1,8,0,0,1.08239X$1,22.5*%
G01*
%ADD10C,0.127000*%
%ADD11C,0.152400*%
%ADD12C,0.101600*%


D10*
X14478000Y9652000D02*
X14478000Y5588000D01*
X12446000Y5588000D01*
X12446000Y9652000D01*
X14478000Y9652000D01*
D11*
X15671800Y8460031D02*
X15671800Y8268119D01*
X15671801Y8268119D02*
X15671743Y8263409D01*
X15671570Y8258702D01*
X15671281Y8254001D01*
X15670877Y8249308D01*
X15670358Y8244627D01*
X15669724Y8239960D01*
X15668976Y8235310D01*
X15668114Y8230679D01*
X15667138Y8226071D01*
X15666050Y8221488D01*
X15664849Y8216934D01*
X15663537Y8212410D01*
X15662115Y8207920D01*
X15660583Y8203466D01*
X15658942Y8199051D01*
X15657193Y8194678D01*
X15655337Y8190349D01*
X15653376Y8186066D01*
X15651310Y8181834D01*
X15649141Y8177653D01*
X15646870Y8173526D01*
X15644498Y8169457D01*
X15642027Y8165447D01*
X15639458Y8161499D01*
X15636794Y8157615D01*
X15634035Y8153798D01*
X15631183Y8150049D01*
X15628240Y8146372D01*
X15625207Y8142768D01*
X15622087Y8139239D01*
X15618881Y8135788D01*
X15615592Y8132417D01*
X15612221Y8129128D01*
X15608770Y8125922D01*
X15605242Y8122802D01*
X15601638Y8119769D01*
X15597960Y8116826D01*
X15594212Y8113974D01*
X15590395Y8111215D01*
X15586511Y8108550D01*
X15582563Y8105982D01*
X15578553Y8103511D01*
X15574483Y8101139D01*
X15570357Y8098868D01*
X15566176Y8096699D01*
X15561943Y8094633D01*
X15557661Y8092671D01*
X15553332Y8090815D01*
X15548959Y8089066D01*
X15544544Y8087425D01*
X15540090Y8085893D01*
X15535600Y8084470D01*
X15531076Y8083159D01*
X15526522Y8081958D01*
X15521939Y8080870D01*
X15517331Y8079894D01*
X15512701Y8079032D01*
X15508050Y8078284D01*
X15503383Y8077650D01*
X15498702Y8077130D01*
X15494009Y8076726D01*
X15489308Y8076437D01*
X15484601Y8076264D01*
X15479891Y8076206D01*
X15479891Y8076209D02*
X15000113Y8076209D01*
X14995403Y8076267D01*
X14990696Y8076440D01*
X14985995Y8076729D01*
X14981302Y8077133D01*
X14976621Y8077652D01*
X14971954Y8078286D01*
X14967304Y8079034D01*
X14962673Y8079896D01*
X14958065Y8080872D01*
X14953482Y8081960D01*
X14948928Y8083161D01*
X14944404Y8084473D01*
X14939914Y8085895D01*
X14935460Y8087427D01*
X14931045Y8089068D01*
X14926672Y8090817D01*
X14922343Y8092673D01*
X14918060Y8094634D01*
X14913828Y8096700D01*
X14909647Y8098869D01*
X14905520Y8101140D01*
X14901451Y8103512D01*
X14897441Y8105983D01*
X14893493Y8108552D01*
X14889609Y8111216D01*
X14885792Y8113975D01*
X14882043Y8116827D01*
X14878366Y8119770D01*
X14874762Y8122803D01*
X14871233Y8125923D01*
X14867782Y8129129D01*
X14864411Y8132418D01*
X14861122Y8135789D01*
X14857916Y8139240D01*
X14854796Y8142768D01*
X14851763Y8146372D01*
X14848820Y8150050D01*
X14845968Y8153798D01*
X14843209Y8157615D01*
X14840544Y8161499D01*
X14837976Y8165447D01*
X14835505Y8169457D01*
X14833133Y8173527D01*
X14830862Y8177653D01*
X14828693Y8181834D01*
X14826627Y8186067D01*
X14824665Y8190349D01*
X14822809Y8194678D01*
X14821060Y8199051D01*
X14819419Y8203466D01*
X14817887Y8207920D01*
X14816464Y8212410D01*
X14815153Y8216934D01*
X14813952Y8221488D01*
X14812864Y8226071D01*
X14811888Y8230679D01*
X14811026Y8235309D01*
X14810278Y8239960D01*
X14809644Y8244627D01*
X14809124Y8249308D01*
X14808720Y8254001D01*
X14808431Y8258702D01*
X14808258Y8263409D01*
X14808200Y8268119D01*
X14808200Y8460031D01*
X15000113Y8842025D02*
X14808200Y9081913D01*
X15671800Y9081913D01*
X15671800Y9321800D02*
X15671800Y8842025D01*
X3030981Y8353300D02*
X2218181Y8353300D01*
X2218181Y8912097D01*
X2218181Y11198100D02*
X3030981Y11198100D01*
X2218181Y11198100D02*
X2218181Y10639297D01*
D12*
X917700Y7918481D02*
X-252700Y7918481D01*
X-252700Y8243591D01*
X-252605Y8251447D01*
X-252320Y8259298D01*
X-251846Y8267140D01*
X-251182Y8274969D01*
X-250330Y8282779D01*
X-249288Y8290566D01*
X-248059Y8298326D01*
X-246643Y8306054D01*
X-245041Y8313745D01*
X-243253Y8321396D01*
X-241281Y8329001D01*
X-239125Y8336556D01*
X-236788Y8344056D01*
X-234270Y8351499D01*
X-231573Y8358878D01*
X-228698Y8366189D01*
X-225648Y8373430D01*
X-222424Y8380594D01*
X-219027Y8387678D01*
X-215460Y8394679D01*
X-211725Y8401591D01*
X-207825Y8408410D01*
X-203760Y8415134D01*
X-199534Y8421757D01*
X-195150Y8428276D01*
X-190609Y8434688D01*
X-185915Y8440987D01*
X-181069Y8447172D01*
X-176076Y8453238D01*
X-170938Y8459181D01*
X-165657Y8464998D01*
X-160238Y8470686D01*
X-154682Y8476242D01*
X-148994Y8481661D01*
X-143177Y8486942D01*
X-137234Y8492080D01*
X-131168Y8497073D01*
X-124983Y8501919D01*
X-118684Y8506613D01*
X-112272Y8511154D01*
X-105753Y8515538D01*
X-99130Y8519764D01*
X-92406Y8523829D01*
X-85587Y8527729D01*
X-78675Y8531464D01*
X-71674Y8535031D01*
X-64590Y8538428D01*
X-57426Y8541652D01*
X-50185Y8544702D01*
X-42874Y8547577D01*
X-35495Y8550274D01*
X-28052Y8552792D01*
X-20552Y8555129D01*
X-12997Y8557285D01*
X-5392Y8559257D01*
X2259Y8561045D01*
X9950Y8562647D01*
X17678Y8564063D01*
X25438Y8565292D01*
X33225Y8566334D01*
X41035Y8567186D01*
X48864Y8567850D01*
X56706Y8568324D01*
X64557Y8568609D01*
X72413Y8568704D01*
X72413Y8568703D02*
X592591Y8568703D01*
X600447Y8568608D01*
X608298Y8568323D01*
X616140Y8567849D01*
X623969Y8567185D01*
X631779Y8566333D01*
X639566Y8565291D01*
X647326Y8564062D01*
X655054Y8562646D01*
X662745Y8561044D01*
X670395Y8559256D01*
X678000Y8557284D01*
X685555Y8555128D01*
X693056Y8552791D01*
X700498Y8550273D01*
X707877Y8547576D01*
X715189Y8544701D01*
X722429Y8541651D01*
X729593Y8538427D01*
X736677Y8535030D01*
X743678Y8531463D01*
X750589Y8527728D01*
X757409Y8523828D01*
X764133Y8519763D01*
X770756Y8515537D01*
X777275Y8511153D01*
X783686Y8506612D01*
X789986Y8501918D01*
X796170Y8497072D01*
X802236Y8492079D01*
X808179Y8486941D01*
X813996Y8481660D01*
X819684Y8476241D01*
X825240Y8470685D01*
X830659Y8464997D01*
X835940Y8459180D01*
X841078Y8453237D01*
X846071Y8447171D01*
X850916Y8440987D01*
X855611Y8434687D01*
X860152Y8428275D01*
X864536Y8421756D01*
X868762Y8415133D01*
X872826Y8408409D01*
X876727Y8401590D01*
X880462Y8394678D01*
X884028Y8387678D01*
X887425Y8380593D01*
X890649Y8373429D01*
X893700Y8366189D01*
X896574Y8358877D01*
X899271Y8351498D01*
X901789Y8344056D01*
X904126Y8336555D01*
X906281Y8329000D01*
X908254Y8321395D01*
X910041Y8313745D01*
X911644Y8306053D01*
X913060Y8298326D01*
X914289Y8290566D01*
X915330Y8282779D01*
X916183Y8274969D01*
X916846Y8267140D01*
X917320Y8259298D01*
X917605Y8251447D01*
X917700Y8243591D01*
X917700Y7918481D01*
X7391Y9101438D02*
X-252700Y9426547D01*
X917700Y9426547D01*
X917700Y9101438D02*
X917700Y9751659D01*
D10*
X3048000Y6223000D02*
X3048000Y2159000D01*
X3048000Y6223000D02*
X5080000Y6223000D01*
X5080000Y2159000D01*
X3048000Y2159000D01*
D11*
X2717800Y2489200D02*
X1854200Y2489200D01*
X1854200Y2729088D01*
X1854271Y2734930D01*
X1854484Y2740768D01*
X1854840Y2746599D01*
X1855337Y2752419D01*
X1855976Y2758226D01*
X1856756Y2764016D01*
X1857677Y2769785D01*
X1858738Y2775530D01*
X1859939Y2781247D01*
X1861279Y2786933D01*
X1862756Y2792585D01*
X1864371Y2798200D01*
X1866122Y2803773D01*
X1868008Y2809302D01*
X1870029Y2814783D01*
X1872182Y2820214D01*
X1874467Y2825591D01*
X1876882Y2830910D01*
X1879426Y2836169D01*
X1882097Y2841365D01*
X1884894Y2846493D01*
X1887815Y2851553D01*
X1890858Y2856539D01*
X1894022Y2861450D01*
X1897304Y2866283D01*
X1900704Y2871034D01*
X1904217Y2875701D01*
X1907844Y2880281D01*
X1911581Y2884772D01*
X1915426Y2889170D01*
X1919377Y2893473D01*
X1923432Y2897679D01*
X1927588Y2901784D01*
X1931843Y2905787D01*
X1936194Y2909686D01*
X1940638Y2913477D01*
X1945174Y2917159D01*
X1949798Y2920730D01*
X1954507Y2924186D01*
X1959299Y2927528D01*
X1964171Y2930751D01*
X1969121Y2933855D01*
X1974144Y2936837D01*
X1979238Y2939696D01*
X1984401Y2942431D01*
X1989629Y2945038D01*
X1994918Y2947518D01*
X2000267Y2949868D01*
X2005671Y2952087D01*
X2011127Y2954174D01*
X2016633Y2956128D01*
X2022184Y2957946D01*
X2027779Y2959629D01*
X2033412Y2961176D01*
X2039082Y2962584D01*
X2044784Y2963855D01*
X2050515Y2964986D01*
X2056273Y2965977D01*
X2062052Y2966827D01*
X2067851Y2967537D01*
X2073665Y2968105D01*
X2079492Y2968532D01*
X2085327Y2968816D01*
X2091167Y2968958D01*
X2097009Y2968958D01*
X2102849Y2968816D01*
X2108684Y2968532D01*
X2114511Y2968105D01*
X2120325Y2967537D01*
X2126124Y2966827D01*
X2131903Y2965977D01*
X2137661Y2964986D01*
X2143392Y2963855D01*
X2149094Y2962584D01*
X2154764Y2961176D01*
X2160397Y2959629D01*
X2165992Y2957946D01*
X2171543Y2956128D01*
X2177049Y2954174D01*
X2182505Y2952087D01*
X2187909Y2949868D01*
X2193258Y2947518D01*
X2198547Y2945038D01*
X2203775Y2942431D01*
X2208938Y2939696D01*
X2214032Y2936837D01*
X2219055Y2933855D01*
X2224005Y2930751D01*
X2228877Y2927528D01*
X2233669Y2924186D01*
X2238378Y2920730D01*
X2243002Y2917159D01*
X2247538Y2913477D01*
X2251982Y2909686D01*
X2256333Y2905787D01*
X2260588Y2901784D01*
X2264744Y2897679D01*
X2268799Y2893473D01*
X2272750Y2889170D01*
X2276595Y2884772D01*
X2280332Y2880281D01*
X2283959Y2875701D01*
X2287472Y2871034D01*
X2290872Y2866283D01*
X2294154Y2861450D01*
X2297318Y2856539D01*
X2300361Y2851553D01*
X2303282Y2846493D01*
X2306079Y2841365D01*
X2308750Y2836169D01*
X2311294Y2830910D01*
X2313709Y2825591D01*
X2315994Y2820214D01*
X2318147Y2814783D01*
X2320168Y2809302D01*
X2322054Y2803773D01*
X2323805Y2798200D01*
X2325420Y2792585D01*
X2326897Y2786933D01*
X2328237Y2781247D01*
X2329438Y2775530D01*
X2330499Y2769785D01*
X2331420Y2764016D01*
X2332200Y2758226D01*
X2332839Y2752419D01*
X2333336Y2746599D01*
X2333692Y2740768D01*
X2333905Y2734930D01*
X2333976Y2729088D01*
X2333978Y2729088D02*
X2333978Y2489200D01*
X2333978Y2777066D02*
X2717800Y2968975D01*
X2046113Y3395131D02*
X1854200Y3635019D01*
X2717800Y3635019D01*
X2717800Y3874906D02*
X2717800Y3395131D01*
D10*
X5842000Y3556000D02*
X9906000Y3556000D01*
X9906000Y1524000D01*
X5842000Y1524000D01*
X5842000Y3556000D01*
D11*
X6172200Y4126088D02*
X6172200Y4749800D01*
X6172200Y4126088D02*
X6172271Y4120246D01*
X6172484Y4114408D01*
X6172840Y4108577D01*
X6173337Y4102757D01*
X6173976Y4096950D01*
X6174756Y4091160D01*
X6175677Y4085391D01*
X6176738Y4079646D01*
X6177939Y4073929D01*
X6179279Y4068243D01*
X6180756Y4062591D01*
X6182371Y4056976D01*
X6184122Y4051403D01*
X6186008Y4045874D01*
X6188029Y4040393D01*
X6190182Y4034962D01*
X6192467Y4029585D01*
X6194882Y4024266D01*
X6197426Y4019007D01*
X6200097Y4013811D01*
X6202894Y4008683D01*
X6205815Y4003623D01*
X6208858Y3998637D01*
X6212022Y3993726D01*
X6215304Y3988893D01*
X6218704Y3984142D01*
X6222217Y3979475D01*
X6225844Y3974895D01*
X6229581Y3970404D01*
X6233426Y3966006D01*
X6237377Y3961703D01*
X6241432Y3957497D01*
X6245588Y3953392D01*
X6249843Y3949389D01*
X6254194Y3945490D01*
X6258638Y3941699D01*
X6263174Y3938017D01*
X6267798Y3934446D01*
X6272507Y3930990D01*
X6277299Y3927648D01*
X6282171Y3924425D01*
X6287121Y3921321D01*
X6292144Y3918339D01*
X6297238Y3915480D01*
X6302401Y3912745D01*
X6307629Y3910138D01*
X6312918Y3907658D01*
X6318267Y3905308D01*
X6323671Y3903089D01*
X6329127Y3901002D01*
X6334633Y3899048D01*
X6340184Y3897230D01*
X6345779Y3895547D01*
X6351412Y3894000D01*
X6357082Y3892592D01*
X6362784Y3891321D01*
X6368515Y3890190D01*
X6374273Y3889199D01*
X6380052Y3888349D01*
X6385851Y3887639D01*
X6391665Y3887071D01*
X6397492Y3886644D01*
X6403327Y3886360D01*
X6409167Y3886218D01*
X6415009Y3886218D01*
X6420849Y3886360D01*
X6426684Y3886644D01*
X6432511Y3887071D01*
X6438325Y3887639D01*
X6444124Y3888349D01*
X6449903Y3889199D01*
X6455661Y3890190D01*
X6461392Y3891321D01*
X6467094Y3892592D01*
X6472764Y3894000D01*
X6478397Y3895547D01*
X6483992Y3897230D01*
X6489543Y3899048D01*
X6495049Y3901002D01*
X6500505Y3903089D01*
X6505909Y3905308D01*
X6511258Y3907658D01*
X6516547Y3910138D01*
X6521775Y3912745D01*
X6526938Y3915480D01*
X6532032Y3918339D01*
X6537055Y3921321D01*
X6542005Y3924425D01*
X6546877Y3927648D01*
X6551669Y3930990D01*
X6556378Y3934446D01*
X6561002Y3938017D01*
X6565538Y3941699D01*
X6569982Y3945490D01*
X6574333Y3949389D01*
X6578588Y3953392D01*
X6582744Y3957497D01*
X6586799Y3961703D01*
X6590750Y3966006D01*
X6594595Y3970404D01*
X6598332Y3974895D01*
X6601959Y3979475D01*
X6605472Y3984142D01*
X6608872Y3988893D01*
X6612154Y3993726D01*
X6615318Y3998637D01*
X6618361Y4003623D01*
X6621282Y4008683D01*
X6624079Y4013811D01*
X6626750Y4019007D01*
X6629294Y4024266D01*
X6631709Y4029585D01*
X6633994Y4034962D01*
X6636147Y4040393D01*
X6638168Y4045874D01*
X6640054Y4051403D01*
X6641805Y4056976D01*
X6643420Y4062591D01*
X6644897Y4068243D01*
X6646237Y4073929D01*
X6647438Y4079646D01*
X6648499Y4085391D01*
X6649420Y4091160D01*
X6650200Y4096950D01*
X6650839Y4102757D01*
X6651336Y4108577D01*
X6651692Y4114408D01*
X6651905Y4120246D01*
X6651976Y4126088D01*
X6651975Y4126088D02*
X6651975Y4749800D01*
X7296003Y4749800D02*
X7296003Y3886200D01*
X7296003Y4318000D02*
X7176059Y4389966D01*
X7176060Y4389966D02*
X7173078Y4391805D01*
X7170141Y4393717D01*
X7167252Y4395700D01*
X7164413Y4397752D01*
X7161624Y4399874D01*
X7158888Y4402063D01*
X7156207Y4404319D01*
X7153582Y4406639D01*
X7151014Y4409023D01*
X7148505Y4411469D01*
X7146056Y4413976D01*
X7143670Y4416541D01*
X7141347Y4419164D01*
X7139089Y4421844D01*
X7136897Y4424577D01*
X7134772Y4427364D01*
X7132717Y4430201D01*
X7130731Y4433088D01*
X7128816Y4436023D01*
X7126974Y4439003D01*
X7125205Y4442028D01*
X7123511Y4445095D01*
X7121892Y4448202D01*
X7120349Y4451348D01*
X7118884Y4454531D01*
X7117498Y4457749D01*
X7116190Y4461000D01*
X7114962Y4464281D01*
X7113815Y4467592D01*
X7112749Y4470930D01*
X7111765Y4474293D01*
X7110863Y4477679D01*
X7110044Y4481086D01*
X7109309Y4484512D01*
X7108658Y4487955D01*
X7108092Y4491412D01*
X7107610Y4494883D01*
X7107213Y4498364D01*
X7106901Y4501854D01*
X7106675Y4505351D01*
X7106534Y4508852D01*
X7106479Y4512355D01*
X7106509Y4515859D01*
X7106626Y4519361D01*
X7106827Y4522859D01*
X7107115Y4526351D01*
X7107487Y4529835D01*
X7107945Y4533309D01*
X7108487Y4536771D01*
X7109114Y4540218D01*
X7109825Y4543649D01*
X7110619Y4547062D01*
X7111497Y4550454D01*
X7112457Y4553824D01*
X7113500Y4557169D01*
X7114624Y4560488D01*
X7115829Y4563778D01*
X7117113Y4567038D01*
X7118478Y4570265D01*
X7119920Y4573458D01*
X7121441Y4576615D01*
X7123038Y4579734D01*
X7124710Y4582813D01*
X7126458Y4585850D01*
X7128279Y4588843D01*
X7130173Y4591791D01*
X7132138Y4594692D01*
X7134174Y4597544D01*
X7136279Y4600345D01*
X7138452Y4603094D01*
X7140691Y4605789D01*
X7142995Y4608429D01*
X7145364Y4611011D01*
X7147794Y4613535D01*
X7150286Y4615998D01*
X7152837Y4618400D01*
X7155446Y4620739D01*
X7158112Y4623013D01*
X7160832Y4625221D01*
X7163606Y4627363D01*
X7166431Y4629435D01*
X7169306Y4631439D01*
X7172229Y4633371D01*
X7175198Y4635231D01*
X7178212Y4637018D01*
X7181269Y4638731D01*
X7184366Y4640369D01*
X7187503Y4641930D01*
X7190677Y4643414D01*
X7193886Y4644820D01*
X7197129Y4646148D01*
X7200403Y4647395D01*
X7203707Y4648563D01*
X7207038Y4649649D01*
X7210395Y4650653D01*
X7213776Y4651575D01*
X7217178Y4652414D01*
X7220599Y4653170D01*
X7224038Y4653842D01*
X7224038Y4653843D02*
X7233045Y4655377D01*
X7242086Y4656694D01*
X7251156Y4657793D01*
X7260250Y4658674D01*
X7269363Y4659336D01*
X7278488Y4659779D01*
X7287622Y4660003D01*
X7296759Y4660006D01*
X7305893Y4659791D01*
X7315019Y4659355D01*
X7324132Y4658701D01*
X7333227Y4657828D01*
X7342298Y4656736D01*
X7351340Y4655427D01*
X7360348Y4653900D01*
X7369317Y4652158D01*
X7378242Y4650201D01*
X7387117Y4648029D01*
X7395937Y4645645D01*
X7404697Y4643050D01*
X7413392Y4640245D01*
X7422018Y4637232D01*
X7430568Y4634012D01*
X7439039Y4630588D01*
X7447424Y4626961D01*
X7455721Y4623133D01*
X7463923Y4619108D01*
X7472025Y4614886D01*
X7480024Y4610471D01*
X7487915Y4605865D01*
X7296003Y4318000D02*
X7415947Y4246031D01*
X7415946Y4246031D02*
X7418928Y4244192D01*
X7421865Y4242280D01*
X7424754Y4240297D01*
X7427593Y4238244D01*
X7430381Y4236122D01*
X7433117Y4233933D01*
X7435798Y4231677D01*
X7438424Y4229357D01*
X7440992Y4226973D01*
X7443501Y4224527D01*
X7445949Y4222021D01*
X7448335Y4219455D01*
X7450658Y4216832D01*
X7452916Y4214152D01*
X7455108Y4211419D01*
X7457232Y4208632D01*
X7459288Y4205795D01*
X7461274Y4202908D01*
X7463188Y4199973D01*
X7465030Y4196993D01*
X7466799Y4193968D01*
X7468493Y4190901D01*
X7470112Y4187794D01*
X7471654Y4184648D01*
X7473119Y4181465D01*
X7474506Y4178247D01*
X7475814Y4174996D01*
X7477042Y4171715D01*
X7478189Y4168404D01*
X7479255Y4165066D01*
X7480239Y4161703D01*
X7481140Y4158317D01*
X7481959Y4154910D01*
X7482694Y4151485D01*
X7483345Y4148042D01*
X7483911Y4144584D01*
X7484393Y4141113D01*
X7484790Y4137632D01*
X7485102Y4134142D01*
X7485328Y4130646D01*
X7485469Y4127145D01*
X7485524Y4123641D01*
X7485494Y4120137D01*
X7485377Y4116636D01*
X7485176Y4113137D01*
X7484888Y4109645D01*
X7484516Y4106161D01*
X7484058Y4102688D01*
X7483516Y4099226D01*
X7482889Y4095779D01*
X7482178Y4092348D01*
X7481384Y4088935D01*
X7480506Y4085543D01*
X7479546Y4082173D01*
X7478503Y4078828D01*
X7477379Y4075509D01*
X7476175Y4072219D01*
X7474890Y4068959D01*
X7473526Y4065732D01*
X7472083Y4062539D01*
X7470563Y4059382D01*
X7468966Y4056263D01*
X7467293Y4053184D01*
X7465546Y4050147D01*
X7463725Y4047154D01*
X7461831Y4044206D01*
X7459865Y4041305D01*
X7457830Y4038453D01*
X7455725Y4035652D01*
X7453552Y4032903D01*
X7451313Y4030208D01*
X7449009Y4027569D01*
X7446641Y4024986D01*
X7444210Y4022463D01*
X7441718Y4019999D01*
X7439167Y4017597D01*
X7436558Y4015258D01*
X7433893Y4012984D01*
X7431173Y4010776D01*
X7428399Y4008634D01*
X7425574Y4006562D01*
X7422699Y4004558D01*
X7419777Y4002626D01*
X7416807Y4000766D01*
X7413794Y3998979D01*
X7410737Y3997266D01*
X7407639Y3995628D01*
X7404503Y3994066D01*
X7401329Y3992582D01*
X7398119Y3991176D01*
X7394877Y3989848D01*
X7391603Y3988601D01*
X7388299Y3987433D01*
X7384968Y3986347D01*
X7381611Y3985343D01*
X7378231Y3984420D01*
X7374829Y3983581D01*
X7371407Y3982825D01*
X7367969Y3982154D01*
X7367969Y3982153D02*
X7358962Y3980619D01*
X7349921Y3979301D01*
X7340851Y3978202D01*
X7331757Y3977321D01*
X7322644Y3976658D01*
X7313519Y3976215D01*
X7304385Y3975991D01*
X7295248Y3975987D01*
X7286114Y3976203D01*
X7276988Y3976638D01*
X7267875Y3977293D01*
X7258780Y3978166D01*
X7249709Y3979257D01*
X7240667Y3980567D01*
X7231659Y3982093D01*
X7222690Y3983835D01*
X7213765Y3985793D01*
X7204891Y3987964D01*
X7196071Y3990348D01*
X7187311Y3992944D01*
X7178615Y3995749D01*
X7169990Y3998763D01*
X7161440Y4001982D01*
X7152969Y4005407D01*
X7144584Y4009034D01*
X7136287Y4012862D01*
X7128086Y4016888D01*
X7119983Y4021110D01*
X7111984Y4025525D01*
X7104094Y4030132D01*
X7909556Y4557888D02*
X8149444Y4749800D01*
X8149444Y3886200D01*
X8389331Y3886200D02*
X7909556Y3886200D01*
M02*
