G04 EAGLE Gerber RS-274X export*
G75*
%MOMM*%
%FSLAX34Y34*%
%LPD*%
%INTop Silkscreen*%
%IPPOS*%
%AMOC8*
5,1,8,0,0,1.08239X$1,22.5*%
G01*
%ADD10C,0.127000*%
%ADD11C,0.101600*%
%ADD12C,0.152400*%


D10*
X38780Y170225D02*
X34017Y163875D01*
X38780Y163875D01*
X43543Y163875D01*
X38780Y170225D01*
X34017Y170225D01*
X38780Y170225D02*
X43543Y170225D01*
X38780Y163875D02*
X38780Y155937D01*
X38780Y170225D02*
X38780Y178163D01*
D11*
X22397Y135808D02*
X10713Y135808D01*
X10713Y139054D01*
X10715Y139167D01*
X10721Y139280D01*
X10731Y139393D01*
X10745Y139506D01*
X10762Y139618D01*
X10784Y139729D01*
X10809Y139839D01*
X10839Y139949D01*
X10872Y140057D01*
X10909Y140164D01*
X10949Y140270D01*
X10994Y140374D01*
X11042Y140477D01*
X11093Y140578D01*
X11148Y140677D01*
X11206Y140774D01*
X11268Y140869D01*
X11333Y140962D01*
X11401Y141052D01*
X11472Y141140D01*
X11547Y141226D01*
X11624Y141309D01*
X11704Y141389D01*
X11787Y141466D01*
X11873Y141541D01*
X11961Y141612D01*
X12051Y141680D01*
X12144Y141745D01*
X12239Y141807D01*
X12336Y141865D01*
X12435Y141920D01*
X12536Y141971D01*
X12639Y142019D01*
X12743Y142064D01*
X12849Y142104D01*
X12956Y142141D01*
X13064Y142174D01*
X13174Y142204D01*
X13284Y142229D01*
X13395Y142251D01*
X13507Y142268D01*
X13620Y142282D01*
X13733Y142292D01*
X13846Y142298D01*
X13959Y142300D01*
X13959Y142299D02*
X19152Y142299D01*
X19152Y142300D02*
X19265Y142298D01*
X19378Y142292D01*
X19491Y142282D01*
X19604Y142268D01*
X19716Y142251D01*
X19827Y142229D01*
X19937Y142204D01*
X20047Y142174D01*
X20155Y142141D01*
X20262Y142104D01*
X20368Y142064D01*
X20472Y142019D01*
X20575Y141971D01*
X20676Y141920D01*
X20775Y141865D01*
X20872Y141807D01*
X20967Y141745D01*
X21060Y141680D01*
X21150Y141612D01*
X21238Y141541D01*
X21324Y141466D01*
X21407Y141389D01*
X21487Y141309D01*
X21564Y141226D01*
X21639Y141140D01*
X21710Y141052D01*
X21778Y140962D01*
X21843Y140869D01*
X21905Y140774D01*
X21963Y140677D01*
X22018Y140578D01*
X22069Y140477D01*
X22117Y140374D01*
X22162Y140270D01*
X22202Y140164D01*
X22239Y140057D01*
X22272Y139949D01*
X22302Y139839D01*
X22327Y139729D01*
X22349Y139618D01*
X22366Y139506D01*
X22380Y139393D01*
X22390Y139280D01*
X22396Y139167D01*
X22398Y139054D01*
X22397Y139054D02*
X22397Y135808D01*
X10713Y151189D02*
X10715Y151296D01*
X10721Y151402D01*
X10731Y151508D01*
X10744Y151614D01*
X10762Y151720D01*
X10783Y151824D01*
X10808Y151928D01*
X10837Y152031D01*
X10869Y152132D01*
X10906Y152232D01*
X10946Y152331D01*
X10989Y152429D01*
X11036Y152525D01*
X11087Y152619D01*
X11141Y152711D01*
X11198Y152801D01*
X11258Y152889D01*
X11322Y152974D01*
X11389Y153057D01*
X11459Y153138D01*
X11531Y153216D01*
X11607Y153292D01*
X11685Y153364D01*
X11766Y153434D01*
X11849Y153501D01*
X11934Y153565D01*
X12022Y153625D01*
X12112Y153682D01*
X12204Y153736D01*
X12298Y153787D01*
X12394Y153834D01*
X12492Y153877D01*
X12591Y153917D01*
X12691Y153954D01*
X12792Y153986D01*
X12895Y154015D01*
X12999Y154040D01*
X13103Y154061D01*
X13209Y154079D01*
X13315Y154092D01*
X13421Y154102D01*
X13527Y154108D01*
X13634Y154110D01*
X10713Y151189D02*
X10715Y151068D01*
X10721Y150947D01*
X10731Y150827D01*
X10744Y150706D01*
X10762Y150587D01*
X10783Y150467D01*
X10808Y150349D01*
X10837Y150232D01*
X10870Y150115D01*
X10906Y150000D01*
X10947Y149886D01*
X10990Y149773D01*
X11038Y149661D01*
X11089Y149552D01*
X11144Y149444D01*
X11202Y149337D01*
X11263Y149233D01*
X11328Y149131D01*
X11396Y149031D01*
X11467Y148933D01*
X11541Y148837D01*
X11618Y148744D01*
X11699Y148654D01*
X11782Y148566D01*
X11868Y148481D01*
X11957Y148398D01*
X12048Y148319D01*
X12142Y148242D01*
X12238Y148169D01*
X12336Y148099D01*
X12437Y148032D01*
X12540Y147968D01*
X12645Y147908D01*
X12752Y147850D01*
X12860Y147797D01*
X12970Y147747D01*
X13082Y147701D01*
X13195Y147658D01*
X13310Y147619D01*
X15906Y153136D02*
X15828Y153215D01*
X15748Y153291D01*
X15665Y153364D01*
X15579Y153434D01*
X15492Y153501D01*
X15401Y153565D01*
X15309Y153625D01*
X15215Y153683D01*
X15118Y153737D01*
X15020Y153787D01*
X14920Y153834D01*
X14819Y153878D01*
X14716Y153918D01*
X14611Y153954D01*
X14506Y153986D01*
X14399Y154015D01*
X14292Y154040D01*
X14183Y154062D01*
X14074Y154079D01*
X13965Y154093D01*
X13855Y154102D01*
X13744Y154108D01*
X13634Y154110D01*
X15906Y153136D02*
X22397Y147619D01*
X22397Y154110D01*
X102868Y61905D02*
X114552Y61905D01*
X102868Y61905D02*
X102868Y65150D01*
X102870Y65263D01*
X102876Y65376D01*
X102886Y65489D01*
X102900Y65602D01*
X102917Y65714D01*
X102939Y65825D01*
X102964Y65935D01*
X102994Y66045D01*
X103027Y66153D01*
X103064Y66260D01*
X103104Y66366D01*
X103149Y66470D01*
X103197Y66573D01*
X103248Y66674D01*
X103303Y66773D01*
X103361Y66870D01*
X103423Y66965D01*
X103488Y67058D01*
X103556Y67148D01*
X103627Y67236D01*
X103702Y67322D01*
X103779Y67405D01*
X103859Y67485D01*
X103942Y67562D01*
X104028Y67637D01*
X104116Y67708D01*
X104206Y67776D01*
X104299Y67841D01*
X104394Y67903D01*
X104491Y67961D01*
X104590Y68016D01*
X104691Y68067D01*
X104794Y68115D01*
X104898Y68160D01*
X105004Y68200D01*
X105111Y68237D01*
X105219Y68270D01*
X105329Y68300D01*
X105439Y68325D01*
X105550Y68347D01*
X105662Y68364D01*
X105775Y68378D01*
X105888Y68388D01*
X106001Y68394D01*
X106114Y68396D01*
X106227Y68394D01*
X106340Y68388D01*
X106453Y68378D01*
X106566Y68364D01*
X106678Y68347D01*
X106789Y68325D01*
X106899Y68300D01*
X107009Y68270D01*
X107117Y68237D01*
X107224Y68200D01*
X107330Y68160D01*
X107434Y68115D01*
X107537Y68067D01*
X107638Y68016D01*
X107737Y67961D01*
X107834Y67903D01*
X107929Y67841D01*
X108022Y67776D01*
X108112Y67708D01*
X108200Y67637D01*
X108286Y67562D01*
X108369Y67485D01*
X108449Y67405D01*
X108526Y67322D01*
X108601Y67236D01*
X108672Y67148D01*
X108740Y67058D01*
X108805Y66965D01*
X108867Y66870D01*
X108925Y66773D01*
X108980Y66674D01*
X109031Y66573D01*
X109079Y66470D01*
X109124Y66366D01*
X109164Y66260D01*
X109201Y66153D01*
X109234Y66045D01*
X109264Y65935D01*
X109289Y65825D01*
X109311Y65714D01*
X109328Y65602D01*
X109342Y65489D01*
X109352Y65376D01*
X109358Y65263D01*
X109360Y65150D01*
X109359Y65150D02*
X109359Y61905D01*
X109359Y65799D02*
X114552Y68396D01*
X105464Y73261D02*
X102868Y76506D01*
X114552Y76506D01*
X114552Y73261D02*
X114552Y79752D01*
X97812Y142555D02*
X86128Y142555D01*
X86128Y145800D01*
X86130Y145913D01*
X86136Y146026D01*
X86146Y146139D01*
X86160Y146252D01*
X86177Y146364D01*
X86199Y146475D01*
X86224Y146585D01*
X86254Y146695D01*
X86287Y146803D01*
X86324Y146910D01*
X86364Y147016D01*
X86409Y147120D01*
X86457Y147223D01*
X86508Y147324D01*
X86563Y147423D01*
X86621Y147520D01*
X86683Y147615D01*
X86748Y147708D01*
X86816Y147798D01*
X86887Y147886D01*
X86962Y147972D01*
X87039Y148055D01*
X87119Y148135D01*
X87202Y148212D01*
X87288Y148287D01*
X87376Y148358D01*
X87466Y148426D01*
X87559Y148491D01*
X87654Y148553D01*
X87751Y148611D01*
X87850Y148666D01*
X87951Y148717D01*
X88054Y148765D01*
X88158Y148810D01*
X88264Y148850D01*
X88371Y148887D01*
X88479Y148920D01*
X88589Y148950D01*
X88699Y148975D01*
X88810Y148997D01*
X88922Y149014D01*
X89035Y149028D01*
X89148Y149038D01*
X89261Y149044D01*
X89374Y149046D01*
X89487Y149044D01*
X89600Y149038D01*
X89713Y149028D01*
X89826Y149014D01*
X89938Y148997D01*
X90049Y148975D01*
X90159Y148950D01*
X90269Y148920D01*
X90377Y148887D01*
X90484Y148850D01*
X90590Y148810D01*
X90694Y148765D01*
X90797Y148717D01*
X90898Y148666D01*
X90997Y148611D01*
X91094Y148553D01*
X91189Y148491D01*
X91282Y148426D01*
X91372Y148358D01*
X91460Y148287D01*
X91546Y148212D01*
X91629Y148135D01*
X91709Y148055D01*
X91786Y147972D01*
X91861Y147886D01*
X91932Y147798D01*
X92000Y147708D01*
X92065Y147615D01*
X92127Y147520D01*
X92185Y147423D01*
X92240Y147324D01*
X92291Y147223D01*
X92339Y147120D01*
X92384Y147016D01*
X92424Y146910D01*
X92461Y146803D01*
X92494Y146695D01*
X92524Y146585D01*
X92549Y146475D01*
X92571Y146364D01*
X92588Y146252D01*
X92602Y146139D01*
X92612Y146026D01*
X92618Y145913D01*
X92620Y145800D01*
X92619Y145800D02*
X92619Y142555D01*
X92619Y146449D02*
X97812Y149046D01*
X89049Y160402D02*
X88942Y160400D01*
X88836Y160394D01*
X88730Y160384D01*
X88624Y160371D01*
X88518Y160353D01*
X88414Y160332D01*
X88310Y160307D01*
X88207Y160278D01*
X88106Y160246D01*
X88006Y160209D01*
X87907Y160169D01*
X87809Y160126D01*
X87713Y160079D01*
X87619Y160028D01*
X87527Y159974D01*
X87437Y159917D01*
X87349Y159857D01*
X87264Y159793D01*
X87181Y159726D01*
X87100Y159656D01*
X87022Y159584D01*
X86946Y159508D01*
X86874Y159430D01*
X86804Y159349D01*
X86737Y159266D01*
X86673Y159181D01*
X86613Y159093D01*
X86556Y159003D01*
X86502Y158911D01*
X86451Y158817D01*
X86404Y158721D01*
X86361Y158623D01*
X86321Y158524D01*
X86284Y158424D01*
X86252Y158323D01*
X86223Y158220D01*
X86198Y158116D01*
X86177Y158012D01*
X86159Y157906D01*
X86146Y157800D01*
X86136Y157694D01*
X86130Y157588D01*
X86128Y157481D01*
X86130Y157360D01*
X86136Y157239D01*
X86146Y157119D01*
X86159Y156998D01*
X86177Y156879D01*
X86198Y156759D01*
X86223Y156641D01*
X86252Y156524D01*
X86285Y156407D01*
X86321Y156292D01*
X86362Y156178D01*
X86405Y156065D01*
X86453Y155953D01*
X86504Y155844D01*
X86559Y155736D01*
X86617Y155629D01*
X86678Y155525D01*
X86743Y155423D01*
X86811Y155323D01*
X86882Y155225D01*
X86956Y155129D01*
X87033Y155036D01*
X87114Y154946D01*
X87197Y154858D01*
X87283Y154773D01*
X87372Y154690D01*
X87463Y154611D01*
X87557Y154534D01*
X87653Y154461D01*
X87751Y154391D01*
X87852Y154324D01*
X87955Y154260D01*
X88060Y154200D01*
X88167Y154142D01*
X88275Y154089D01*
X88385Y154039D01*
X88497Y153993D01*
X88610Y153950D01*
X88725Y153911D01*
X91321Y159428D02*
X91243Y159507D01*
X91163Y159583D01*
X91080Y159656D01*
X90994Y159726D01*
X90907Y159793D01*
X90816Y159857D01*
X90724Y159917D01*
X90630Y159975D01*
X90533Y160029D01*
X90435Y160079D01*
X90335Y160126D01*
X90234Y160170D01*
X90131Y160210D01*
X90026Y160246D01*
X89921Y160278D01*
X89814Y160307D01*
X89707Y160332D01*
X89598Y160354D01*
X89489Y160371D01*
X89380Y160385D01*
X89270Y160394D01*
X89159Y160400D01*
X89049Y160402D01*
X91321Y159428D02*
X97812Y153911D01*
X97812Y160402D01*
D10*
X71630Y185170D02*
X71630Y241050D01*
X173230Y241050D02*
X173230Y185170D01*
X173230Y241050D02*
X71630Y241050D01*
X160530Y185170D02*
X173230Y185170D01*
X160530Y185170D02*
X84330Y185170D01*
X71630Y185170D01*
X84330Y185170D02*
X84330Y197870D01*
X160530Y197870D01*
X160530Y185170D01*
X109434Y245297D02*
X109434Y249051D01*
X109433Y245297D02*
X109431Y245232D01*
X109425Y245168D01*
X109415Y245104D01*
X109402Y245040D01*
X109384Y244978D01*
X109363Y244917D01*
X109339Y244857D01*
X109310Y244799D01*
X109278Y244742D01*
X109243Y244688D01*
X109205Y244636D01*
X109163Y244586D01*
X109119Y244539D01*
X109072Y244495D01*
X109022Y244453D01*
X108970Y244415D01*
X108916Y244380D01*
X108859Y244348D01*
X108801Y244319D01*
X108741Y244295D01*
X108680Y244274D01*
X108618Y244256D01*
X108554Y244243D01*
X108490Y244233D01*
X108426Y244227D01*
X108361Y244225D01*
X107825Y244225D01*
X112382Y247979D02*
X113722Y249051D01*
X113722Y244225D01*
X112382Y244225D02*
X115063Y244225D01*
D12*
X182880Y100330D02*
X185420Y100330D01*
X182880Y100330D02*
X182880Y97790D01*
X198120Y97790D02*
X198120Y100330D01*
X195580Y100330D01*
X198120Y87630D02*
X198120Y85090D01*
X195580Y85090D01*
X185420Y85090D02*
X182880Y85090D01*
X182880Y87630D01*
D10*
X183515Y103505D02*
X183515Y114935D01*
X186690Y114935D01*
X186801Y114933D01*
X186911Y114927D01*
X187022Y114918D01*
X187132Y114904D01*
X187241Y114887D01*
X187350Y114866D01*
X187458Y114841D01*
X187565Y114812D01*
X187671Y114780D01*
X187776Y114744D01*
X187879Y114704D01*
X187981Y114661D01*
X188082Y114614D01*
X188181Y114563D01*
X188278Y114510D01*
X188372Y114453D01*
X188465Y114392D01*
X188556Y114329D01*
X188645Y114262D01*
X188731Y114192D01*
X188814Y114119D01*
X188896Y114044D01*
X188974Y113966D01*
X189049Y113884D01*
X189122Y113801D01*
X189192Y113715D01*
X189259Y113626D01*
X189322Y113535D01*
X189383Y113442D01*
X189440Y113347D01*
X189493Y113251D01*
X189544Y113152D01*
X189591Y113051D01*
X189634Y112949D01*
X189674Y112846D01*
X189710Y112741D01*
X189742Y112635D01*
X189771Y112528D01*
X189796Y112420D01*
X189817Y112311D01*
X189834Y112202D01*
X189848Y112092D01*
X189857Y111981D01*
X189863Y111871D01*
X189865Y111760D01*
X189863Y111649D01*
X189857Y111539D01*
X189848Y111428D01*
X189834Y111318D01*
X189817Y111209D01*
X189796Y111100D01*
X189771Y110992D01*
X189742Y110885D01*
X189710Y110779D01*
X189674Y110674D01*
X189634Y110571D01*
X189591Y110469D01*
X189544Y110368D01*
X189493Y110269D01*
X189440Y110172D01*
X189383Y110078D01*
X189322Y109985D01*
X189259Y109894D01*
X189192Y109805D01*
X189122Y109719D01*
X189049Y109636D01*
X188974Y109554D01*
X188896Y109476D01*
X188814Y109401D01*
X188731Y109328D01*
X188645Y109258D01*
X188556Y109191D01*
X188465Y109128D01*
X188372Y109067D01*
X188277Y109010D01*
X188181Y108957D01*
X188082Y108906D01*
X187981Y108859D01*
X187879Y108816D01*
X187776Y108776D01*
X187671Y108740D01*
X187565Y108708D01*
X187458Y108679D01*
X187350Y108654D01*
X187241Y108633D01*
X187132Y108616D01*
X187022Y108602D01*
X186911Y108593D01*
X186801Y108587D01*
X186690Y108585D01*
X183515Y108585D01*
X193739Y103505D02*
X197549Y114935D01*
X201359Y103505D01*
X200406Y106363D02*
X194691Y106363D01*
X206185Y103505D02*
X206185Y114935D01*
X209360Y114935D01*
X209471Y114933D01*
X209581Y114927D01*
X209692Y114918D01*
X209802Y114904D01*
X209911Y114887D01*
X210020Y114866D01*
X210128Y114841D01*
X210235Y114812D01*
X210341Y114780D01*
X210446Y114744D01*
X210549Y114704D01*
X210651Y114661D01*
X210752Y114614D01*
X210851Y114563D01*
X210948Y114510D01*
X211042Y114453D01*
X211135Y114392D01*
X211226Y114329D01*
X211315Y114262D01*
X211401Y114192D01*
X211484Y114119D01*
X211566Y114044D01*
X211644Y113966D01*
X211719Y113884D01*
X211792Y113801D01*
X211862Y113715D01*
X211929Y113626D01*
X211992Y113535D01*
X212053Y113442D01*
X212110Y113348D01*
X212163Y113251D01*
X212214Y113152D01*
X212261Y113051D01*
X212304Y112949D01*
X212344Y112846D01*
X212380Y112741D01*
X212412Y112635D01*
X212441Y112528D01*
X212466Y112420D01*
X212487Y112311D01*
X212504Y112202D01*
X212518Y112092D01*
X212527Y111981D01*
X212533Y111871D01*
X212535Y111760D01*
X212535Y106680D01*
X212533Y106569D01*
X212527Y106459D01*
X212518Y106348D01*
X212504Y106238D01*
X212487Y106129D01*
X212466Y106020D01*
X212441Y105912D01*
X212412Y105805D01*
X212380Y105699D01*
X212344Y105594D01*
X212304Y105491D01*
X212261Y105389D01*
X212214Y105288D01*
X212163Y105189D01*
X212110Y105092D01*
X212053Y104998D01*
X211992Y104905D01*
X211929Y104814D01*
X211862Y104725D01*
X211792Y104639D01*
X211719Y104556D01*
X211644Y104474D01*
X211566Y104396D01*
X211484Y104321D01*
X211401Y104248D01*
X211315Y104178D01*
X211226Y104111D01*
X211135Y104048D01*
X211042Y103987D01*
X210947Y103930D01*
X210851Y103877D01*
X210752Y103826D01*
X210651Y103779D01*
X210549Y103736D01*
X210446Y103696D01*
X210341Y103660D01*
X210235Y103628D01*
X210128Y103599D01*
X210020Y103574D01*
X209911Y103553D01*
X209802Y103536D01*
X209692Y103522D01*
X209581Y103513D01*
X209471Y103507D01*
X209360Y103505D01*
X206185Y103505D01*
X217996Y103505D02*
X221171Y103505D01*
X221282Y103507D01*
X221392Y103513D01*
X221503Y103522D01*
X221613Y103536D01*
X221722Y103553D01*
X221831Y103574D01*
X221939Y103599D01*
X222046Y103628D01*
X222152Y103660D01*
X222257Y103696D01*
X222360Y103736D01*
X222462Y103779D01*
X222563Y103826D01*
X222662Y103877D01*
X222758Y103930D01*
X222853Y103987D01*
X222946Y104048D01*
X223037Y104111D01*
X223126Y104178D01*
X223212Y104248D01*
X223295Y104321D01*
X223377Y104396D01*
X223455Y104474D01*
X223530Y104556D01*
X223603Y104639D01*
X223673Y104725D01*
X223740Y104814D01*
X223803Y104905D01*
X223864Y104998D01*
X223921Y105092D01*
X223974Y105189D01*
X224025Y105288D01*
X224072Y105389D01*
X224115Y105491D01*
X224155Y105594D01*
X224191Y105699D01*
X224223Y105805D01*
X224252Y105912D01*
X224277Y106020D01*
X224298Y106129D01*
X224315Y106238D01*
X224329Y106348D01*
X224338Y106459D01*
X224344Y106569D01*
X224346Y106680D01*
X224344Y106791D01*
X224338Y106901D01*
X224329Y107012D01*
X224315Y107122D01*
X224298Y107231D01*
X224277Y107340D01*
X224252Y107448D01*
X224223Y107555D01*
X224191Y107661D01*
X224155Y107766D01*
X224115Y107869D01*
X224072Y107971D01*
X224025Y108072D01*
X223974Y108171D01*
X223921Y108267D01*
X223864Y108362D01*
X223803Y108455D01*
X223740Y108546D01*
X223673Y108635D01*
X223603Y108721D01*
X223530Y108804D01*
X223455Y108886D01*
X223377Y108964D01*
X223295Y109039D01*
X223212Y109112D01*
X223126Y109182D01*
X223037Y109249D01*
X222946Y109312D01*
X222853Y109373D01*
X222759Y109430D01*
X222662Y109483D01*
X222563Y109534D01*
X222462Y109581D01*
X222360Y109624D01*
X222257Y109664D01*
X222152Y109700D01*
X222046Y109732D01*
X221939Y109761D01*
X221831Y109786D01*
X221722Y109807D01*
X221613Y109824D01*
X221503Y109838D01*
X221392Y109847D01*
X221282Y109853D01*
X221171Y109855D01*
X221806Y114935D02*
X217996Y114935D01*
X221806Y114935D02*
X221906Y114933D01*
X222005Y114927D01*
X222105Y114917D01*
X222203Y114904D01*
X222302Y114886D01*
X222399Y114865D01*
X222495Y114840D01*
X222591Y114811D01*
X222685Y114778D01*
X222778Y114742D01*
X222869Y114702D01*
X222959Y114658D01*
X223047Y114611D01*
X223133Y114561D01*
X223217Y114507D01*
X223299Y114450D01*
X223378Y114390D01*
X223456Y114326D01*
X223530Y114260D01*
X223602Y114191D01*
X223671Y114119D01*
X223737Y114045D01*
X223801Y113967D01*
X223861Y113888D01*
X223918Y113806D01*
X223972Y113722D01*
X224022Y113636D01*
X224069Y113548D01*
X224113Y113458D01*
X224153Y113367D01*
X224189Y113274D01*
X224222Y113180D01*
X224251Y113084D01*
X224276Y112988D01*
X224297Y112891D01*
X224315Y112792D01*
X224328Y112694D01*
X224338Y112594D01*
X224344Y112495D01*
X224346Y112395D01*
X224344Y112295D01*
X224338Y112196D01*
X224328Y112096D01*
X224315Y111998D01*
X224297Y111899D01*
X224276Y111802D01*
X224251Y111706D01*
X224222Y111610D01*
X224189Y111516D01*
X224153Y111423D01*
X224113Y111332D01*
X224069Y111242D01*
X224022Y111154D01*
X223972Y111068D01*
X223918Y110984D01*
X223861Y110902D01*
X223801Y110823D01*
X223737Y110745D01*
X223671Y110671D01*
X223602Y110599D01*
X223530Y110530D01*
X223456Y110464D01*
X223378Y110400D01*
X223299Y110340D01*
X223217Y110283D01*
X223133Y110229D01*
X223047Y110179D01*
X222959Y110132D01*
X222869Y110088D01*
X222778Y110048D01*
X222685Y110012D01*
X222591Y109979D01*
X222495Y109950D01*
X222399Y109925D01*
X222302Y109904D01*
X222203Y109886D01*
X222105Y109873D01*
X222005Y109863D01*
X221906Y109857D01*
X221806Y109855D01*
X219266Y109855D01*
D12*
X185420Y77720D02*
X182880Y77720D01*
X182880Y75180D01*
X198120Y75180D02*
X198120Y77720D01*
X195580Y77720D01*
X198120Y65020D02*
X198120Y62480D01*
X195580Y62480D01*
X185420Y62480D02*
X182880Y62480D01*
X182880Y65020D01*
D10*
X183515Y80895D02*
X183515Y92325D01*
X186690Y92325D01*
X186801Y92323D01*
X186911Y92317D01*
X187022Y92308D01*
X187132Y92294D01*
X187241Y92277D01*
X187350Y92256D01*
X187458Y92231D01*
X187565Y92202D01*
X187671Y92170D01*
X187776Y92134D01*
X187879Y92094D01*
X187981Y92051D01*
X188082Y92004D01*
X188181Y91953D01*
X188278Y91900D01*
X188372Y91843D01*
X188465Y91782D01*
X188556Y91719D01*
X188645Y91652D01*
X188731Y91582D01*
X188814Y91509D01*
X188896Y91434D01*
X188974Y91356D01*
X189049Y91274D01*
X189122Y91191D01*
X189192Y91105D01*
X189259Y91016D01*
X189322Y90925D01*
X189383Y90832D01*
X189440Y90737D01*
X189493Y90641D01*
X189544Y90542D01*
X189591Y90441D01*
X189634Y90339D01*
X189674Y90236D01*
X189710Y90131D01*
X189742Y90025D01*
X189771Y89918D01*
X189796Y89810D01*
X189817Y89701D01*
X189834Y89592D01*
X189848Y89482D01*
X189857Y89371D01*
X189863Y89261D01*
X189865Y89150D01*
X189863Y89039D01*
X189857Y88929D01*
X189848Y88818D01*
X189834Y88708D01*
X189817Y88599D01*
X189796Y88490D01*
X189771Y88382D01*
X189742Y88275D01*
X189710Y88169D01*
X189674Y88064D01*
X189634Y87961D01*
X189591Y87859D01*
X189544Y87758D01*
X189493Y87659D01*
X189440Y87562D01*
X189383Y87468D01*
X189322Y87375D01*
X189259Y87284D01*
X189192Y87195D01*
X189122Y87109D01*
X189049Y87026D01*
X188974Y86944D01*
X188896Y86866D01*
X188814Y86791D01*
X188731Y86718D01*
X188645Y86648D01*
X188556Y86581D01*
X188465Y86518D01*
X188372Y86457D01*
X188277Y86400D01*
X188181Y86347D01*
X188082Y86296D01*
X187981Y86249D01*
X187879Y86206D01*
X187776Y86166D01*
X187671Y86130D01*
X187565Y86098D01*
X187458Y86069D01*
X187350Y86044D01*
X187241Y86023D01*
X187132Y86006D01*
X187022Y85992D01*
X186911Y85983D01*
X186801Y85977D01*
X186690Y85975D01*
X183515Y85975D01*
X193739Y80895D02*
X197549Y92325D01*
X201359Y80895D01*
X200406Y83753D02*
X194691Y83753D01*
X206185Y80895D02*
X206185Y92325D01*
X209360Y92325D01*
X209471Y92323D01*
X209581Y92317D01*
X209692Y92308D01*
X209802Y92294D01*
X209911Y92277D01*
X210020Y92256D01*
X210128Y92231D01*
X210235Y92202D01*
X210341Y92170D01*
X210446Y92134D01*
X210549Y92094D01*
X210651Y92051D01*
X210752Y92004D01*
X210851Y91953D01*
X210948Y91900D01*
X211042Y91843D01*
X211135Y91782D01*
X211226Y91719D01*
X211315Y91652D01*
X211401Y91582D01*
X211484Y91509D01*
X211566Y91434D01*
X211644Y91356D01*
X211719Y91274D01*
X211792Y91191D01*
X211862Y91105D01*
X211929Y91016D01*
X211992Y90925D01*
X212053Y90832D01*
X212110Y90738D01*
X212163Y90641D01*
X212214Y90542D01*
X212261Y90441D01*
X212304Y90339D01*
X212344Y90236D01*
X212380Y90131D01*
X212412Y90025D01*
X212441Y89918D01*
X212466Y89810D01*
X212487Y89701D01*
X212504Y89592D01*
X212518Y89482D01*
X212527Y89371D01*
X212533Y89261D01*
X212535Y89150D01*
X212535Y84070D01*
X212533Y83959D01*
X212527Y83849D01*
X212518Y83738D01*
X212504Y83628D01*
X212487Y83519D01*
X212466Y83410D01*
X212441Y83302D01*
X212412Y83195D01*
X212380Y83089D01*
X212344Y82984D01*
X212304Y82881D01*
X212261Y82779D01*
X212214Y82678D01*
X212163Y82579D01*
X212110Y82482D01*
X212053Y82388D01*
X211992Y82295D01*
X211929Y82204D01*
X211862Y82115D01*
X211792Y82029D01*
X211719Y81946D01*
X211644Y81864D01*
X211566Y81786D01*
X211484Y81711D01*
X211401Y81638D01*
X211315Y81568D01*
X211226Y81501D01*
X211135Y81438D01*
X211042Y81377D01*
X210947Y81320D01*
X210851Y81267D01*
X210752Y81216D01*
X210651Y81169D01*
X210549Y81126D01*
X210446Y81086D01*
X210341Y81050D01*
X210235Y81018D01*
X210128Y80989D01*
X210020Y80964D01*
X209911Y80943D01*
X209802Y80926D01*
X209692Y80912D01*
X209581Y80903D01*
X209471Y80897D01*
X209360Y80895D01*
X206185Y80895D01*
X217996Y83435D02*
X220536Y92325D01*
X217996Y83435D02*
X224346Y83435D01*
X222441Y85975D02*
X222441Y80895D01*
D12*
X54610Y85344D02*
X54610Y56388D01*
X46990Y56388D01*
X46990Y85344D01*
X54610Y85344D01*
D10*
X84455Y70612D02*
X95885Y70612D01*
X84455Y67437D02*
X84455Y73787D01*
X86995Y78105D02*
X84455Y81280D01*
X95885Y81280D01*
X95885Y78105D02*
X95885Y84455D01*
X213677Y88265D02*
X218440Y94615D01*
X218440Y88265D02*
X213677Y88265D01*
X218440Y88265D02*
X223203Y88265D01*
X218440Y94615D01*
X213677Y94615D01*
X218440Y94615D02*
X223203Y94615D01*
X218440Y88265D02*
X218440Y80327D01*
X218440Y94615D02*
X218440Y102553D01*
D11*
X202057Y60198D02*
X190373Y60198D01*
X190373Y63444D01*
X190375Y63557D01*
X190381Y63670D01*
X190391Y63783D01*
X190405Y63896D01*
X190422Y64008D01*
X190444Y64119D01*
X190469Y64229D01*
X190499Y64339D01*
X190532Y64447D01*
X190569Y64554D01*
X190609Y64660D01*
X190654Y64764D01*
X190702Y64867D01*
X190753Y64968D01*
X190808Y65067D01*
X190866Y65164D01*
X190928Y65259D01*
X190993Y65352D01*
X191061Y65442D01*
X191132Y65530D01*
X191207Y65616D01*
X191284Y65699D01*
X191364Y65779D01*
X191447Y65856D01*
X191533Y65931D01*
X191621Y66002D01*
X191711Y66070D01*
X191804Y66135D01*
X191899Y66197D01*
X191996Y66255D01*
X192095Y66310D01*
X192196Y66361D01*
X192299Y66409D01*
X192403Y66454D01*
X192509Y66494D01*
X192616Y66531D01*
X192724Y66564D01*
X192834Y66594D01*
X192944Y66619D01*
X193055Y66641D01*
X193167Y66658D01*
X193280Y66672D01*
X193393Y66682D01*
X193506Y66688D01*
X193619Y66690D01*
X193619Y66689D02*
X198811Y66689D01*
X198811Y66690D02*
X198924Y66688D01*
X199037Y66682D01*
X199150Y66672D01*
X199263Y66658D01*
X199375Y66641D01*
X199486Y66619D01*
X199596Y66594D01*
X199706Y66564D01*
X199814Y66531D01*
X199921Y66494D01*
X200027Y66454D01*
X200131Y66409D01*
X200234Y66361D01*
X200335Y66310D01*
X200434Y66255D01*
X200531Y66197D01*
X200626Y66135D01*
X200719Y66070D01*
X200809Y66002D01*
X200897Y65931D01*
X200983Y65856D01*
X201066Y65779D01*
X201146Y65699D01*
X201223Y65616D01*
X201298Y65530D01*
X201369Y65442D01*
X201437Y65352D01*
X201502Y65259D01*
X201564Y65164D01*
X201622Y65067D01*
X201677Y64968D01*
X201728Y64867D01*
X201776Y64764D01*
X201821Y64660D01*
X201861Y64554D01*
X201898Y64447D01*
X201931Y64339D01*
X201961Y64229D01*
X201986Y64119D01*
X202008Y64008D01*
X202025Y63896D01*
X202039Y63783D01*
X202049Y63670D01*
X202055Y63557D01*
X202057Y63444D01*
X202057Y60198D01*
X192969Y72009D02*
X190373Y75255D01*
X202057Y75255D01*
X202057Y78500D02*
X202057Y72009D01*
X126492Y36068D02*
X114808Y36068D01*
X114808Y39314D01*
X114810Y39427D01*
X114816Y39540D01*
X114826Y39653D01*
X114840Y39766D01*
X114857Y39878D01*
X114879Y39989D01*
X114904Y40099D01*
X114934Y40209D01*
X114967Y40317D01*
X115004Y40424D01*
X115044Y40530D01*
X115089Y40634D01*
X115137Y40737D01*
X115188Y40838D01*
X115243Y40937D01*
X115301Y41034D01*
X115363Y41129D01*
X115428Y41222D01*
X115496Y41312D01*
X115567Y41400D01*
X115642Y41486D01*
X115719Y41569D01*
X115799Y41649D01*
X115882Y41726D01*
X115968Y41801D01*
X116056Y41872D01*
X116146Y41940D01*
X116239Y42005D01*
X116334Y42067D01*
X116431Y42125D01*
X116530Y42180D01*
X116631Y42231D01*
X116734Y42279D01*
X116838Y42324D01*
X116944Y42364D01*
X117051Y42401D01*
X117159Y42434D01*
X117269Y42464D01*
X117379Y42489D01*
X117490Y42511D01*
X117602Y42528D01*
X117715Y42542D01*
X117828Y42552D01*
X117941Y42558D01*
X118054Y42560D01*
X118167Y42558D01*
X118280Y42552D01*
X118393Y42542D01*
X118506Y42528D01*
X118618Y42511D01*
X118729Y42489D01*
X118839Y42464D01*
X118949Y42434D01*
X119057Y42401D01*
X119164Y42364D01*
X119270Y42324D01*
X119374Y42279D01*
X119477Y42231D01*
X119578Y42180D01*
X119677Y42125D01*
X119774Y42067D01*
X119869Y42005D01*
X119962Y41940D01*
X120052Y41872D01*
X120140Y41801D01*
X120226Y41726D01*
X120309Y41649D01*
X120389Y41569D01*
X120466Y41486D01*
X120541Y41400D01*
X120612Y41312D01*
X120680Y41222D01*
X120745Y41129D01*
X120807Y41034D01*
X120865Y40937D01*
X120920Y40838D01*
X120971Y40737D01*
X121019Y40634D01*
X121064Y40530D01*
X121104Y40424D01*
X121141Y40317D01*
X121174Y40209D01*
X121204Y40099D01*
X121229Y39989D01*
X121251Y39878D01*
X121268Y39766D01*
X121282Y39653D01*
X121292Y39540D01*
X121298Y39427D01*
X121300Y39314D01*
X121299Y39314D02*
X121299Y36068D01*
X121299Y39963D02*
X126492Y42559D01*
X126492Y47424D02*
X126492Y50670D01*
X126490Y50783D01*
X126484Y50896D01*
X126474Y51009D01*
X126460Y51122D01*
X126443Y51234D01*
X126421Y51345D01*
X126396Y51455D01*
X126366Y51565D01*
X126333Y51673D01*
X126296Y51780D01*
X126256Y51886D01*
X126211Y51990D01*
X126163Y52093D01*
X126112Y52194D01*
X126057Y52293D01*
X125999Y52390D01*
X125937Y52485D01*
X125872Y52578D01*
X125804Y52668D01*
X125733Y52756D01*
X125658Y52842D01*
X125581Y52925D01*
X125501Y53005D01*
X125418Y53082D01*
X125332Y53157D01*
X125244Y53228D01*
X125154Y53296D01*
X125061Y53361D01*
X124966Y53423D01*
X124869Y53481D01*
X124770Y53536D01*
X124669Y53587D01*
X124566Y53635D01*
X124462Y53680D01*
X124356Y53720D01*
X124249Y53757D01*
X124141Y53790D01*
X124031Y53820D01*
X123921Y53845D01*
X123810Y53867D01*
X123698Y53884D01*
X123585Y53898D01*
X123472Y53908D01*
X123359Y53914D01*
X123246Y53916D01*
X123133Y53914D01*
X123020Y53908D01*
X122907Y53898D01*
X122794Y53884D01*
X122682Y53867D01*
X122571Y53845D01*
X122461Y53820D01*
X122351Y53790D01*
X122243Y53757D01*
X122136Y53720D01*
X122030Y53680D01*
X121926Y53635D01*
X121823Y53587D01*
X121722Y53536D01*
X121623Y53481D01*
X121526Y53423D01*
X121431Y53361D01*
X121338Y53296D01*
X121248Y53228D01*
X121160Y53157D01*
X121074Y53082D01*
X120991Y53005D01*
X120911Y52925D01*
X120834Y52842D01*
X120759Y52756D01*
X120688Y52668D01*
X120620Y52578D01*
X120555Y52485D01*
X120493Y52390D01*
X120435Y52293D01*
X120380Y52194D01*
X120329Y52093D01*
X120281Y51990D01*
X120236Y51886D01*
X120196Y51780D01*
X120159Y51673D01*
X120126Y51565D01*
X120096Y51455D01*
X120071Y51345D01*
X120049Y51234D01*
X120032Y51122D01*
X120018Y51009D01*
X120008Y50896D01*
X120002Y50783D01*
X120000Y50670D01*
X114808Y51319D02*
X114808Y47424D01*
X114808Y51319D02*
X114810Y51420D01*
X114816Y51520D01*
X114826Y51620D01*
X114839Y51720D01*
X114857Y51819D01*
X114878Y51918D01*
X114903Y52015D01*
X114932Y52112D01*
X114965Y52207D01*
X115001Y52301D01*
X115041Y52393D01*
X115084Y52484D01*
X115131Y52573D01*
X115181Y52660D01*
X115235Y52746D01*
X115292Y52829D01*
X115352Y52909D01*
X115415Y52988D01*
X115482Y53064D01*
X115551Y53137D01*
X115623Y53207D01*
X115697Y53275D01*
X115774Y53340D01*
X115854Y53401D01*
X115936Y53460D01*
X116020Y53515D01*
X116106Y53567D01*
X116194Y53616D01*
X116284Y53661D01*
X116376Y53703D01*
X116469Y53741D01*
X116564Y53775D01*
X116659Y53806D01*
X116756Y53833D01*
X116854Y53856D01*
X116953Y53876D01*
X117053Y53891D01*
X117153Y53903D01*
X117253Y53911D01*
X117354Y53915D01*
X117454Y53915D01*
X117555Y53911D01*
X117655Y53903D01*
X117755Y53891D01*
X117855Y53876D01*
X117954Y53856D01*
X118052Y53833D01*
X118149Y53806D01*
X118244Y53775D01*
X118339Y53741D01*
X118432Y53703D01*
X118524Y53661D01*
X118614Y53616D01*
X118702Y53567D01*
X118788Y53515D01*
X118872Y53460D01*
X118954Y53401D01*
X119034Y53340D01*
X119111Y53275D01*
X119185Y53207D01*
X119257Y53137D01*
X119326Y53064D01*
X119393Y52988D01*
X119456Y52909D01*
X119516Y52829D01*
X119573Y52746D01*
X119627Y52660D01*
X119677Y52573D01*
X119724Y52484D01*
X119767Y52393D01*
X119807Y52301D01*
X119843Y52207D01*
X119876Y52112D01*
X119905Y52015D01*
X119930Y51918D01*
X119951Y51819D01*
X119969Y51720D01*
X119982Y51620D01*
X119992Y51520D01*
X119998Y51420D01*
X120000Y51319D01*
X120001Y51319D02*
X120001Y48723D01*
X163068Y178308D02*
X163068Y189992D01*
X166314Y189992D01*
X166427Y189990D01*
X166540Y189984D01*
X166653Y189974D01*
X166766Y189960D01*
X166878Y189943D01*
X166989Y189921D01*
X167099Y189896D01*
X167209Y189866D01*
X167317Y189833D01*
X167424Y189796D01*
X167530Y189756D01*
X167634Y189711D01*
X167737Y189663D01*
X167838Y189612D01*
X167937Y189557D01*
X168034Y189499D01*
X168129Y189437D01*
X168222Y189372D01*
X168312Y189304D01*
X168400Y189233D01*
X168486Y189158D01*
X168569Y189081D01*
X168649Y189001D01*
X168726Y188918D01*
X168801Y188832D01*
X168872Y188744D01*
X168940Y188654D01*
X169005Y188561D01*
X169067Y188466D01*
X169125Y188369D01*
X169180Y188270D01*
X169231Y188169D01*
X169279Y188066D01*
X169324Y187962D01*
X169364Y187856D01*
X169401Y187749D01*
X169434Y187641D01*
X169464Y187531D01*
X169489Y187421D01*
X169511Y187310D01*
X169528Y187198D01*
X169542Y187085D01*
X169552Y186972D01*
X169558Y186859D01*
X169560Y186746D01*
X169558Y186633D01*
X169552Y186520D01*
X169542Y186407D01*
X169528Y186294D01*
X169511Y186182D01*
X169489Y186071D01*
X169464Y185961D01*
X169434Y185851D01*
X169401Y185743D01*
X169364Y185636D01*
X169324Y185530D01*
X169279Y185426D01*
X169231Y185323D01*
X169180Y185222D01*
X169125Y185123D01*
X169067Y185026D01*
X169005Y184931D01*
X168940Y184838D01*
X168872Y184748D01*
X168801Y184660D01*
X168726Y184574D01*
X168649Y184491D01*
X168569Y184411D01*
X168486Y184334D01*
X168400Y184259D01*
X168312Y184188D01*
X168222Y184120D01*
X168129Y184055D01*
X168034Y183993D01*
X167937Y183935D01*
X167838Y183880D01*
X167737Y183829D01*
X167634Y183781D01*
X167530Y183736D01*
X167424Y183696D01*
X167317Y183659D01*
X167209Y183626D01*
X167099Y183596D01*
X166989Y183571D01*
X166878Y183549D01*
X166766Y183532D01*
X166653Y183518D01*
X166540Y183508D01*
X166427Y183502D01*
X166314Y183500D01*
X166314Y183501D02*
X163068Y183501D01*
X166963Y183501D02*
X169559Y178308D01*
X174424Y180904D02*
X177021Y189992D01*
X174424Y180904D02*
X180915Y180904D01*
X178968Y183501D02*
X178968Y178308D01*
D12*
X168910Y62992D02*
X168910Y34036D01*
X168910Y62992D02*
X176530Y62992D01*
X176530Y34036D01*
X168910Y34036D01*
D10*
X139065Y38100D02*
X127635Y38100D01*
X127635Y34925D02*
X127635Y41275D01*
X127635Y49086D02*
X127637Y49190D01*
X127643Y49295D01*
X127652Y49399D01*
X127665Y49502D01*
X127683Y49605D01*
X127703Y49707D01*
X127728Y49809D01*
X127756Y49909D01*
X127788Y50009D01*
X127824Y50107D01*
X127863Y50204D01*
X127905Y50299D01*
X127951Y50393D01*
X128001Y50485D01*
X128053Y50575D01*
X128109Y50663D01*
X128169Y50749D01*
X128231Y50833D01*
X128296Y50914D01*
X128364Y50993D01*
X128436Y51070D01*
X128509Y51143D01*
X128586Y51215D01*
X128665Y51283D01*
X128746Y51348D01*
X128830Y51410D01*
X128916Y51470D01*
X129004Y51526D01*
X129094Y51578D01*
X129186Y51628D01*
X129280Y51674D01*
X129375Y51716D01*
X129472Y51755D01*
X129570Y51791D01*
X129670Y51823D01*
X129770Y51851D01*
X129872Y51876D01*
X129974Y51896D01*
X130077Y51914D01*
X130180Y51927D01*
X130284Y51936D01*
X130389Y51942D01*
X130493Y51944D01*
X127635Y49086D02*
X127637Y48968D01*
X127643Y48849D01*
X127652Y48731D01*
X127665Y48614D01*
X127683Y48497D01*
X127703Y48380D01*
X127728Y48264D01*
X127756Y48149D01*
X127789Y48036D01*
X127824Y47923D01*
X127864Y47811D01*
X127906Y47701D01*
X127953Y47592D01*
X128003Y47484D01*
X128056Y47379D01*
X128113Y47275D01*
X128173Y47173D01*
X128236Y47073D01*
X128303Y46975D01*
X128372Y46879D01*
X128445Y46786D01*
X128521Y46695D01*
X128599Y46606D01*
X128681Y46520D01*
X128765Y46437D01*
X128851Y46356D01*
X128941Y46279D01*
X129032Y46204D01*
X129126Y46132D01*
X129223Y46063D01*
X129321Y45998D01*
X129422Y45935D01*
X129525Y45876D01*
X129629Y45820D01*
X129735Y45768D01*
X129843Y45719D01*
X129952Y45674D01*
X130063Y45632D01*
X130175Y45594D01*
X132715Y50991D02*
X132640Y51067D01*
X132561Y51142D01*
X132480Y51213D01*
X132396Y51282D01*
X132310Y51347D01*
X132222Y51409D01*
X132132Y51469D01*
X132040Y51525D01*
X131945Y51578D01*
X131849Y51627D01*
X131751Y51673D01*
X131652Y51716D01*
X131551Y51755D01*
X131449Y51790D01*
X131346Y51822D01*
X131242Y51850D01*
X131137Y51875D01*
X131030Y51896D01*
X130924Y51913D01*
X130817Y51926D01*
X130709Y51935D01*
X130601Y51941D01*
X130493Y51943D01*
X132715Y50991D02*
X139065Y45593D01*
X139065Y51943D01*
M02*
