G04 EAGLE Gerber RS-274X export*
G75*
%MOMM*%
%FSLAX34Y34*%
%LPD*%
%INBottom Silkscreen*%
%IPPOS*%
%AMOC8*
5,1,8,0,0,1.08239X$1,22.5*%
G01*
%ADD10C,0.127000*%


D10*
X124460Y46990D02*
X68580Y46990D01*
X68580Y123190D02*
X124460Y123190D01*
X124460Y46990D01*
X68580Y110490D02*
X68580Y123190D01*
X68580Y110490D02*
X68580Y59690D01*
X68580Y46990D01*
X68580Y59690D02*
X81280Y59690D01*
X81280Y110490D01*
X68580Y110490D01*
X117277Y73364D02*
X121031Y73364D01*
X117277Y73363D02*
X117212Y73361D01*
X117148Y73355D01*
X117084Y73345D01*
X117020Y73332D01*
X116958Y73314D01*
X116897Y73293D01*
X116837Y73269D01*
X116779Y73240D01*
X116722Y73208D01*
X116668Y73173D01*
X116616Y73135D01*
X116566Y73093D01*
X116519Y73049D01*
X116475Y73002D01*
X116433Y72952D01*
X116395Y72900D01*
X116360Y72846D01*
X116328Y72789D01*
X116299Y72731D01*
X116275Y72671D01*
X116254Y72610D01*
X116236Y72548D01*
X116223Y72484D01*
X116213Y72420D01*
X116207Y72356D01*
X116205Y72291D01*
X116205Y71755D01*
X119959Y76312D02*
X121031Y77652D01*
X116205Y77652D01*
X116205Y76312D02*
X116205Y78993D01*
M02*
