G04 EAGLE Gerber RS-274X export*
G75*
%MOMM*%
%FSLAX34Y34*%
%LPD*%
%INMechanical*%
%IPPOS*%
%AMOC8*
5,1,8,0,0,1.08239X$1,22.5*%
G01*
%ADD10C,0.000000*%
%ADD11C,0.254000*%
%ADD12C,0.254000*%


D10*
X90000Y125000D02*
X90011Y125859D01*
X90042Y126717D01*
X90095Y127575D01*
X90169Y128431D01*
X90263Y129284D01*
X90379Y130136D01*
X90515Y130984D01*
X90673Y131828D01*
X90850Y132669D01*
X91049Y133504D01*
X91268Y134335D01*
X91507Y135160D01*
X91767Y135979D01*
X92046Y136791D01*
X92345Y137596D01*
X92664Y138394D01*
X93003Y139183D01*
X93360Y139964D01*
X93737Y140736D01*
X94133Y141499D01*
X94547Y142251D01*
X94979Y142994D01*
X95430Y143725D01*
X95899Y144445D01*
X96385Y145153D01*
X96888Y145849D01*
X97408Y146533D01*
X97945Y147204D01*
X98498Y147861D01*
X99067Y148505D01*
X99651Y149134D01*
X100251Y149749D01*
X100866Y150349D01*
X101495Y150933D01*
X102139Y151502D01*
X102796Y152055D01*
X103467Y152592D01*
X104151Y153112D01*
X104847Y153615D01*
X105555Y154101D01*
X106275Y154570D01*
X107006Y155021D01*
X107749Y155453D01*
X108501Y155867D01*
X109264Y156263D01*
X110036Y156640D01*
X110817Y156997D01*
X111606Y157336D01*
X112404Y157655D01*
X113209Y157954D01*
X114021Y158233D01*
X114840Y158493D01*
X115665Y158732D01*
X116496Y158951D01*
X117331Y159150D01*
X118172Y159327D01*
X119016Y159485D01*
X119864Y159621D01*
X120716Y159737D01*
X121569Y159831D01*
X122425Y159905D01*
X123283Y159958D01*
X124141Y159989D01*
X125000Y160000D01*
X125859Y159989D01*
X126717Y159958D01*
X127575Y159905D01*
X128431Y159831D01*
X129284Y159737D01*
X130136Y159621D01*
X130984Y159485D01*
X131828Y159327D01*
X132669Y159150D01*
X133504Y158951D01*
X134335Y158732D01*
X135160Y158493D01*
X135979Y158233D01*
X136791Y157954D01*
X137596Y157655D01*
X138394Y157336D01*
X139183Y156997D01*
X139964Y156640D01*
X140736Y156263D01*
X141499Y155867D01*
X142251Y155453D01*
X142994Y155021D01*
X143725Y154570D01*
X144445Y154101D01*
X145153Y153615D01*
X145849Y153112D01*
X146533Y152592D01*
X147204Y152055D01*
X147861Y151502D01*
X148505Y150933D01*
X149134Y150349D01*
X149749Y149749D01*
X150349Y149134D01*
X150933Y148505D01*
X151502Y147861D01*
X152055Y147204D01*
X152592Y146533D01*
X153112Y145849D01*
X153615Y145153D01*
X154101Y144445D01*
X154570Y143725D01*
X155021Y142994D01*
X155453Y142251D01*
X155867Y141499D01*
X156263Y140736D01*
X156640Y139964D01*
X156997Y139183D01*
X157336Y138394D01*
X157655Y137596D01*
X157954Y136791D01*
X158233Y135979D01*
X158493Y135160D01*
X158732Y134335D01*
X158951Y133504D01*
X159150Y132669D01*
X159327Y131828D01*
X159485Y130984D01*
X159621Y130136D01*
X159737Y129284D01*
X159831Y128431D01*
X159905Y127575D01*
X159958Y126717D01*
X159989Y125859D01*
X160000Y125000D01*
X159989Y124141D01*
X159958Y123283D01*
X159905Y122425D01*
X159831Y121569D01*
X159737Y120716D01*
X159621Y119864D01*
X159485Y119016D01*
X159327Y118172D01*
X159150Y117331D01*
X158951Y116496D01*
X158732Y115665D01*
X158493Y114840D01*
X158233Y114021D01*
X157954Y113209D01*
X157655Y112404D01*
X157336Y111606D01*
X156997Y110817D01*
X156640Y110036D01*
X156263Y109264D01*
X155867Y108501D01*
X155453Y107749D01*
X155021Y107006D01*
X154570Y106275D01*
X154101Y105555D01*
X153615Y104847D01*
X153112Y104151D01*
X152592Y103467D01*
X152055Y102796D01*
X151502Y102139D01*
X150933Y101495D01*
X150349Y100866D01*
X149749Y100251D01*
X149134Y99651D01*
X148505Y99067D01*
X147861Y98498D01*
X147204Y97945D01*
X146533Y97408D01*
X145849Y96888D01*
X145153Y96385D01*
X144445Y95899D01*
X143725Y95430D01*
X142994Y94979D01*
X142251Y94547D01*
X141499Y94133D01*
X140736Y93737D01*
X139964Y93360D01*
X139183Y93003D01*
X138394Y92664D01*
X137596Y92345D01*
X136791Y92046D01*
X135979Y91767D01*
X135160Y91507D01*
X134335Y91268D01*
X133504Y91049D01*
X132669Y90850D01*
X131828Y90673D01*
X130984Y90515D01*
X130136Y90379D01*
X129284Y90263D01*
X128431Y90169D01*
X127575Y90095D01*
X126717Y90042D01*
X125859Y90011D01*
X125000Y90000D01*
X124141Y90011D01*
X123283Y90042D01*
X122425Y90095D01*
X121569Y90169D01*
X120716Y90263D01*
X119864Y90379D01*
X119016Y90515D01*
X118172Y90673D01*
X117331Y90850D01*
X116496Y91049D01*
X115665Y91268D01*
X114840Y91507D01*
X114021Y91767D01*
X113209Y92046D01*
X112404Y92345D01*
X111606Y92664D01*
X110817Y93003D01*
X110036Y93360D01*
X109264Y93737D01*
X108501Y94133D01*
X107749Y94547D01*
X107006Y94979D01*
X106275Y95430D01*
X105555Y95899D01*
X104847Y96385D01*
X104151Y96888D01*
X103467Y97408D01*
X102796Y97945D01*
X102139Y98498D01*
X101495Y99067D01*
X100866Y99651D01*
X100251Y100251D01*
X99651Y100866D01*
X99067Y101495D01*
X98498Y102139D01*
X97945Y102796D01*
X97408Y103467D01*
X96888Y104151D01*
X96385Y104847D01*
X95899Y105555D01*
X95430Y106275D01*
X94979Y107006D01*
X94547Y107749D01*
X94133Y108501D01*
X93737Y109264D01*
X93360Y110036D01*
X93003Y110817D01*
X92664Y111606D01*
X92345Y112404D01*
X92046Y113209D01*
X91767Y114021D01*
X91507Y114840D01*
X91268Y115665D01*
X91049Y116496D01*
X90850Y117331D01*
X90673Y118172D01*
X90515Y119016D01*
X90379Y119864D01*
X90263Y120716D01*
X90169Y121569D01*
X90095Y122425D01*
X90042Y123283D01*
X90011Y124141D01*
X90000Y125000D01*
D11*
X0Y125000D02*
X38Y128068D01*
X151Y131133D01*
X339Y134196D01*
X602Y137252D01*
X940Y140301D01*
X1353Y143341D01*
X1840Y146370D01*
X2402Y149386D01*
X3037Y152388D01*
X3746Y155373D01*
X4528Y158339D01*
X5382Y161286D01*
X6309Y164210D01*
X7307Y167111D01*
X8376Y169987D01*
X9515Y172835D01*
X10724Y175655D01*
X12001Y178444D01*
X13347Y181201D01*
X14760Y183925D01*
X16239Y186612D01*
X17784Y189263D01*
X19393Y191875D01*
X21066Y194446D01*
X22802Y196976D01*
X24599Y199462D01*
X26457Y201904D01*
X28374Y204299D01*
X30349Y206647D01*
X32381Y208945D01*
X34469Y211193D01*
X36612Y213388D01*
X38807Y215531D01*
X41055Y217619D01*
X43353Y219651D01*
X45701Y221626D01*
X48096Y223543D01*
X50538Y225401D01*
X53024Y227198D01*
X55554Y228934D01*
X58125Y230607D01*
X60737Y232216D01*
X63388Y233761D01*
X66075Y235240D01*
X68799Y236653D01*
X71556Y237999D01*
X74345Y239276D01*
X77165Y240485D01*
X80013Y241624D01*
X82889Y242693D01*
X85790Y243691D01*
X88714Y244618D01*
X91661Y245472D01*
X94627Y246254D01*
X97612Y246963D01*
X100614Y247598D01*
X103630Y248160D01*
X106659Y248647D01*
X109699Y249060D01*
X112748Y249398D01*
X115804Y249661D01*
X118867Y249849D01*
X121932Y249962D01*
X125000Y250000D01*
X128068Y249962D01*
X131133Y249849D01*
X134196Y249661D01*
X137252Y249398D01*
X140301Y249060D01*
X143341Y248647D01*
X146370Y248160D01*
X149386Y247598D01*
X152388Y246963D01*
X155373Y246254D01*
X158339Y245472D01*
X161286Y244618D01*
X164210Y243691D01*
X167111Y242693D01*
X169987Y241624D01*
X172835Y240485D01*
X175655Y239276D01*
X178444Y237999D01*
X181201Y236653D01*
X183925Y235240D01*
X186612Y233761D01*
X189263Y232216D01*
X191875Y230607D01*
X194446Y228934D01*
X196976Y227198D01*
X199462Y225401D01*
X201904Y223543D01*
X204299Y221626D01*
X206647Y219651D01*
X208945Y217619D01*
X211193Y215531D01*
X213388Y213388D01*
X215531Y211193D01*
X217619Y208945D01*
X219651Y206647D01*
X221626Y204299D01*
X223543Y201904D01*
X225401Y199462D01*
X227198Y196976D01*
X228934Y194446D01*
X230607Y191875D01*
X232216Y189263D01*
X233761Y186612D01*
X235240Y183925D01*
X236653Y181201D01*
X237999Y178444D01*
X239276Y175655D01*
X240485Y172835D01*
X241624Y169987D01*
X242693Y167111D01*
X243691Y164210D01*
X244618Y161286D01*
X245472Y158339D01*
X246254Y155373D01*
X246963Y152388D01*
X247598Y149386D01*
X248160Y146370D01*
X248647Y143341D01*
X249060Y140301D01*
X249398Y137252D01*
X249661Y134196D01*
X249849Y131133D01*
X249962Y128068D01*
X250000Y125000D01*
X249962Y121932D01*
X249849Y118867D01*
X249661Y115804D01*
X249398Y112748D01*
X249060Y109699D01*
X248647Y106659D01*
X248160Y103630D01*
X247598Y100614D01*
X246963Y97612D01*
X246254Y94627D01*
X245472Y91661D01*
X244618Y88714D01*
X243691Y85790D01*
X242693Y82889D01*
X241624Y80013D01*
X240485Y77165D01*
X239276Y74345D01*
X237999Y71556D01*
X236653Y68799D01*
X235240Y66075D01*
X233761Y63388D01*
X232216Y60737D01*
X230607Y58125D01*
X228934Y55554D01*
X227198Y53024D01*
X225401Y50538D01*
X223543Y48096D01*
X221626Y45701D01*
X219651Y43353D01*
X217619Y41055D01*
X215531Y38807D01*
X213388Y36612D01*
X211193Y34469D01*
X208945Y32381D01*
X206647Y30349D01*
X204299Y28374D01*
X201904Y26457D01*
X199462Y24599D01*
X196976Y22802D01*
X194446Y21066D01*
X191875Y19393D01*
X189263Y17784D01*
X186612Y16239D01*
X183925Y14760D01*
X181201Y13347D01*
X178444Y12001D01*
X175655Y10724D01*
X172835Y9515D01*
X169987Y8376D01*
X167111Y7307D01*
X164210Y6309D01*
X161286Y5382D01*
X158339Y4528D01*
X155373Y3746D01*
X152388Y3037D01*
X149386Y2402D01*
X146370Y1840D01*
X143341Y1353D01*
X140301Y940D01*
X137252Y602D01*
X134196Y339D01*
X131133Y151D01*
X128068Y38D01*
X125000Y0D01*
X121932Y38D01*
X118867Y151D01*
X115804Y339D01*
X112748Y602D01*
X109699Y940D01*
X106659Y1353D01*
X103630Y1840D01*
X100614Y2402D01*
X97612Y3037D01*
X94627Y3746D01*
X91661Y4528D01*
X88714Y5382D01*
X85790Y6309D01*
X82889Y7307D01*
X80013Y8376D01*
X77165Y9515D01*
X74345Y10724D01*
X71556Y12001D01*
X68799Y13347D01*
X66075Y14760D01*
X63388Y16239D01*
X60737Y17784D01*
X58125Y19393D01*
X55554Y21066D01*
X53024Y22802D01*
X50538Y24599D01*
X48096Y26457D01*
X45701Y28374D01*
X43353Y30349D01*
X41055Y32381D01*
X38807Y34469D01*
X36612Y36612D01*
X34469Y38807D01*
X32381Y41055D01*
X30349Y43353D01*
X28374Y45701D01*
X26457Y48096D01*
X24599Y50538D01*
X22802Y53024D01*
X21066Y55554D01*
X19393Y58125D01*
X17784Y60737D01*
X16239Y63388D01*
X14760Y66075D01*
X13347Y68799D01*
X12001Y71556D01*
X10724Y74345D01*
X9515Y77165D01*
X8376Y80013D01*
X7307Y82889D01*
X6309Y85790D01*
X5382Y88714D01*
X4528Y91661D01*
X3746Y94627D01*
X3037Y97612D01*
X2402Y100614D01*
X1840Y103630D01*
X1353Y106659D01*
X940Y109699D01*
X602Y112748D01*
X339Y115804D01*
X151Y118867D01*
X38Y121932D01*
X0Y125000D01*
D12*
X250000Y123466D02*
X250000Y126534D01*
X249925Y129601D01*
X249774Y132666D01*
X249548Y135725D01*
X249248Y138779D01*
X248872Y141824D01*
X248422Y144859D01*
X247897Y147882D01*
X247299Y150891D01*
X246627Y153884D01*
X245881Y156861D01*
X245063Y159818D01*
X244172Y162754D01*
X243210Y165667D01*
X242176Y168556D01*
X241072Y171418D01*
X239898Y174253D01*
X238655Y177058D01*
X237343Y179831D01*
X235963Y182572D01*
X234517Y185278D01*
X233005Y187947D01*
X231427Y190579D01*
X229786Y193171D01*
X228081Y195722D01*
X226315Y198230D01*
X224487Y200695D01*
X222600Y203113D01*
X220653Y205485D01*
X218649Y207808D01*
X216589Y210082D01*
X214473Y212304D01*
X212304Y214473D01*
X210082Y216589D01*
X207808Y218649D01*
X205485Y220653D01*
X203113Y222600D01*
X200695Y224487D01*
X198230Y226315D01*
X195722Y228081D01*
X193171Y229786D01*
X190579Y231427D01*
X187947Y233005D01*
X185278Y234517D01*
X182572Y235963D01*
X179831Y237343D01*
X177058Y238655D01*
X174253Y239898D01*
X171418Y241072D01*
X168556Y242176D01*
X165667Y243210D01*
X162754Y244172D01*
X159818Y245063D01*
X156861Y245881D01*
X153884Y246627D01*
X150891Y247299D01*
X147882Y247897D01*
X144859Y248422D01*
X141824Y248872D01*
X138779Y249248D01*
X135725Y249548D01*
X132666Y249774D01*
X129601Y249925D01*
X126534Y250000D01*
X123466Y250000D01*
X120399Y249925D01*
X117334Y249774D01*
X114275Y249548D01*
X111221Y249248D01*
X108176Y248872D01*
X105141Y248422D01*
X102118Y247897D01*
X99109Y247299D01*
X96116Y246627D01*
X93139Y245881D01*
X90182Y245063D01*
X87246Y244172D01*
X84333Y243210D01*
X81444Y242176D01*
X78582Y241072D01*
X75747Y239898D01*
X72942Y238655D01*
X70169Y237343D01*
X67428Y235963D01*
X64723Y234517D01*
X62053Y233005D01*
X59421Y231427D01*
X56829Y229786D01*
X54278Y228081D01*
X51770Y226315D01*
X49305Y224487D01*
X46887Y222600D01*
X44515Y220653D01*
X42192Y218649D01*
X39918Y216589D01*
X37696Y214473D01*
X35527Y212304D01*
X33411Y210082D01*
X31351Y207808D01*
X29347Y205485D01*
X27401Y203113D01*
X25513Y200695D01*
X23685Y198230D01*
X21919Y195722D01*
X20214Y193171D01*
X18573Y190579D01*
X16995Y187947D01*
X15483Y185278D01*
X14037Y182572D01*
X12657Y179831D01*
X11345Y177058D01*
X10102Y174253D01*
X8928Y171418D01*
X7824Y168556D01*
X6790Y165667D01*
X5828Y162754D01*
X4937Y159818D01*
X4119Y156861D01*
X3373Y153884D01*
X2701Y150891D01*
X2103Y147882D01*
X1578Y144859D01*
X1128Y141824D01*
X752Y138779D01*
X452Y135725D01*
X226Y132666D01*
X75Y129601D01*
X0Y126534D01*
X0Y123466D01*
X75Y120399D01*
X226Y117334D01*
X452Y114275D01*
X752Y111221D01*
X1128Y108176D01*
X1578Y105141D01*
X2103Y102118D01*
X2701Y99109D01*
X3373Y96116D01*
X4119Y93139D01*
X4937Y90182D01*
X5828Y87246D01*
X6790Y84333D01*
X7824Y81444D01*
X8928Y78582D01*
X10102Y75747D01*
X11345Y72942D01*
X12657Y70169D01*
X14037Y67428D01*
X15483Y64723D01*
X16995Y62053D01*
X18573Y59421D01*
X20214Y56829D01*
X21919Y54278D01*
X23685Y51770D01*
X25513Y49305D01*
X27401Y46887D01*
X29347Y44515D01*
X31351Y42192D01*
X33411Y39918D01*
X35527Y37696D01*
X37696Y35527D01*
X39918Y33411D01*
X42192Y31351D01*
X44515Y29347D01*
X46887Y27401D01*
X49305Y25513D01*
X51770Y23685D01*
X54278Y21919D01*
X56829Y20214D01*
X59421Y18573D01*
X62053Y16995D01*
X64723Y15483D01*
X67428Y14037D01*
X70169Y12657D01*
X72942Y11345D01*
X75747Y10102D01*
X78582Y8928D01*
X81444Y7824D01*
X84333Y6790D01*
X87246Y5828D01*
X90182Y4937D01*
X93139Y4119D01*
X96116Y3373D01*
X99109Y2701D01*
X102118Y2103D01*
X105141Y1578D01*
X108176Y1128D01*
X111221Y752D01*
X114275Y452D01*
X117334Y226D01*
X120399Y75D01*
X123466Y0D01*
X126534Y0D01*
X129601Y75D01*
X132666Y226D01*
X135725Y452D01*
X138779Y752D01*
X141824Y1128D01*
X144859Y1578D01*
X147882Y2103D01*
X150891Y2701D01*
X153884Y3373D01*
X156861Y4119D01*
X159818Y4937D01*
X162754Y5828D01*
X165667Y6790D01*
X168556Y7824D01*
X171418Y8928D01*
X174253Y10102D01*
X177058Y11345D01*
X179831Y12657D01*
X182572Y14037D01*
X185278Y15483D01*
X187947Y16995D01*
X190579Y18573D01*
X193171Y20214D01*
X195722Y21919D01*
X198230Y23685D01*
X200695Y25513D01*
X203113Y27401D01*
X205485Y29347D01*
X207808Y31351D01*
X210082Y33411D01*
X212304Y35527D01*
X214473Y37696D01*
X216589Y39918D01*
X218649Y42192D01*
X220653Y44515D01*
X222600Y46887D01*
X224487Y49305D01*
X226315Y51770D01*
X228081Y54278D01*
X229786Y56829D01*
X231427Y59421D01*
X233005Y62053D01*
X234517Y64723D01*
X235963Y67428D01*
X237343Y70169D01*
X238655Y72942D01*
X239898Y75747D01*
X241072Y78582D01*
X242176Y81444D01*
X243210Y84333D01*
X244172Y87246D01*
X245063Y90182D01*
X245881Y93139D01*
X246627Y96116D01*
X247299Y99109D01*
X247897Y102118D01*
X248422Y105141D01*
X248872Y108176D01*
X249248Y111221D01*
X249548Y114275D01*
X249774Y117334D01*
X249925Y120399D01*
X250000Y123466D01*
X160000Y124191D02*
X159925Y122576D01*
X159776Y120965D01*
X159553Y119364D01*
X159255Y117774D01*
X158885Y116200D01*
X158443Y114644D01*
X157929Y113111D01*
X157344Y111603D01*
X156691Y110123D01*
X155970Y108675D01*
X155183Y107262D01*
X154332Y105887D01*
X153418Y104553D01*
X152443Y103262D01*
X151410Y102018D01*
X150321Y100823D01*
X149177Y99679D01*
X147982Y98590D01*
X146738Y97557D01*
X145447Y96582D01*
X144113Y95668D01*
X142738Y94817D01*
X141325Y94030D01*
X139877Y93309D01*
X138398Y92656D01*
X136889Y92071D01*
X135356Y91557D01*
X133800Y91115D01*
X132226Y90745D01*
X130636Y90447D01*
X129035Y90224D01*
X127424Y90075D01*
X125809Y90000D01*
X124191Y90000D01*
X122576Y90075D01*
X120965Y90224D01*
X119364Y90447D01*
X117774Y90745D01*
X116200Y91115D01*
X114644Y91557D01*
X113111Y92071D01*
X111603Y92656D01*
X110123Y93309D01*
X108675Y94030D01*
X107262Y94817D01*
X105887Y95668D01*
X104553Y96582D01*
X103262Y97557D01*
X102018Y98590D01*
X100823Y99679D01*
X99679Y100823D01*
X98590Y102018D01*
X97557Y103262D01*
X96582Y104553D01*
X95668Y105887D01*
X94817Y107262D01*
X94030Y108675D01*
X93309Y110123D01*
X92656Y111603D01*
X92071Y113111D01*
X91557Y114644D01*
X91115Y116200D01*
X90745Y117774D01*
X90447Y119364D01*
X90224Y120965D01*
X90075Y122576D01*
X90000Y124191D01*
X90000Y125809D01*
X90075Y127424D01*
X90224Y129035D01*
X90447Y130636D01*
X90745Y132226D01*
X91115Y133800D01*
X91557Y135356D01*
X92071Y136889D01*
X92656Y138398D01*
X93309Y139877D01*
X94030Y141325D01*
X94817Y142738D01*
X95668Y144113D01*
X96582Y145447D01*
X97557Y146738D01*
X98590Y147982D01*
X99679Y149177D01*
X100823Y150321D01*
X102018Y151410D01*
X103262Y152443D01*
X104553Y153418D01*
X105887Y154332D01*
X107262Y155183D01*
X108675Y155970D01*
X110123Y156691D01*
X111603Y157344D01*
X113111Y157929D01*
X114644Y158443D01*
X116200Y158885D01*
X117774Y159255D01*
X119364Y159553D01*
X120965Y159776D01*
X122576Y159925D01*
X124191Y160000D01*
X125809Y160000D01*
X127424Y159925D01*
X129035Y159776D01*
X130636Y159553D01*
X132226Y159255D01*
X133800Y158885D01*
X135356Y158443D01*
X136889Y157929D01*
X138398Y157344D01*
X139877Y156691D01*
X141325Y155970D01*
X142738Y155183D01*
X144113Y154332D01*
X145447Y153418D01*
X146738Y152443D01*
X147982Y151410D01*
X149177Y150321D01*
X150321Y149177D01*
X151410Y147982D01*
X152443Y146738D01*
X153418Y145447D01*
X154332Y144113D01*
X155183Y142738D01*
X155970Y141325D01*
X156691Y139877D01*
X157344Y138398D01*
X157929Y136889D01*
X158443Y135356D01*
X158885Y133800D01*
X159255Y132226D01*
X159553Y130636D01*
X159776Y129035D01*
X159925Y127424D01*
X160000Y125809D01*
X160000Y124191D01*
M02*
