  0
SECTION
  2
HEADER
  9
$ACADVER
  1
AC1014
  9
$HANDSEED
  5
FFFF
  9
$MEASUREMENT
 70
     1
  0
ENDSEC
  0
SECTION
  2
TABLES
  0
TABLE
  2
VPORT
  5
8
330
0
100
AcDbSymbolTable
 70
     4
  0
VPORT
  5
2E
330
8
100
AcDbSymbolTableRecord
100
AcDbViewportTableRecord
  2
*ACTIVE
 70
     0
 10
0.0
 20
0.0
 11
1.0
 21
1.0
 12
210.0
 22
148.5
 13
0.0
 23
0.0
 14
10.0
 24
10.0
 15
10.0
 25
10.0
 16
0.0
 26
0.0
 36
1.0
 17
0.0
 27
0.0
 37
0.0
 40
341.0
 41
1.24
 42
50.0
 43
0.0
 44
0.0
 50
0.0
 51
0.0
 71
     0
 72
   100
 73
     1
 74
     3
 75
     0
 76
     0
 77
     0
 78
     0
  0
ENDTAB
  0
TABLE
  2
LTYPE
  5
5
330
0
100
AcDbSymbolTable
 70
     1
  0
LTYPE
  5
14
330
5
100
AcDbSymbolTableRecord
100
AcDbLinetypeTableRecord
  2
BYBLOCK
 70
     0
  3

 72
    65
 73
     0
 40
0.0
  0
LTYPE
  5
15
330
5
100
AcDbSymbolTableRecord
100
AcDbLinetypeTableRecord
  2
BYLAYER
 70
     0
  3

 72
    65
 73
     0
 40
0.0
  0
LTYPE
  5
16
330
5
100
AcDbSymbolTableRecord
100
AcDbLinetypeTableRecord
  2
CONTINUOUS
 70
     0
  3
Solid line
 72
    65
 73
     0
 40
0.0
  0
ENDTAB
  0
TABLE
  2
LAYER
  5
2
100
AcDbSymbolTable
 70
2
  0
LAYER
  5
50
100
AcDbSymbolTableRecord
100
AcDbLayerTableRecord
  2
0
 70
0
  6
CONTINUOUS
  0
LAYER
  5
51
100
AcDbSymbolTableRecord
100
AcDbLayerTableRecord
  2
MAT_BALISE_Drawing
 70
0
  6
CONTINUOUS
  0
ENDTAB
  0
TABLE
  2
STYLE
  5
3
330
0
100
AcDbSymbolTable
 70
     1
  0
STYLE
  5
11
330
3
100
AcDbSymbolTableRecord
100
AcDbTextStyleTableRecord
  2
STANDARD
 70
     0
 40
0.0
 41
1.0
 50
0.0
 71
     0
 42
2.5
  3
txt
  4

  0
ENDTAB
  0
TABLE
  2
VIEW
  5
6
330
0
100
AcDbSymbolTable
 70
     0
  0
ENDTAB
  0
TABLE
  2
UCS
  5
7
330
0
100
AcDbSymbolTable
 70
     0
  0
ENDTAB
  0
TABLE
  2
APPID
  5
9
330
0
100
AcDbSymbolTable
 70
     2
  0
APPID
  5
12
330
9
100
AcDbSymbolTableRecord
100
AcDbRegAppTableRecord
  2
ACAD
 70
     0
  0
ENDTAB
  0
TABLE
  2
DIMSTYLE
  5
A
330
0
100
AcDbSymbolTable
 70
     1
  0
DIMSTYLE
105
27
330
A
100
AcDbSymbolTableRecord
100
AcDbDimStyleTableRecord
  2
ISO-25
 70
     0
  3

  4

  5

  6

  7

 40
1.0
 41
2.5
 42
0.625
 43
3.75
 44
1.25
 45
0.0
 46
0.0
 47
0.0
 48
0.0
140
2.5
141
2.5
142
0.0
143
0.03937007874016
144
1.0
145
0.0
146
1.0
147
0.625
 71
     0
 72
     0
 73
     0
 74
     0
 75
     0
 76
     0
 77
     1
 78
     8
170
     0
171
     3
172
     1
173
     0
174
     0
175
     0
176
     0
177
     0
178
     0
270
     2
271
     2
272
     2
273
     2
274
     3
340
11
275
     0
280
     0
281
     0
282
     0
283
     0
284
     8
285
     0
286
     0
287
     3
288
     0
  0
ENDTAB
  0
TABLE
  2
BLOCK_RECORD
  5
1
330
0
100
AcDbSymbolTable
 70
     1
  0
BLOCK_RECORD
  5
1F
330
1
100
AcDbSymbolTableRecord
100
AcDbBlockTableRecord
  2
*MODEL_SPACE
  0
BLOCK_RECORD
  5
1B
330
1
100
AcDbSymbolTableRecord
100
AcDbBlockTableRecord
  2
*PAPER_SPACE
  0
ENDTAB
  0
ENDSEC
  0
SECTION
  2
BLOCKS
  0
BLOCK
  5
20
330
1F
100
AcDbEntity
  8
0
100
AcDbBlockBegin
  2
*MODEL_SPACE
 70
     0
 10
0.0
 20
0.0
 30
0.0
  3
*MODEL_SPACE
  1

  0
ENDBLK
  5
21
330
1F
100
AcDbEntity
  8
0
100
AcDbBlockEnd
  0
BLOCK
  5
1C
330
1B
100
AcDbEntity
 67
     1
  8
0
100
AcDbBlockBegin
  2
*PAPER_SPACE
  1

  0
ENDBLK
  5
1D
330
1B
100
AcDbEntity
 67
     1
  8
0
100
AcDbBlockEnd
  0
ENDSEC
  0
SECTION
  2
ENTITIES
  0
SPLINE
  5
100
100
AcDbEntity
  8
MAT_BALISE_Drawing
 62
7
100
AcDbSpline
 70
0
 71
3
 72
19
 73
15
 74
13
 40
0.000000
 40
0.000000
 40
0.000000
 40
0.000000
 40
0.813439
 40
1.602751
 40
2.416188
 40
3.229625
 40
4.018936
 40
4.832375
 40
5.645814
 40
6.435126
 40
7.248563
 40
8.062000
 40
8.851312
 40
9.664751
 40
9.664751
 40
9.664751
 40
9.664751
 10
116.289667
 20
231.489250
 30
0.0
 10
116.332426
 20
231.214997
 30
0.0
 10
116.416677
 20
230.674624
 30
0.0
 10
117.036048
 20
230.079720
 30
0.0
 10
117.843989
 20
229.859290
 30
0.0
 10
118.660412
 20
230.079720
 30
0.0
 10
119.254838
 20
230.674624
 30
0.0
 10
119.475432
 20
231.489250
 30
0.0
 10
119.254838
 20
232.303876
 30
0.0
 10
118.660412
 20
232.898780
 30
0.0
 10
117.843989
 20
233.119210
 30
0.0
 10
117.036048
 20
232.898780
 30
0.0
 10
116.416677
 20
232.303876
 30
0.0
 10
116.332426
 20
231.763503
 30
0.0
 10
116.289667
 20
231.489250
 30
0.0
 11
116.289667
 21
231.489250
 31
0.0
 11
116.502073
 21
230.704033
 31
0.0
 11
117.060201
 21
230.145905
 31
0.0
 11
117.845417
 21
229.933500
 31
0.0
 11
118.630632
 21
230.145905
 31
0.0
 11
119.188761
 21
230.704033
 31
0.0
 11
119.401167
 21
231.489250
 31
0.0
 11
119.188761
 21
232.274467
 31
0.0
 11
118.630632
 21
232.832595
 31
0.0
 11
117.845417
 21
233.045000
 31
0.0
 11
117.060201
 21
232.832595
 31
0.0
 11
116.502073
 21
232.274467
 31
0.0
 11
116.289667
 21
231.489250
 31
0.0
  0
SPLINE
  5
101
100
AcDbEntity
  8
MAT_BALISE_Drawing
 62
7
100
AcDbSpline
 70
0
 71
3
 72
19
 73
15
 74
13
 40
0.000000
 40
0.000000
 40
0.000000
 40
0.000000
 40
26.146218
 40
51.516955
 40
77.663182
 40
103.809407
 40
129.180145
 40
155.326363
 40
181.472585
 40
206.843322
 40
232.989546
 40
259.135773
 40
284.506508
 40
310.652730
 40
310.652730
 40
310.652730
 40
310.652730
 10
125.835833
 20
231.489250
 30
0.0
 10
124.461420
 20
240.304524
 30
0.0
 10
121.753359
 20
257.673617
 30
0.0
 10
101.845033
 20
276.795573
 30
0.0
 10
75.875480
 20
283.880838
 30
0.0
 10
49.633272
 20
276.795572
 30
0.0
 10
30.526737
 20
257.673617
 30
0.0
 10
23.436232
 20
231.489249
 30
0.0
 10
30.526735
 20
205.304880
 30
0.0
 10
49.633273
 20
186.182925
 30
0.0
 10
75.875480
 20
179.097664
 30
0.0
 10
101.845033
 20
186.182924
 30
0.0
 10
121.753360
 20
205.304880
 30
0.0
 10
124.461421
 20
222.673974
 30
0.0
 10
125.835833
 20
231.489250
 30
0.0
 11
125.835833
 21
231.489250
 31
0.0
 11
119.008515
 21
256.728355
 31
0.0
 11
101.068697
 21
274.668178
 31
0.0
 11
75.829583
 21
281.495500
 31
0.0
 11
50.590472
 21
274.668178
 31
0.0
 11
32.650652
 21
256.728355
 31
0.0
 11
25.823333
 21
231.489250
 31
0.0
 11
32.650652
 21
206.250140
 31
0.0
 11
50.590472
 21
188.310320
 31
0.0
 11
75.829583
 21
181.483000
 31
0.0
 11
101.068697
 21
188.310320
 31
0.0
 11
119.008515
 21
206.250140
 31
0.0
 11
125.835833
 21
231.489250
 31
0.0
  0
SPLINE
  5
102
100
AcDbEntity
  8
MAT_BALISE_Drawing
 62
7
100
AcDbSpline
 70
0
 71
3
 72
19
 73
15
 74
13
 40
0.000000
 40
0.000000
 40
0.000000
 40
0.000000
 40
0.813437
 40
1.602749
 40
2.416188
 40
3.229627
 40
4.018939
 40
4.832375
 40
5.645812
 40
6.435124
 40
7.248563
 40
8.062002
 40
8.851314
 40
9.664751
 40
9.664751
 40
9.664751
 40
9.664751
 10
53.276500
 20
195.124917
 30
0.0
 10
53.319260
 20
194.850664
 30
0.0
 10
53.403510
 20
194.310293
 30
0.0
 10
54.022880
 20
193.715387
 30
0.0
 10
54.830822
 20
193.494956
 30
0.0
 10
55.647247
 20
193.715387
 30
0.0
 10
56.241672
 20
194.310293
 30
0.0
 10
56.462265
 20
195.124917
 30
0.0
 10
56.241672
 20
195.939541
 30
0.0
 10
55.647247
 20
196.534446
 30
0.0
 10
54.830822
 20
196.754877
 30
0.0
 10
54.022880
 20
196.534446
 30
0.0
 10
53.403510
 20
195.939541
 30
0.0
 10
53.319260
 20
195.399169
 30
0.0
 10
53.276500
 20
195.124917
 30
0.0
 11
53.276500
 21
195.124917
 31
0.0
 11
53.488905
 21
194.339701
 31
0.0
 11
54.047033
 21
193.781573
 31
0.0
 11
54.832250
 21
193.569167
 31
0.0
 11
55.617467
 21
193.781573
 31
0.0
 11
56.175595
 21
194.339701
 31
0.0
 11
56.388000
 21
195.124917
 31
0.0
 11
56.175595
 21
195.910132
 31
0.0
 11
55.617467
 21
196.468261
 31
0.0
 11
54.832250
 21
196.680667
 31
0.0
 11
54.047033
 21
196.468261
 31
0.0
 11
53.488905
 21
195.910132
 31
0.0
 11
53.276500
 21
195.124917
 31
0.0
  0
SPLINE
  5
103
100
AcDbEntity
  8
MAT_BALISE_Drawing
 62
7
100
AcDbSpline
 70
0
 71
3
 72
19
 73
15
 74
13
 40
0.000000
 40
0.000000
 40
0.000000
 40
0.000000
 40
0.813439
 40
1.602750
 40
2.416189
 40
3.229627
 40
4.018939
 40
4.832377
 40
5.645816
 40
6.435127
 40
7.248566
 40
8.062004
 40
8.851316
 40
9.664754
 40
9.664754
 40
9.664754
 40
9.664754
 10
53.276500
 20
267.874750
 30
0.0
 10
53.319259
 20
267.600497
 30
0.0
 10
53.403510
 20
267.060125
 30
0.0
 10
54.022880
 20
266.465219
 30
0.0
 10
54.830822
 20
266.244790
 30
0.0
 10
55.647247
 20
266.465219
 30
0.0
 10
56.241673
 20
267.060125
 30
0.0
 10
56.462265
 20
267.874750
 30
0.0
 10
56.241673
 20
268.689375
 30
0.0
 10
55.647247
 20
269.284281
 30
0.0
 10
54.830822
 20
269.504710
 30
0.0
 10
54.022880
 20
269.284281
 30
0.0
 10
53.403510
 20
268.689375
 30
0.0
 10
53.319259
 20
268.149003
 30
0.0
 10
53.276500
 20
267.874750
 30
0.0
 11
53.276500
 21
267.874750
 31
0.0
 11
53.488905
 21
267.089533
 31
0.0
 11
54.047033
 21
266.531405
 31
0.0
 11
54.832250
 21
266.319000
 31
0.0
 11
55.617467
 21
266.531405
 31
0.0
 11
56.175595
 21
267.089533
 31
0.0
 11
56.388000
 21
267.874750
 31
0.0
 11
56.175595
 21
268.659967
 31
0.0
 11
55.617467
 21
269.218095
 31
0.0
 11
54.832250
 21
269.430500
 31
0.0
 11
54.047033
 21
269.218095
 31
0.0
 11
53.488905
 21
268.659967
 31
0.0
 11
53.276500
 21
267.874750
 31
0.0
  0
SPLINE
  5
104
100
AcDbEntity
  8
MAT_BALISE_Drawing
 62
7
100
AcDbSpline
 70
0
 71
3
 72
19
 73
15
 74
13
 40
0.000000
 40
0.000000
 40
0.000000
 40
0.000000
 40
0.813439
 40
1.602751
 40
2.416188
 40
3.229625
 40
4.018936
 40
4.832375
 40
5.645814
 40
6.435126
 40
7.248563
 40
8.062000
 40
8.851312
 40
9.664751
 40
9.664751
 40
9.664751
 40
9.664751
 10
184.869667
 20
273.060583
 30
0.0
 10
184.912426
 20
272.786330
 30
0.0
 10
184.996677
 20
272.245958
 30
0.0
 10
185.616048
 20
271.651053
 30
0.0
 10
186.423989
 20
271.430623
 30
0.0
 10
187.240412
 20
271.651053
 30
0.0
 10
187.834838
 20
272.245958
 30
0.0
 10
188.055432
 20
273.060583
 30
0.0
 10
187.834838
 20
273.875209
 30
0.0
 10
187.240412
 20
274.470113
 30
0.0
 10
186.423989
 20
274.690544
 30
0.0
 10
185.616048
 20
274.470113
 30
0.0
 10
184.996677
 20
273.875209
 30
0.0
 10
184.912426
 20
273.334837
 30
0.0
 10
184.869667
 20
273.060583
 30
0.0
 11
184.869667
 21
273.060583
 31
0.0
 11
185.082073
 21
272.275366
 31
0.0
 11
185.640201
 21
271.717238
 31
0.0
 11
186.425417
 21
271.504833
 31
0.0
 11
187.210632
 21
271.717238
 31
0.0
 11
187.768761
 21
272.275366
 31
0.0
 11
187.981167
 21
273.060583
 31
0.0
 11
187.768761
 21
273.845801
 31
0.0
 11
187.210632
 21
274.403928
 31
0.0
 11
186.425417
 21
274.616333
 31
0.0
 11
185.640201
 21
274.403928
 31
0.0
 11
185.082073
 21
273.845801
 31
0.0
 11
184.869667
 21
273.060583
 31
0.0
  0
SPLINE
  5
105
100
AcDbEntity
  8
MAT_BALISE_Drawing
 62
7
100
AcDbSpline
 70
0
 71
3
 72
19
 73
15
 74
13
 40
0.000000
 40
0.000000
 40
0.000000
 40
0.000000
 40
0.813437
 40
1.602750
 40
2.416187
 40
3.229624
 40
4.018936
 40
4.832374
 40
5.645811
 40
6.435123
 40
7.248560
 40
8.061997
 40
8.851310
 40
9.664747
 40
9.664747
 40
9.664747
 40
9.664747
 10
184.869667
 20
189.050083
 30
0.0
 10
184.912427
 20
188.775831
 30
0.0
 10
184.996678
 20
188.235459
 30
0.0
 10
185.616048
 20
187.640554
 30
0.0
 10
186.423989
 20
187.420122
 30
0.0
 10
187.240412
 20
187.640554
 30
0.0
 10
187.834837
 20
188.235459
 30
0.0
 10
188.055433
 20
189.050083
 30
0.0
 10
187.834837
 20
189.864708
 30
0.0
 10
187.240412
 20
190.459612
 30
0.0
 10
186.423989
 20
190.680044
 30
0.0
 10
185.616048
 20
190.459612
 30
0.0
 10
184.996678
 20
189.864708
 30
0.0
 10
184.912427
 20
189.324336
 30
0.0
 10
184.869667
 20
189.050083
 30
0.0
 11
184.869667
 21
189.050083
 31
0.0
 11
185.082073
 21
188.264868
 31
0.0
 11
185.640201
 21
187.706739
 31
0.0
 11
186.425417
 21
187.494333
 31
0.0
 11
187.210632
 21
187.706739
 31
0.0
 11
187.768761
 21
188.264868
 31
0.0
 11
187.981167
 21
189.050083
 31
0.0
 11
187.768761
 21
189.835299
 31
0.0
 11
187.210632
 21
190.393427
 31
0.0
 11
186.425417
 21
190.605833
 31
0.0
 11
185.640201
 21
190.393427
 31
0.0
 11
185.082073
 21
189.835299
 31
0.0
 11
184.869667
 21
189.050083
 31
0.0
  0
SPLINE
  5
106
100
AcDbEntity
  8
MAT_BALISE_Drawing
 62
7
100
AcDbSpline
 70
0
 71
3
 72
10
 73
6
 74
4
 40
0.000000
 40
0.000000
 40
0.000000
 40
0.000000
 40
1.568293
 40
3.118279
 40
4.686570
 40
4.686570
 40
4.686570
 40
4.686570
 10
223.234102
 20
221.559692
 30
0.0
 10
223.317342
 20
222.078781
 30
0.0
 10
223.482851
 20
223.110902
 30
0.0
 10
223.135096
 20
224.685270
 30
0.0
 10
222.550240
 20
225.551646
 30
0.0
 10
222.256096
 20
225.987377
 30
0.0
 11
223.234102
 21
221.559692
 31
0.0
 11
223.383431
 21
223.120859
 31
0.0
 11
223.049121
 21
224.634363
 31
0.0
 11
222.256096
 21
225.987377
 31
0.0
  0
SPLINE
  5
107
100
AcDbEntity
  8
MAT_BALISE_Drawing
 62
7
100
AcDbSpline
 70
0
 71
3
 72
10
 73
6
 74
4
 40
0.000000
 40
0.000000
 40
0.000000
 40
0.000000
 40
3.666763
 40
7.243192
 40
10.902430
 40
10.902430
 40
10.902430
 40
10.902430
 10
222.262374
 20
236.112391
 30
0.0
 10
221.613240
 20
235.058093
 30
0.0
 10
220.330965
 20
232.975471
 30
0.0
 10
220.324405
 20
229.096881
 30
0.0
 10
221.602712
 20
227.014287
 30
0.0
 10
222.249180
 20
225.961073
 30
0.0
 11
222.262374
 21
236.112391
 31
0.0
 11
220.642470
 21
232.822852
 31
0.0
 11
220.637822
 21
229.246427
 31
0.0
 11
222.249180
 21
225.961073
 31
0.0
  0
SPLINE
  5
108
100
AcDbEntity
  8
MAT_BALISE_Drawing
 62
7
100
AcDbSpline
 70
0
 71
3
 72
10
 73
6
 74
4
 40
0.000000
 40
0.000000
 40
0.000000
 40
0.000000
 40
1.568294
 40
3.118272
 40
4.686569
 40
4.686569
 40
4.686569
 40
4.686569
 10
172.913569
 20
197.489837
 30
0.0
 10
173.143867
 20
197.017241
 30
0.0
 10
173.601774
 20
196.077570
 30
0.0
 10
174.791373
 20
194.989260
 30
0.0
 10
175.767981
 20
194.616566
 30
0.0
 10
176.259153
 20
194.429124
 30
0.0
 11
172.913569
 21
197.489837
 31
0.0
 11
173.688849
 21
196.126573
 31
0.0
 11
174.832454
 21
195.080342
 31
0.0
 11
176.259153
 21
194.429124
 31
0.0
  0
SPLINE
  5
109
100
AcDbEntity
  8
MAT_BALISE_Drawing
 62
7
100
AcDbSpline
 70
0
 71
3
 72
13
 73
9
 74
7
 40
0.000000
 40
0.000000
 40
0.000000
 40
0.000000
 40
10.064632
 40
20.044084
 40
30.108697
 40
40.173325
 40
50.152782
 40
60.217409
 40
60.217409
 40
60.217409
 40
60.217409
 10
176.253944
 20
194.426417
 30
0.0
 10
179.565514
 20
193.775742
 30
0.0
 10
186.160626
 20
192.479900
 30
0.0
 10
196.270085
 20
193.905747
 30
0.0
 10
205.659112
 20
197.732231
 30
0.0
 10
213.667252
 20
203.950387
 30
0.0
 10
219.956560
 20
211.992708
 30
0.0
 10
222.131677
 20
218.352235
 30
0.0
 10
223.223857
 20
221.545510
 30
0.0
 11
176.253944
 21
194.426417
 31
0.0
 11
186.222689
 21
193.040440
 31
0.0
 11
196.122606
 21
194.297866
 31
0.0
 11
205.428308
 21
198.131968
 31
0.0
 11
213.401402
 21
204.274160
 31
0.0
 11
219.440078
 21
212.219217
 31
0.0
 11
223.223857
 21
221.545510
 31
0.0
  0
SPLINE
  5
10a
100
AcDbEntity
  8
MAT_BALISE_Drawing
 62
7
100
AcDbSpline
 70
0
 71
3
 72
10
 73
6
 74
4
 40
0.000000
 40
0.000000
 40
0.000000
 40
0.000000
 40
1.568291
 40
3.118277
 40
4.686570
 40
4.686570
 40
4.686570
 40
4.686570
 10
222.256096
 20
236.123290
 30
0.0
 10
222.550240
 20
236.559020
 30
0.0
 10
223.135096
 20
237.425397
 30
0.0
 10
223.482851
 20
238.999765
 30
0.0
 10
223.317342
 20
240.031885
 30
0.0
 10
223.234102
 20
240.550975
 30
0.0
 11
222.256096
 21
236.123290
 31
0.0
 11
223.049121
 21
237.476304
 31
0.0
 11
223.383431
 21
238.989808
 31
0.0
 11
223.234102
 21
240.550975
 31
0.0
  0
SPLINE
  5
10b
100
AcDbEntity
  8
MAT_BALISE_Drawing
 62
7
100
AcDbSpline
 70
0
 71
3
 72
13
 73
9
 74
7
 40
0.000000
 40
0.000000
 40
0.000000
 40
0.000000
 40
10.064625
 40
20.044081
 40
30.108716
 40
40.173328
 40
50.152780
 40
60.217413
 40
60.217413
 40
60.217413
 40
60.217413
 10
223.223857
 20
240.543990
 30
0.0
 10
222.131677
 20
243.737264
 30
0.0
 10
219.956560
 20
250.096791
 30
0.0
 10
213.667249
 20
258.139110
 30
0.0
 10
205.659116
 20
264.357279
 30
0.0
 10
196.270085
 20
268.183759
 30
0.0
 10
186.160625
 20
269.609605
 30
0.0
 10
179.565514
 20
268.313759
 30
0.0
 10
176.253944
 20
267.663083
 30
0.0
 11
223.223857
 21
240.543990
 31
0.0
 11
219.440078
 21
249.870281
 31
0.0
 11
213.401402
 21
257.815338
 31
0.0
 11
205.428308
 21
263.957541
 31
0.0
 11
196.122606
 21
267.791640
 31
0.0
 11
186.222689
 21
269.049065
 31
0.0
 11
176.253944
 21
267.663083
 31
0.0
  0
SPLINE
  5
10c
100
AcDbEntity
  8
MAT_BALISE_Drawing
 62
7
100
AcDbSpline
 70
0
 71
3
 72
10
 73
6
 74
4
 40
0.000000
 40
0.000000
 40
0.000000
 40
0.000000
 40
1.568453
 40
3.118592
 40
4.687045
 40
4.687045
 40
4.687045
 40
4.687045
 10
159.782919
 20
203.935603
 30
0.0
 10
160.190868
 20
203.603914
 30
0.0
 10
161.002004
 20
202.944409
 30
0.0
 10
162.539481
 20
202.458315
 30
0.0
 10
163.582318
 20
202.531651
 30
0.0
 10
164.106799
 20
202.568535
 30
0.0
 11
159.782919
 21
203.935603
 31
0.0
 11
161.060353
 21
203.025544
 31
0.0
 11
162.538379
 21
202.558244
 31
0.0
 11
164.106799
 21
202.568535
 31
0.0
  0
SPLINE
  5
10d
100
AcDbEntity
  8
MAT_BALISE_Drawing
 62
7
100
AcDbSpline
 70
0
 71
3
 72
10
 73
6
 74
4
 40
0.000000
 40
0.000000
 40
0.000000
 40
0.000000
 40
3.666777
 40
7.243219
 40
10.902470
 40
10.902470
 40
10.902470
 40
10.902470
 10
172.906158
 20
197.497947
 30
0.0
 10
172.317633
 20
198.587245
 30
0.0
 10
171.155083
 20
200.739004
 30
0.0
 10
167.799321
 20
202.683862
 30
0.0
 10
165.356582
 20
202.618022
 30
0.0
 10
164.121234
 20
202.584725
 30
0.0
 11
172.906158
 21
197.497947
 31
0.0
 11
170.867165
 21
200.545530
 31
0.0
 11
167.772135
 21
202.337660
 31
0.0
 11
164.121234
 21
202.584725
 31
0.0
  0
SPLINE
  5
10e
100
AcDbEntity
  8
MAT_BALISE_Drawing
 62
7
100
AcDbSpline
 70
0
 71
3
 72
10
 73
6
 74
4
 40
0.000000
 40
0.000000
 40
0.000000
 40
0.000000
 40
1.568454
 40
3.118592
 40
4.687044
 40
4.687044
 40
4.687044
 40
4.687044
 10
164.106799
 20
259.542132
 30
0.0
 10
163.582318
 20
259.579013
 30
0.0
 10
162.539481
 20
259.652345
 30
0.0
 10
161.002005
 20
259.166252
 30
0.0
 10
160.190868
 20
258.506749
 30
0.0
 10
159.782919
 20
258.175062
 30
0.0
 11
164.106799
 21
259.542132
 31
0.0
 11
162.538379
 21
259.552417
 31
0.0
 11
161.060353
 21
259.085117
 31
0.0
 11
159.782919
 21
258.175062
 31
0.0
  0
SPLINE
  5
10f
100
AcDbEntity
  8
MAT_BALISE_Drawing
 62
7
100
AcDbSpline
 70
0
 71
3
 72
13
 73
9
 74
7
 40
0.000000
 40
0.000000
 40
0.000000
 40
0.000000
 40
10.064020
 40
20.042883
 40
30.106893
 40
40.170903
 40
50.149764
 40
60.213787
 40
60.213787
 40
60.213787
 40
60.213787
 10
159.797875
 20
258.161811
 30
0.0
 10
157.578794
 20
255.619342
 30
0.0
 10
153.159410
 20
250.555917
 30
0.0
 10
149.339813
 20
241.088499
 30
0.0
 10
147.959141
 20
231.044750
 30
0.0
 10
149.339813
 20
221.001002
 30
0.0
 10
153.159411
 20
211.533584
 30
0.0
 10
157.578794
 20
206.470157
 30
0.0
 10
159.797875
 20
203.927687
 30
0.0
 11
159.797875
 21
258.161811
 31
0.0
 11
153.613774
 21
250.221949
 31
0.0
 11
149.753086
 21
241.020168
 31
0.0
 11
148.420667
 21
231.044750
 31
0.0
 11
149.753086
 21
221.069333
 31
0.0
 11
153.613774
 21
211.867552
 31
0.0
 11
159.797875
 21
203.927687
 31
0.0
  0
SPLINE
  5
110
100
AcDbEntity
  8
MAT_BALISE_Drawing
 62
7
100
AcDbSpline
 70
0
 71
3
 72
10
 73
6
 74
4
 40
0.000000
 40
0.000000
 40
0.000000
 40
0.000000
 40
1.568297
 40
3.118279
 40
4.686575
 40
4.686575
 40
4.686575
 40
4.686575
 10
176.259153
 20
267.681541
 30
0.0
 10
175.767981
 20
267.494099
 30
0.0
 10
174.791372
 20
267.121403
 30
0.0
 10
173.601775
 20
266.033088
 30
0.0
 10
173.143868
 20
265.093415
 30
0.0
 10
172.913569
 20
264.620819
 30
0.0
 11
176.259153
 21
267.681541
 31
0.0
 11
174.832454
 21
267.030322
 31
0.0
 11
173.688849
 21
265.984085
 31
0.0
 11
172.913569
 21
264.620819
 31
0.0
  0
SPLINE
  5
111
100
AcDbEntity
  8
MAT_BALISE_Drawing
 62
7
100
AcDbSpline
 70
0
 71
3
 72
10
 73
6
 74
4
 40
0.000000
 40
0.000000
 40
0.000000
 40
0.000000
 40
3.666755
 40
7.243175
 40
10.902405
 40
10.902405
 40
10.902405
 40
10.902405
 10
164.128575
 20
259.545417
 30
0.0
 10
165.366187
 20
259.510362
 30
0.0
 10
167.810921
 20
259.441116
 30
0.0
 10
171.173209
 20
261.374623
 30
0.0
 10
172.337697
 20
263.522927
 30
0.0
 10
172.926605
 20
264.609372
 30
0.0
 11
164.128575
 21
259.545417
 31
0.0
 11
167.787350
 21
259.787197
 31
0.0
 11
170.886997
 21
261.571286
 31
0.0
 11
172.926605
 21
264.609372
 31
0.0
  0
SPLINE
  5
112
100
AcDbEntity
  8
MAT_BALISE_Drawing
 62
7
100
AcDbSpline
 70
0
 71
3
 72
19
 73
15
 74
13
 40
0.000000
 40
0.000000
 40
0.000000
 40
0.000000
 40
0.813437
 40
1.602750
 40
2.416187
 40
3.229624
 40
4.018936
 40
4.832374
 40
5.645811
 40
6.435123
 40
7.248560
 40
8.061997
 40
8.851310
 40
9.664747
 40
9.664747
 40
9.664747
 40
9.664747
 10
166.983833
 20
194.680417
 30
0.0
 10
166.941073
 20
194.954669
 30
0.0
 10
166.856822
 20
195.495041
 30
0.0
 10
166.237452
 20
196.089946
 30
0.0
 10
165.429511
 20
196.310378
 30
0.0
 10
164.613088
 20
196.089946
 30
0.0
 10
164.018663
 20
195.495041
 30
0.0
 10
163.798067
 20
194.680417
 30
0.0
 10
164.018663
 20
193.865792
 30
0.0
 10
164.613088
 20
193.270888
 30
0.0
 10
165.429511
 20
193.050456
 30
0.0
 10
166.237452
 20
193.270888
 30
0.0
 10
166.856822
 20
193.865792
 30
0.0
 10
166.941073
 20
194.406164
 30
0.0
 10
166.983833
 20
194.680417
 30
0.0
 11
166.983833
 21
194.680417
 31
0.0
 11
166.771427
 21
195.465632
 31
0.0
 11
166.213299
 21
196.023761
 31
0.0
 11
165.428083
 21
196.236167
 31
0.0
 11
164.642868
 21
196.023761
 31
0.0
 11
164.084739
 21
195.465632
 31
0.0
 11
163.872333
 21
194.680417
 31
0.0
 11
164.084739
 21
193.895201
 31
0.0
 11
164.642868
 21
193.337073
 31
0.0
 11
165.428083
 21
193.124667
 31
0.0
 11
166.213299
 21
193.337073
 31
0.0
 11
166.771427
 21
193.895201
 31
0.0
 11
166.983833
 21
194.680417
 31
0.0
  0
SPLINE
  5
113
100
AcDbEntity
  8
MAT_BALISE_Drawing
 62
7
100
AcDbSpline
 70
0
 71
3
 72
19
 73
15
 74
13
 40
0.000000
 40
0.000000
 40
0.000000
 40
0.000000
 40
0.813439
 40
1.602751
 40
2.416188
 40
3.229625
 40
4.018936
 40
4.832375
 40
5.645814
 40
6.435126
 40
7.248563
 40
8.062000
 40
8.851312
 40
9.664751
 40
9.664751
 40
9.664751
 40
9.664751
 10
166.983833
 20
267.430250
 30
0.0
 10
166.941074
 20
267.704503
 30
0.0
 10
166.856823
 20
268.244876
 30
0.0
 10
166.237452
 20
268.839780
 30
0.0
 10
165.429511
 20
269.060210
 30
0.0
 10
164.613088
 20
268.839780
 30
0.0
 10
164.018662
 20
268.244876
 30
0.0
 10
163.798068
 20
267.430250
 30
0.0
 10
164.018662
 20
266.615624
 30
0.0
 10
164.613088
 20
266.020720
 30
0.0
 10
165.429511
 20
265.800290
 30
0.0
 10
166.237452
 20
266.020720
 30
0.0
 10
166.856823
 20
266.615624
 30
0.0
 10
166.941074
 20
267.155997
 30
0.0
 10
166.983833
 20
267.430250
 30
0.0
 11
166.983833
 21
267.430250
 31
0.0
 11
166.771427
 21
268.215467
 31
0.0
 11
166.213299
 21
268.773595
 31
0.0
 11
165.428083
 21
268.986000
 31
0.0
 11
164.642868
 21
268.773595
 31
0.0
 11
164.084739
 21
268.215467
 31
0.0
 11
163.872333
 21
267.430250
 31
0.0
 11
164.084739
 21
266.645033
 31
0.0
 11
164.642868
 21
266.086905
 31
0.0
 11
165.428083
 21
265.874500
 31
0.0
 11
166.213299
 21
266.086905
 31
0.0
 11
166.771427
 21
266.645033
 31
0.0
 11
166.983833
 21
267.430250
 31
0.0
  0
SPLINE
  5
114
100
AcDbEntity
  8
MAT_BALISE_Drawing
 62
7
100
AcDbSpline
 70
0
 71
3
 72
19
 73
15
 74
13
 40
0.000000
 40
0.000000
 40
0.000000
 40
0.000000
 40
0.813439
 40
1.602750
 40
2.416189
 40
3.229627
 40
4.018939
 40
4.832377
 40
5.645816
 40
6.435127
 40
7.248566
 40
8.062004
 40
8.851316
 40
9.664754
 40
9.664754
 40
9.664754
 40
9.664754
 10
229.997000
 20
231.044750
 30
0.0
 10
229.954241
 20
231.319003
 30
0.0
 10
229.869990
 20
231.859375
 30
0.0
 10
229.250620
 20
232.454281
 30
0.0
 10
228.442678
 20
232.674710
 30
0.0
 10
227.626253
 20
232.454281
 30
0.0
 10
227.031827
 20
231.859375
 30
0.0
 10
226.811235
 20
231.044750
 30
0.0
 10
227.031827
 20
230.230125
 30
0.0
 10
227.626253
 20
229.635219
 30
0.0
 10
228.442678
 20
229.414790
 30
0.0
 10
229.250620
 20
229.635219
 30
0.0
 10
229.869990
 20
230.230125
 30
0.0
 10
229.954241
 20
230.770497
 30
0.0
 10
229.997000
 20
231.044750
 30
0.0
 11
229.997000
 21
231.044750
 31
0.0
 11
229.784595
 21
231.829967
 31
0.0
 11
229.226467
 21
232.388095
 31
0.0
 11
228.441250
 21
232.600500
 31
0.0
 11
227.656033
 21
232.388095
 31
0.0
 11
227.097905
 21
231.829967
 31
0.0
 11
226.885500
 21
231.044750
 31
0.0
 11
227.097905
 21
230.259533
 31
0.0
 11
227.656033
 21
229.701405
 31
0.0
 11
228.441250
 21
229.489000
 31
0.0
 11
229.226467
 21
229.701405
 31
0.0
 11
229.784595
 21
230.259533
 31
0.0
 11
229.997000
 21
231.044750
 31
0.0
  0
SPLINE
  5
115
100
AcDbEntity
  8
MAT_BALISE_Drawing
 62
7
100
AcDbSpline
 70
0
 71
3
 72
19
 73
15
 74
13
 40
0.000000
 40
0.000000
 40
0.000000
 40
0.000000
 40
26.146222
 40
51.516957
 40
77.663185
 40
103.809403
 40
129.180141
 40
155.326365
 40
181.472584
 40
206.843324
 40
232.989543
 40
259.135770
 40
284.506507
 40
310.652725
 40
310.652725
 40
310.652725
 40
310.652725
 10
136.419167
 20
231.044750
 30
0.0
 10
137.793579
 20
222.229474
 30
0.0
 10
140.501639
 20
204.860380
 30
0.0
 10
160.409966
 20
185.738424
 30
0.0
 10
186.379518
 20
178.653163
 30
0.0
 10
212.621722
 20
185.738427
 30
0.0
 10
231.728260
 20
204.860379
 30
0.0
 10
238.818770
 20
231.044749
 30
0.0
 10
231.728259
 20
257.229118
 30
0.0
 10
212.621723
 20
276.351070
 30
0.0
 10
186.379518
 20
283.436338
 30
0.0
 10
160.409966
 20
276.351073
 30
0.0
 10
140.501641
 20
257.229117
 30
0.0
 10
137.793579
 20
239.860024
 30
0.0
 10
136.419167
 20
231.044750
 30
0.0
 11
136.419167
 21
231.044750
 31
0.0
 11
143.246484
 21
205.805640
 31
0.0
 11
161.186302
 21
187.865820
 31
0.0
 11
186.425417
 21
181.038500
 31
0.0
 11
211.664522
 21
187.865820
 31
0.0
 11
229.604344
 21
205.805640
 31
0.0
 11
236.431667
 21
231.044750
 31
0.0
 11
229.604344
 21
256.283855
 31
0.0
 11
211.664522
 21
274.223678
 31
0.0
 11
186.425417
 21
281.051000
 31
0.0
 11
161.186302
 21
274.223678
 31
0.0
 11
143.246484
 21
256.283855
 31
0.0
 11
136.419167
 21
231.044750
 31
0.0
  0
SPLINE
  5
116
100
AcDbEntity
  8
MAT_BALISE_Drawing
 62
7
100
AcDbSpline
 70
0
 71
3
 72
19
 73
15
 74
13
 40
0.000000
 40
0.000000
 40
0.000000
 40
0.000000
 40
0.813439
 40
1.602750
 40
2.416189
 40
3.229627
 40
4.018939
 40
4.832377
 40
5.645816
 40
6.435127
 40
7.248566
 40
8.062004
 40
8.851316
 40
9.664754
 40
9.664754
 40
9.664754
 40
9.664754
 10
291.930667
 20
273.060583
 30
0.0
 10
291.973426
 20
272.786330
 30
0.0
 10
292.057676
 20
272.245958
 30
0.0
 10
292.677047
 20
271.651052
 30
0.0
 10
293.484989
 20
271.430623
 30
0.0
 10
294.301413
 20
271.651052
 30
0.0
 10
294.895839
 20
272.245958
 30
0.0
 10
295.116432
 20
273.060583
 30
0.0
 10
294.895839
 20
273.875209
 30
0.0
 10
294.301413
 20
274.470114
 30
0.0
 10
293.484989
 20
274.690543
 30
0.0
 10
292.677047
 20
274.470114
 30
0.0
 10
292.057676
 20
273.875209
 30
0.0
 10
291.973426
 20
273.334837
 30
0.0
 10
291.930667
 20
273.060583
 30
0.0
 11
291.930667
 21
273.060583
 31
0.0
 11
292.143072
 21
272.275366
 31
0.0
 11
292.701199
 21
271.717238
 31
0.0
 11
293.486417
 21
271.504833
 31
0.0
 11
294.271634
 21
271.717238
 31
0.0
 11
294.829762
 21
272.275366
 31
0.0
 11
295.042167
 21
273.060583
 31
0.0
 11
294.829762
 21
273.845801
 31
0.0
 11
294.271634
 21
274.403928
 31
0.0
 11
293.486417
 21
274.616333
 31
0.0
 11
292.701199
 21
274.403928
 31
0.0
 11
292.143072
 21
273.845801
 31
0.0
 11
291.930667
 21
273.060583
 31
0.0
  0
LWPOLYLINE
  5
117
100
AcDbEntity
  8
MAT_BALISE_Drawing
 62
7
100
AcDbPolyline
 90
6
 70
1
 10
272.478500
 20
197.844833
 30
0.0
 10
269.726833
 20
196.257333
 30
0.0
 10
269.726833
 20
193.082333
 30
0.0
 10
272.478500
 20
191.494833
 30
0.0
 10
275.230167
 20
193.082333
 30
0.0
 10
275.230167
 20
196.257333
 30
0.0
  0
LWPOLYLINE
  5
118
100
AcDbEntity
  8
MAT_BALISE_Drawing
 62
7
100
AcDbPolyline
 90
6
 70
1
 10
275.230167
 20
265.832167
 30
0.0
 10
275.230167
 20
269.007167
 30
0.0
 10
272.478500
 20
270.594667
 30
0.0
 10
269.726833
 20
269.007167
 30
0.0
 10
269.726833
 20
265.832167
 30
0.0
 10
272.478500
 20
264.244667
 30
0.0
  0
SPLINE
  5
119
100
AcDbEntity
  8
MAT_BALISE_Drawing
 62
7
100
AcDbSpline
 70
0
 71
3
 72
19
 73
15
 74
13
 40
0.000000
 40
0.000000
 40
0.000000
 40
0.000000
 40
0.813437
 40
1.602749
 40
2.416188
 40
3.229627
 40
4.018939
 40
4.832375
 40
5.645812
 40
6.435124
 40
7.248563
 40
8.062002
 40
8.851314
 40
9.664751
 40
9.664751
 40
9.664751
 40
9.664751
 10
291.930667
 20
189.050083
 30
0.0
 10
291.973426
 20
188.775831
 30
0.0
 10
292.057677
 20
188.235459
 30
0.0
 10
292.677047
 20
187.640554
 30
0.0
 10
293.484989
 20
187.420123
 30
0.0
 10
294.301414
 20
187.640554
 30
0.0
 10
294.895839
 20
188.235459
 30
0.0
 10
295.116432
 20
189.050083
 30
0.0
 10
294.895839
 20
189.864707
 30
0.0
 10
294.301414
 20
190.459613
 30
0.0
 10
293.484989
 20
190.680044
 30
0.0
 10
292.677047
 20
190.459613
 30
0.0
 10
292.057677
 20
189.864707
 30
0.0
 10
291.973426
 20
189.324336
 30
0.0
 10
291.930667
 20
189.050083
 30
0.0
 11
291.930667
 21
189.050083
 31
0.0
 11
292.143072
 21
188.264868
 31
0.0
 11
292.701199
 21
187.706739
 31
0.0
 11
293.486417
 21
187.494333
 31
0.0
 11
294.271634
 21
187.706739
 31
0.0
 11
294.829762
 21
188.264868
 31
0.0
 11
295.042167
 21
189.050083
 31
0.0
 11
294.829762
 21
189.835299
 31
0.0
 11
294.271634
 21
190.393427
 31
0.0
 11
293.486417
 21
190.605833
 31
0.0
 11
292.701199
 21
190.393427
 31
0.0
 11
292.143072
 21
189.835299
 31
0.0
 11
291.930667
 21
189.050083
 31
0.0
  0
SPLINE
  5
11a
100
AcDbEntity
  8
MAT_BALISE_Drawing
 62
7
100
AcDbSpline
 70
0
 71
3
 72
13
 73
9
 74
7
 40
0.000000
 40
0.000000
 40
0.000000
 40
0.000000
 40
10.064016
 40
20.042880
 40
30.106891
 40
40.170901
 40
50.149765
 40
60.213783
 40
60.213783
 40
60.213783
 40
60.213783
 10
266.858877
 20
258.161811
 30
0.0
 10
264.639800
 20
255.619341
 30
0.0
 10
260.220421
 20
250.555913
 30
0.0
 10
256.400818
 20
241.088500
 30
0.0
 10
255.020139
 20
231.044750
 30
0.0
 10
256.400818
 20
221.001001
 30
0.0
 10
260.220422
 20
211.533588
 30
0.0
 10
264.639800
 20
206.470158
 30
0.0
 10
266.858877
 20
203.927687
 30
0.0
 11
266.858877
 21
258.161811
 31
0.0
 11
260.674784
 21
250.221949
 31
0.0
 11
256.814091
 21
241.020168
 31
0.0
 11
255.481667
 21
231.044750
 31
0.0
 11
256.814091
 21
221.069333
 31
0.0
 11
260.674784
 21
211.867552
 31
0.0
 11
266.858877
 21
203.927687
 31
0.0
  0
SPLINE
  5
11b
100
AcDbEntity
  8
MAT_BALISE_Drawing
 62
7
100
AcDbSpline
 70
0
 71
3
 72
10
 73
6
 74
4
 40
0.000000
 40
0.000000
 40
0.000000
 40
0.000000
 40
1.568299
 40
3.118287
 40
4.686585
 40
4.686585
 40
4.686585
 40
4.686585
 10
271.167324
 20
259.542218
 30
0.0
 10
270.642892
 20
259.579055
 30
0.0
 10
269.600152
 20
259.652298
 30
0.0
 10
268.062860
 20
259.166177
 30
0.0
 10
267.251811
 20
258.506731
 30
0.0
 10
266.843905
 20
258.175072
 30
0.0
 11
271.167324
 21
259.542218
 31
0.0
 11
269.599058
 21
259.552387
 31
0.0
 11
268.121199
 21
259.085060
 31
0.0
 11
266.843905
 21
258.175072
 31
0.0
  0
SPLINE
  5
11c
100
AcDbEntity
  8
MAT_BALISE_Drawing
 62
7
100
AcDbSpline
 70
0
 71
3
 72
10
 73
6
 74
4
 40
0.000000
 40
0.000000
 40
0.000000
 40
0.000000
 40
3.666755
 40
7.243175
 40
10.902405
 40
10.902405
 40
10.902405
 40
10.902405
 10
271.189575
 20
259.545417
 30
0.0
 10
272.427187
 20
259.510362
 30
0.0
 10
274.871921
 20
259.441116
 30
0.0
 10
278.234209
 20
261.374623
 30
0.0
 10
279.398697
 20
263.522927
 30
0.0
 10
279.987605
 20
264.609372
 30
0.0
 11
271.189575
 21
259.545417
 31
0.0
 11
274.848350
 21
259.787197
 31
0.0
 11
277.947997
 21
261.571286
 31
0.0
 11
279.987605
 21
264.609372
 31
0.0
  0
SPLINE
  5
11d
100
AcDbEntity
  8
MAT_BALISE_Drawing
 62
7
100
AcDbSpline
 70
0
 71
3
 72
10
 73
6
 74
4
 40
0.000000
 40
0.000000
 40
0.000000
 40
0.000000
 40
1.568289
 40
3.118268
 40
4.686558
 40
4.686558
 40
4.686558
 40
4.686558
 10
283.320155
 20
267.681540
 30
0.0
 10
282.828985
 20
267.494098
 30
0.0
 10
281.852381
 20
267.121403
 30
0.0
 10
280.662783
 20
266.033097
 30
0.0
 10
280.204877
 20
265.093427
 30
0.0
 10
279.974579
 20
264.620833
 30
0.0
 11
283.320155
 21
267.681540
 31
0.0
 11
281.893463
 21
267.030323
 31
0.0
 11
280.749857
 21
265.984092
 31
0.0
 11
279.974579
 21
264.620833
 31
0.0
  0
SPLINE
  5
11e
100
AcDbEntity
  8
MAT_BALISE_Drawing
 62
7
100
AcDbSpline
 70
0
 71
3
 72
13
 73
9
 74
7
 40
0.000000
 40
0.000000
 40
0.000000
 40
0.000000
 40
10.064625
 40
20.044083
 40
30.108723
 40
40.173333
 40
50.152784
 40
60.217411
 40
60.217411
 40
60.217411
 40
60.217411
 10
330.284857
 20
240.543990
 30
0.0
 10
329.192677
 20
243.737264
 30
0.0
 10
327.017560
 20
250.096791
 30
0.0
 10
320.728246
 20
258.139111
 30
0.0
 10
312.720108
 20
264.357277
 30
0.0
 10
303.331078
 20
268.183759
 30
0.0
 10
293.221621
 20
269.609605
 30
0.0
 10
286.626512
 20
268.313759
 30
0.0
 10
283.314944
 20
267.663083
 30
0.0
 11
330.284857
 21
240.543990
 31
0.0
 11
326.501078
 21
249.870281
 31
0.0
 11
320.462400
 21
257.815338
 31
0.0
 11
312.489300
 21
263.957541
 31
0.0
 11
303.183599
 21
267.791640
 31
0.0
 11
293.283684
 21
269.049065
 31
0.0
 11
283.314944
 21
267.663083
 31
0.0
  0
SPLINE
  5
11f
100
AcDbEntity
  8
MAT_BALISE_Drawing
 62
7
100
AcDbSpline
 70
0
 71
3
 72
10
 73
6
 74
4
 40
0.000000
 40
0.000000
 40
0.000000
 40
0.000000
 40
1.568295
 40
3.118279
 40
4.686574
 40
4.686574
 40
4.686574
 40
4.686574
 10
329.317108
 20
236.123287
 30
0.0
 10
329.611252
 20
236.559020
 30
0.0
 10
330.196106
 20
237.425399
 30
0.0
 10
330.543858
 20
238.999767
 30
0.0
 10
330.378351
 20
240.031888
 30
0.0
 10
330.295112
 20
240.550979
 30
0.0
 11
329.317108
 21
236.123287
 31
0.0
 11
330.110131
 21
237.476307
 31
0.0
 11
330.444439
 21
238.989810
 31
0.0
 11
330.295112
 21
240.550979
 31
0.0
  0
SPLINE
  5
120
100
AcDbEntity
  8
MAT_BALISE_Drawing
 62
7
100
AcDbSpline
 70
0
 71
3
 72
10
 73
6
 74
4
 40
0.000000
 40
0.000000
 40
0.000000
 40
0.000000
 40
3.666763
 40
7.243192
 40
10.902430
 40
10.902430
 40
10.902430
 40
10.902430
 10
329.323373
 20
236.112387
 30
0.0
 10
328.674239
 20
235.058089
 30
0.0
 10
327.391963
 20
232.975467
 30
0.0
 10
327.385404
 20
229.096878
 30
0.0
 10
328.663711
 20
227.014284
 30
0.0
 10
329.310179
 20
225.961069
 30
0.0
 11
329.323373
 21
236.112387
 31
0.0
 11
327.703469
 21
232.822849
 31
0.0
 11
327.698821
 21
229.246423
 31
0.0
 11
329.310179
 21
225.961069
 31
0.0
  0
SPLINE
  5
121
100
AcDbEntity
  8
MAT_BALISE_Drawing
 62
7
100
AcDbSpline
 70
0
 71
3
 72
10
 73
6
 74
4
 40
0.000000
 40
0.000000
 40
0.000000
 40
0.000000
 40
1.568293
 40
3.118275
 40
4.686568
 40
4.686568
 40
4.686568
 40
4.686568
 10
330.295098
 20
221.559696
 30
0.0
 10
330.378337
 20
222.078786
 30
0.0
 10
330.543845
 20
223.110905
 30
0.0
 10
330.196094
 20
224.685272
 30
0.0
 10
329.611242
 20
225.551650
 30
0.0
 10
329.317099
 20
225.987383
 30
0.0
 11
330.295098
 21
221.559696
 31
0.0
 11
330.444426
 21
223.120863
 31
0.0
 11
330.110120
 21
224.634364
 31
0.0
 11
329.317099
 21
225.987383
 31
0.0
  0
SPLINE
  5
122
100
AcDbEntity
  8
MAT_BALISE_Drawing
 62
7
100
AcDbSpline
 70
0
 71
3
 72
13
 73
9
 74
7
 40
0.000000
 40
0.000000
 40
0.000000
 40
0.000000
 40
10.064626
 40
20.044077
 40
30.108688
 40
40.173322
 40
50.152779
 40
60.217406
 40
60.217406
 40
60.217406
 40
60.217406
 10
283.314944
 20
194.426417
 30
0.0
 10
286.626512
 20
193.775742
 30
0.0
 10
293.221621
 20
192.479900
 30
0.0
 10
303.331079
 20
193.905747
 30
0.0
 10
312.720104
 20
197.732233
 30
0.0
 10
320.728249
 20
203.950386
 30
0.0
 10
327.017560
 20
211.992708
 30
0.0
 10
329.192677
 20
218.352235
 30
0.0
 10
330.284857
 20
221.545510
 30
0.0
 11
283.314944
 21
194.426417
 31
0.0
 11
293.283684
 21
193.040440
 31
0.0
 11
303.183599
 21
194.297866
 31
0.0
 11
312.489300
 21
198.131968
 31
0.0
 11
320.462400
 21
204.274160
 31
0.0
 11
326.501078
 21
212.219217
 31
0.0
 11
330.284857
 21
221.545510
 31
0.0
  0
SPLINE
  5
123
100
AcDbEntity
  8
MAT_BALISE_Drawing
 62
7
100
AcDbSpline
 70
0
 71
3
 72
10
 73
6
 74
4
 40
0.000000
 40
0.000000
 40
0.000000
 40
0.000000
 40
1.568294
 40
3.118278
 40
4.686573
 40
4.686573
 40
4.686573
 40
4.686573
 10
279.974557
 20
197.489844
 30
0.0
 10
280.204854
 20
197.017248
 30
0.0
 10
280.662759
 20
196.077574
 30
0.0
 10
281.852356
 20
194.989260
 30
0.0
 10
282.828963
 20
194.616560
 30
0.0
 10
283.320133
 20
194.429116
 30
0.0
 11
279.974557
 21
197.489844
 31
0.0
 11
280.749833
 21
196.126578
 31
0.0
 11
281.893440
 21
195.080340
 31
0.0
 11
283.320133
 21
194.429116
 31
0.0
  0
SPLINE
  5
124
100
AcDbEntity
  8
MAT_BALISE_Drawing
 62
7
100
AcDbSpline
 70
0
 71
3
 72
10
 73
6
 74
4
 40
0.000000
 40
0.000000
 40
0.000000
 40
0.000000
 40
3.666777
 40
7.243219
 40
10.902470
 40
10.902470
 40
10.902470
 40
10.902470
 10
279.967158
 20
197.497947
 30
0.0
 10
279.378633
 20
198.587245
 30
0.0
 10
278.216083
 20
200.739004
 30
0.0
 10
274.860321
 20
202.683862
 30
0.0
 10
272.417582
 20
202.618022
 30
0.0
 10
271.182234
 20
202.584725
 30
0.0
 11
279.967158
 21
197.497947
 31
0.0
 11
277.928165
 21
200.545530
 31
0.0
 11
274.833135
 21
202.337660
 31
0.0
 11
271.182234
 21
202.584725
 31
0.0
  0
SPLINE
  5
125
100
AcDbEntity
  8
MAT_BALISE_Drawing
 62
7
100
AcDbSpline
 70
0
 71
3
 72
10
 73
6
 74
4
 40
0.000000
 40
0.000000
 40
0.000000
 40
0.000000
 40
1.568299
 40
3.118287
 40
4.686586
 40
4.686586
 40
4.686586
 40
4.686586
 10
266.844259
 20
203.935246
 30
0.0
 10
267.252199
 20
203.603627
 30
0.0
 10
268.063314
 20
202.944261
 30
0.0
 10
269.600655
 20
202.458293
 30
0.0
 10
270.643387
 20
202.531640
 30
0.0
 10
271.167815
 20
202.568529
 30
0.0
 11
266.844259
 21
203.935246
 31
0.0
 11
268.121644
 21
203.025384
 31
0.0
 11
269.599551
 21
202.558204
 31
0.0
 11
271.167815
 21
202.568529
 31
0.0
  0
SPLINE
  5
126
100
AcDbEntity
  8
MAT_BALISE_Drawing
 62
7
100
AcDbSpline
 70
0
 71
3
 72
19
 73
15
 74
13
 40
0.000000
 40
0.000000
 40
0.000000
 40
0.000000
 40
26.146223
 40
51.516962
 40
77.663180
 40
103.809398
 40
129.180137
 40
155.326360
 40
181.472579
 40
206.843319
 40
232.989538
 40
259.135757
 40
284.506497
 40
310.652716
 40
310.652716
 40
310.652716
 40
310.652716
 10
243.480167
 20
231.044750
 30
0.0
 10
244.854581
 20
222.229474
 30
0.0
 10
247.562644
 20
204.860379
 30
0.0
 10
267.470973
 20
185.738428
 30
0.0
 10
293.440520
 20
178.653162
 30
0.0
 10
319.682723
 20
185.738428
 30
0.0
 10
338.789260
 20
204.860379
 30
0.0
 10
345.879770
 20
231.044749
 30
0.0
 10
338.789259
 20
257.229118
 30
0.0
 10
319.682723
 20
276.351069
 30
0.0
 10
293.440520
 20
283.436339
 30
0.0
 10
267.470973
 20
276.351069
 30
0.0
 10
247.562646
 20
257.229118
 30
0.0
 10
244.854581
 20
239.860024
 30
0.0
 10
243.480167
 20
231.044750
 30
0.0
 11
243.480167
 21
231.044750
 31
0.0
 11
250.307489
 21
205.805640
 31
0.0
 11
268.247312
 21
187.865820
 31
0.0
 11
293.486417
 21
181.038500
 31
0.0
 11
318.725522
 21
187.865820
 31
0.0
 11
336.665344
 21
205.805640
 31
0.0
 11
343.492667
 21
231.044750
 31
0.0
 11
336.665344
 21
256.283855
 31
0.0
 11
318.725522
 21
274.223678
 31
0.0
 11
293.486417
 21
281.051000
 31
0.0
 11
268.247312
 21
274.223678
 31
0.0
 11
250.307489
 21
256.283855
 31
0.0
 11
243.480167
 21
231.044750
 31
0.0
  0
SPLINE
  5
127
100
AcDbEntity
  8
MAT_BALISE_Drawing
 62
7
100
AcDbSpline
 70
0
 71
3
 72
19
 73
15
 74
13
 40
0.000000
 40
0.000000
 40
0.000000
 40
0.000000
 40
0.835572
 40
1.646362
 40
2.481935
 40
3.317507
 40
4.128297
 40
4.963869
 40
5.799442
 40
6.610231
 40
7.445804
 40
8.281376
 40
9.092166
 40
9.927738
 40
9.927738
 40
9.927738
 40
9.927738
 10
104.796167
 20
121.232083
 30
0.0
 10
104.840090
 20
120.950368
 30
0.0
 10
104.926633
 20
120.395292
 30
0.0
 10
105.562857
 20
119.784199
 30
0.0
 10
106.392783
 20
119.557770
 30
0.0
 10
107.231423
 20
119.784199
 30
0.0
 10
107.842024
 20
120.395292
 30
0.0
 10
108.068620
 20
121.232083
 30
0.0
 10
107.842024
 20
122.068875
 30
0.0
 10
107.231423
 20
122.679968
 30
0.0
 10
106.392783
 20
122.906396
 30
0.0
 10
105.562857
 20
122.679968
 30
0.0
 10
104.926633
 20
122.068875
 30
0.0
 10
104.840090
 20
121.513799
 30
0.0
 10
104.796167
 20
121.232083
 30
0.0
 11
104.796167
 21
121.232083
 31
0.0
 11
105.014352
 21
120.425500
 31
0.0
 11
105.587667
 21
119.852185
 31
0.0
 11
106.394250
 21
119.634000
 31
0.0
 11
107.200833
 21
119.852185
 31
0.0
 11
107.774148
 21
120.425500
 31
0.0
 11
107.992333
 21
121.232083
 31
0.0
 11
107.774148
 21
122.038667
 31
0.0
 11
107.200833
 21
122.611981
 31
0.0
 11
106.394250
 21
122.830167
 31
0.0
 11
105.587667
 21
122.611981
 31
0.0
 11
105.014352
 21
122.038667
 31
0.0
 11
104.796167
 21
121.232083
 31
0.0
  0
SPLINE
  5
128
100
AcDbEntity
  8
MAT_BALISE_Drawing
 62
7
100
AcDbSpline
 70
0
 71
3
 72
19
 73
15
 74
13
 40
0.000000
 40
0.000000
 40
0.000000
 40
0.000000
 40
0.835572
 40
1.646362
 40
2.481935
 40
3.317507
 40
4.128297
 40
4.963869
 40
5.799442
 40
6.610231
 40
7.445804
 40
8.281376
 40
9.092166
 40
9.927738
 40
9.927738
 40
9.927738
 40
9.927738
 10
42.777833
 20
121.232083
 30
0.0
 10
42.821756
 20
120.950368
 30
0.0
 10
42.908300
 20
120.395292
 30
0.0
 10
43.544524
 20
119.784199
 30
0.0
 10
44.374450
 20
119.557770
 30
0.0
 10
45.213090
 20
119.784199
 30
0.0
 10
45.823690
 20
120.395292
 30
0.0
 10
46.050286
 20
121.232083
 30
0.0
 10
45.823690
 20
122.068875
 30
0.0
 10
45.213090
 20
122.679968
 30
0.0
 10
44.374450
 20
122.906396
 30
0.0
 10
43.544524
 20
122.679968
 30
0.0
 10
42.908300
 20
122.068875
 30
0.0
 10
42.821756
 20
121.513799
 30
0.0
 10
42.777833
 20
121.232083
 30
0.0
 11
42.777833
 21
121.232083
 31
0.0
 11
42.996019
 21
120.425500
 31
0.0
 11
43.569333
 21
119.852185
 31
0.0
 11
44.375917
 21
119.634000
 31
0.0
 11
45.182500
 21
119.852185
 31
0.0
 11
45.755815
 21
120.425500
 31
0.0
 11
45.974000
 21
121.232083
 31
0.0
 11
45.755815
 21
122.038667
 31
0.0
 11
45.182500
 21
122.611981
 31
0.0
 11
44.375917
 21
122.830167
 31
0.0
 11
43.569333
 21
122.611981
 31
0.0
 11
42.996019
 21
122.038667
 31
0.0
 11
42.777833
 21
121.232083
 31
0.0
  0
SPLINE
  5
129
100
AcDbEntity
  8
MAT_BALISE_Drawing
 62
7
100
AcDbSpline
 70
0
 71
3
 72
19
 73
15
 74
13
 40
0.000000
 40
0.000000
 40
0.000000
 40
0.000000
 40
0.835572
 40
1.646362
 40
2.481935
 40
3.317507
 40
4.128297
 40
4.963869
 40
5.799442
 40
6.610231
 40
7.445804
 40
8.281376
 40
9.092166
 40
9.927738
 40
9.927738
 40
9.927738
 40
9.927738
 10
104.796167
 20
161.237083
 30
0.0
 10
104.840090
 20
160.955368
 30
0.0
 10
104.926633
 20
160.400292
 30
0.0
 10
105.562857
 20
159.789199
 30
0.0
 10
106.392783
 20
159.562770
 30
0.0
 10
107.231423
 20
159.789199
 30
0.0
 10
107.842024
 20
160.400292
 30
0.0
 10
108.068620
 20
161.237083
 30
0.0
 10
107.842024
 20
162.073875
 30
0.0
 10
107.231423
 20
162.684968
 30
0.0
 10
106.392783
 20
162.911396
 30
0.0
 10
105.562857
 20
162.684968
 30
0.0
 10
104.926633
 20
162.073875
 30
0.0
 10
104.840090
 20
161.518799
 30
0.0
 10
104.796167
 20
161.237083
 30
0.0
 11
104.796167
 21
161.237083
 31
0.0
 11
105.014352
 21
160.430500
 31
0.0
 11
105.587667
 21
159.857185
 31
0.0
 11
106.394250
 21
159.639000
 31
0.0
 11
107.200833
 21
159.857185
 31
0.0
 11
107.774148
 21
160.430500
 31
0.0
 11
107.992333
 21
161.237083
 31
0.0
 11
107.774148
 21
162.043667
 31
0.0
 11
107.200833
 21
162.616981
 31
0.0
 11
106.394250
 21
162.835167
 31
0.0
 11
105.587667
 21
162.616981
 31
0.0
 11
105.014352
 21
162.043667
 31
0.0
 11
104.796167
 21
161.237083
 31
0.0
  0
LWPOLYLINE
  5
12a
100
AcDbEntity
  8
MAT_BALISE_Drawing
 62
7
100
AcDbPolyline
 90
6
 70
1
 10
332.740000
 20
232.642833
 30
0.0
 10
335.491667
 20
234.230333
 30
0.0
 10
338.243333
 20
232.642833
 30
0.0
 10
338.243333
 20
229.446667
 30
0.0
 10
335.491667
 20
227.859167
 30
0.0
 10
332.740000
 20
229.446667
 30
0.0
  0
LWPOLYLINE
  5
12b
100
AcDbEntity
  8
MAT_BALISE_Drawing
 62
7
100
AcDbPolyline
 90
7
 70
0
 10
30.374167
 20
171.238333
 30
0.0
 10
120.374833
 20
171.238333
 30
0.0
 10
122.385667
 20
169.227500
 30
0.0
 10
122.385667
 20
113.220500
 30
0.0
 10
120.374833
 20
111.209667
 30
0.0
 10
30.374167
 20
111.209667
 30
0.0
 10
28.363333
 20
113.220500
 30
0.0
  0
SPLINE
  5
12c
100
AcDbEntity
  8
MAT_BALISE_Drawing
 62
7
100
AcDbSpline
 70
0
 71
3
 72
19
 73
15
 74
13
 40
0.000000
 40
0.000000
 40
0.000000
 40
0.000000
 40
0.835572
 40
1.646362
 40
2.481935
 40
3.317507
 40
4.128297
 40
4.963869
 40
5.799442
 40
6.610231
 40
7.445804
 40
8.281376
 40
9.092166
 40
9.927738
 40
9.927738
 40
9.927738
 40
9.927738
 10
42.777833
 20
161.237083
 30
0.0
 10
42.821756
 20
160.955368
 30
0.0
 10
42.908300
 20
160.400292
 30
0.0
 10
43.544524
 20
159.789199
 30
0.0
 10
44.374450
 20
159.562770
 30
0.0
 10
45.213090
 20
159.789199
 30
0.0
 10
45.823690
 20
160.400292
 30
0.0
 10
46.050286
 20
161.237083
 30
0.0
 10
45.823690
 20
162.073875
 30
0.0
 10
45.213090
 20
162.684968
 30
0.0
 10
44.374450
 20
162.911396
 30
0.0
 10
43.544524
 20
162.684968
 30
0.0
 10
42.908300
 20
162.073875
 30
0.0
 10
42.821756
 20
161.518799
 30
0.0
 10
42.777833
 20
161.237083
 30
0.0
 11
42.777833
 21
161.237083
 31
0.0
 11
42.996019
 21
160.430500
 31
0.0
 11
43.569333
 21
159.857185
 31
0.0
 11
44.375917
 21
159.639000
 31
0.0
 11
45.182500
 21
159.857185
 31
0.0
 11
45.755815
 21
160.430500
 31
0.0
 11
45.974000
 21
161.237083
 31
0.0
 11
45.755815
 21
162.043667
 31
0.0
 11
45.182500
 21
162.616981
 31
0.0
 11
44.375917
 21
162.835167
 31
0.0
 11
43.569333
 21
162.616981
 31
0.0
 11
42.996019
 21
162.043667
 31
0.0
 11
42.777833
 21
161.237083
 31
0.0
  0
SPLINE
  5
12d
100
AcDbEntity
  8
MAT_BALISE_Drawing
 62
7
100
AcDbSpline
 70
0
 71
3
 72
19
 73
15
 74
13
 40
0.000000
 40
0.000000
 40
0.000000
 40
0.000000
 40
0.835572
 40
1.646362
 40
2.481935
 40
3.317507
 40
4.128297
 40
4.963869
 40
5.799442
 40
6.610231
 40
7.445804
 40
8.281376
 40
9.092166
 40
9.927738
 40
9.927738
 40
9.927738
 40
9.927738
 10
114.300000
 20
119.221250
 30
0.0
 10
114.343923
 20
118.939534
 30
0.0
 10
114.430466
 20
118.384458
 30
0.0
 10
115.066690
 20
117.773365
 30
0.0
 10
115.896617
 20
117.546937
 30
0.0
 10
116.735256
 20
117.773365
 30
0.0
 10
117.345857
 20
118.384458
 30
0.0
 10
117.572453
 20
119.221250
 30
0.0
 10
117.345857
 20
120.058042
 30
0.0
 10
116.735256
 20
120.669135
 30
0.0
 10
115.896617
 20
120.895563
 30
0.0
 10
115.066690
 20
120.669135
 30
0.0
 10
114.430466
 20
120.058042
 30
0.0
 10
114.343923
 20
119.502966
 30
0.0
 10
114.300000
 20
119.221250
 30
0.0
 11
114.300000
 21
119.221250
 31
0.0
 11
114.518185
 21
118.414667
 31
0.0
 11
115.091500
 21
117.841352
 31
0.0
 11
115.898083
 21
117.623167
 31
0.0
 11
116.704667
 21
117.841352
 31
0.0
 11
117.277981
 21
118.414667
 31
0.0
 11
117.496167
 21
119.221250
 31
0.0
 11
117.277981
 21
120.027833
 31
0.0
 11
116.704667
 21
120.601148
 31
0.0
 11
115.898083
 21
120.819333
 31
0.0
 11
115.091500
 21
120.601148
 31
0.0
 11
114.518185
 21
120.027833
 31
0.0
 11
114.300000
 21
119.221250
 31
0.0
  0
SPLINE
  5
12e
100
AcDbEntity
  8
MAT_BALISE_Drawing
 62
7
100
AcDbSpline
 70
0
 71
3
 72
19
 73
15
 74
13
 40
0.000000
 40
0.000000
 40
0.000000
 40
0.000000
 40
0.835572
 40
1.646362
 40
2.481935
 40
3.317507
 40
4.128297
 40
4.963869
 40
5.799442
 40
6.610231
 40
7.445804
 40
8.281376
 40
9.092166
 40
9.927738
 40
9.927738
 40
9.927738
 40
9.927738
 10
114.300000
 20
166.253583
 30
0.0
 10
114.343923
 20
165.971868
 30
0.0
 10
114.430466
 20
165.416792
 30
0.0
 10
115.066690
 20
164.805699
 30
0.0
 10
115.896617
 20
164.579270
 30
0.0
 10
116.735256
 20
164.805699
 30
0.0
 10
117.345857
 20
165.416792
 30
0.0
 10
117.572453
 20
166.253583
 30
0.0
 10
117.345857
 20
167.090375
 30
0.0
 10
116.735256
 20
167.701468
 30
0.0
 10
115.896617
 20
167.927896
 30
0.0
 10
115.066690
 20
167.701468
 30
0.0
 10
114.430466
 20
167.090375
 30
0.0
 10
114.343923
 20
166.535299
 30
0.0
 10
114.300000
 20
166.253583
 30
0.0
 11
114.300000
 21
166.253583
 31
0.0
 11
114.518185
 21
165.447000
 31
0.0
 11
115.091500
 21
164.873685
 31
0.0
 11
115.898083
 21
164.655500
 31
0.0
 11
116.704667
 21
164.873685
 31
0.0
 11
117.277981
 21
165.447000
 31
0.0
 11
117.496167
 21
166.253583
 31
0.0
 11
117.277981
 21
167.060167
 31
0.0
 11
116.704667
 21
167.633481
 31
0.0
 11
115.898083
 21
167.851667
 31
0.0
 11
115.091500
 21
167.633481
 31
0.0
 11
114.518185
 21
167.060167
 31
0.0
 11
114.300000
 21
166.253583
 31
0.0
  0
SPLINE
  5
12f
100
AcDbEntity
  8
MAT_BALISE_Drawing
 62
7
100
AcDbSpline
 70
0
 71
3
 72
19
 73
15
 74
13
 40
0.000000
 40
0.000000
 40
0.000000
 40
0.000000
 40
0.835572
 40
1.646362
 40
2.481935
 40
3.317507
 40
4.128297
 40
4.963869
 40
5.799442
 40
6.610231
 40
7.445804
 40
8.281376
 40
9.092166
 40
9.927738
 40
9.927738
 40
9.927738
 40
9.927738
 10
33.274000
 20
166.253583
 30
0.0
 10
33.317923
 20
165.971868
 30
0.0
 10
33.404466
 20
165.416792
 30
0.0
 10
34.040690
 20
164.805699
 30
0.0
 10
34.870617
 20
164.579270
 30
0.0
 10
35.709256
 20
164.805699
 30
0.0
 10
36.319857
 20
165.416792
 30
0.0
 10
36.546453
 20
166.253583
 30
0.0
 10
36.319857
 20
167.090375
 30
0.0
 10
35.709256
 20
167.701468
 30
0.0
 10
34.870617
 20
167.927896
 30
0.0
 10
34.040690
 20
167.701468
 30
0.0
 10
33.404466
 20
167.090375
 30
0.0
 10
33.317923
 20
166.535299
 30
0.0
 10
33.274000
 20
166.253583
 30
0.0
 11
33.274000
 21
166.253583
 31
0.0
 11
33.492185
 21
165.447000
 31
0.0
 11
34.065500
 21
164.873685
 31
0.0
 11
34.872083
 21
164.655500
 31
0.0
 11
35.678667
 21
164.873685
 31
0.0
 11
36.251981
 21
165.447000
 31
0.0
 11
36.470167
 21
166.253583
 31
0.0
 11
36.251981
 21
167.060167
 31
0.0
 11
35.678667
 21
167.633481
 31
0.0
 11
34.872083
 21
167.851667
 31
0.0
 11
34.065500
 21
167.633481
 31
0.0
 11
33.492185
 21
167.060167
 31
0.0
 11
33.274000
 21
166.253583
 31
0.0
  0
LWPOLYLINE
  5
130
100
AcDbEntity
  8
MAT_BALISE_Drawing
 62
7
100
AcDbPolyline
 90
2
 70
0
 10
28.363333
 20
169.227500
 30
0.0
 10
30.374167
 20
171.238333
 30
0.0
  0
LWPOLYLINE
  5
131
100
AcDbEntity
  8
MAT_BALISE_Drawing
 62
7
100
AcDbPolyline
 90
2
 70
0
 10
28.363333
 20
113.220500
 30
0.0
 10
28.363333
 20
169.227500
 30
0.0
  0
LWPOLYLINE
  5
132
100
AcDbEntity
  8
MAT_BALISE_Drawing
 62
7
100
AcDbPolyline
 90
4
 70
0
 10
227.732167
 20
78.062667
 30
0.0
 10
227.245333
 20
77.554667
 30
0.0
 10
216.238667
 20
77.554667
 30
0.0
 10
215.730667
 20
78.062667
 30
0.0
  0
LWPOLYLINE
  5
133
100
AcDbEntity
  8
MAT_BALISE_Drawing
 62
7
100
AcDbPolyline
 90
5
 70
0
 10
159.744833
 20
80.560333
 30
0.0
 10
159.744833
 20
78.062667
 30
0.0
 10
159.236833
 20
77.554667
 30
0.0
 10
148.230167
 20
77.554667
 30
0.0
 10
147.743333
 20
78.062667
 30
0.0
  0
LWPOLYLINE
  5
134
100
AcDbEntity
  8
MAT_BALISE_Drawing
 62
7
100
AcDbPolyline
 90
5
 70
0
 10
147.743333
 20
174.582667
 30
0.0
 10
147.743333
 20
177.080333
 30
0.0
 10
148.230167
 20
177.588333
 30
0.0
 10
159.236833
 20
177.588333
 30
0.0
 10
159.744833
 20
177.080333
 30
0.0
  0
LWPOLYLINE
  5
135
100
AcDbEntity
  8
MAT_BALISE_Drawing
 62
7
100
AcDbPolyline
 90
3
 70
0
 10
215.730667
 20
174.582667
 30
0.0
 10
215.730667
 20
177.080333
 30
0.0
 10
216.238667
 20
177.588333
 30
0.0
  0
LWPOLYLINE
  5
136
100
AcDbEntity
  8
MAT_BALISE_Drawing
 62
7
100
AcDbPolyline
 90
3
 70
0
 10
227.245333
 20
177.588333
 30
0.0
 10
227.732167
 20
177.080333
 30
0.0
 10
227.732167
 20
174.582667
 30
0.0
  0
LWPOLYLINE
  5
137
100
AcDbEntity
  8
MAT_BALISE_Drawing
 62
7
100
AcDbPolyline
 90
2
 70
0
 10
227.732167
 20
80.560333
 30
0.0
 10
227.732167
 20
78.062667
 30
0.0
  0
LWPOLYLINE
  5
138
100
AcDbEntity
  8
MAT_BALISE_Drawing
 62
7
100
AcDbPolyline
 90
2
 70
0
 10
215.730667
 20
78.062667
 30
0.0
 10
215.730667
 20
80.560333
 30
0.0
  0
LWPOLYLINE
  5
139
100
AcDbEntity
  8
MAT_BALISE_Drawing
 62
7
100
AcDbPolyline
 90
2
 70
0
 10
227.732167
 20
80.560333
 30
0.0
 10
235.733167
 20
80.560333
 30
0.0
  0
LWPOLYLINE
  5
13a
100
AcDbEntity
  8
MAT_BALISE_Drawing
 62
7
100
AcDbPolyline
 90
2
 70
0
 10
159.744833
 20
80.560333
 30
0.0
 10
215.730667
 20
80.560333
 30
0.0
  0
LWPOLYLINE
  5
13b
100
AcDbEntity
  8
MAT_BALISE_Drawing
 62
7
100
AcDbPolyline
 90
2
 70
0
 10
159.744833
 20
174.582667
 30
0.0
 10
159.744833
 20
177.080333
 30
0.0
  0
LWPOLYLINE
  5
13c
100
AcDbEntity
  8
MAT_BALISE_Drawing
 62
7
100
AcDbPolyline
 90
2
 70
0
 10
147.743333
 20
174.582667
 30
0.0
 10
139.742333
 20
174.582667
 30
0.0
  0
LWPOLYLINE
  5
13d
100
AcDbEntity
  8
MAT_BALISE_Drawing
 62
7
100
AcDbPolyline
 90
2
 70
0
 10
215.730667
 20
174.582667
 30
0.0
 10
159.744833
 20
174.582667
 30
0.0
  0
LWPOLYLINE
  5
13e
100
AcDbEntity
  8
MAT_BALISE_Drawing
 62
7
100
AcDbPolyline
 90
3
 70
0
 10
147.743333
 20
78.062667
 30
0.0
 10
147.743333
 20
80.560333
 30
0.0
 10
139.742333
 20
80.560333
 30
0.0
  0
LWPOLYLINE
  5
13f
100
AcDbEntity
  8
MAT_BALISE_Drawing
 62
7
100
AcDbPolyline
 90
2
 70
0
 10
227.245333
 20
177.588333
 30
0.0
 10
216.238667
 20
177.588333
 30
0.0
  0
LWPOLYLINE
  5
140
100
AcDbEntity
  8
MAT_BALISE_Drawing
 62
7
100
AcDbPolyline
 90
2
 70
0
 10
235.733167
 20
174.582667
 30
0.0
 10
227.732167
 20
174.582667
 30
0.0
  0
LWPOLYLINE
  5
141
100
AcDbEntity
  8
MAT_BALISE_Drawing
 62
7
100
AcDbPolyline
 90
2
 70
0
 10
139.742333
 20
80.560333
 30
0.0
 10
137.731500
 20
82.550000
 30
0.0
  0
LWPOLYLINE
  5
142
100
AcDbEntity
  8
MAT_BALISE_Drawing
 62
7
100
AcDbPolyline
 90
2
 70
0
 10
137.731500
 20
172.593000
 30
0.0
 10
139.742333
 20
174.582667
 30
0.0
  0
LWPOLYLINE
  5
143
100
AcDbEntity
  8
MAT_BALISE_Drawing
 62
7
100
AcDbPolyline
 90
2
 70
0
 10
235.733167
 20
174.582667
 30
0.0
 10
237.744000
 20
172.593000
 30
0.0
  0
SPLINE
  5
144
100
AcDbEntity
  8
MAT_BALISE_Drawing
 62
7
100
AcDbSpline
 70
0
 71
3
 72
19
 73
15
 74
13
 40
0.000000
 40
0.000000
 40
0.000000
 40
0.000000
 40
0.835572
 40
1.646362
 40
2.481935
 40
3.317507
 40
4.128297
 40
4.963869
 40
5.799442
 40
6.610231
 40
7.445804
 40
8.281376
 40
9.092166
 40
9.927738
 40
9.927738
 40
9.927738
 40
9.927738
 10
33.274000
 20
119.221250
 30
0.0
 10
33.317923
 20
118.939534
 30
0.0
 10
33.404466
 20
118.384458
 30
0.0
 10
34.040690
 20
117.773365
 30
0.0
 10
34.870617
 20
117.546937
 30
0.0
 10
35.709256
 20
117.773365
 30
0.0
 10
36.319857
 20
118.384458
 30
0.0
 10
36.546453
 20
119.221250
 30
0.0
 10
36.319857
 20
120.058042
 30
0.0
 10
35.709256
 20
120.669135
 30
0.0
 10
34.870617
 20
120.895563
 30
0.0
 10
34.040690
 20
120.669135
 30
0.0
 10
33.404466
 20
120.058042
 30
0.0
 10
33.317923
 20
119.502966
 30
0.0
 10
33.274000
 20
119.221250
 30
0.0
 11
33.274000
 21
119.221250
 31
0.0
 11
33.492185
 21
118.414667
 31
0.0
 11
34.065500
 21
117.841352
 31
0.0
 11
34.872083
 21
117.623167
 31
0.0
 11
35.678667
 21
117.841352
 31
0.0
 11
36.251981
 21
118.414667
 31
0.0
 11
36.470167
 21
119.221250
 31
0.0
 11
36.251981
 21
120.027833
 31
0.0
 11
35.678667
 21
120.601148
 31
0.0
 11
34.872083
 21
120.819333
 31
0.0
 11
34.065500
 21
120.601148
 31
0.0
 11
33.492185
 21
120.027833
 31
0.0
 11
33.274000
 21
119.221250
 31
0.0
  0
SPLINE
  5
145
100
AcDbEntity
  8
MAT_BALISE_Drawing
 62
7
100
AcDbSpline
 70
0
 71
3
 72
19
 73
15
 74
13
 40
0.000000
 40
0.000000
 40
0.000000
 40
0.000000
 40
0.813437
 40
1.602750
 40
2.416187
 40
3.229624
 40
4.018936
 40
4.832374
 40
5.645811
 40
6.435123
 40
7.248560
 40
8.061997
 40
8.851310
 40
9.664747
 40
9.664747
 40
9.664747
 40
9.664747
 10
186.203167
 20
169.597917
 30
0.0
 10
186.245927
 20
169.323664
 30
0.0
 10
186.330178
 20
168.783292
 30
0.0
 10
186.949548
 20
168.188388
 30
0.0
 10
187.757489
 20
167.967956
 30
0.0
 10
188.573912
 20
168.188388
 30
0.0
 10
189.168337
 20
168.783292
 30
0.0
 10
189.388933
 20
169.597917
 30
0.0
 10
189.168337
 20
170.412541
 30
0.0
 10
188.573912
 20
171.007446
 30
0.0
 10
187.757489
 20
171.227878
 30
0.0
 10
186.949548
 20
171.007446
 30
0.0
 10
186.330178
 20
170.412541
 30
0.0
 10
186.245927
 20
169.872169
 30
0.0
 10
186.203167
 20
169.597917
 30
0.0
 11
186.203167
 21
169.597917
 31
0.0
 11
186.415573
 21
168.812701
 31
0.0
 11
186.973701
 21
168.254573
 31
0.0
 11
187.758917
 21
168.042167
 31
0.0
 11
188.544132
 21
168.254573
 31
0.0
 11
189.102261
 21
168.812701
 31
0.0
 11
189.314667
 21
169.597917
 31
0.0
 11
189.102261
 21
170.383132
 31
0.0
 11
188.544132
 21
170.941261
 31
0.0
 11
187.758917
 21
171.153667
 31
0.0
 11
186.973701
 21
170.941261
 31
0.0
 11
186.415573
 21
170.383132
 31
0.0
 11
186.203167
 21
169.597917
 31
0.0
  0
SPLINE
  5
146
100
AcDbEntity
  8
MAT_BALISE_Drawing
 62
7
100
AcDbSpline
 70
0
 71
3
 72
19
 73
15
 74
13
 40
0.000000
 40
0.000000
 40
0.000000
 40
0.000000
 40
0.813439
 40
1.602751
 40
2.416188
 40
3.229625
 40
4.018936
 40
4.832375
 40
5.645814
 40
6.435126
 40
7.248563
 40
8.062000
 40
8.851312
 40
9.664751
 40
9.664751
 40
9.664751
 40
9.664751
 10
186.203167
 20
85.566250
 30
0.0
 10
186.245926
 20
85.291997
 30
0.0
 10
186.330177
 20
84.751624
 30
0.0
 10
186.949548
 20
84.156720
 30
0.0
 10
187.757489
 20
83.936290
 30
0.0
 10
188.573912
 20
84.156720
 30
0.0
 10
189.168338
 20
84.751624
 30
0.0
 10
189.388932
 20
85.566250
 30
0.0
 10
189.168338
 20
86.380876
 30
0.0
 10
188.573912
 20
86.975780
 30
0.0
 10
187.757489
 20
87.196210
 30
0.0
 10
186.949548
 20
86.975780
 30
0.0
 10
186.330177
 20
86.380876
 30
0.0
 10
186.245926
 20
85.840503
 30
0.0
 10
186.203167
 20
85.566250
 30
0.0
 11
186.203167
 21
85.566250
 31
0.0
 11
186.415573
 21
84.781033
 31
0.0
 11
186.973701
 21
84.222905
 31
0.0
 11
187.758917
 21
84.010500
 31
0.0
 11
188.544132
 21
84.222905
 31
0.0
 11
189.102261
 21
84.781033
 31
0.0
 11
189.314667
 21
85.566250
 31
0.0
 11
189.102261
 21
86.351467
 31
0.0
 11
188.544132
 21
86.909595
 31
0.0
 11
187.758917
 21
87.122000
 31
0.0
 11
186.973701
 21
86.909595
 31
0.0
 11
186.415573
 21
86.351467
 31
0.0
 11
186.203167
 21
85.566250
 31
0.0
  0
LWPOLYLINE
  5
147
100
AcDbEntity
  8
MAT_BALISE_Drawing
 62
7
100
AcDbPolyline
 90
2
 70
0
 10
237.744000
 20
82.550000
 30
0.0
 10
235.733167
 20
80.560333
 30
0.0
  0
LWPOLYLINE
  5
148
100
AcDbEntity
  8
MAT_BALISE_Drawing
 62
7
100
AcDbPolyline
 90
2
 70
0
 10
237.744000
 20
82.550000
 30
0.0
 10
237.744000
 20
172.593000
 30
0.0
  0
SPLINE
  5
149
100
AcDbEntity
  8
MAT_BALISE_Drawing
 62
7
100
AcDbSpline
 70
0
 71
3
 72
19
 73
15
 74
13
 40
0.000000
 40
0.000000
 40
0.000000
 40
0.000000
 40
10.463268
 40
20.611565
 40
31.065275
 40
41.518985
 40
51.667281
 40
62.130549
 40
72.593817
 40
82.742114
 40
93.195824
 40
103.649534
 40
113.797831
 40
124.261099
 40
124.261099
 40
124.261099
 40
124.261099
 10
167.767000
 20
127.582083
 30
0.0
 10
168.316233
 20
124.054386
 30
0.0
 10
169.398166
 20
117.105185
 30
0.0
 10
177.355744
 20
109.451150
 30
0.0
 10
187.740601
 20
106.613974
 30
0.0
 10
198.234281
 20
109.451150
 30
0.0
 10
205.871649
 20
117.105185
 30
0.0
 10
208.704784
 20
127.582083
 30
0.0
 10
205.871649
 20
138.058981
 30
0.0
 10
198.234281
 20
145.713016
 30
0.0
 10
187.740601
 20
148.550193
 30
0.0
 10
177.355744
 20
145.713016
 30
0.0
 10
169.398166
 20
138.058981
 30
0.0
 10
168.316233
 20
131.109780
 30
0.0
 10
167.767000
 20
127.582083
 30
0.0
 11
167.767000
 21
127.582083
 31
0.0
 11
170.496483
 21
117.481098
 31
0.0
 11
177.668615
 21
110.301373
 31
0.0
 11
187.758917
 21
107.569000
 31
0.0
 11
197.849218
 21
110.301373
 31
0.0
 11
205.021350
 21
117.481098
 31
0.0
 11
207.750833
 21
127.582083
 31
0.0
 11
205.021350
 21
137.683068
 31
0.0
 11
197.849218
 21
144.862793
 31
0.0
 11
187.758917
 21
147.595167
 31
0.0
 11
177.668615
 21
144.862793
 31
0.0
 11
170.496483
 21
137.683068
 31
0.0
 11
167.767000
 21
127.582083
 31
0.0
  0
LWPOLYLINE
  5
14a
100
AcDbEntity
  8
MAT_BALISE_Drawing
 62
7
100
AcDbPolyline
 90
2
 70
0
 10
137.731500
 20
172.593000
 30
0.0
 10
137.731500
 20
82.550000
 30
0.0
  0
SPLINE
  5
14b
100
AcDbEntity
  8
MAT_BALISE_Drawing
 62
7
100
AcDbSpline
 70
0
 71
3
 72
10
 73
6
 74
4
 40
0.000000
 40
0.000000
 40
0.000000
 40
0.000000
 40
1.310433
 40
2.610015
 40
3.920438
 40
3.920438
 40
3.920438
 40
3.920438
 10
247.994382
 20
145.853806
 30
0.0
 10
247.709522
 20
145.520436
 30
0.0
 10
247.142161
 20
144.856457
 30
0.0
 10
246.630794
 20
143.621920
 30
0.0
 10
246.562470
 20
142.751234
 30
0.0
 10
246.528167
 20
142.314083
 30
0.0
 11
247.994382
 21
145.853806
 31
0.0
 11
247.197005
 21
144.813890
 31
0.0
 11
246.699673
 21
143.613234
 31
0.0
 11
246.528167
 21
142.314083
 31
0.0
  0
SPLINE
  5
14c
100
AcDbEntity
  8
MAT_BALISE_Drawing
 62
7
100
AcDbSpline
 70
0
 71
3
 72
19
 73
15
 74
13
 40
0.000000
 40
0.000000
 40
0.000000
 40
0.000000
 40
1.045850
 40
2.060682
 40
3.106523
 40
4.152364
 40
5.167196
 40
6.213046
 40
7.258896
 40
8.273729
 40
9.319570
 40
10.365410
 40
11.380243
 40
12.426093
 40
12.426093
 40
12.426093
 40
12.426093
 10
254.359833
 20
130.376083
 30
0.0
 10
254.304855
 20
130.728695
 30
0.0
 10
254.196530
 20
131.423459
 30
0.0
 10
253.400195
 20
132.188332
 30
0.0
 10
252.361419
 20
132.471748
 30
0.0
 10
251.311737
 20
132.188332
 30
0.0
 10
250.547475
 20
131.423459
 30
0.0
 10
250.263847
 20
130.376083
 30
0.0
 10
250.547475
 20
129.328707
 30
0.0
 10
251.311737
 20
128.563834
 30
0.0
 10
252.361419
 20
128.280418
 30
0.0
 10
253.400195
 20
128.563834
 30
0.0
 10
254.196530
 20
129.328707
 30
0.0
 10
254.304855
 20
130.023472
 30
0.0
 10
254.359833
 20
130.376083
 30
0.0
 11
254.359833
 21
130.376083
 31
0.0
 11
254.086736
 21
131.385648
 31
0.0
 11
253.369139
 21
132.103241
 31
0.0
 11
252.359583
 21
132.376333
 31
0.0
 11
251.350027
 21
132.103241
 31
0.0
 11
250.632430
 21
131.385648
 31
0.0
 11
250.359333
 21
130.376083
 31
0.0
 11
250.632430
 21
129.366519
 31
0.0
 11
251.350027
 21
128.648926
 31
0.0
 11
252.359583
 21
128.375833
 31
0.0
 11
253.369139
 21
128.648926
 31
0.0
 11
254.086736
 21
129.366519
 31
0.0
 11
254.359833
 21
130.376083
 31
0.0
  0
SPLINE
  5
14d
100
AcDbEntity
  8
MAT_BALISE_Drawing
 62
7
100
AcDbSpline
 70
0
 71
3
 72
19
 73
15
 74
13
 40
0.000000
 40
0.000000
 40
0.000000
 40
0.000000
 40
1.045850
 40
2.060682
 40
3.106523
 40
4.152364
 40
5.167196
 40
6.213046
 40
7.258896
 40
8.273729
 40
9.319570
 40
10.365410
 40
11.380243
 40
12.426093
 40
12.426093
 40
12.426093
 40
12.426093
 10
254.359833
 20
120.385417
 30
0.0
 10
254.304855
 20
120.738028
 30
0.0
 10
254.196530
 20
121.432793
 30
0.0
 10
253.400195
 20
122.197666
 30
0.0
 10
252.361419
 20
122.481082
 30
0.0
 10
251.311737
 20
122.197666
 30
0.0
 10
250.547475
 20
121.432793
 30
0.0
 10
250.263847
 20
120.385417
 30
0.0
 10
250.547475
 20
119.338041
 30
0.0
 10
251.311737
 20
118.573168
 30
0.0
 10
252.361419
 20
118.289752
 30
0.0
 10
253.400195
 20
118.573168
 30
0.0
 10
254.196530
 20
119.338041
 30
0.0
 10
254.304855
 20
120.032805
 30
0.0
 10
254.359833
 20
120.385417
 30
0.0
 11
254.359833
 21
120.385417
 31
0.0
 11
254.086736
 21
121.394981
 31
0.0
 11
253.369139
 21
122.112574
 31
0.0
 11
252.359583
 21
122.385667
 31
0.0
 11
251.350027
 21
122.112574
 31
0.0
 11
250.632430
 21
121.394981
 31
0.0
 11
250.359333
 21
120.385417
 31
0.0
 11
250.632430
 21
119.375852
 31
0.0
 11
251.350027
 21
118.658259
 31
0.0
 11
252.359583
 21
118.385167
 31
0.0
 11
253.369139
 21
118.658259
 31
0.0
 11
254.086736
 21
119.375852
 31
0.0
 11
254.359833
 21
120.385417
 31
0.0
  0
SPLINE
  5
14e
100
AcDbEntity
  8
MAT_BALISE_Drawing
 62
7
100
AcDbSpline
 70
0
 71
3
 72
19
 73
15
 74
13
 40
0.000000
 40
0.000000
 40
0.000000
 40
0.000000
 40
1.045850
 40
2.060682
 40
3.106523
 40
4.152364
 40
5.167196
 40
6.213046
 40
7.258896
 40
8.273729
 40
9.319570
 40
10.365410
 40
11.380243
 40
12.426093
 40
12.426093
 40
12.426093
 40
12.426093
 10
304.143833
 20
130.376083
 30
0.0
 10
304.088855
 20
130.728695
 30
0.0
 10
303.980530
 20
131.423459
 30
0.0
 10
303.184195
 20
132.188332
 30
0.0
 10
302.145419
 20
132.471748
 30
0.0
 10
301.095737
 20
132.188332
 30
0.0
 10
300.331475
 20
131.423459
 30
0.0
 10
300.047847
 20
130.376083
 30
0.0
 10
300.331475
 20
129.328707
 30
0.0
 10
301.095737
 20
128.563834
 30
0.0
 10
302.145419
 20
128.280418
 30
0.0
 10
303.184195
 20
128.563834
 30
0.0
 10
303.980530
 20
129.328707
 30
0.0
 10
304.088855
 20
130.023472
 30
0.0
 10
304.143833
 20
130.376083
 30
0.0
 11
304.143833
 21
130.376083
 31
0.0
 11
303.870736
 21
131.385648
 31
0.0
 11
303.153139
 21
132.103241
 31
0.0
 11
302.143583
 21
132.376333
 31
0.0
 11
301.134027
 21
132.103241
 31
0.0
 11
300.416430
 21
131.385648
 31
0.0
 11
300.143333
 21
130.376083
 31
0.0
 11
300.416430
 21
129.366519
 31
0.0
 11
301.134027
 21
128.648926
 31
0.0
 11
302.143583
 21
128.375833
 31
0.0
 11
303.153139
 21
128.648926
 31
0.0
 11
303.870736
 21
129.366519
 31
0.0
 11
304.143833
 21
130.376083
 31
0.0
  0
LWPOLYLINE
  5
14f
100
AcDbEntity
  8
MAT_BALISE_Drawing
 62
7
100
AcDbPolyline
 90
2
 70
0
 10
247.988667
 20
145.838333
 30
0.0
 10
273.071167
 20
170.920833
 30
0.0
  0
LWPOLYLINE
  5
150
100
AcDbEntity
  8
MAT_BALISE_Drawing
 62
7
100
AcDbPolyline
 90
4
 70
1
 10
255.947333
 20
114.490500
 30
0.0
 10
298.534667
 20
114.490500
 30
0.0
 10
298.534667
 20
136.249833
 30
0.0
 10
255.947333
 20
136.249833
 30
0.0
  0
SPLINE
  5
151
100
AcDbEntity
  8
MAT_BALISE_Drawing
 62
7
100
AcDbSpline
 70
0
 71
3
 72
19
 73
15
 74
13
 40
0.000000
 40
0.000000
 40
0.000000
 40
0.000000
 40
1.045850
 40
2.060682
 40
3.106523
 40
4.152364
 40
5.167196
 40
6.213046
 40
7.258896
 40
8.273729
 40
9.319570
 40
10.365410
 40
11.380243
 40
12.426093
 40
12.426093
 40
12.426093
 40
12.426093
 10
304.143833
 20
120.385417
 30
0.0
 10
304.088855
 20
120.738028
 30
0.0
 10
303.980530
 20
121.432793
 30
0.0
 10
303.184195
 20
122.197666
 30
0.0
 10
302.145419
 20
122.481082
 30
0.0
 10
301.095737
 20
122.197666
 30
0.0
 10
300.331475
 20
121.432793
 30
0.0
 10
300.047847
 20
120.385417
 30
0.0
 10
300.331475
 20
119.338041
 30
0.0
 10
301.095737
 20
118.573168
 30
0.0
 10
302.145419
 20
118.289752
 30
0.0
 10
303.184195
 20
118.573168
 30
0.0
 10
303.980530
 20
119.338041
 30
0.0
 10
304.088855
 20
120.032805
 30
0.0
 10
304.143833
 20
120.385417
 30
0.0
 11
304.143833
 21
120.385417
 31
0.0
 11
303.870736
 21
121.394981
 31
0.0
 11
303.153139
 21
122.112574
 31
0.0
 11
302.143583
 21
122.385667
 31
0.0
 11
301.134027
 21
122.112574
 31
0.0
 11
300.416430
 21
121.394981
 31
0.0
 11
300.143333
 21
120.385417
 31
0.0
 11
300.416430
 21
119.375852
 31
0.0
 11
301.134027
 21
118.658259
 31
0.0
 11
302.143583
 21
118.385167
 31
0.0
 11
303.153139
 21
118.658259
 31
0.0
 11
303.870736
 21
119.375852
 31
0.0
 11
304.143833
 21
120.385417
 31
0.0
  0
LWPOLYLINE
  5
152
100
AcDbEntity
  8
MAT_BALISE_Drawing
 62
7
100
AcDbPolyline
 90
2
 70
0
 10
246.528167
 20
142.303500
 30
0.0
 10
246.528167
 20
108.436833
 30
0.0
  0
SPLINE
  5
153
100
AcDbEntity
  8
MAT_BALISE_Drawing
 62
7
100
AcDbSpline
 70
0
 71
3
 72
10
 73
6
 74
4
 40
0.000000
 40
0.000000
 40
0.000000
 40
0.000000
 40
1.310429
 40
2.610014
 40
3.920443
 40
3.920443
 40
3.920443
 40
3.920443
 10
246.528144
 20
108.447417
 30
0.0
 10
246.562447
 20
108.010264
 30
0.0
 10
246.630771
 20
107.139575
 30
0.0
 10
247.142134
 20
105.905035
 30
0.0
 10
247.709492
 20
105.241053
 30
0.0
 10
247.994350
 20
104.907683
 30
0.0
 11
246.528144
 21
108.447417
 31
0.0
 11
246.699650
 21
107.148259
 31
0.0
 11
247.196980
 21
105.947599
 31
0.0
 11
247.994350
 21
104.907683
 31
0.0
  0
LWPOLYLINE
  5
154
100
AcDbEntity
  8
MAT_BALISE_Drawing
 62
7
100
AcDbPolyline
 90
2
 70
0
 10
273.071167
 20
79.819500
 30
0.0
 10
247.988667
 20
104.902000
 30
0.0
  0
SPLINE
  5
155
100
AcDbEntity
  8
MAT_BALISE_Drawing
 62
7
100
AcDbSpline
 70
0
 71
3
 72
10
 73
6
 74
4
 40
0.000000
 40
0.000000
 40
0.000000
 40
0.000000
 40
1.310423
 40
2.610002
 40
3.920426
 40
3.920426
 40
3.920426
 40
3.920426
 10
273.076866
 20
79.825199
 30
0.0
 10
273.410234
 20
79.540343
 30
0.0
 10
274.074213
 20
78.972988
 30
0.0
 10
275.308748
 20
78.461627
 30
0.0
 10
276.179432
 20
78.393304
 30
0.0
 10
276.616583
 20
78.359000
 30
0.0
 11
273.076866
 21
79.825199
 31
0.0
 11
274.116777
 21
79.027833
 31
0.0
 11
275.317432
 21
78.530505
 31
0.0
 11
276.616583
 21
78.359000
 31
0.0
  0
LWPOLYLINE
  5
156
100
AcDbEntity
  8
MAT_BALISE_Drawing
 62
7
100
AcDbPolyline
 90
14
 70
0
 10
276.606000
 20
172.381333
 30
0.0
 10
282.490333
 20
172.381333
 30
0.0
 10
282.490333
 20
162.073167
 30
0.0
 10
295.550167
 20
162.073167
 30
0.0
 10
295.550167
 20
172.381333
 30
0.0
 10
306.832000
 20
172.381333
 30
0.0
 10
307.826833
 20
171.386500
 30
0.0
 10
307.826833
 20
79.353833
 30
0.0
 10
306.832000
 20
78.359000
 30
0.0
 10
295.550167
 20
78.359000
 30
0.0
 10
295.550167
 20
88.667167
 30
0.0
 10
282.490333
 20
88.667167
 30
0.0
 10
282.490333
 20
78.359000
 30
0.0
 10
276.606000
 20
78.359000
 30
0.0
  0
LWPOLYLINE
  5
157
100
AcDbEntity
  8
MAT_BALISE_Drawing
 62
7
100
AcDbPolyline
 90
3
 70
0
 10
286.660167
 20
258.614333
 30
0.0
 10
301.688500
 20
258.614333
 30
0.0
 10
305.689000
 20
254.613833
 30
0.0
  0
LWPOLYLINE
  5
158
100
AcDbEntity
  8
MAT_BALISE_Drawing
 62
7
100
AcDbPolyline
 90
3
 70
0
 10
305.689000
 20
247.099667
 30
0.0
 10
305.689000
 20
243.586000
 30
0.0
 10
301.688500
 20
239.585500
 30
0.0
  0
LWPOLYLINE
  5
159
100
AcDbEntity
  8
MAT_BALISE_Drawing
 62
7
100
AcDbPolyline
 90
3
 70
0
 10
305.689000
 20
254.613833
 30
0.0
 10
305.689000
 20
251.100167
 30
0.0
 10
305.181000
 20
250.592167
 30
0.0
  0
LWPOLYLINE
  5
15a
100
AcDbEntity
  8
MAT_BALISE_Drawing
 62
7
100
AcDbPolyline
 90
3
 70
0
 10
295.677167
 20
247.607667
 30
0.0
 10
305.181000
 20
247.607667
 30
0.0
 10
305.689000
 20
247.099667
 30
0.0
  0
SPLINE
  5
15b
100
AcDbEntity
  8
MAT_BALISE_Drawing
 62
7
100
AcDbSpline
 70
0
 71
3
 72
10
 73
6
 74
4
 40
0.000000
 40
0.000000
 40
0.000000
 40
0.000000
 40
1.310429
 40
2.610014
 40
3.920443
 40
3.920443
 40
3.920443
 40
3.920443
 10
276.616583
 20
172.402523
 30
0.0
 10
276.179430
 20
172.368219
 30
0.0
 10
275.308742
 20
172.299895
 30
0.0
 10
274.074202
 20
171.788532
 30
0.0
 10
273.410220
 20
171.221175
 30
0.0
 10
273.076850
 20
170.936317
 30
0.0
 11
276.616583
 21
172.402523
 31
0.0
 11
275.317426
 21
172.231017
 31
0.0
 11
274.116766
 21
171.733687
 31
0.0
 11
273.076850
 21
170.936317
 31
0.0
  0
SPLINE
  5
15c
100
AcDbEntity
  8
MAT_BALISE_Drawing
 62
7
100
AcDbSpline
 70
0
 71
3
 72
19
 73
15
 74
13
 40
0.000000
 40
0.000000
 40
0.000000
 40
0.000000
 40
0.813438
 40
1.602750
 40
2.416188
 40
3.229626
 40
4.018938
 40
4.832376
 40
5.645814
 40
6.435126
 40
7.248564
 40
8.062002
 40
8.851314
 40
9.664752
 40
9.664752
 40
9.664752
 40
9.664752
 10
289.136667
 20
254.074083
 30
0.0
 10
289.179426
 20
253.799830
 30
0.0
 10
289.263677
 20
253.259458
 30
0.0
 10
289.883047
 20
252.664553
 30
0.0
 10
290.690989
 20
252.444123
 30
0.0
 10
291.507413
 20
252.664553
 30
0.0
 10
292.101839
 20
253.259458
 30
0.0
 10
292.322432
 20
254.074083
 30
0.0
 10
292.101839
 20
254.888708
 30
0.0
 10
291.507413
 20
255.483614
 30
0.0
 10
290.690989
 20
255.704044
 30
0.0
 10
289.883047
 20
255.483614
 30
0.0
 10
289.263677
 20
254.888708
 30
0.0
 10
289.179426
 20
254.348336
 30
0.0
 10
289.136667
 20
254.074083
 30
0.0
 11
289.136667
 21
254.074083
 31
0.0
 11
289.349072
 21
253.288867
 31
0.0
 11
289.907200
 21
252.730739
 31
0.0
 11
290.692417
 21
252.518333
 31
0.0
 11
291.477633
 21
252.730739
 31
0.0
 11
292.035761
 21
253.288867
 31
0.0
 11
292.248167
 21
254.074083
 31
0.0
 11
292.035761
 21
254.859300
 31
0.0
 11
291.477633
 21
255.417428
 31
0.0
 11
290.692417
 21
255.629833
 31
0.0
 11
289.907200
 21
255.417428
 31
0.0
 11
289.349072
 21
254.859300
 31
0.0
 11
289.136667
 21
254.074083
 31
0.0
  0
LWPOLYLINE
  5
15d
100
AcDbEntity
  8
MAT_BALISE_Drawing
 62
7
100
AcDbPolyline
 90
4
 70
0
 10
286.660167
 20
239.585500
 30
0.0
 10
285.665333
 20
240.580333
 30
0.0
 10
285.665333
 20
257.619500
 30
0.0
 10
286.660167
 20
258.614333
 30
0.0
  0
LWPOLYLINE
  5
15e
100
AcDbEntity
  8
MAT_BALISE_Drawing
 62
7
100
AcDbPolyline
 90
2
 70
0
 10
286.660167
 20
239.585500
 30
0.0
 10
301.688500
 20
239.585500
 30
0.0
  0
SPLINE
  5
15f
100
AcDbEntity
  8
MAT_BALISE_Drawing
 62
7
100
AcDbSpline
 70
0
 71
3
 72
19
 73
15
 74
13
 40
0.000000
 40
0.000000
 40
0.000000
 40
0.000000
 40
0.813438
 40
1.602750
 40
2.416188
 40
3.229626
 40
4.018938
 40
4.832376
 40
5.645814
 40
6.435126
 40
7.248564
 40
8.062002
 40
8.851314
 40
9.664752
 40
9.664752
 40
9.664752
 40
9.664752
 10
289.136667
 20
244.146917
 30
0.0
 10
289.179426
 20
243.872664
 30
0.0
 10
289.263677
 20
243.332292
 30
0.0
 10
289.883047
 20
242.737386
 30
0.0
 10
290.690989
 20
242.516956
 30
0.0
 10
291.507413
 20
242.737386
 30
0.0
 10
292.101839
 20
243.332292
 30
0.0
 10
292.322432
 20
244.146917
 30
0.0
 10
292.101839
 20
244.961542
 30
0.0
 10
291.507413
 20
245.556447
 30
0.0
 10
290.690989
 20
245.776877
 30
0.0
 10
289.883047
 20
245.556447
 30
0.0
 10
289.263677
 20
244.961542
 30
0.0
 10
289.179426
 20
244.421170
 30
0.0
 10
289.136667
 20
244.146917
 30
0.0
 11
289.136667
 21
244.146917
 31
0.0
 11
289.349072
 21
243.361700
 31
0.0
 11
289.907200
 21
242.803572
 31
0.0
 11
290.692417
 21
242.591167
 31
0.0
 11
291.477633
 21
242.803572
 31
0.0
 11
292.035761
 21
243.361700
 31
0.0
 11
292.248167
 21
244.146917
 31
0.0
 11
292.035761
 21
244.932133
 31
0.0
 11
291.477633
 21
245.490261
 31
0.0
 11
290.692417
 21
245.702667
 31
0.0
 11
289.907200
 21
245.490261
 31
0.0
 11
289.349072
 21
244.932133
 31
0.0
 11
289.136667
 21
244.146917
 31
0.0
  0
SPLINE
  5
160
100
AcDbEntity
  8
MAT_BALISE_Drawing
 62
7
100
AcDbSpline
 70
0
 71
3
 72
19
 73
15
 74
13
 40
0.000000
 40
0.000000
 40
0.000000
 40
0.000000
 40
1.831618
 40
3.608911
 40
5.440532
 40
7.272153
 40
9.049447
 40
10.881065
 40
12.712682
 40
14.489976
 40
16.321597
 40
18.153218
 40
19.930511
 40
21.762129
 40
21.762129
 40
21.762129
 40
21.762129
 10
182.922333
 20
231.065917
 30
0.0
 10
183.018615
 20
230.448381
 30
0.0
 10
183.208322
 20
229.231626
 30
0.0
 10
184.602958
 20
227.892077
 30
0.0
 10
186.422202
 20
227.395734
 30
0.0
 10
188.260546
 20
227.892077
 30
0.0
 10
189.599014
 20
229.231626
 30
0.0
 10
190.095723
 20
231.065917
 30
0.0
 10
189.599014
 20
232.900207
 30
0.0
 10
188.260546
 20
234.239757
 30
0.0
 10
186.422202
 20
234.736100
 30
0.0
 10
184.602958
 20
234.239757
 30
0.0
 10
183.208322
 20
232.900207
 30
0.0
 10
183.018615
 20
231.683452
 30
0.0
 10
182.922333
 20
231.065917
 30
0.0
 11
182.922333
 21
231.065917
 31
0.0
 11
183.400606
 21
229.297845
 31
0.0
 11
184.657342
 21
228.041107
 31
0.0
 11
186.425417
 21
227.562833
 31
0.0
 11
188.193492
 21
228.041107
 31
0.0
 11
189.450227
 21
229.297845
 31
0.0
 11
189.928500
 21
231.065917
 31
0.0
 11
189.450227
 21
232.833989
 31
0.0
 11
188.193492
 21
234.090726
 31
0.0
 11
186.425417
 21
234.569000
 31
0.0
 11
184.657342
 21
234.090726
 31
0.0
 11
183.400606
 21
232.833989
 31
0.0
 11
182.922333
 21
231.065917
 31
0.0
  0
SPLINE
  5
161
100
AcDbEntity
  8
MAT_BALISE_Drawing
 62
7
100
AcDbSpline
 70
0
 71
3
 72
13
 73
9
 74
7
 40
0.000000
 40
0.000000
 40
0.000000
 40
0.000000
 40
0.170704
 40
0.339040
 40
0.509744
 40
0.680448
 40
0.848785
 40
1.019489
 40
1.019489
 40
1.019489
 40
1.019489
 10
187.905612
 20
250.328104
 30
0.0
 10
187.873469
 20
250.280459
 30
0.0
 10
187.809628
 20
250.185830
 30
0.0
 10
187.781412
 20
250.013309
 30
0.0
 10
187.808926
 20
249.842645
 30
0.0
 10
187.893696
 20
249.691989
 30
0.0
 10
188.023222
 20
249.574589
 30
0.0
 10
188.132106
 20
249.540318
 30
0.0
 10
188.186929
 20
249.523063
 30
0.0
 11
187.905612
 21
250.328104
 31
0.0
 11
187.820609
 21
250.180070
 31
0.0
 11
187.790681
 21
250.014415
 31
0.0
 11
187.818513
 21
249.845995
 31
0.0
 11
187.901636
 21
249.696896
 31
0.0
 11
188.028225
 21
249.585936
 31
0.0
 11
188.186929
 21
249.523063
 31
0.0
  0
SPLINE
  5
162
100
AcDbEntity
  8
MAT_BALISE_Drawing
 62
7
100
AcDbSpline
 70
0
 71
3
 72
13
 73
9
 74
7
 40
0.000000
 40
0.000000
 40
0.000000
 40
0.000000
 40
1.481291
 40
2.922657
 40
4.403948
 40
5.885239
 40
7.326605
 40
8.807896
 40
8.807896
 40
8.807896
 40
8.807896
 10
187.466490
 20
243.587747
 30
0.0
 10
187.967535
 20
243.644096
 30
0.0
 10
188.956119
 20
243.755275
 30
0.0
 10
190.116449
 20
244.790103
 30
0.0
 10
190.668883
 20
246.209076
 30
0.0
 10
190.467806
 20
247.718458
 30
0.0
 10
189.585213
 20
248.998404
 30
0.0
 10
188.650989
 20
249.340291
 30
0.0
 10
188.177497
 20
249.513569
 30
0.0
 11
187.466490
 21
243.587747
 31
0.0
 11
188.913486
 21
243.904647
 31
0.0
 11
190.007809
 21
244.842726
 31
0.0
 11
190.542159
 21
246.224280
 31
0.0
 11
190.349802
 21
247.693029
 31
0.0
 11
189.508455
 21
248.863358
 31
0.0
 11
188.177497
 21
249.513569
 31
0.0
  0
SPLINE
  5
163
100
AcDbEntity
  8
MAT_BALISE_Drawing
 62
7
100
AcDbSpline
 70
0
 71
3
 72
13
 73
9
 74
7
 40
0.000000
 40
0.000000
 40
0.000000
 40
0.000000
 40
0.170704
 40
0.339040
 40
0.509744
 40
0.680448
 40
0.848785
 40
1.019489
 40
1.019489
 40
1.019489
 40
1.019489
 10
184.924054
 20
211.782562
 30
0.0
 10
184.956198
 20
211.830207
 30
0.0
 10
185.020038
 20
211.924836
 30
0.0
 10
185.048254
 20
212.097358
 30
0.0
 10
185.020741
 20
212.268022
 30
0.0
 10
184.935971
 20
212.418678
 30
0.0
 10
184.806444
 20
212.536077
 30
0.0
 10
184.697560
 20
212.570349
 30
0.0
 10
184.642738
 20
212.587604
 30
0.0
 11
184.924054
 21
211.782562
 31
0.0
 11
185.009058
 21
211.930597
 31
0.0
 11
185.038986
 21
212.096252
 31
0.0
 11
185.011154
 21
212.264672
 31
0.0
 11
184.928031
 21
212.413770
 31
0.0
 11
184.801442
 21
212.524731
 31
0.0
 11
184.642738
 21
212.587604
 31
0.0
  0
SPLINE
  5
164
100
AcDbEntity
  8
MAT_BALISE_Drawing
 62
7
100
AcDbSpline
 70
0
 71
3
 72
13
 73
9
 74
7
 40
0.000000
 40
0.000000
 40
0.000000
 40
0.000000
 40
1.481291
 40
2.922657
 40
4.403948
 40
5.885239
 40
7.326605
 40
8.807896
 40
8.807896
 40
8.807896
 40
8.807896
 10
185.363177
 20
218.522920
 30
0.0
 10
184.862132
 20
218.466571
 30
0.0
 10
183.873548
 20
218.355391
 30
0.0
 10
182.713218
 20
217.320564
 30
0.0
 10
182.160784
 20
215.901591
 30
0.0
 10
182.361861
 20
214.392209
 30
0.0
 10
183.244454
 20
213.112262
 30
0.0
 10
184.178677
 20
212.770376
 30
0.0
 10
184.652170
 20
212.597097
 30
0.0
 11
185.363177
 21
218.522920
 31
0.0
 11
183.916180
 21
218.206020
 31
0.0
 11
182.821857
 21
217.267941
 31
0.0
 11
182.287507
 21
215.886386
 31
0.0
 11
182.479865
 21
214.417638
 31
0.0
 11
183.321212
 21
213.247309
 31
0.0
 11
184.652170
 21
212.597097
 31
0.0
  0
SPLINE
  5
165
100
AcDbEntity
  8
MAT_BALISE_Drawing
 62
7
100
AcDbSpline
 70
0
 71
3
 72
10
 73
6
 74
4
 40
0.000000
 40
0.000000
 40
0.000000
 40
0.000000
 40
2.817625
 40
5.567608
 40
8.385233
 40
8.385233
 40
8.385233
 40
8.385233
 10
180.723975
 20
245.938496
 30
0.0
 10
179.889527
 20
246.396293
 30
0.0
 10
178.240663
 20
247.300898
 30
0.0
 10
175.258224
 20
247.135614
 30
0.0
 10
173.719415
 20
246.054352
 30
0.0
 10
172.940663
 20
245.507153
 30
0.0
 11
180.723975
 21
245.938496
 31
0.0
 11
178.135753
 21
247.052102
 31
0.0
 11
175.389983
 21
246.899934
 31
0.0
 11
172.940663
 21
245.507153
 31
0.0
  0
SPLINE
  5
166
100
AcDbEntity
  8
MAT_BALISE_Drawing
 62
7
100
AcDbSpline
 70
0
 71
3
 72
13
 73
9
 74
7
 40
0.000000
 40
0.000000
 40
0.000000
 40
0.000000
 40
7.474455
 40
14.824587
 40
22.299043
 40
29.773497
 40
37.123629
 40
44.598084
 40
44.598084
 40
44.598084
 40
44.598084
 10
172.949563
 20
245.516690
 30
0.0
 10
171.306320
 20
243.603509
 30
0.0
 10
168.047166
 20
239.808971
 30
0.0
 10
166.255799
 20
232.327812
 30
0.0
 10
167.172099
 20
224.792328
 30
0.0
 10
170.871135
 20
218.163584
 30
0.0
 10
176.726050
 20
213.173924
 30
0.0
 10
181.595059
 20
212.027903
 30
0.0
 10
184.049980
 20
211.450087
 30
0.0
 11
172.949563
 21
245.516690
 31
0.0
 11
168.545602
 21
239.477435
 31
0.0
 11
166.708290
 21
232.360643
 31
0.0
 11
167.638474
 21
224.944294
 31
0.0
 11
171.256105
 21
218.403634
 31
0.0
 11
176.933482
 21
213.735464
 31
0.0
 11
184.049980
 21
211.450087
 31
0.0
  0
SPLINE
  5
167
100
AcDbEntity
  8
MAT_BALISE_Drawing
 62
7
100
AcDbSpline
 70
0
 71
3
 72
10
 73
6
 74
4
 40
0.000000
 40
0.000000
 40
0.000000
 40
0.000000
 40
2.817625
 40
5.567608
 40
8.385233
 40
8.385233
 40
8.385233
 40
8.385233
 10
192.105692
 20
216.172171
 30
0.0
 10
192.940140
 20
215.714373
 30
0.0
 10
194.589004
 20
214.809769
 30
0.0
 10
197.571443
 20
214.975052
 30
0.0
 10
199.110252
 20
216.056315
 30
0.0
 10
199.889004
 20
216.603514
 30
0.0
 11
192.105692
 21
216.172171
 31
0.0
 11
194.693914
 21
215.058565
 31
0.0
 11
197.439684
 21
215.210733
 31
0.0
 11
199.889004
 21
216.603514
 31
0.0
  0
SPLINE
  5
168
100
AcDbEntity
  8
MAT_BALISE_Drawing
 62
7
100
AcDbSpline
 70
0
 71
3
 72
13
 73
9
 74
7
 40
0.000000
 40
0.000000
 40
0.000000
 40
0.000000
 40
7.474455
 40
14.824587
 40
22.299043
 40
29.773497
 40
37.123629
 40
44.598084
 40
44.598084
 40
44.598084
 40
44.598084
 10
199.901270
 20
216.615143
 30
0.0
 10
201.544513
 20
218.528324
 30
0.0
 10
204.803668
 20
222.322863
 30
0.0
 10
206.595034
 20
229.804022
 30
0.0
 10
205.678734
 20
237.339505
 30
0.0
 10
201.979698
 20
243.968250
 30
0.0
 10
196.124783
 20
248.957909
 30
0.0
 10
191.255775
 20
250.103931
 30
0.0
 10
188.800854
 20
250.681747
 30
0.0
 11
199.901270
 21
216.615143
 31
0.0
 11
204.305231
 21
222.654399
 31
0.0
 11
206.142544
 21
229.771190
 31
0.0
 11
205.212359
 21
237.187540
 31
0.0
 11
201.594729
 21
243.728199
 31
0.0
 11
195.917351
 21
248.396370
 31
0.0
 11
188.800854
 21
250.681747
 31
0.0
  0
SPLINE
  5
169
100
AcDbEntity
  8
MAT_BALISE_Drawing
 62
7
100
AcDbSpline
 70
0
 71
3
 72
10
 73
6
 74
4
 40
0.000000
 40
0.000000
 40
0.000000
 40
0.000000
 40
0.334274
 40
0.664181
 40
0.998456
 40
0.998456
 40
0.998456
 40
0.998456
 10
188.789860
 20
250.690718
 30
0.0
 10
188.677743
 20
250.693083
 30
0.0
 10
188.454976
 20
250.697783
 30
0.0
 10
188.134553
 20
250.570391
 30
0.0
 10
187.975824
 20
250.414017
 30
0.0
 10
187.895938
 20
250.335316
 30
0.0
 11
188.789860
 21
250.690718
 31
0.0
 11
188.455947
 21
250.675158
 31
0.0
 11
188.149381
 21
250.553275
 31
0.0
 11
187.895938
 21
250.335316
 31
0.0
  0
LWPOLYLINE
  5
16a
100
AcDbEntity
  8
MAT_BALISE_Drawing
 62
7
100
AcDbPolyline
 90
3
 70
0
 10
295.677167
 20
247.607667
 30
0.0
 10
295.677167
 20
250.592167
 30
0.0
 10
305.181000
 20
250.592167
 30
0.0
  0
LWPOLYLINE
  5
16b
100
AcDbEntity
  8
MAT_BALISE_Drawing
 62
7
100
AcDbPolyline
 90
8
 70
0
 10
187.452000
 20
243.564833
 30
0.0
 10
186.414833
 20
243.649500
 30
0.0
 10
185.398833
 20
243.818833
 30
0.0
 10
184.404000
 20
244.072833
 30
0.0
 10
183.409167
 20
244.411500
 30
0.0
 10
182.477833
 20
244.834833
 30
0.0
 10
181.567667
 20
245.342833
 30
0.0
 10
180.699833
 20
245.935500
 30
0.0
  0
SPLINE
  5
16c
100
AcDbEntity
  8
MAT_BALISE_Drawing
 62
7
100
AcDbSpline
 70
0
 71
3
 72
10
 73
6
 74
4
 40
0.000000
 40
0.000000
 40
0.000000
 40
0.000000
 40
0.334274
 40
0.664181
 40
0.998456
 40
0.998456
 40
0.998456
 40
0.998456
 10
184.039807
 20
211.419949
 30
0.0
 10
184.151923
 20
211.417584
 30
0.0
 10
184.374691
 20
211.412884
 30
0.0
 10
184.695114
 20
211.540276
 30
0.0
 10
184.853842
 20
211.696650
 30
0.0
 10
184.933729
 20
211.775351
 30
0.0
 11
184.039807
 21
211.419949
 31
0.0
 11
184.373719
 21
211.435508
 31
0.0
 11
184.680286
 21
211.557392
 31
0.0
 11
184.933729
 21
211.775351
 31
0.0
  0
SPLINE
  5
16d
100
AcDbEntity
  8
MAT_BALISE_Drawing
 62
7
100
AcDbSpline
 70
0
 71
3
 72
19
 73
15
 74
13
 40
0.000000
 40
0.000000
 40
0.000000
 40
0.000000
 40
0.813439
 40
1.602751
 40
2.416188
 40
3.229625
 40
4.018936
 40
4.832375
 40
5.645814
 40
6.435126
 40
7.248563
 40
8.062000
 40
8.851312
 40
9.664751
 40
9.664751
 40
9.664751
 40
9.664751
 10
184.340500
 20
224.059750
 30
0.0
 10
184.383260
 20
223.785497
 30
0.0
 10
184.467511
 20
223.245124
 30
0.0
 10
185.086881
 20
222.650220
 30
0.0
 10
185.894822
 20
222.429790
 30
0.0
 10
186.711245
 20
222.650220
 30
0.0
 10
187.305672
 20
223.245124
 30
0.0
 10
187.526266
 20
224.059750
 30
0.0
 10
187.305672
 20
224.874376
 30
0.0
 10
186.711245
 20
225.469280
 30
0.0
 10
185.894822
 20
225.689710
 30
0.0
 10
185.086881
 20
225.469280
 30
0.0
 10
184.467511
 20
224.874376
 30
0.0
 10
184.383260
 20
224.334003
 30
0.0
 10
184.340500
 20
224.059750
 30
0.0
 11
184.340500
 21
224.059750
 31
0.0
 11
184.552906
 21
223.274533
 31
0.0
 11
185.111034
 21
222.716405
 31
0.0
 11
185.896250
 21
222.504000
 31
0.0
 11
186.681466
 21
222.716405
 31
0.0
 11
187.239594
 21
223.274533
 31
0.0
 11
187.452000
 21
224.059750
 31
0.0
 11
187.239594
 21
224.844967
 31
0.0
 11
186.681466
 21
225.403095
 31
0.0
 11
185.896250
 21
225.615500
 31
0.0
 11
185.111034
 21
225.403095
 31
0.0
 11
184.552906
 21
224.844967
 31
0.0
 11
184.340500
 21
224.059750
 31
0.0
  0
SPLINE
  5
16e
100
AcDbEntity
  8
MAT_BALISE_Drawing
 62
7
100
AcDbSpline
 70
0
 71
3
 72
19
 73
15
 74
13
 40
0.000000
 40
0.000000
 40
0.000000
 40
0.000000
 40
0.813439
 40
1.602751
 40
2.416188
 40
3.229625
 40
4.018936
 40
4.832375
 40
5.645814
 40
6.435126
 40
7.248563
 40
8.062000
 40
8.851312
 40
9.664751
 40
9.664751
 40
9.664751
 40
9.664751
 10
177.884667
 20
231.573917
 30
0.0
 10
177.927426
 20
231.299663
 30
0.0
 10
178.011677
 20
230.759291
 30
0.0
 10
178.631048
 20
230.164387
 30
0.0
 10
179.438989
 20
229.943956
 30
0.0
 10
180.255412
 20
230.164387
 30
0.0
 10
180.849838
 20
230.759291
 30
0.0
 10
181.070432
 20
231.573917
 30
0.0
 10
180.849838
 20
232.388542
 30
0.0
 10
180.255412
 20
232.983447
 30
0.0
 10
179.438989
 20
233.203877
 30
0.0
 10
178.631048
 20
232.983447
 30
0.0
 10
178.011677
 20
232.388542
 30
0.0
 10
177.927426
 20
231.848170
 30
0.0
 10
177.884667
 20
231.573917
 30
0.0
 11
177.884667
 21
231.573917
 31
0.0
 11
178.097073
 21
230.788699
 31
0.0
 11
178.655201
 21
230.230572
 31
0.0
 11
179.440417
 21
230.018167
 31
0.0
 11
180.225632
 21
230.230572
 31
0.0
 11
180.783761
 21
230.788699
 31
0.0
 11
180.996167
 21
231.573917
 31
0.0
 11
180.783761
 21
232.359134
 31
0.0
 11
180.225632
 21
232.917262
 31
0.0
 11
179.440417
 21
233.129667
 31
0.0
 11
178.655201
 21
232.917262
 31
0.0
 11
178.097073
 21
232.359134
 31
0.0
 11
177.884667
 21
231.573917
 31
0.0
  0
SPLINE
  5
16f
100
AcDbEntity
  8
MAT_BALISE_Drawing
 62
7
100
AcDbSpline
 70
0
 71
3
 72
19
 73
15
 74
13
 40
0.000000
 40
0.000000
 40
0.000000
 40
0.000000
 40
0.813439
 40
1.602751
 40
2.416188
 40
3.229625
 40
4.018936
 40
4.832375
 40
5.645814
 40
6.435126
 40
7.248563
 40
8.062000
 40
8.851312
 40
9.664751
 40
9.664751
 40
9.664751
 40
9.664751
 10
185.377667
 20
238.050917
 30
0.0
 10
185.420426
 20
237.776663
 30
0.0
 10
185.504677
 20
237.236291
 30
0.0
 10
186.124048
 20
236.641387
 30
0.0
 10
186.931989
 20
236.420956
 30
0.0
 10
187.748412
 20
236.641387
 30
0.0
 10
188.342838
 20
237.236291
 30
0.0
 10
188.563432
 20
238.050917
 30
0.0
 10
188.342838
 20
238.865542
 30
0.0
 10
187.748412
 20
239.460447
 30
0.0
 10
186.931989
 20
239.680877
 30
0.0
 10
186.124048
 20
239.460447
 30
0.0
 10
185.504677
 20
238.865542
 30
0.0
 10
185.420426
 20
238.325170
 30
0.0
 10
185.377667
 20
238.050917
 30
0.0
 11
185.377667
 21
238.050917
 31
0.0
 11
185.590073
 21
237.265699
 31
0.0
 11
186.148201
 21
236.707572
 31
0.0
 11
186.933417
 21
236.495167
 31
0.0
 11
187.718632
 21
236.707572
 31
0.0
 11
188.276761
 21
237.265699
 31
0.0
 11
188.489167
 21
238.050917
 31
0.0
 11
188.276761
 21
238.836134
 31
0.0
 11
187.718632
 21
239.394262
 31
0.0
 11
186.933417
 21
239.606667
 31
0.0
 11
186.148201
 21
239.394262
 31
0.0
 11
185.590073
 21
238.836134
 31
0.0
 11
185.377667
 21
238.050917
 31
0.0
  0
SPLINE
  5
170
100
AcDbEntity
  8
MAT_BALISE_Drawing
 62
7
100
AcDbSpline
 70
0
 71
3
 72
19
 73
15
 74
13
 40
0.000000
 40
0.000000
 40
0.000000
 40
0.000000
 40
0.813439
 40
1.602751
 40
2.416188
 40
3.229625
 40
4.018936
 40
4.832375
 40
5.645814
 40
6.435126
 40
7.248563
 40
8.062000
 40
8.851312
 40
9.664751
 40
9.664751
 40
9.664751
 40
9.664751
 10
191.833500
 20
230.536750
 30
0.0
 10
191.876260
 20
230.262497
 30
0.0
 10
191.960511
 20
229.722124
 30
0.0
 10
192.579881
 20
229.127220
 30
0.0
 10
193.387822
 20
228.906790
 30
0.0
 10
194.204245
 20
229.127220
 30
0.0
 10
194.798672
 20
229.722124
 30
0.0
 10
195.019266
 20
230.536750
 30
0.0
 10
194.798672
 20
231.351376
 30
0.0
 10
194.204245
 20
231.946280
 30
0.0
 10
193.387822
 20
232.166710
 30
0.0
 10
192.579881
 20
231.946280
 30
0.0
 10
191.960511
 20
231.351376
 30
0.0
 10
191.876260
 20
230.811003
 30
0.0
 10
191.833500
 20
230.536750
 30
0.0
 11
191.833500
 21
230.536750
 31
0.0
 11
192.045906
 21
229.751533
 31
0.0
 11
192.604034
 21
229.193405
 31
0.0
 11
193.389250
 21
228.981000
 31
0.0
 11
194.174466
 21
229.193405
 31
0.0
 11
194.732594
 21
229.751533
 31
0.0
 11
194.945000
 21
230.536750
 31
0.0
 11
194.732594
 21
231.321967
 31
0.0
 11
194.174466
 21
231.880095
 31
0.0
 11
193.389250
 21
232.092500
 31
0.0
 11
192.604034
 21
231.880095
 31
0.0
 11
192.045906
 21
231.321967
 31
0.0
 11
191.833500
 21
230.536750
 31
0.0
  0
SPLINE
  5
171
100
AcDbEntity
  8
MAT_BALISE_Drawing
 62
7
100
AcDbSpline
 70
0
 71
3
 72
19
 73
15
 74
13
 40
0.000000
 40
0.000000
 40
0.000000
 40
0.000000
 40
0.835573
 40
1.646364
 40
2.481932
 40
3.317500
 40
4.128292
 40
4.963865
 40
5.799438
 40
6.610229
 40
7.445797
 40
8.281365
 40
9.092156
 40
9.927729
 40
9.927729
 40
9.927729
 40
9.927729
 10
284.966833
 20
12.731750
 30
0.0
 10
285.010757
 20
12.450034
 30
0.0
 10
285.097302
 20
11.894958
 30
0.0
 10
285.733527
 20
11.283867
 30
0.0
 10
286.563450
 20
11.057436
 30
0.0
 10
287.402087
 20
11.283867
 30
0.0
 10
288.012687
 20
11.894958
 30
0.0
 10
288.239288
 20
12.731750
 30
0.0
 10
288.012687
 20
13.568542
 30
0.0
 10
287.402087
 20
14.179633
 30
0.0
 10
286.563450
 20
14.406064
 30
0.0
 10
285.733527
 20
14.179633
 30
0.0
 10
285.097302
 20
13.568542
 30
0.0
 10
285.010757
 20
13.013466
 30
0.0
 10
284.966833
 20
12.731750
 30
0.0
 11
284.966833
 21
12.731750
 31
0.0
 11
285.185021
 21
11.925167
 31
0.0
 11
285.758338
 21
11.351852
 31
0.0
 11
286.564917
 21
11.133667
 31
0.0
 11
287.371495
 21
11.351852
 31
0.0
 11
287.944812
 21
11.925167
 31
0.0
 11
288.163000
 21
12.731750
 31
0.0
 11
287.944812
 21
13.538333
 31
0.0
 11
287.371495
 21
14.111648
 31
0.0
 11
286.564917
 21
14.329833
 31
0.0
 11
285.758338
 21
14.111648
 31
0.0
 11
285.185021
 21
13.538333
 31
0.0
 11
284.966833
 21
12.731750
 31
0.0
  0
LWPOLYLINE
  5
172
100
AcDbEntity
  8
MAT_BALISE_Drawing
 62
7
100
AcDbPolyline
 90
8
 70
0
 10
185.356500
 20
218.524667
 30
0.0
 10
186.393667
 20
218.440000
 30
0.0
 10
187.409667
 20
218.270667
 30
0.0
 10
188.404500
 20
218.016667
 30
0.0
 10
189.399333
 20
217.678000
 30
0.0
 10
190.330667
 20
217.254667
 30
0.0
 10
191.240833
 20
216.746667
 30
0.0
 10
192.108667
 20
216.154000
 30
0.0
  0
SPLINE
  5
173
100
AcDbEntity
  8
MAT_BALISE_Drawing
 62
7
100
AcDbSpline
 70
0
 71
3
 72
19
 73
15
 74
13
 40
0.000000
 40
0.000000
 40
0.000000
 40
0.000000
 40
0.835573
 40
1.646364
 40
2.481932
 40
3.317500
 40
4.128292
 40
4.963865
 40
5.799438
 40
6.610229
 40
7.445797
 40
8.281365
 40
9.092156
 40
9.927729
 40
9.927729
 40
9.927729
 40
9.927729
 10
284.966833
 20
59.742917
 30
0.0
 10
285.010757
 20
59.461201
 30
0.0
 10
285.097302
 20
58.906124
 30
0.0
 10
285.733527
 20
58.295034
 30
0.0
 10
286.563450
 20
58.068603
 30
0.0
 10
287.402087
 20
58.295034
 30
0.0
 10
288.012687
 20
58.906124
 30
0.0
 10
288.239288
 20
59.742917
 30
0.0
 10
288.012687
 20
60.579709
 30
0.0
 10
287.402087
 20
61.190799
 30
0.0
 10
286.563450
 20
61.417231
 30
0.0
 10
285.733527
 20
61.190799
 30
0.0
 10
285.097302
 20
60.579709
 30
0.0
 10
285.010757
 20
60.024633
 30
0.0
 10
284.966833
 20
59.742917
 30
0.0
 11
284.966833
 21
59.742917
 31
0.0
 11
285.185021
 21
58.936333
 31
0.0
 11
285.758338
 21
58.363019
 31
0.0
 11
286.564917
 21
58.144833
 31
0.0
 11
287.371495
 21
58.363019
 31
0.0
 11
287.944812
 21
58.936333
 31
0.0
 11
288.163000
 21
59.742917
 31
0.0
 11
287.944812
 21
60.549500
 31
0.0
 11
287.371495
 21
61.122815
 31
0.0
 11
286.564917
 21
61.341000
 31
0.0
 11
285.758338
 21
61.122815
 31
0.0
 11
285.185021
 21
60.549500
 31
0.0
 11
284.966833
 21
59.742917
 31
0.0
  0
SPLINE
  5
174
100
AcDbEntity
  8
MAT_BALISE_Drawing
 62
7
100
AcDbSpline
 70
0
 71
3
 72
19
 73
15
 74
13
 40
0.000000
 40
0.000000
 40
0.000000
 40
0.000000
 40
0.813438
 40
1.602750
 40
2.416188
 40
3.229627
 40
4.018939
 40
4.832377
 40
5.645815
 40
6.435127
 40
7.248565
 40
8.062004
 40
8.851315
 40
9.664754
 40
9.664754
 40
9.664754
 40
9.664754
 10
317.013167
 20
14.742583
 30
0.0
 10
317.055926
 20
14.468330
 30
0.0
 10
317.140176
 20
13.927958
 30
0.0
 10
317.759547
 20
13.333053
 30
0.0
 10
318.567489
 20
13.112623
 30
0.0
 10
319.383913
 20
13.333053
 30
0.0
 10
319.978339
 20
13.927958
 30
0.0
 10
320.198932
 20
14.742583
 30
0.0
 10
319.978339
 20
15.557208
 30
0.0
 10
319.383913
 20
16.152114
 30
0.0
 10
318.567489
 20
16.372544
 30
0.0
 10
317.759547
 20
16.152114
 30
0.0
 10
317.140176
 20
15.557208
 30
0.0
 10
317.055926
 20
15.016836
 30
0.0
 10
317.013167
 20
14.742583
 30
0.0
 11
317.013167
 21
14.742583
 31
0.0
 11
317.225572
 21
13.957366
 31
0.0
 11
317.783699
 21
13.399239
 31
0.0
 11
318.568917
 21
13.186833
 31
0.0
 11
319.354134
 21
13.399239
 31
0.0
 11
319.912262
 21
13.957366
 31
0.0
 11
320.124667
 21
14.742583
 31
0.0
 11
319.912262
 21
15.527800
 31
0.0
 11
319.354134
 21
16.085928
 31
0.0
 11
318.568917
 21
16.298333
 31
0.0
 11
317.783699
 21
16.085928
 31
0.0
 11
317.225572
 21
15.527800
 31
0.0
 11
317.013167
 21
14.742583
 31
0.0
  0
LWPOLYLINE
  5
175
100
AcDbEntity
  8
MAT_BALISE_Drawing
 62
7
100
AcDbPolyline
 90
6
 70
0
 10
365.548333
 20
64.240833
 30
0.0
 10
413.850667
 20
64.240833
 30
0.0
 10
415.353500
 20
62.738000
 30
0.0
 10
415.353500
 20
6.223000
 30
0.0
 10
413.850667
 20
4.720167
 30
0.0
 10
270.552333
 20
4.720167
 30
0.0
  0
SPLINE
  5
176
100
AcDbEntity
  8
MAT_BALISE_Drawing
 62
7
100
AcDbSpline
 70
0
 71
3
 72
19
 73
15
 74
13
 40
0.000000
 40
0.000000
 40
0.000000
 40
0.000000
 40
0.813439
 40
1.602750
 40
2.416189
 40
3.229627
 40
4.018939
 40
4.832377
 40
5.645816
 40
6.435127
 40
7.248566
 40
8.062004
 40
8.851316
 40
9.664754
 40
9.664754
 40
9.664754
 40
9.664754
 10
317.013167
 20
57.753250
 30
0.0
 10
317.055926
 20
57.478997
 30
0.0
 10
317.140176
 20
56.938625
 30
0.0
 10
317.759547
 20
56.343719
 30
0.0
 10
318.567489
 20
56.123290
 30
0.0
 10
319.383913
 20
56.343719
 30
0.0
 10
319.978339
 20
56.938625
 30
0.0
 10
320.198932
 20
57.753250
 30
0.0
 10
319.978339
 20
58.567875
 30
0.0
 10
319.383913
 20
59.162781
 30
0.0
 10
318.567489
 20
59.383210
 30
0.0
 10
317.759547
 20
59.162781
 30
0.0
 10
317.140176
 20
58.567875
 30
0.0
 10
317.055926
 20
58.027503
 30
0.0
 10
317.013167
 20
57.753250
 30
0.0
 11
317.013167
 21
57.753250
 31
0.0
 11
317.225572
 21
56.968033
 31
0.0
 11
317.783699
 21
56.409905
 31
0.0
 11
318.568917
 21
56.197500
 31
0.0
 11
319.354134
 21
56.409905
 31
0.0
 11
319.912262
 21
56.968033
 31
0.0
 11
320.124667
 21
57.753250
 31
0.0
 11
319.912262
 21
58.538467
 31
0.0
 11
319.354134
 21
59.096595
 31
0.0
 11
318.568917
 21
59.309000
 31
0.0
 11
317.783699
 21
59.096595
 31
0.0
 11
317.225572
 21
58.538467
 31
0.0
 11
317.013167
 21
57.753250
 31
0.0
  0
LWPOLYLINE
  5
177
100
AcDbEntity
  8
MAT_BALISE_Drawing
 62
7
100
AcDbPolyline
 90
9
 70
0
 10
365.548333
 20
64.240833
 30
0.0
 10
365.548333
 20
67.733333
 30
0.0
 10
359.050167
 20
67.733333
 30
0.0
 10
358.563333
 20
67.246500
 30
0.0
 10
358.563333
 20
64.748833
 30
0.0
 10
346.561833
 20
64.748833
 30
0.0
 10
346.561833
 20
67.246500
 30
0.0
 10
346.053833
 20
67.733333
 30
0.0
 10
334.496833
 20
67.733333
 30
0.0
  0
SPLINE
  5
178
100
AcDbEntity
  8
MAT_BALISE_Drawing
 62
7
100
AcDbSpline
 70
0
 71
3
 72
10
 73
6
 74
4
 40
0.000000
 40
0.000000
 40
0.000000
 40
0.000000
 40
4.862614
 40
9.598004
 40
14.460619
 40
14.460619
 40
14.460619
 40
14.460619
 10
324.567317
 20
76.651487
 30
0.0
 10
324.983065
 20
75.059760
 30
0.0
 10
325.803682
 20
71.917953
 30
0.0
 10
329.666311
 20
68.460660
 30
0.0
 10
332.879517
 20
67.991958
 30
0.0
 10
334.507417
 20
67.754500
 30
0.0
 11
324.567317
 21
76.651487
 31
0.0
 11
326.261975
 21
72.093729
 31
0.0
 11
329.790413
 21
68.935561
 31
0.0
 11
334.507417
 21
67.754500
 31
0.0
  0
LWPOLYLINE
  5
179
100
AcDbEntity
  8
MAT_BALISE_Drawing
 62
7
100
AcDbPolyline
 90
4
 70
0
 10
324.569667
 20
76.644500
 30
0.0
 10
323.553667
 20
85.746167
 30
0.0
 10
313.541833
 20
85.746167
 30
0.0
 10
312.547000
 20
76.644500
 30
0.0
  0
LWPOLYLINE
  5
17a
100
AcDbEntity
  8
MAT_BALISE_Drawing
 62
7
100
AcDbPolyline
 90
11
 70
0
 10
302.598667
 20
67.733333
 30
0.0
 10
291.041667
 20
67.733333
 30
0.0
 10
290.554833
 20
67.246500
 30
0.0
 10
290.554833
 20
64.748833
 30
0.0
 10
278.553333
 20
64.748833
 30
0.0
 10
278.553333
 20
67.246500
 30
0.0
 10
278.045333
 20
67.733333
 30
0.0
 10
270.552333
 20
67.733333
 30
0.0
 10
268.541500
 20
65.743667
 30
0.0
 10
268.541500
 20
6.731000
 30
0.0
 10
270.552333
 20
4.720167
 30
0.0
  0
LWPOLYLINE
  5
17b
100
AcDbEntity
  8
MAT_BALISE_Drawing
 62
3
100
AcDbPolyline
 90
2
 70
0
 10
368.956167
 20
4.720167
 30
0.0
 10
368.956167
 20
20.193000
 30
0.0
  0
LWPOLYLINE
  5
17c
100
AcDbEntity
  8
MAT_BALISE_Drawing
 62
3
100
AcDbPolyline
 90
2
 70
0
 10
368.956167
 20
22.563667
 30
0.0
 10
368.956167
 20
24.955500
 30
0.0
  0
LWPOLYLINE
  5
17d
100
AcDbEntity
  8
MAT_BALISE_Drawing
 62
3
100
AcDbPolyline
 90
2
 70
0
 10
368.956167
 20
27.326167
 30
0.0
 10
368.956167
 20
41.634833
 30
0.0
  0
LWPOLYLINE
  5
17e
100
AcDbEntity
  8
MAT_BALISE_Drawing
 62
3
100
AcDbPolyline
 90
2
 70
0
 10
368.956167
 20
44.005500
 30
0.0
 10
368.956167
 20
46.397333
 30
0.0
  0
LWPOLYLINE
  5
17f
100
AcDbEntity
  8
MAT_BALISE_Drawing
 62
3
100
AcDbPolyline
 90
2
 70
0
 10
368.956167
 20
48.768000
 30
0.0
 10
368.956167
 20
64.240833
 30
0.0
  0
LWPOLYLINE
  5
180
100
AcDbEntity
  8
MAT_BALISE_Drawing
 62
3
100
AcDbPolyline
 90
2
 70
0
 10
372.342833
 20
64.240833
 30
0.0
 10
372.342833
 20
4.720167
 30
0.0
  0
LWPOLYLINE
  5
181
100
AcDbEntity
  8
MAT_BALISE_Drawing
 62
3
100
AcDbPolyline
 90
2
 70
0
 10
365.548333
 20
4.720167
 30
0.0
 10
365.548333
 20
64.240833
 30
0.0
  0
LWPOLYLINE
  5
182
100
AcDbEntity
  8
MAT_BALISE_Drawing
 62
7
100
AcDbPolyline
 90
2
 70
0
 10
350.371833
 20
152.548167
 30
0.0
 10
327.427167
 20
152.548167
 30
0.0
  0
SPLINE
  5
183
100
AcDbEntity
  8
MAT_BALISE_Drawing
 62
7
100
AcDbSpline
 70
0
 71
3
 72
10
 73
6
 74
4
 40
0.000000
 40
0.000000
 40
0.000000
 40
0.000000
 40
4.862615
 40
9.598004
 40
14.460619
 40
14.460619
 40
14.460619
 40
14.460619
 10
302.609250
 20
67.754500
 30
0.0
 10
304.237150
 20
67.991958
 30
0.0
 10
307.450356
 20
68.460660
 30
0.0
 10
311.312984
 20
71.917953
 30
0.0
 10
312.133602
 20
75.059760
 30
0.0
 10
312.549350
 20
76.651487
 30
0.0
 11
302.609250
 21
67.754500
 31
0.0
 11
307.326253
 21
68.935561
 31
0.0
 11
310.854692
 21
72.093729
 31
0.0
 11
312.549350
 21
76.651487
 31
0.0
  0
SPLINE
  5
184
100
AcDbEntity
  8
MAT_BALISE_Drawing
 62
7
100
AcDbSpline
 70
0
 71
3
 72
19
 73
15
 74
13
 40
0.000000
 40
0.000000
 40
0.000000
 40
0.000000
 40
1.831622
 40
3.608919
 40
5.440528
 40
7.272136
 40
9.049433
 40
10.881056
 40
12.712678
 40
14.489975
 40
16.321583
 40
18.153192
 40
19.930489
 40
21.762111
 40
21.762111
 40
21.762111
 40
21.762111
 10
360.934000
 20
131.540250
 30
0.0
 10
361.030283
 20
130.922713
 30
0.0
 10
361.219994
 20
129.705956
 30
0.0
 10
362.614633
 20
128.366414
 30
0.0
 10
364.433868
 20
127.870066
 30
0.0
 10
366.272204
 20
128.366414
 30
0.0
 10
367.610674
 20
129.705956
 30
0.0
 10
368.107393
 20
131.540250
 30
0.0
 10
367.610674
 20
133.374544
 30
0.0
 10
366.272204
 20
134.714086
 30
0.0
 10
364.433868
 20
135.210434
 30
0.0
 10
362.614633
 20
134.714086
 30
0.0
 10
361.219994
 20
133.374544
 30
0.0
 10
361.030283
 20
132.157787
 30
0.0
 10
360.934000
 20
131.540250
 30
0.0
 11
360.934000
 21
131.540250
 31
0.0
 11
361.412279
 21
129.772175
 31
0.0
 11
362.669021
 21
128.515439
 31
0.0
 11
364.437083
 21
128.037167
 31
0.0
 11
366.205146
 21
128.515439
 31
0.0
 11
367.461888
 21
129.772175
 31
0.0
 11
367.940167
 21
131.540250
 31
0.0
 11
367.461888
 21
133.308325
 31
0.0
 11
366.205146
 21
134.565061
 31
0.0
 11
364.437083
 21
135.043333
 31
0.0
 11
362.669021
 21
134.565061
 31
0.0
 11
361.412279
 21
133.308325
 31
0.0
 11
360.934000
 21
131.540250
 31
0.0
  0
SPLINE
  5
185
100
AcDbEntity
  8
MAT_BALISE_Drawing
 62
7
100
AcDbSpline
 70
0
 71
3
 72
10
 73
6
 74
4
 40
0.000000
 40
0.000000
 40
0.000000
 40
0.000000
 40
2.059566
 40
4.091304
 40
6.150870
 40
6.150870
 40
6.150870
 40
6.150870
 10
355.553757
 20
149.691647
 30
0.0
 10
355.132050
 20
150.239183
 30
0.0
 10
354.294335
 20
151.326857
 30
0.0
 10
352.435868
 20
152.361034
 30
0.0
 10
351.069997
 20
152.499586
 30
0.0
 10
350.382417
 20
152.569333
 30
0.0
 11
355.553757
 21
149.691647
 31
0.0
 11
354.187663
 21
151.232945
 31
0.0
 11
352.412292
 21
152.220882
 31
0.0
 11
350.382417
 21
152.569333
 31
0.0
  0
SPLINE
  5
186
100
AcDbEntity
  8
MAT_BALISE_Drawing
 62
7
100
AcDbSpline
 70
0
 71
3
 72
10
 73
6
 74
4
 40
0.000000
 40
0.000000
 40
0.000000
 40
0.000000
 40
2.059566
 40
4.091304
 40
6.150870
 40
6.150870
 40
6.150870
 40
6.150870
 10
373.299243
 20
113.388853
 30
0.0
 10
373.720950
 20
112.841317
 30
0.0
 10
374.558665
 20
111.753643
 30
0.0
 10
376.417132
 20
110.719466
 30
0.0
 10
377.783003
 20
110.580914
 30
0.0
 10
378.470583
 20
110.511167
 30
0.0
 11
373.299243
 21
113.388853
 31
0.0
 11
374.665337
 21
111.847555
 31
0.0
 11
376.440708
 21
110.859618
 31
0.0
 11
378.470583
 21
110.511167
 31
0.0
  0
LWPOLYLINE
  5
187
100
AcDbEntity
  8
MAT_BALISE_Drawing
 62
7
100
AcDbPolyline
 90
2
 70
0
 10
378.460000
 20
110.511167
 30
0.0
 10
401.404667
 20
110.511167
 30
0.0
  0
SPLINE
  5
188
100
AcDbEntity
  8
MAT_BALISE_Drawing
 62
7
100
AcDbSpline
 70
0
 71
3
 72
13
 73
9
 74
7
 40
0.000000
 40
0.000000
 40
0.000000
 40
0.000000
 40
0.447009
 40
0.884037
 40
1.331046
 40
1.778056
 40
2.215083
 40
2.662092
 40
2.662092
 40
2.662092
 40
2.662092
 10
363.463418
 20
152.569338
 30
0.0
 10
363.313173
 20
152.549586
 30
0.0
 10
363.016039
 20
152.510524
 30
0.0
 10
362.656377
 20
152.215841
 30
0.0
 10
362.452273
 20
151.807072
 30
0.0
 10
362.448211
 20
151.350199
 30
0.0
 10
362.634569
 20
150.924210
 30
0.0
 10
362.881456
 20
150.754324
 30
0.0
 10
363.006294
 20
150.668422
 30
0.0
 11
363.463418
 21
152.569338
 31
0.0
 11
363.027580
 21
152.470029
 31
0.0
 11
362.684324
 21
152.199533
 31
0.0
 11
362.485864
 21
151.798995
 31
0.0
 11
362.480517
 21
151.352017
 31
0.0
 11
362.663259
 21
150.955031
 31
0.0
 11
363.006294
 21
150.668422
 31
0.0
  0
LWPOLYLINE
  5
189
100
AcDbEntity
  8
MAT_BALISE_Drawing
 62
7
100
AcDbPolyline
 90
4
 70
0
 10
363.008333
 20
150.643167
 30
0.0
 10
363.601000
 20
150.389167
 30
0.0
 10
364.214833
 20
150.198667
 30
0.0
 10
364.849833
 20
150.050500
 30
0.0
  0
SPLINE
  5
18a
100
AcDbEntity
  8
MAT_BALISE_Drawing
 62
7
100
AcDbSpline
 70
0
 71
3
 72
13
 73
9
 74
7
 40
0.000000
 40
0.000000
 40
0.000000
 40
0.000000
 40
0.447009
 40
0.884037
 40
1.331046
 40
1.778056
 40
2.215083
 40
2.662092
 40
2.662092
 40
2.662092
 40
2.662092
 10
365.389582
 20
110.511162
 30
0.0
 10
365.539827
 20
110.530914
 30
0.0
 10
365.836961
 20
110.569976
 30
0.0
 10
366.196623
 20
110.864659
 30
0.0
 10
366.400727
 20
111.273428
 30
0.0
 10
366.404789
 20
111.730301
 30
0.0
 10
366.218431
 20
112.156290
 30
0.0
 10
365.971544
 20
112.326176
 30
0.0
 10
365.846706
 20
112.412078
 30
0.0
 11
365.389582
 21
110.511162
 31
0.0
 11
365.825420
 21
110.610471
 31
0.0
 11
366.168676
 21
110.880967
 31
0.0
 11
366.367136
 21
111.281505
 31
0.0
 11
366.372483
 21
111.728483
 31
0.0
 11
366.189741
 21
112.125469
 31
0.0
 11
365.846706
 21
112.412078
 31
0.0
  0
LWPOLYLINE
  5
18b
100
AcDbEntity
  8
MAT_BALISE_Drawing
 62
7
100
AcDbPolyline
 90
4
 70
0
 10
365.823500
 20
112.416167
 30
0.0
 10
365.230833
 20
112.670167
 30
0.0
 10
364.617000
 20
112.860667
 30
0.0
 10
363.982000
 20
113.008833
 30
0.0
  0
LWPOLYLINE
  5
18c
100
AcDbEntity
  8
MAT_BALISE_Drawing
 62
7
100
AcDbPolyline
 90
12
 70
0
 10
363.982000
 20
144.123833
 30
0.0
 10
363.050667
 20
144.293167
 30
0.0
 10
362.119333
 20
144.547167
 30
0.0
 10
361.230333
 20
144.864667
 30
0.0
 10
360.362500
 20
145.245667
 30
0.0
 10
359.537000
 20
145.711333
 30
0.0
 10
358.753833
 20
146.240500
 30
0.0
 10
357.991833
 20
146.812000
 30
0.0
 10
357.293333
 20
147.447000
 30
0.0
 10
356.658333
 20
148.145500
 30
0.0
 10
356.065667
 20
148.886333
 30
0.0
 10
355.536500
 20
149.669500
 30
0.0
  0
SPLINE
  5
18d
100
AcDbEntity
  8
MAT_BALISE_Drawing
 62
7
100
AcDbSpline
 70
0
 71
3
 72
13
 73
9
 74
7
 40
0.000000
 40
0.000000
 40
0.000000
 40
0.000000
 40
1.566005
 40
3.085563
 40
4.651568
 40
6.217573
 40
7.737131
 40
9.303137
 40
9.303137
 40
9.303137
 40
9.303137
 10
363.978155
 20
144.134834
 30
0.0
 10
364.512509
 20
144.139159
 30
0.0
 10
365.565368
 20
144.147682
 30
0.0
 10
366.872512
 20
145.158993
 30
0.0
 10
367.520166
 20
146.639107
 30
0.0
 10
367.328204
 20
148.243272
 30
0.0
 10
366.369361
 20
149.589375
 30
0.0
 10
365.363951
 20
149.902001
 30
0.0
 10
364.853678
 20
150.060666
 30
0.0
 11
363.978155
 21
144.134834
 31
0.0
 11
365.533363
 21
144.318412
 31
0.0
 11
366.753361
 21
145.224315
 31
0.0
 11
367.378833
 21
146.659989
 31
0.0
 11
367.195254
 21
148.215196
 31
0.0
 11
366.289351
 21
149.435195
 31
0.0
 11
364.853678
 21
150.060666
 31
0.0
  0
LWPOLYLINE
  5
18e
100
AcDbEntity
  8
MAT_BALISE_Drawing
 62
7
100
AcDbPolyline
 90
2
 70
0
 10
401.404667
 20
152.548167
 30
0.0
 10
363.452833
 20
152.548167
 30
0.0
  0
LWPOLYLINE
  5
18f
100
AcDbEntity
  8
MAT_BALISE_Drawing
 62
7
100
AcDbPolyline
 90
12
 70
0
 10
364.849833
 20
118.935500
 30
0.0
 10
365.781167
 20
118.766167
 30
0.0
 10
366.712500
 20
118.512167
 30
0.0
 10
367.601500
 20
118.194667
 30
0.0
 10
368.469333
 20
117.813667
 30
0.0
 10
369.294833
 20
117.348000
 30
0.0
 10
370.078000
 20
116.818833
 30
0.0
 10
370.840000
 20
116.247333
 30
0.0
 10
371.538500
 20
115.612333
 30
0.0
 10
372.173500
 20
114.913833
 30
0.0
 10
372.766167
 20
114.173000
 30
0.0
 10
373.295333
 20
113.389833
 30
0.0
  0
LWPOLYLINE
  5
190
100
AcDbEntity
  8
MAT_BALISE_Drawing
 62
7
100
AcDbPolyline
 90
2
 70
0
 10
327.427167
 20
110.511167
 30
0.0
 10
365.379000
 20
110.511167
 30
0.0
  0
SPLINE
  5
191
100
AcDbEntity
  8
MAT_BALISE_Drawing
 62
7
100
AcDbSpline
 70
0
 71
3
 72
13
 73
9
 74
7
 40
0.000000
 40
0.000000
 40
0.000000
 40
0.000000
 40
1.566005
 40
3.085563
 40
4.651568
 40
6.217573
 40
7.737131
 40
9.303137
 40
9.303137
 40
9.303137
 40
9.303137
 10
364.874845
 20
118.945666
 30
0.0
 10
364.340491
 20
118.941341
 30
0.0
 10
363.287632
 20
118.932818
 30
0.0
 10
361.980488
 20
117.921507
 30
0.0
 10
361.332834
 20
116.441393
 30
0.0
 10
361.524796
 20
114.837228
 30
0.0
 10
362.483639
 20
113.491125
 30
0.0
 10
363.489049
 20
113.178499
 30
0.0
 10
363.999322
 20
113.019834
 30
0.0
 11
364.874845
 21
118.945666
 31
0.0
 11
363.319637
 21
118.762088
 31
0.0
 11
362.099639
 21
117.856185
 31
0.0
 11
361.474167
 21
116.420511
 31
0.0
 11
361.657746
 21
114.865304
 31
0.0
 11
362.563649
 21
113.645305
 31
0.0
 11
363.999322
 21
113.019834
 31
0.0
  0
LWPOLYLINE
  5
192
100
AcDbEntity
  8
MAT_BALISE_Drawing
 62
7
100
AcDbPolyline
 90
2
 70
0
 10
395.160500
 20
127.973667
 30
0.0
 10
395.160500
 20
126.449667
 30
0.0
  0
SPLINE
  5
193
100
AcDbEntity
  8
MAT_BALISE_Drawing
 62
7
100
AcDbSpline
 70
0
 71
3
 72
13
 73
9
 74
7
 40
0.000000
 40
0.000000
 40
0.000000
 40
0.000000
 40
0.813438
 40
1.602750
 40
2.416188
 40
3.229626
 40
4.018938
 40
4.832376
 40
4.832376
 40
4.832376
 40
4.832376
 10
392.070167
 20
126.460250
 30
0.0
 10
392.112958
 20
126.185997
 30
0.0
 10
392.197271
 20
125.645625
 30
0.0
 10
392.816179
 20
125.050720
 30
0.0
 10
393.625917
 20
124.830290
 30
0.0
 10
394.435654
 20
125.050720
 30
0.0
 10
395.054562
 20
125.645625
 30
0.0
 10
395.138876
 20
126.185997
 30
0.0
 10
395.181667
 20
126.460250
 30
0.0
 11
392.070167
 21
126.460250
 31
0.0
 11
392.282572
 21
125.675033
 31
0.0
 11
392.840700
 21
125.116905
 31
0.0
 11
393.625917
 21
124.904500
 31
0.0
 11
394.411133
 21
125.116905
 31
0.0
 11
394.969261
 21
125.675033
 31
0.0
 11
395.181667
 21
126.460250
 31
0.0
  0
SPLINE
  5
194
100
AcDbEntity
  8
MAT_BALISE_Drawing
 62
7
100
AcDbSpline
 70
0
 71
3
 72
13
 73
9
 74
7
 40
0.000000
 40
0.000000
 40
0.000000
 40
0.000000
 40
0.813436
 40
1.602744
 40
2.416192
 40
3.229640
 40
4.018949
 40
4.832384
 40
4.832384
 40
4.832384
 40
4.832384
 10
395.181667
 20
127.984250
 30
0.0
 10
395.138877
 20
128.258502
 30
0.0
 10
395.054567
 20
128.798873
 30
0.0
 10
394.435661
 20
129.393784
 30
0.0
 10
393.625917
 20
129.614209
 30
0.0
 10
392.816172
 20
129.393784
 30
0.0
 10
392.197266
 20
128.798873
 30
0.0
 10
392.112956
 20
128.258502
 30
0.0
 10
392.070167
 20
127.984250
 30
0.0
 11
395.181667
 21
127.984250
 31
0.0
 11
394.969266
 21
128.769466
 31
0.0
 11
394.411144
 21
129.327594
 31
0.0
 11
393.625917
 21
129.540000
 31
0.0
 11
392.840690
 21
129.327594
 31
0.0
 11
392.282567
 21
128.769466
 31
0.0
 11
392.070167
 21
127.984250
 31
0.0
  0
LWPOLYLINE
  5
195
100
AcDbEntity
  8
MAT_BALISE_Drawing
 62
7
100
AcDbPolyline
 90
2
 70
0
 10
392.070167
 20
126.449667
 30
0.0
 10
392.070167
 20
127.973667
 30
0.0
  0
SPLINE
  5
196
100
AcDbEntity
  8
MAT_BALISE_Drawing
 62
7
100
AcDbSpline
 70
0
 71
3
 72
19
 73
15
 74
13
 40
0.000000
 40
0.000000
 40
0.000000
 40
0.000000
 40
0.813436
 40
1.602744
 40
2.416192
 40
3.229640
 40
4.018949
 40
4.832384
 40
5.645820
 40
6.435129
 40
7.248577
 40
8.062025
 40
8.851333
 40
9.664769
 40
9.664769
 40
9.664769
 40
9.664769
 10
392.070167
 20
141.446250
 30
0.0
 10
392.112924
 20
141.171998
 30
0.0
 10
392.197172
 20
140.631627
 30
0.0
 10
392.816540
 20
140.036716
 30
0.0
 10
393.624489
 20
139.816291
 30
0.0
 10
394.440920
 20
140.036716
 30
0.0
 10
395.035344
 20
140.631627
 30
0.0
 10
395.255929
 20
141.446250
 30
0.0
 10
395.035344
 20
142.260873
 30
0.0
 10
394.440920
 20
142.855784
 30
0.0
 10
393.624489
 20
143.076209
 30
0.0
 10
392.816540
 20
142.855784
 30
0.0
 10
392.197172
 20
142.260873
 30
0.0
 10
392.112924
 20
141.720502
 30
0.0
 10
392.070167
 20
141.446250
 30
0.0
 11
392.070167
 21
141.446250
 31
0.0
 11
392.282567
 21
140.661034
 31
0.0
 11
392.840690
 21
140.102906
 31
0.0
 11
393.625917
 21
139.890500
 31
0.0
 11
394.411144
 21
140.102906
 31
0.0
 11
394.969266
 21
140.661034
 31
0.0
 11
395.181667
 21
141.446250
 31
0.0
 11
394.969266
 21
142.231466
 31
0.0
 11
394.411144
 21
142.789594
 31
0.0
 11
393.625917
 21
143.002000
 31
0.0
 11
392.840690
 21
142.789594
 31
0.0
 11
392.282567
 21
142.231466
 31
0.0
 11
392.070167
 21
141.446250
 31
0.0
  0
LWPOLYLINE
  5
197
100
AcDbEntity
  8
MAT_BALISE_Drawing
 62
7
100
AcDbPolyline
 90
2
 70
0
 10
333.671333
 20
135.085667
 30
0.0
 10
333.671333
 20
136.609667
 30
0.0
  0
SPLINE
  5
198
100
AcDbEntity
  8
MAT_BALISE_Drawing
 62
7
100
AcDbSpline
 70
0
 71
3
 72
13
 73
9
 74
7
 40
0.000000
 40
0.000000
 40
0.000000
 40
0.000000
 40
0.813437
 40
1.602749
 40
2.416188
 40
3.229627
 40
4.018939
 40
4.832375
 40
4.832375
 40
4.832375
 40
4.832375
 10
336.782833
 20
136.620250
 30
0.0
 10
336.740042
 20
136.894503
 30
0.0
 10
336.655729
 20
137.434874
 30
0.0
 10
336.036821
 20
138.029780
 30
0.0
 10
335.227083
 20
138.250211
 30
0.0
 10
334.417345
 20
138.029780
 30
0.0
 10
333.798438
 20
137.434874
 30
0.0
 10
333.714125
 20
136.894503
 30
0.0
 10
333.671333
 20
136.620250
 30
0.0
 11
336.782833
 21
136.620250
 31
0.0
 11
336.570428
 21
137.405466
 31
0.0
 11
336.012301
 21
137.963594
 31
0.0
 11
335.227083
 21
138.176000
 31
0.0
 11
334.441866
 21
137.963594
 31
0.0
 11
333.883738
 21
137.405466
 31
0.0
 11
333.671333
 21
136.620250
 31
0.0
  0
SPLINE
  5
199
100
AcDbEntity
  8
MAT_BALISE_Drawing
 62
7
100
AcDbSpline
 70
0
 71
3
 72
13
 73
9
 74
7
 40
0.000000
 40
0.000000
 40
0.000000
 40
0.000000
 40
0.813438
 40
1.602750
 40
2.416188
 40
3.229626
 40
4.018938
 40
4.832376
 40
4.832376
 40
4.832376
 40
4.832376
 10
333.671333
 20
135.096250
 30
0.0
 10
333.714124
 20
134.821997
 30
0.0
 10
333.798438
 20
134.281625
 30
0.0
 10
334.417346
 20
133.686720
 30
0.0
 10
335.227083
 20
133.466290
 30
0.0
 10
336.036821
 20
133.686720
 30
0.0
 10
336.655729
 20
134.281625
 30
0.0
 10
336.740042
 20
134.821997
 30
0.0
 10
336.782833
 20
135.096250
 30
0.0
 11
333.671333
 21
135.096250
 31
0.0
 11
333.883739
 21
134.311033
 31
0.0
 11
334.441867
 21
133.752905
 31
0.0
 11
335.227083
 21
133.540500
 31
0.0
 11
336.012300
 21
133.752905
 31
0.0
 11
336.570428
 21
134.311033
 31
0.0
 11
336.782833
 21
135.096250
 31
0.0
  0
SPLINE
  5
19a
100
AcDbEntity
  8
MAT_BALISE_Drawing
 62
7
100
AcDbSpline
 70
0
 71
3
 72
19
 73
15
 74
13
 40
0.000000
 40
0.000000
 40
0.000000
 40
0.000000
 40
0.813437
 40
1.602749
 40
2.416188
 40
3.229627
 40
4.018939
 40
4.832375
 40
5.645812
 40
6.435124
 40
7.248563
 40
8.062002
 40
8.851314
 40
9.664751
 40
9.664751
 40
9.664751
 40
9.664751
 10
333.671333
 20
121.634250
 30
0.0
 10
333.714093
 20
121.359997
 30
0.0
 10
333.798344
 20
120.819626
 30
0.0
 10
334.417713
 20
120.224720
 30
0.0
 10
335.225655
 20
120.004289
 30
0.0
 10
336.042080
 20
120.224720
 30
0.0
 10
336.636505
 20
120.819626
 30
0.0
 10
336.857099
 20
121.634250
 30
0.0
 10
336.636505
 20
122.448874
 30
0.0
 10
336.042080
 20
123.043780
 30
0.0
 10
335.225655
 20
123.264211
 30
0.0
 10
334.417713
 20
123.043780
 30
0.0
 10
333.798344
 20
122.448874
 30
0.0
 10
333.714093
 20
121.908503
 30
0.0
 10
333.671333
 20
121.634250
 30
0.0
 11
333.671333
 21
121.634250
 31
0.0
 11
333.883738
 21
120.849034
 31
0.0
 11
334.441866
 21
120.290906
 31
0.0
 11
335.227083
 21
120.078500
 31
0.0
 11
336.012301
 21
120.290906
 31
0.0
 11
336.570428
 21
120.849034
 31
0.0
 11
336.782833
 21
121.634250
 31
0.0
 11
336.570428
 21
122.419466
 31
0.0
 11
336.012301
 21
122.977594
 31
0.0
 11
335.227083
 21
123.190000
 31
0.0
 11
334.441866
 21
122.977594
 31
0.0
 11
333.883738
 21
122.419466
 31
0.0
 11
333.671333
 21
121.634250
 31
0.0
  0
SPLINE
  5
19b
100
AcDbEntity
  8
MAT_BALISE_Drawing
 62
7
100
AcDbSpline
 70
0
 71
3
 72
10
 73
6
 74
4
 40
0.000000
 40
0.000000
 40
0.000000
 40
0.000000
 40
1.725212
 40
3.420983
 40
5.146195
 40
5.146195
 40
5.146195
 40
5.146195
 10
401.415263
 20
110.532319
 30
0.0
 10
401.991588
 20
110.598580
 30
0.0
 10
403.134401
 20
110.729971
 30
0.0
 10
404.642002
 20
111.708210
 30
0.0
 10
405.227606
 20
112.698339
 30
0.0
 10
405.522927
 20
113.197664
 30
0.0
 11
401.415263
 21
110.532319
 31
0.0
 11
403.108473
 21
110.863070
 31
0.0
 11
404.531015
 21
111.786116
 31
0.0
 11
405.522927
 21
113.197664
 31
0.0
  0
LWPOLYLINE
  5
19c
100
AcDbEntity
  8
MAT_BALISE_Drawing
 62
7
100
AcDbPolyline
 90
2
 70
0
 10
336.761667
 20
136.609667
 30
0.0
 10
336.761667
 20
135.085667
 30
0.0
  0
SPLINE
  5
19d
100
AcDbEntity
  8
MAT_BALISE_Drawing
 62
7
100
AcDbSpline
 70
0
 71
3
 72
10
 73
6
 74
4
 40
0.000000
 40
0.000000
 40
0.000000
 40
0.000000
 40
1.725206
 40
3.420972
 40
5.146179
 40
5.146179
 40
5.146179
 40
5.146179
 10
323.330091
 20
113.197658
 30
0.0
 10
323.625413
 20
112.698335
 30
0.0
 10
324.211018
 20
111.708211
 30
0.0
 10
325.718617
 20
110.729980
 30
0.0
 10
326.861427
 20
110.598592
 30
0.0
 10
327.437750
 20
110.532333
 30
0.0
 11
323.330091
 21
113.197658
 31
0.0
 11
324.322005
 21
111.786118
 31
0.0
 11
325.744545
 21
110.863078
 31
0.0
 11
327.437750
 21
110.532333
 31
0.0
  0
SPLINE
  5
19e
100
AcDbEntity
  8
MAT_BALISE_Drawing
 62
7
100
AcDbSpline
 70
0
 71
3
 72
19
 73
15
 74
13
 40
0.000000
 40
0.000000
 40
0.000000
 40
0.000000
 40
0.813436
 40
1.602744
 40
2.416192
 40
3.229640
 40
4.018949
 40
4.832384
 40
5.645820
 40
6.435129
 40
7.248577
 40
8.062025
 40
8.851333
 40
9.664769
 40
9.664769
 40
9.664769
 40
9.664769
 10
362.860167
 20
124.534083
 30
0.0
 10
362.902924
 20
124.259831
 30
0.0
 10
362.987172
 20
123.719461
 30
0.0
 10
363.606540
 20
123.124549
 30
0.0
 10
364.414489
 20
122.904124
 30
0.0
 10
365.230920
 20
123.124549
 30
0.0
 10
365.825344
 20
123.719461
 30
0.0
 10
366.045929
 20
124.534083
 30
0.0
 10
365.825344
 20
125.348706
 30
0.0
 10
365.230920
 20
125.943617
 30
0.0
 10
364.414489
 20
126.164042
 30
0.0
 10
363.606540
 20
125.943617
 30
0.0
 10
362.987172
 20
125.348706
 30
0.0
 10
362.902924
 20
124.808336
 30
0.0
 10
362.860167
 20
124.534083
 30
0.0
 11
362.860167
 21
124.534083
 31
0.0
 11
363.072567
 21
123.748868
 31
0.0
 11
363.630690
 21
123.190739
 31
0.0
 11
364.415917
 21
122.978333
 31
0.0
 11
365.201144
 21
123.190739
 31
0.0
 11
365.759266
 21
123.748868
 31
0.0
 11
365.971667
 21
124.534083
 31
0.0
 11
365.759266
 21
125.319299
 31
0.0
 11
365.201144
 21
125.877427
 31
0.0
 11
364.415917
 21
126.089833
 31
0.0
 11
363.630690
 21
125.877427
 31
0.0
 11
363.072567
 21
125.319299
 31
0.0
 11
362.860167
 21
124.534083
 31
0.0
  0
SPLINE
  5
19f
100
AcDbEntity
  8
MAT_BALISE_Drawing
 62
7
100
AcDbSpline
 70
0
 71
3
 72
19
 73
15
 74
13
 40
0.000000
 40
0.000000
 40
0.000000
 40
0.000000
 40
0.813436
 40
1.602744
 40
2.416192
 40
3.229640
 40
4.018949
 40
4.832384
 40
5.645820
 40
6.435129
 40
7.248577
 40
8.062025
 40
8.851333
 40
9.664769
 40
9.664769
 40
9.664769
 40
9.664769
 10
355.875167
 20
131.540250
 30
0.0
 10
355.917924
 20
131.265998
 30
0.0
 10
356.002172
 20
130.725627
 30
0.0
 10
356.621540
 20
130.130716
 30
0.0
 10
357.429489
 20
129.910291
 30
0.0
 10
358.245920
 20
130.130716
 30
0.0
 10
358.840344
 20
130.725627
 30
0.0
 10
359.060929
 20
131.540250
 30
0.0
 10
358.840344
 20
132.354873
 30
0.0
 10
358.245920
 20
132.949784
 30
0.0
 10
357.429489
 20
133.170209
 30
0.0
 10
356.621540
 20
132.949784
 30
0.0
 10
356.002172
 20
132.354873
 30
0.0
 10
355.917924
 20
131.814502
 30
0.0
 10
355.875167
 20
131.540250
 30
0.0
 11
355.875167
 21
131.540250
 31
0.0
 11
356.087567
 21
130.755034
 31
0.0
 11
356.645690
 21
130.196906
 31
0.0
 11
357.430917
 21
129.984500
 31
0.0
 11
358.216144
 21
130.196906
 31
0.0
 11
358.774266
 21
130.755034
 31
0.0
 11
358.986667
 21
131.540250
 31
0.0
 11
358.774266
 21
132.325466
 31
0.0
 11
358.216144
 21
132.883594
 31
0.0
 11
357.430917
 21
133.096000
 31
0.0
 11
356.645690
 21
132.883594
 31
0.0
 11
356.087567
 21
132.325466
 31
0.0
 11
355.875167
 21
131.540250
 31
0.0
  0
SPLINE
  5
1a0
100
AcDbEntity
  8
MAT_BALISE_Drawing
 62
7
100
AcDbSpline
 70
0
 71
3
 72
19
 73
15
 74
13
 40
0.000000
 40
0.000000
 40
0.000000
 40
0.000000
 40
0.813436
 40
1.602744
 40
2.416192
 40
3.229640
 40
4.018949
 40
4.832384
 40
5.645820
 40
6.435129
 40
7.248577
 40
8.062025
 40
8.851333
 40
9.664769
 40
9.664769
 40
9.664769
 40
9.664769
 10
362.881333
 20
138.546417
 30
0.0
 10
362.924091
 20
138.272164
 30
0.0
 10
363.008339
 20
137.731794
 30
0.0
 10
363.627707
 20
137.136883
 30
0.0
 10
364.435655
 20
136.916458
 30
0.0
 10
365.252087
 20
137.136883
 30
0.0
 10
365.846511
 20
137.731794
 30
0.0
 10
366.067096
 20
138.546417
 30
0.0
 10
365.846511
 20
139.361039
 30
0.0
 10
365.252087
 20
139.955951
 30
0.0
 10
364.435655
 20
140.176376
 30
0.0
 10
363.627707
 20
139.955951
 30
0.0
 10
363.008339
 20
139.361039
 30
0.0
 10
362.924091
 20
138.820669
 30
0.0
 10
362.881333
 20
138.546417
 30
0.0
 11
362.881333
 21
138.546417
 31
0.0
 11
363.093734
 21
137.761201
 31
0.0
 11
363.651856
 21
137.203073
 31
0.0
 11
364.437083
 21
136.990667
 31
0.0
 11
365.222310
 21
137.203073
 31
0.0
 11
365.780433
 21
137.761201
 31
0.0
 11
365.992833
 21
138.546417
 31
0.0
 11
365.780433
 21
139.331632
 31
0.0
 11
365.222310
 21
139.889761
 31
0.0
 11
364.437083
 21
140.102167
 31
0.0
 11
363.651856
 21
139.889761
 31
0.0
 11
363.093734
 21
139.331632
 31
0.0
 11
362.881333
 21
138.546417
 31
0.0
  0
LWPOLYLINE
  5
1a1
100
AcDbEntity
  8
MAT_BALISE_Drawing
 62
7
100
AcDbPolyline
 90
20
 70
0
 10
323.320833
 20
113.178167
 30
0.0
 10
322.537667
 20
115.019667
 30
0.0
 10
321.860333
 20
116.882333
 30
0.0
 10
321.246500
 20
118.787333
 30
0.0
 10
320.738500
 20
120.692333
 30
0.0
 10
320.294000
 20
122.639667
 30
0.0
 10
319.934167
 20
124.587000
 30
0.0
 10
319.680167
 20
126.576667
 30
0.0
 10
319.510833
 20
128.545167
 30
0.0
 10
319.426167
 20
130.534833
 30
0.0
 10
319.426167
 20
132.524500
 30
0.0
 10
319.510833
 20
134.514167
 30
0.0
 10
319.680167
 20
136.482667
 30
0.0
 10
319.934167
 20
138.472333
 30
0.0
 10
320.294000
 20
140.419667
 30
0.0
 10
320.738500
 20
142.367000
 30
0.0
 10
321.246500
 20
144.272000
 30
0.0
 10
321.860333
 20
146.177000
 30
0.0
 10
322.537667
 20
148.039667
 30
0.0
 10
323.320833
 20
149.881167
 30
0.0
  0
SPLINE
  5
1a2
100
AcDbEntity
  8
MAT_BALISE_Drawing
 62
7
100
AcDbSpline
 70
0
 71
3
 72
19
 73
15
 74
13
 40
0.000000
 40
0.000000
 40
0.000000
 40
0.000000
 40
0.813436
 40
1.602744
 40
2.416192
 40
3.229640
 40
4.018949
 40
4.832384
 40
5.645820
 40
6.435129
 40
7.248577
 40
8.062025
 40
8.851333
 40
9.664769
 40
9.664769
 40
9.664769
 40
9.664769
 10
369.866333
 20
131.540250
 30
0.0
 10
369.909091
 20
131.265998
 30
0.0
 10
369.993339
 20
130.725627
 30
0.0
 10
370.612707
 20
130.130716
 30
0.0
 10
371.420655
 20
129.910291
 30
0.0
 10
372.237087
 20
130.130716
 30
0.0
 10
372.831511
 20
130.725627
 30
0.0
 10
373.052096
 20
131.540250
 30
0.0
 10
372.831511
 20
132.354873
 30
0.0
 10
372.237087
 20
132.949784
 30
0.0
 10
371.420655
 20
133.170209
 30
0.0
 10
370.612707
 20
132.949784
 30
0.0
 10
369.993339
 20
132.354873
 30
0.0
 10
369.909091
 20
131.814502
 30
0.0
 10
369.866333
 20
131.540250
 30
0.0
 11
369.866333
 21
131.540250
 31
0.0
 11
370.078734
 21
130.755034
 31
0.0
 11
370.636856
 21
130.196906
 31
0.0
 11
371.422083
 21
129.984500
 31
0.0
 11
372.207310
 21
130.196906
 31
0.0
 11
372.765433
 21
130.755034
 31
0.0
 11
372.977833
 21
131.540250
 31
0.0
 11
372.765433
 21
132.325466
 31
0.0
 11
372.207310
 21
132.883594
 31
0.0
 11
371.422083
 21
133.096000
 31
0.0
 11
370.636856
 21
132.883594
 31
0.0
 11
370.078734
 21
132.325466
 31
0.0
 11
369.866333
 21
131.540250
 31
0.0
  0
SPLINE
  5
1a3
100
AcDbEntity
  8
MAT_BALISE_Drawing
 62
7
100
AcDbSpline
 70
0
 71
3
 72
10
 73
6
 74
4
 40
0.000000
 40
0.000000
 40
0.000000
 40
0.000000
 40
1.725206
 40
3.420972
 40
5.146179
 40
5.146179
 40
5.146179
 40
5.146179
 10
405.522909
 20
149.882842
 30
0.0
 10
405.227587
 20
150.382165
 30
0.0
 10
404.641982
 20
151.372289
 30
0.0
 10
403.134383
 20
152.350520
 30
0.0
 10
401.991573
 20
152.481908
 30
0.0
 10
401.415250
 20
152.548167
 30
0.0
 11
405.522909
 21
149.882842
 31
0.0
 11
404.530995
 21
151.294382
 31
0.0
 11
403.108455
 21
152.217422
 31
0.0
 11
401.415250
 21
152.548167
 31
0.0
  0
LWPOLYLINE
  5
1a4
100
AcDbEntity
  8
MAT_BALISE_Drawing
 62
7
100
AcDbPolyline
 90
20
 70
0
 10
405.511000
 20
149.881167
 30
0.0
 10
406.294167
 20
148.039667
 30
0.0
 10
406.971500
 20
146.177000
 30
0.0
 10
407.585333
 20
144.272000
 30
0.0
 10
408.093333
 20
142.367000
 30
0.0
 10
408.537833
 20
140.419667
 30
0.0
 10
408.897667
 20
138.472333
 30
0.0
 10
409.151667
 20
136.482667
 30
0.0
 10
409.321000
 20
134.514167
 30
0.0
 10
409.405667
 20
132.524500
 30
0.0
 10
409.405667
 20
130.534833
 30
0.0
 10
409.321000
 20
128.545167
 30
0.0
 10
409.151667
 20
126.576667
 30
0.0
 10
408.897667
 20
124.587000
 30
0.0
 10
408.537833
 20
122.639667
 30
0.0
 10
408.093333
 20
120.692333
 30
0.0
 10
407.585333
 20
118.787333
 30
0.0
 10
406.971500
 20
116.882333
 30
0.0
 10
406.294167
 20
115.019667
 30
0.0
 10
405.511000
 20
113.178167
 30
0.0
  0
LWPOLYLINE
  5
1a5
100
AcDbEntity
  8
MAT_BALISE_Drawing
 62
3
100
AcDbPolyline
 90
2
 70
0
 10
339.407500
 20
152.548167
 30
0.0
 10
339.407500
 20
135.106833
 30
0.0
  0
LWPOLYLINE
  5
1a6
100
AcDbEntity
  8
MAT_BALISE_Drawing
 62
3
100
AcDbPolyline
 90
2
 70
0
 10
339.407500
 20
132.715000
 30
0.0
 10
339.407500
 20
130.344333
 30
0.0
  0
LWPOLYLINE
  5
1a7
100
AcDbEntity
  8
MAT_BALISE_Drawing
 62
3
100
AcDbPolyline
 90
2
 70
0
 10
339.407500
 20
127.952500
 30
0.0
 10
339.407500
 20
110.511167
 30
0.0
  0
LWPOLYLINE
  5
1a8
100
AcDbEntity
  8
MAT_BALISE_Drawing
 62
3
100
AcDbPolyline
 90
2
 70
0
 10
389.424333
 20
110.511167
 30
0.0
 10
389.424333
 20
127.952500
 30
0.0
  0
LWPOLYLINE
  5
1a9
100
AcDbEntity
  8
MAT_BALISE_Drawing
 62
3
100
AcDbPolyline
 90
2
 70
0
 10
389.424333
 20
130.344333
 30
0.0
 10
389.424333
 20
132.715000
 30
0.0
  0
LWPOLYLINE
  5
1aa
100
AcDbEntity
  8
MAT_BALISE_Drawing
 62
3
100
AcDbPolyline
 90
2
 70
0
 10
389.424333
 20
135.106833
 30
0.0
 10
389.424333
 20
152.548167
 30
0.0
  0
LWPOLYLINE
  5
1ab
100
AcDbEntity
  8
MAT_BALISE_Drawing
 62
3
100
AcDbPolyline
 90
2
 70
0
 10
389.868833
 20
152.548167
 30
0.0
 10
389.868833
 20
110.511167
 30
0.0
  0
LWPOLYLINE
  5
1ac
100
AcDbEntity
  8
MAT_BALISE_Drawing
 62
3
100
AcDbPolyline
 90
2
 70
0
 10
338.963000
 20
110.511167
 30
0.0
 10
338.963000
 20
152.548167
 30
0.0
  0
LWPOLYLINE
  5
1ad
100
AcDbEntity
  8
MAT_BALISE_Drawing
 62
3
100
AcDbPolyline
 90
2
 70
0
 10
388.958667
 20
152.548167
 30
0.0
 10
388.958667
 20
110.511167
 30
0.0
  0
LWPOLYLINE
  5
1ae
100
AcDbEntity
  8
MAT_BALISE_Drawing
 62
3
100
AcDbPolyline
 90
2
 70
0
 10
339.873167
 20
110.511167
 30
0.0
 10
339.873167
 20
152.548167
 30
0.0
  0
LWPOLYLINE
  5
1af
100
AcDbEntity
  8
MAT_BALISE_Drawing
 62
7
100
AcDbPolyline
 90
3
 70
0
 10
286.317160
 20
230.892725
 30
0.0
 10
301.345493
 20
230.892725
 30
0.0
 10
305.345993
 20
226.892225
 30
0.0
  0
LWPOLYLINE
  5
1b0
100
AcDbEntity
  8
MAT_BALISE_Drawing
 62
7
100
AcDbPolyline
 90
3
 70
0
 10
305.345993
 20
219.378058
 30
0.0
 10
305.345993
 20
215.864391
 30
0.0
 10
301.345493
 20
211.863891
 30
0.0
  0
LWPOLYLINE
  5
1b1
100
AcDbEntity
  8
MAT_BALISE_Drawing
 62
7
100
AcDbPolyline
 90
3
 70
0
 10
305.345993
 20
226.892225
 30
0.0
 10
305.345993
 20
223.378558
 30
0.0
 10
304.837993
 20
222.870558
 30
0.0
  0
LWPOLYLINE
  5
1b2
100
AcDbEntity
  8
MAT_BALISE_Drawing
 62
7
100
AcDbPolyline
 90
3
 70
0
 10
295.334160
 20
219.886058
 30
0.0
 10
304.837993
 20
219.886058
 30
0.0
 10
305.345993
 20
219.378058
 30
0.0
  0
SPLINE
  5
1b3
100
AcDbEntity
  8
MAT_BALISE_Drawing
 62
7
100
AcDbSpline
 70
0
 71
3
 72
10
 73
6
 74
4
 40
0.000000
 40
0.000000
 40
0.000000
 40
0.000000
 40
1.725212
 40
3.420983
 40
5.146195
 40
5.146195
 40
5.146195
 40
5.146195
 10
327.437737
 20
152.548181
 30
0.0
 10
326.861412
 20
152.481920
 30
0.0
 10
325.718599
 20
152.350529
 30
0.0
 10
324.210998
 20
151.372290
 30
0.0
 10
323.625394
 20
150.382161
 30
0.0
 10
323.330073
 20
149.882836
 30
0.0
 11
327.437737
 21
152.548181
 31
0.0
 11
325.744527
 21
152.217430
 31
0.0
 11
324.321985
 21
151.294384
 31
0.0
 11
323.330073
 21
149.882836
 31
0.0
  0
SPLINE
  5
1b4
100
AcDbEntity
  8
MAT_BALISE_Drawing
 62
7
100
AcDbSpline
 70
0
 71
3
 72
19
 73
15
 74
13
 40
0.000000
 40
0.000000
 40
0.000000
 40
0.000000
 40
0.813438
 40
1.602750
 40
2.416188
 40
3.229626
 40
4.018938
 40
4.832376
 40
5.645814
 40
6.435126
 40
7.248564
 40
8.062002
 40
8.851314
 40
9.664752
 40
9.664752
 40
9.664752
 40
9.664752
 10
288.793660
 20
226.352475
 30
0.0
 10
288.836419
 20
226.078222
 30
0.0
 10
288.920670
 20
225.537850
 30
0.0
 10
289.540040
 20
224.942944
 30
0.0
 10
290.347982
 20
224.722514
 30
0.0
 10
291.164406
 20
224.942944
 30
0.0
 10
291.758832
 20
225.537850
 30
0.0
 10
291.979425
 20
226.352475
 30
0.0
 10
291.758832
 20
227.167100
 30
0.0
 10
291.164406
 20
227.762005
 30
0.0
 10
290.347982
 20
227.982435
 30
0.0
 10
289.540040
 20
227.762005
 30
0.0
 10
288.920670
 20
227.167100
 30
0.0
 10
288.836419
 20
226.626728
 30
0.0
 10
288.793660
 20
226.352475
 30
0.0
 11
288.793660
 21
226.352475
 31
0.0
 11
289.006065
 21
225.567258
 31
0.0
 11
289.564193
 21
225.009130
 31
0.0
 11
290.349410
 21
224.796725
 31
0.0
 11
291.134626
 21
225.009130
 31
0.0
 11
291.692754
 21
225.567258
 31
0.0
 11
291.905160
 21
226.352475
 31
0.0
 11
291.692754
 21
227.137691
 31
0.0
 11
291.134626
 21
227.695819
 31
0.0
 11
290.349410
 21
227.908225
 31
0.0
 11
289.564193
 21
227.695819
 31
0.0
 11
289.006065
 21
227.137691
 31
0.0
 11
288.793660
 21
226.352475
 31
0.0
  0
LWPOLYLINE
  5
1b5
100
AcDbEntity
  8
MAT_BALISE_Drawing
 62
7
100
AcDbPolyline
 90
4
 70
0
 10
286.317160
 20
211.863891
 30
0.0
 10
285.322326
 20
212.858725
 30
0.0
 10
285.322326
 20
229.897891
 30
0.0
 10
286.317160
 20
230.892725
 30
0.0
  0
LWPOLYLINE
  5
1b6
100
AcDbEntity
  8
MAT_BALISE_Drawing
 62
7
100
AcDbPolyline
 90
2
 70
0
 10
286.317160
 20
211.863891
 30
0.0
 10
301.345493
 20
211.863891
 30
0.0
  0
SPLINE
  5
1b7
100
AcDbEntity
  8
MAT_BALISE_Drawing
 62
7
100
AcDbSpline
 70
0
 71
3
 72
19
 73
15
 74
13
 40
0.000000
 40
0.000000
 40
0.000000
 40
0.000000
 40
0.813438
 40
1.602750
 40
2.416188
 40
3.229626
 40
4.018938
 40
4.832376
 40
5.645814
 40
6.435126
 40
7.248564
 40
8.062002
 40
8.851314
 40
9.664752
 40
9.664752
 40
9.664752
 40
9.664752
 10
288.793660
 20
216.425308
 30
0.0
 10
288.836419
 20
216.151055
 30
0.0
 10
288.920670
 20
215.610683
 30
0.0
 10
289.540040
 20
215.015778
 30
0.0
 10
290.347982
 20
214.795348
 30
0.0
 10
291.164406
 20
215.015778
 30
0.0
 10
291.758832
 20
215.610683
 30
0.0
 10
291.979425
 20
216.425308
 30
0.0
 10
291.758832
 20
217.239933
 30
0.0
 10
291.164406
 20
217.834838
 30
0.0
 10
290.347982
 20
218.055268
 30
0.0
 10
289.540040
 20
217.834838
 30
0.0
 10
288.920670
 20
217.239933
 30
0.0
 10
288.836419
 20
216.699561
 30
0.0
 10
288.793660
 20
216.425308
 30
0.0
 11
288.793660
 21
216.425308
 31
0.0
 11
289.006065
 21
215.640091
 31
0.0
 11
289.564193
 21
215.081963
 31
0.0
 11
290.349410
 21
214.869558
 31
0.0
 11
291.134626
 21
215.081963
 31
0.0
 11
291.692754
 21
215.640091
 31
0.0
 11
291.905160
 21
216.425308
 31
0.0
 11
291.692754
 21
217.210525
 31
0.0
 11
291.134626
 21
217.768653
 31
0.0
 11
290.349410
 21
217.981058
 31
0.0
 11
289.564193
 21
217.768653
 31
0.0
 11
289.006065
 21
217.210525
 31
0.0
 11
288.793660
 21
216.425308
 31
0.0
  0
SPLINE
  5
1b8
100
AcDbEntity
  8
MAT_BALISE_Drawing
 62
7
100
AcDbSpline
 70
0
 71
3
 72
19
 73
15
 74
13
 40
0.000000
 40
0.000000
 40
0.000000
 40
0.000000
 40
0.835573
 40
1.646364
 40
2.481932
 40
3.317500
 40
4.128292
 40
4.963865
 40
5.799438
 40
6.610229
 40
7.445797
 40
8.281365
 40
9.092156
 40
9.927729
 40
9.927729
 40
9.927729
 40
9.927729
 10
152.631881
 20
12.367174
 30
0.0
 10
152.587957
 20
12.085458
 30
0.0
 10
152.501412
 20
11.530382
 30
0.0
 10
151.865187
 20
10.919292
 30
0.0
 10
151.035264
 20
10.692860
 30
0.0
 10
150.196628
 20
10.919292
 30
0.0
 10
149.586027
 20
11.530382
 30
0.0
 10
149.359427
 20
12.367174
 30
0.0
 10
149.586027
 20
13.203967
 30
0.0
 10
150.196628
 20
13.815057
 30
0.0
 10
151.035264
 20
14.041488
 30
0.0
 10
151.865187
 20
13.815057
 30
0.0
 10
152.501412
 20
13.203967
 30
0.0
 10
152.587957
 20
12.648890
 30
0.0
 10
152.631881
 20
12.367174
 30
0.0
 11
152.631881
 21
12.367174
 31
0.0
 11
152.413693
 21
11.560591
 31
0.0
 11
151.840376
 21
10.987276
 31
0.0
 11
151.033798
 21
10.769091
 31
0.0
 11
150.227219
 21
10.987276
 31
0.0
 11
149.653902
 21
11.560591
 31
0.0
 11
149.435714
 21
12.367174
 31
0.0
 11
149.653902
 21
13.173758
 31
0.0
 11
150.227219
 21
13.747072
 31
0.0
 11
151.033798
 21
13.965258
 31
0.0
 11
151.840376
 21
13.747072
 31
0.0
 11
152.413693
 21
13.173758
 31
0.0
 11
152.631881
 21
12.367174
 31
0.0
  0
LWPOLYLINE
  5
1b9
100
AcDbEntity
  8
MAT_BALISE_Drawing
 62
7
100
AcDbPolyline
 90
3
 70
0
 10
295.334160
 20
219.886058
 30
0.0
 10
295.334160
 20
222.870558
 30
0.0
 10
304.837993
 20
222.870558
 30
0.0
  0
SPLINE
  5
1ba
100
AcDbEntity
  8
MAT_BALISE_Drawing
 62
7
100
AcDbSpline
 70
0
 71
3
 72
19
 73
15
 74
13
 40
0.000000
 40
0.000000
 40
0.000000
 40
0.000000
 40
0.835573
 40
1.646364
 40
2.481932
 40
3.317500
 40
4.128292
 40
4.963865
 40
5.799438
 40
6.610229
 40
7.445797
 40
8.281365
 40
9.092156
 40
9.927729
 40
9.927729
 40
9.927729
 40
9.927729
 10
152.631881
 20
59.378341
 30
0.0
 10
152.587957
 20
59.096625
 30
0.0
 10
152.501412
 20
58.541549
 30
0.0
 10
151.865187
 20
57.930458
 30
0.0
 10
151.035264
 20
57.704027
 30
0.0
 10
150.196628
 20
57.930458
 30
0.0
 10
149.586027
 20
58.541549
 30
0.0
 10
149.359427
 20
59.378341
 30
0.0
 10
149.586027
 20
60.215133
 30
0.0
 10
150.196628
 20
60.826224
 30
0.0
 10
151.035264
 20
61.052655
 30
0.0
 10
151.865187
 20
60.826224
 30
0.0
 10
152.501412
 20
60.215133
 30
0.0
 10
152.587957
 20
59.660057
 30
0.0
 10
152.631881
 20
59.378341
 30
0.0
 11
152.631881
 21
59.378341
 31
0.0
 11
152.413693
 21
58.571758
 31
0.0
 11
151.840376
 21
57.998443
 31
0.0
 11
151.033798
 21
57.780258
 31
0.0
 11
150.227219
 21
57.998443
 31
0.0
 11
149.653902
 21
58.571758
 31
0.0
 11
149.435714
 21
59.378341
 31
0.0
 11
149.653902
 21
60.184924
 31
0.0
 11
150.227219
 21
60.758239
 31
0.0
 11
151.033798
 21
60.976424
 31
0.0
 11
151.840376
 21
60.758239
 31
0.0
 11
152.413693
 21
60.184924
 31
0.0
 11
152.631881
 21
59.378341
 31
0.0
  0
SPLINE
  5
1bb
100
AcDbEntity
  8
MAT_BALISE_Drawing
 62
7
100
AcDbSpline
 70
0
 71
3
 72
19
 73
15
 74
13
 40
0.000000
 40
0.000000
 40
0.000000
 40
0.000000
 40
0.813438
 40
1.602750
 40
2.416188
 40
3.229627
 40
4.018939
 40
4.832377
 40
5.645815
 40
6.435127
 40
7.248565
 40
8.062004
 40
8.851315
 40
9.664754
 40
9.664754
 40
9.664754
 40
9.664754
 10
120.585548
 20
14.378008
 30
0.0
 10
120.542788
 20
14.103754
 30
0.0
 10
120.458538
 20
13.563383
 30
0.0
 10
119.839167
 20
12.968477
 30
0.0
 10
119.031225
 20
12.748047
 30
0.0
 10
118.214801
 20
12.968477
 30
0.0
 10
117.620375
 20
13.563383
 30
0.0
 10
117.399782
 20
14.378008
 30
0.0
 10
117.620375
 20
15.192633
 30
0.0
 10
118.214801
 20
15.787538
 30
0.0
 10
119.031225
 20
16.007968
 30
0.0
 10
119.839167
 20
15.787538
 30
0.0
 10
120.458538
 20
15.192633
 30
0.0
 10
120.542788
 20
14.652261
 30
0.0
 10
120.585548
 20
14.378008
 30
0.0
 11
120.585548
 21
14.378008
 31
0.0
 11
120.373142
 21
13.592790
 31
0.0
 11
119.815015
 21
13.034663
 31
0.0
 11
119.029798
 21
12.822258
 31
0.0
 11
118.244580
 21
13.034663
 31
0.0
 11
117.686453
 21
13.592790
 31
0.0
 11
117.474048
 21
14.378008
 31
0.0
 11
117.686453
 21
15.163225
 31
0.0
 11
118.244580
 21
15.721352
 31
0.0
 11
119.029798
 21
15.933758
 31
0.0
 11
119.815015
 21
15.721352
 31
0.0
 11
120.373142
 21
15.163225
 31
0.0
 11
120.585548
 21
14.378008
 31
0.0
  0
LWPOLYLINE
  5
1bc
100
AcDbEntity
  8
MAT_BALISE_Drawing
 62
7
100
AcDbPolyline
 90
6
 70
0
 10
72.050381
 20
63.876258
 30
0.0
 10
23.748048
 20
63.876258
 30
0.0
 10
22.245214
 20
62.373424
 30
0.0
 10
22.245214
 20
5.858424
 30
0.0
 10
23.748048
 20
4.355591
 30
0.0
 10
167.046381
 20
4.355591
 30
0.0
  0
SPLINE
  5
1bd
100
AcDbEntity
  8
MAT_BALISE_Drawing
 62
7
100
AcDbSpline
 70
0
 71
3
 72
19
 73
15
 74
13
 40
0.000000
 40
0.000000
 40
0.000000
 40
0.000000
 40
0.813439
 40
1.602750
 40
2.416189
 40
3.229627
 40
4.018939
 40
4.832377
 40
5.645816
 40
6.435127
 40
7.248566
 40
8.062004
 40
8.851316
 40
9.664754
 40
9.664754
 40
9.664754
 40
9.664754
 10
120.585548
 20
57.388674
 30
0.0
 10
120.542788
 20
57.114421
 30
0.0
 10
120.458538
 20
56.574049
 30
0.0
 10
119.839167
 20
55.979143
 30
0.0
 10
119.031225
 20
55.758714
 30
0.0
 10
118.214801
 20
55.979143
 30
0.0
 10
117.620375
 20
56.574049
 30
0.0
 10
117.399782
 20
57.388674
 30
0.0
 10
117.620375
 20
58.203300
 30
0.0
 10
118.214801
 20
58.798205
 30
0.0
 10
119.031225
 20
59.018634
 30
0.0
 10
119.839167
 20
58.798205
 30
0.0
 10
120.458538
 20
58.203300
 30
0.0
 10
120.542788
 20
57.662928
 30
0.0
 10
120.585548
 20
57.388674
 30
0.0
 11
120.585548
 21
57.388674
 31
0.0
 11
120.373142
 21
56.603457
 31
0.0
 11
119.815015
 21
56.045329
 31
0.0
 11
119.029798
 21
55.832924
 31
0.0
 11
118.244580
 21
56.045329
 31
0.0
 11
117.686453
 21
56.603457
 31
0.0
 11
117.474048
 21
57.388674
 31
0.0
 11
117.686453
 21
58.173892
 31
0.0
 11
118.244580
 21
58.732019
 31
0.0
 11
119.029798
 21
58.944424
 31
0.0
 11
119.815015
 21
58.732019
 31
0.0
 11
120.373142
 21
58.173892
 31
0.0
 11
120.585548
 21
57.388674
 31
0.0
  0
LWPOLYLINE
  5
1be
100
AcDbEntity
  8
MAT_BALISE_Drawing
 62
7
100
AcDbPolyline
 90
9
 70
0
 10
72.050381
 20
63.876258
 30
0.0
 10
72.050381
 20
67.368758
 30
0.0
 10
78.548548
 20
67.368758
 30
0.0
 10
79.035381
 20
66.881924
 30
0.0
 10
79.035381
 20
64.384258
 30
0.0
 10
91.036881
 20
64.384258
 30
0.0
 10
91.036881
 20
66.881924
 30
0.0
 10
91.544881
 20
67.368758
 30
0.0
 10
103.101881
 20
67.368758
 30
0.0
  0
SPLINE
  5
1bf
100
AcDbEntity
  8
MAT_BALISE_Drawing
 62
7
100
AcDbSpline
 70
0
 71
3
 72
10
 73
6
 74
4
 40
0.000000
 40
0.000000
 40
0.000000
 40
0.000000
 40
4.862614
 40
9.598004
 40
14.460619
 40
14.460619
 40
14.460619
 40
14.460619
 10
113.031397
 20
76.286911
 30
0.0
 10
112.615649
 20
74.695185
 30
0.0
 10
111.795032
 20
71.553377
 30
0.0
 10
107.932403
 20
68.096084
 30
0.0
 10
104.719197
 20
67.627382
 30
0.0
 10
103.091297
 20
67.389924
 30
0.0
 11
113.031397
 21
76.286911
 31
0.0
 11
111.336740
 21
71.729154
 31
0.0
 11
107.808301
 21
68.570985
 31
0.0
 11
103.091297
 21
67.389924
 31
0.0
  0
LWPOLYLINE
  5
1c0
100
AcDbEntity
  8
MAT_BALISE_Drawing
 62
7
100
AcDbPolyline
 90
4
 70
0
 10
113.029048
 20
76.279924
 30
0.0
 10
114.045048
 20
85.381591
 30
0.0
 10
124.056881
 20
85.381591
 30
0.0
 10
125.051714
 20
76.279924
 30
0.0
  0
LWPOLYLINE
  5
1c1
100
AcDbEntity
  8
MAT_BALISE_Drawing
 62
7
100
AcDbPolyline
 90
11
 70
0
 10
135.000048
 20
67.368758
 30
0.0
 10
146.557048
 20
67.368758
 30
0.0
 10
147.043881
 20
66.881924
 30
0.0
 10
147.043881
 20
64.384258
 30
0.0
 10
159.045381
 20
64.384258
 30
0.0
 10
159.045381
 20
66.881924
 30
0.0
 10
159.553381
 20
67.368758
 30
0.0
 10
167.046381
 20
67.368758
 30
0.0
 10
169.057214
 20
65.379091
 30
0.0
 10
169.057214
 20
6.366424
 30
0.0
 10
167.046381
 20
4.355591
 30
0.0
  0
LWPOLYLINE
  5
1c2
100
AcDbEntity
  8
MAT_BALISE_Drawing
 62
3
100
AcDbPolyline
 90
2
 70
0
 10
68.642548
 20
4.355591
 30
0.0
 10
68.642548
 20
19.828424
 30
0.0
  0
LWPOLYLINE
  5
1c3
100
AcDbEntity
  8
MAT_BALISE_Drawing
 62
3
100
AcDbPolyline
 90
2
 70
0
 10
68.642548
 20
22.199091
 30
0.0
 10
68.642548
 20
24.590924
 30
0.0
  0
LWPOLYLINE
  5
1c4
100
AcDbEntity
  8
MAT_BALISE_Drawing
 62
3
100
AcDbPolyline
 90
2
 70
0
 10
68.642548
 20
26.961591
 30
0.0
 10
68.642548
 20
41.270258
 30
0.0
  0
LWPOLYLINE
  5
1c5
100
AcDbEntity
  8
MAT_BALISE_Drawing
 62
3
100
AcDbPolyline
 90
2
 70
0
 10
68.642548
 20
43.640924
 30
0.0
 10
68.642548
 20
46.032758
 30
0.0
  0
LWPOLYLINE
  5
1c6
100
AcDbEntity
  8
MAT_BALISE_Drawing
 62
3
100
AcDbPolyline
 90
2
 70
0
 10
68.642548
 20
48.403424
 30
0.0
 10
68.642548
 20
63.876258
 30
0.0
  0
LWPOLYLINE
  5
1c7
100
AcDbEntity
  8
MAT_BALISE_Drawing
 62
3
100
AcDbPolyline
 90
2
 70
0
 10
65.255881
 20
63.876258
 30
0.0
 10
65.255881
 20
4.355591
 30
0.0
  0
SPLINE
  5
1c8
100
AcDbEntity
  8
MAT_BALISE_Drawing
 62
7
100
AcDbSpline
 70
0
 71
3
 72
10
 73
6
 74
4
 40
0.000000
 40
0.000000
 40
0.000000
 40
0.000000
 40
4.862615
 40
9.598004
 40
14.460619
 40
14.460619
 40
14.460619
 40
14.460619
 10
134.989464
 20
67.389924
 30
0.0
 10
133.361565
 20
67.627382
 30
0.0
 10
130.148358
 20
68.096084
 30
0.0
 10
126.285730
 20
71.553377
 30
0.0
 10
125.465112
 20
74.695185
 30
0.0
 10
125.049365
 20
76.286911
 30
0.0
 11
134.989464
 21
67.389924
 31
0.0
 11
130.272461
 21
68.570985
 31
0.0
 11
126.744022
 21
71.729154
 31
0.0
 11
125.049365
 21
76.286911
 31
0.0
  0
LWPOLYLINE
  5
1c9
100
AcDbEntity
  8
MAT_BALISE_Drawing
 62
3
100
AcDbPolyline
 90
2
 70
0
 10
72.050381
 20
4.355591
 30
0.0
 10
72.050381
 20
63.876258
 30
0.0
  0
ENDSEC
  0
SECTION
  2
OBJECTS
  0
DICTIONARY
  5
C
330
0
100
AcDbDictionary
  3
ACAD_GROUP
350
D
  3
ACAD_MLINESTYLE
350
17
  0
DICTIONARY
  5
D
330
C
100
AcDbDictionary
  0
DICTIONARY
  5
1A
330
C
100
AcDbDictionary
  0
DICTIONARY
  5
17
330
C
100
AcDbDictionary
  3
STANDARD
350
18
  0
DICTIONARY
  5
19
330
C
100
AcDbDictionary
  0
ENDSEC
  0
EOF
